<svg xmlns="http://www.w3.org/2000/svg" xmlns:xlink="http://www.w3.org/1999/xlink" viewBox="0 0 2700 2100"><defs><filter id="a" width="536.4" height="32766" x="1133.94" y="-9242" color-interpolation-filters="sRGB" filterUnits="userSpaceOnUse"><feFlood flood-color="#fff" result="bg"/><feBlend in="SourceGraphic" in2="bg"/></filter><filter id="b" width="492.44" height="32766" x="479.18" y="-9242" color-interpolation-filters="sRGB" filterUnits="userSpaceOnUse"><feFlood flood-color="#fff" result="bg"/><feBlend in="SourceGraphic" in2="bg"/></filter><filter id="d" width="486.24" height="32766" x="487.22" y="-9242" color-interpolation-filters="sRGB" filterUnits="userSpaceOnUse"><feFlood flood-color="#fff" result="bg"/><feBlend in="SourceGraphic" in2="bg"/></filter><filter id="f" width="536.4" height="79.51" x="1133.94" y="949.93" color-interpolation-filters="sRGB" filterUnits="userSpaceOnUse"><feFlood flood-color="#fff" result="bg"/><feBlend in="SourceGraphic" in2="bg"/></filter><filter id="h" width="492.44" height="140.84" x="479.18" y="948.1" color-interpolation-filters="sRGB" filterUnits="userSpaceOnUse"><feFlood flood-color="#fff" result="bg"/><feBlend in="SourceGraphic" in2="bg"/></filter><filter id="k" width="486.24" height="155.83" x="487.22" y="1274.78" color-interpolation-filters="sRGB" filterUnits="userSpaceOnUse"><feFlood flood-color="#fff" result="bg"/><feBlend in="SourceGraphic" in2="bg"/></filter><linearGradient id="c" x1="1704.05" x2="914.76" y1="1048.24" y2="888.09" gradientTransform="rotate(-.78 1480.143 1193.49)" gradientUnits="userSpaceOnUse"><stop offset="0" stop-color="#fff"/><stop offset="1"/></linearGradient><linearGradient id="i" x1="1010.17" x2="255.23" y1="1062.49" y2="909.31" xlink:href="#c"/><linearGradient id="l" x1="1005.41" x2="247.12" y1="1439.78" y2="1285.92" gradientTransform="rotate(4.7 1061.905 1478.294)" xlink:href="#c"/><mask id="n" width="536.4" height="79.51" x="1133.94" y="949.93" maskUnits="userSpaceOnUse"><g filter="url(#f)" mask="url(#e)"><polygon points="1670.34 949.93 1144.51 951.71 1133.94 1027.27 1667.73 1029.44 1670.34 949.93" style="mix-blend-mode:multiply" fill="url(#c)"/></g></mask><mask id="o" width="492.44" height="140.84" x="479.18" y="948.1" maskUnits="userSpaceOnUse"><g filter="url(#h)" mask="url(#g)"><path d="M971.62,1009.22C822.07,1013,627.35,1013,484.91,948.1l-5.73,10C593.09,1058.08,787,1091.92,969,1088.73Z" style="mix-blend-mode:multiply" fill="url(#i)"/></g></mask><mask id="p" width="486.24" height="155.83" x="487.22" y="1274.78" maskUnits="userSpaceOnUse"><g filter="url(#k)" mask="url(#j)"><path d="M973.46,1382.66c-149.23-10.51-344-29.68-479.59-107.88l-6.65,9.4c93.63,93,304.76,132.23,486.24,146.43Z" style="mix-blend-mode:multiply" fill="url(#l)"/></g></mask><clipPath id="m"><polygon fill="none" points="295.08 220.66 292.2 1666.3 801.17 1666.27 806.04 224.85 295.08 220.66"/></clipPath><clipPath id="q"><circle cx="864.76" cy="510.57" r="236.22" fill="none"/></clipPath></defs><g style="isolation:isolate"><path fill="#1b6e99" d="M246.61,1723.3s-93.49,12-73.38,31.63S555,1767.22,555,1767.22L1432.31,1886,833.13,1709.05Z"/><path fill="#5ebaff" d="M189.49,224.56c-.71-96.72,182.78-110.91,180.62-60l329.4,1.14c38.12.54,68.9,35,68.77,77l-4.35,1402.78c-.12,41.1-30.75,74.41-68.43,74.42l-348.92,1.75c-3.35,6.86-9.65,13.07-19.6,18.21-97.64-.78-142-39.23-142.39-88.74C180.94,1642,185.56,242.75,189.49,224.56Z"/><path fill="#0d0d0d" d="M227.13,800.18h0A14.43,14.43,0,0,0,242,786l3.12-366.25a15.09,15.09,0,0,0-14.69-15.1h0A14.57,14.57,0,0,0,215.46,419L212.54,785.3A15,15,0,0,0,227.13,800.18Z"/><path fill="#fff" d="M332.8,1740.13l429.33-.48c39,.07,70.74-34.12,70.9-76.37l5.21-1442.76c.16-43.21-31.7-78.62-71.18-79.07l-430.57-5.6c-39.81-.45-72.15,34.39-72.22,77.8l-2.55,1449.51C261.64,1705.62,293.48,1740.07,332.8,1740.13Z"/><path fill="#0d0d0d" d="M324.12,1729.89a59.5,59.5,0,0,0,7.91.55l429.21-1.17c33.53,0,61.09-30,61.22-66.84l5.1-1441.18c.13-37.71-27.54-68.76-61.46-69.19l-430.45-6.29c-1,0-2,0-3,0a59,59,0,0,0-41.8,20c-11.29,12.58-17.51,29.3-17.55,47.12l-2.64,1451C270.63,1697.35,293.52,1725.68,324.12,1729.89Z"/><polygon fill="#fff" points="295.53 220.66 292.65 1666.3 801.62 1666.27 806.49 224.85 295.53 220.66"/><g clip-path="url(#m)"><rect width="620.85" height="1356.77" x="203.8" y="358.36" fill="#e6e6e6"/><polygon fill="#04f2f5" points="900.33 1545.1 -106.64 1239.64 -66.76 1206.48 879.37 1452.51 900.33 1545.1"/><rect width="21.59" height="1192.91" x="443.04" y="821.24" fill="#fff" transform="rotate(-73.84 453.903 1417.75)"/><path fill="#ffd84f" d="M432.76,896.08a268.62,268.62,0,0,0-54.19,0c-83.57,8.37-155.33,56.43-166.08,119.54C200.67,1085,265.64,1148,363.93,1160a267.86,267.86,0,0,0,32.64,2,273.06,273.06,0,0,0,32.84-2c99.11-12,168.37-75,161.28-144.41C584.24,952.51,515.76,904.45,432.76,896.08ZM430,1113.37a189.44,189.44,0,0,1-31.86,2.67,185.63,185.63,0,0,1-31.62-2.67c-62.72-10.72-104.65-51.68-98.64-97.75,5.63-43.21,52.09-77.34,108.81-85.69a189.53,189.53,0,0,1,27.87-2,187.15,187.15,0,0,1,27.77,2c56.15,8.38,100.29,42.48,103,85.69C538.18,1061.69,493.45,1102.61,430,1113.37Z"/><path fill="#ffd84f" d="M434.9,728.31l-2.57,201.62a187.15,187.15,0,0,0-27.77-2,189.53,189.53,0,0,0-27.87,2l11.18-201.62Z"/><path fill="#ffd84f" d="M941.65,1036.7H548.91a66.29,66.29,0,0,0,1.82-21.1A67.86,67.86,0,0,0,546,995.15H927.11Z"/><path fill="#ffd84f" d="M397,1149.55a172.32,172.32,0,0,0,32.58-3.09l-5.88,520.21H339l25.65-520.21A168.31,168.31,0,0,0,397,1149.55Z"/><polygon fill="#fff" points="175.66 861.27 78.14 861.27 92.57 813.26 194.7 813.26 175.66 861.27"/><polygon fill="#fff" points="295.24 861.27 197.72 861.27 217.8 813.26 319.94 813.26 295.24 861.27"/><polygon fill="#fff" points="364.54 813.26 339 813.26 313.45 861.27 361.12 861.27 364.54 813.26"/><polygon fill="#fff" points="155.57 916.01 63.3 916.01 76.25 873.14 172.64 873.14 155.57 916.01"/><path fill="#fff" d="M269.13,914.41l.52-.23,21.17-41H194.44l-18,42.87h89.45C267,915.48,268,914.93,269.13,914.41Z"/><path fill="#fff" d="M329,895.35c9.88-1.69,19.87-1.93,29.84-2l1.37-19.23H306.62l-16.91,31.77A226.64,226.64,0,0,1,329,895.35Z"/><polygon fill="#fff" points="136.95 962.75 49.17 962.75 60.87 924.04 152.37 924.04 136.95 962.75"/><path fill="#fff" d="M251.18,924H173.07l-16.26,38.71h52.47C218.71,948,233.36,934.83,251.18,924Z"/><path fill="#03e484" d="M511,1015.62c1.95,43.64-48.2,81.08-112.13,81.08s-111.53-37.44-106.6-81.08c4.63-41.06,54.6-72.61,111.84-72.61S509.12,974.56,511,1015.62Z"/><path fill="#04f2f5" d="M405.62,949s94.85,11.14,82.9,59.9c-12.86,52.47-65.52,52.47-57.43,18.65,7.72-32.26-20.4-39.28-35.26-54C381.28,959,380.88,949.54,405.62,949Z"/><path fill="#03e484" d="M451.21,799.21l.16,83.24s129.55,25.18,149.76,102.47h276L806.49,800.71Z"/><polygon fill="#fff" points="751.01 1131.72 629.72 1131.72 614.13 1058.57 724.01 1058.57 751.01 1131.72"/><polygon fill="#fff" points="901.69 1131.72 780.41 1131.72 750.65 1058.57 860.54 1058.57 901.69 1131.72"/><polygon fill="#fff" points="792.72 1244.74 653.82 1244.74 633.64 1150.1 757.79 1150.1 792.72 1244.74"/><polygon fill="#fff" points="965.29 1244.74 826.39 1244.74 787.89 1150.1 912.04 1150.1 965.29 1244.74"/><polygon fill="#fff" points="843.33 1401.35 802.32 1270.74 659.37 1270.74 672.43 1359.45 843.33 1401.35"/><path fill="#fff" d="M546.61,1150.1c-18,17.46-39.85,33.5-65.65,42.86l1.84,51.78H620.92l-16.69-94.64Z"/><path fill="#fff" d="M922.83,1347.62q57.42,13.82,116.13,28.06l-59-104.94H837l25.37,62.36Z"/><path fill="#fff" d="M42.76,1055.67c16.86,1.48,33.92,2.61,51.09,3.58.68-5.45,1.37-10.86,1.87-16.21a331.62,331.62,0,0,0,1.57-40.49c-.05-1.55-.16-3.08-.23-4.62H38.78l-17.5,55.66C28.41,1054.32,35.56,1055,42.76,1055.67Z"/><path fill="#fff" d="M27.84,1074.06c-4.21-.41-8.4-.85-12.59-1.29l-15.43,49,80.5,18.94c4-21.37,7.79-42.16,10.87-62.34C69.91,1077.29,48.66,1076.1,27.84,1074.06Z"/><path fill="#fff" d="M120.11,1060.61c24.08,1.15,48.25,2.1,72.33,3.23-9.56-37.48,2.07-65.91,2.07-65.91H122.92l.12,3.2C123.7,1020.3,122.4,1040.14,120.11,1060.61Z"/><path fill="#fff" d="M199.44,1083.87q-41-2-81.71-4.08c-3,21.72-6.78,44.16-10.56,67.29l144.57,34s4.83-9.12,3.93-31C226,1128.36,208.92,1105.23,199.44,1083.87Z"/><path fill="#03e484" d="M-85.72,1292.8c7.43.16,405.25,119.54,405.25,119.54l-11.26,155.25H-173.95Z"/><rect width="615.83" height="584.22" x="207.65" y="220.85" fill="#a6e0ff"/><polygon fill="#fff" points="488.31 1269.04 622.35 1273.45 629.44 1357.24 487.47 1316.64 488.31 1269.04"/><polygon fill="#fff" points="100.22 1164.86 245.75 1199.58 228.11 1265.73 82.58 1221.63 100.22 1164.86"/><polygon fill="#fff" points="74.86 1156.58 52.81 1216.12 5.4 1199.58 25.25 1143.45 74.86 1156.58"/><polygon fill="#fff" points="276.62 1164.86 255.68 1271.25 337.26 1291.09 348.29 1185.25 276.62 1164.86"/></g><path fill="#616161" d="M2528.93,1696.58l.61-6.83S644.46,1553.17,460.61,1368.15c-26.65-26.82,15.87-91.1,78.44-151.69a751,751,0,0,1,82.31-68.83,8.89,8.89,0,0,0,2.44-1.75l1.29-.92a4.73,4.73,0,0,1,0-2.34l-16.6-89.57,132.21-1.15a5.89,5.89,0,0,0,4.89-2.6,6,6,0,0,0,.6-5.52l-23.64-59a5.87,5.87,0,0,0-5.43-3.68L596.59,981a140.88,140.88,0,0,0-24.52-38.77c-17.78-20.27-50.36-46.29-104.66-55.18-12.07-.5-11.57,10.44-1.93,11.65,40.62,6.65,73.38,23.78,97.37,50.92,17.94,20.28,24,38.9,24,39.07a5.85,5.85,0,0,0,5.58,4.11l120.62.11L732,1040.09,599.9,1040c-8.4.21-10.92,5.94-10.75,13.25l8.75,82c-84,47-178.25,108.92-221.31,146.94-58.28,51.47-58,141.71,12.28,208.11,160.25,151.29,420.48,253.22,692.89,321.25,394.3,98.47,568.56,136.7,718.05,152.79C1822.13,1946.19,2528.93,1696.58,2528.93,1696.58Z"/><path fill="gray" d="M2529.6,1689.82S654.9,1559.26,462.07,1367.1c-26.84-26.74,15.47-90.93,77.88-151.45a747.08,747.08,0,0,1,82.16-68.76,9,9,0,0,0,2.44-1.75l1.28-.92a3.61,3.61,0,0,0-.15-1,3.42,3.42,0,0,0,.12-1.39l-17-89.36,132.47-1.27a5.9,5.9,0,0,0,5.46-8.11l-24-58.89a5.88,5.88,0,0,0-5.45-3.67H596.49c-2.9-7.06-10.22-22.27-24.75-38.67-17.91-20.21-50.68-46.15-105.13-55-12.11-.49-11.55,10.42-1.89,11.63,40.74,6.6,73.65,23.66,97.82,50.72,18.07,20.23,24.22,38.8,24.27,39a5.9,5.9,0,0,0,5.62,4.1H713.29l19.18,47.11H600.1c-8.43.22-10.92,5.93-10.71,13.23l9.15,81.85c-84,47-178.1,108.86-221.08,146.84-58.16,51.41-57.5,141.47,13.29,207.66,161.3,150.83,422.55,252.31,695.85,320,395.59,97.91,562.94,127.77,712.81,143.69C1821.7,1934.56,2529.6,1689.82,2529.6,1689.82Z"/><path fill="#fff" d="M615.9,1557.23c68.62,30.47,148.52,58,235.34,82.77,4.68-7.14,35.62-15.37,38.06-18.54-84.19-21.07-184.51-49.93-251.46-76.36Q626.89,1551.21,615.9,1557.23Z"/><path fill="#fff" d="M403.44,1372.15a111.18,111.18,0,0,0-11.58,3.53c3.69,16.58,13.76,35.22,26.16,50.35q2.85,3.35,5.88,6.66l12.58-8.78C423.35,1409.57,410.35,1391.36,403.44,1372.15Z"/><path fill="#fff" d="M504.79,1216.34c10.17-7.89,20.8-15.9,32.14-24.66-1.3-.44-2.62-.86-3.94-1.26-11.14,7.37-22.82,15.22-34.48,23.4C500.59,1214.68,502.69,1215.51,504.79,1216.34Z"/><path fill="#fff" d="M484.71,1229.11c-14.29,10.21-28.4,20.91-41.32,31.89,2.83,1.79,5.81,3.39,8.79,4.9a467.64,467.64,0,0,1,39.21-34.05C489.15,1231,486.93,1230,484.71,1229.11Z"/><path fill="#fff" d="M436.48,1284.36a92.68,92.68,0,0,1-9.85-6.15c-26.48,25.27-39.65,48-37.23,76.43a120.48,120.48,0,0,0,14.11-1C402.92,1322.89,422.49,1299.73,436.48,1284.36Z"/><path fill="#fff" d="M459.58,1466.11c25.51,20.8,56.08,40.53,90.87,59.23q9.45-5,18.87-10.15c-37.46-18.19-70-37.58-96.57-58.24Z"/><path fill="#fff" d="M993,1645.05s-42.19,16.29-51.87,24.55c107.09,26.35,214.05,40.79,328,60.66,10.71-7,66.22-20.08,74.09-25.8C1224.47,1688,993,1645.05,993,1645.05Z"/><polygon fill="#fff" points="2103.73 1780.05 1591.01 1734.68 1509.58 1761.72 1958.93 1831.37 2103.73 1780.05"/><ellipse cx="459.84" cy="879.14" fill="#222" rx="54.51" ry="17.46"/><path fill="#fff" d="M479.44,877.62c0,3.82-9.65,6.91-21.57,6.91s-21.57-3.09-21.57-6.91,9.66-6.91,21.57-6.91S479.44,873.81,479.44,877.62Z"/><path fill="#ff3305" d="M457.86,563.27A112.47,112.47,0,0,0,345.41,675.71c0,62.12,112.45,175.69,112.45,175.69S570.34,737.83,570.34,675.71A112.47,112.47,0,0,0,457.86,563.27Zm0,175.65a63.44,63.44,0,1,1,63.47-63.44A63.44,63.44,0,0,1,457.86,738.92Z"/><path d="M999.91,1695l521.41-11,754.27,52.5-338.11,122.38C1616.53,1820.16,1354.61,1780,999.91,1695Z" style="mix-blend-mode:multiply" fill="#c4c4c4"/><g mask="url(#n)"><polygon points="1670.34 949.93 1144.51 951.71 1133.94 1027.27 1667.73 1029.44 1670.34 949.93" style="mix-blend-mode:screen" fill="url(#c)" opacity=".5"/></g><path fill="#0c3042" d="M1383.44,1608.38c-2.73,59.72,22.94,110.59,57.59,114.14,35,3.57,66.25-42.28,69.6-103,3.39-61.24-23-113.43-58.56-116C1416.8,1500.93,1386.19,1548.11,1383.44,1608.38Z"/><path fill="#0c3042" d="M1371.4,1607.32c-1.73,38.79,14.93,71.82,37.34,74s42.51-27.62,44.51-66.8c2-39.42-14.94-73-37.74-74.79S1373.15,1568.31,1371.4,1607.32Z"/><polygon fill="#0c3042" points="1439.99 1722.31 1373.19 1715.48 1382.98 1498.99 1450.99 1503.99 1439.99 1722.31"/><path fill="#0a2938" d="M1315.31,1602.75c-2.4,59.21,23,109.62,57.07,113.1,34.33,3.52,64.81-42,67.82-102.11,3-60.69-23.07-112.41-58-115C1347.54,1496.21,1317.72,1543,1315.31,1602.75Z"/><path fill="#0c3042" d="M1091,1582.65c-1.34,57.54,23.33,106.45,55.36,109.72,32.31,3.31,60.23-41,62.12-99.39,1.9-58.93-23.39-109.07-56.25-111.48C1119.62,1479.1,1092.32,1524.61,1091,1582.65Z"/><polygon fill="#dedede" points="1973.01 1667.29 1377.53 1614.39 1404.55 1016.8 2031.45 1022.92 1973.01 1667.29"/><polygon fill="#e84743" points="1526.35 1417.05 1454.96 1412.71 1452.34 1464.8 1523.43 1469.62 1526.35 1417.05"/><polygon fill="#86bfdf" points="1448.59 1547.72 1445.37 1611.81 1517.97 1618.18 1521.58 1553.5 1448.59 1547.72"/><polygon fill="#5aa1c8" points="1444.9 1620.98 1517.45 1627.43 1517.97 1618.18 1445.37 1611.81 1444.9 1620.98"/><polygon points="1778.11 1651.91 1514.78 1628.45 1543.73 1108.29 1818.85 1114.19 1778.11 1651.91" style="mix-blend-mode:multiply" fill="#687c87"/><polygon fill="#e34542" points="2025.37 1101.44 1473.34 1090.77 1477.11 1016.19 2032.62 1021.52 2025.37 1101.44"/><polygon fill="#fff" points="1444.24 1620.32 983.89 1579.42 992.58 1012.78 1474.56 1017.48 1444.24 1620.32"/><path fill="#0c3042" d="M2048.2,1666.86c-6.24,64.66,21.68,120,62.67,124.17,41.4,4.23,81-45.14,88.07-110.91,7.18-66.43-21.54-123.32-63.82-126.43C2093.26,1550.62,2054.49,1601.56,2048.2,1666.86Z"/><path fill="#0c3042" d="M2034,1665.61c-4,42,14.13,77.91,40.63,80.49,26.67,2.59,51.94-29.51,56.3-72,4.39-42.73-14.07-79.31-41.11-81.43C2062.91,1590.59,2038,1623.35,2034,1665.61Z"/><polygon fill="#0c3042" points="2109.65 1790.8 2030.65 1782.72 2053.15 1548.26 2133.8 1554.19 2109.65 1790.8"/><path fill="#0a2938" d="M1967.61,1660.17c-5.78,64,21.87,118.83,62.06,122.94,40.59,4.16,79.11-44.79,85.72-109.94,6.69-65.8-21.74-122.12-63.18-125.16C2011.19,1545,1973.45,1595.48,1967.61,1660.17Z"/><path fill="#0c3042" d="M1736.6,1639.45c-4.52,62.35,22.34,115.58,60.29,119.46,38.32,3.92,73.89-43.81,79.16-107.19,5.33-64-22.27-118.69-61.35-121.56C1776,1527.31,1741.17,1576.5,1736.6,1639.45Z"/><path fill="#fff" d="M2290.25,1464.76c-.89-.86-106.19-110.08-107.07-110.92-12.42-28.2-78.38-171.59-89.53-196.95-3.78-10.93-11.05-24.52-20.84-31.38l-128.49-2.84-45.78,538.65,372.8,33.15C2269.22,1683.92,2305.18,1468.63,2290.25,1464.76Z"/><path fill="#bfe8ff" d="M1927.12,1585.65l353.4,28c16.33,1.29,14.3,50.73,2.76,71.63-3.28,5.94-7.33,9.58-11.94,9.17l-350.94-31.21Z"/><path fill="#72bee8" d="M1921.24,1653.55l362,31.75c-3.28,5.94-7.33,9.58-11.94,9.17l-350.94-31.21Z"/><path fill="#ff904a" d="M2223.81,1477l18.61,38.61c1,2,2.51,3.26,4.24,3.38l44.28,3,4.33-38.09c.89-7.82-1-15.19-5-19.18l-.79-.79-59.23-3.64C2224.63,1460,2220.63,1470.4,2223.81,1477Z"/><polygon fill="#fff" points="1621.3 1115.51 1617.39 1179.27 2051.86 1192.44 2058.14 1125.19 1621.3 1115.51"/><path fill="#fff" d="M1923.86,1441.57c-.82-.82-101.45-104.07-102.27-104.87-11.95-27.06-73.29-166.1-84-190.44-3.41-9.71-9.63-21.64-17.77-28.57l-162.38-3.59-29.16,514.3,383.19,34.07C1909.28,1652.34,1937.6,1445.25,1923.86,1441.57Z"/><polygon fill="#ff4e4a" points="1540.57 1418.32 1826.54 1435.49 1851.27 1491.97 1537.59 1470.94 1540.57 1418.32"/><polygon fill="#bfe8ff" points="1927.82 1585.71 1532.08 1554.34 1528.43 1558.88 1524.53 1628.06 1921.09 1663.32 1927.82 1585.71"/><polygon fill="#72bee8" points="1921.93 1653.61 1525.05 1618.8 1524.53 1628.06 1921.09 1663.32 1921.93 1653.61"/><path fill="#0c3042" d="M1677.37,1641.57c3.37-93.87,44.13-135.2,83-131.37,40.91,4,74.78,51.72,64.82,145Z"/><polygon fill="#2184b8" points="1722.98 1181.47 1783.86 1333.67 1613.99 1325.33 1623.06 1178.45 1722.98 1181.47"/><path fill="#ff904a" d="M1984,1445.18l-115.19-7.09c-5.13-.31-8.57,9.69-5.51,16l17.84,37c.94,2,2.37,3.11,3.95,3.22l93.91,6.42Z"/><path fill="#ff904a" d="M1982.33,1445.08l48.15,3c5.35.33,7.1,10.87,2.82,16.86l-24.9,34.81c-1.31,1.83-3,2.8-4.6,2.69l-26.45-1.81Z"/><path fill="#0c3042" d="M1616.53,1363l30.15,1.63a3.66,3.66,0,0,0,4-3.17l.77-11.87a3.55,3.55,0,0,0-3.59-3.58l-30.19-1.56a3.65,3.65,0,0,0-4,3.18l-.73,11.81A3.54,3.54,0,0,0,1616.53,1363Z"/><path fill="#0c3042" d="M1253.89,1343.42l27.4,1.47a3.27,3.27,0,0,0,3.57-3l.43-11.33a3.42,3.42,0,0,0-3.34-3.41l-27.44-1.41a3.26,3.26,0,0,0-3.54,3l-.4,11.28A3.42,3.42,0,0,0,1253.89,1343.42Z"/><polygon fill="#fff" points="2287.79 1462.35 2182.46 1353.35 1818.97 1335.5 1911.98 1439.3 2287.79 1462.35"/><polygon fill="#2184b8" points="2166.81 1353.86 2105.03 1350.5 1866.22 1337.53 1819.64 1335.01 1753.35 1183.1 1942.78 1188.83 2092.18 1193.36 2136.67 1289.06 2166.81 1353.86"/><path fill="#11455e" d="M1656,1632.74c-4.1,61.74,22.49,114.44,59.67,118.24,37.54,3.84,72.11-43.46,76.93-106.22,4.87-63.37-22.44-117.49-60.71-120.3C1694,1521.68,1660.12,1570.4,1656,1632.74Z"/><path fill="#a9cde0" d="M1679.59,1634.81c-2.75,40.28,14.6,74.66,38.87,77s46.78-28.5,49.83-69.21c3.07-41-14.58-75.93-39.31-77.88C1704.41,1562.81,1682.35,1594.29,1679.59,1634.81Z"/><path fill="#0c3042" d="M1704.94,1637.05c-1.2,17.15,6.19,31.78,16.53,32.73s19.8-12.2,21.06-29.43-6.18-32-16.6-32.89S1706.15,1619.85,1704.94,1637.05Z"/><path fill="#f34f30" d="M1849.35,1006.28l-242.51-1.92c.84-14.17,7.88-27,18.63-36.31a62.64,62.64,0,0,1,41-15.09l127.72.16C1826.82,953.17,1851.62,977,1849.35,1006.28Z"/><path fill="#0c3042" d="M1861.58,1020.5l-265.89-2.58a1.58,1.58,0,0,1-1.66-1.62l.62-10.42a1.79,1.79,0,0,1,1.85-1.6l266.18,2.11a1.64,1.64,0,0,1,1.75,1.68l-.84,10.78A2,2,0,0,1,1861.58,1020.5Z"/><path fill="#ff904a" d="M1849.35,1006.28,1693,1005a35,35,0,0,1-1.35-12.27c.72-10.92,6.31-20.84,14.74-28a49.3,49.3,0,0,1,31.94-11.68l55.83.07C1826.82,953.17,1851.62,977,1849.35,1006.28Z"/><polygon fill="#333" points="1886.25 1659.18 1885.14 1659.09 1891.2 1586.98 1885.29 1581.22 1885.32 1580.95 1896.93 1441.92 1807.53 1339.49 1807.5 1339.41 1732.39 1166.19 1592.11 1162.24 1568.64 1557.41 1565.48 1561.01 1561.33 1631.19 1560.21 1631.12 1564.39 1560.56 1567.54 1556.96 1591.05 1161.09 1733.14 1165.09 1733.28 1165.42 1808.49 1338.89 1898.08 1441.54 1898.06 1441.78 1886.45 1580.79 1892.36 1586.55 1892.33 1586.82 1886.25 1659.18"/><rect width="1.12" height="369.59" x="1916.93" y="986.04" fill="#333" transform="rotate(-88.39 1917.401 1170.862)"/><polygon fill="#2184b8" points="2195.67 1468.82 2066.11 1460.69 2066.85 1453.05 2196.49 1461.07 2195.67 1468.82"/><polygon fill="#2184b8" points="2194.3 1481.78 2064.88 1473.45 2065.62 1465.83 2195.12 1474.05 2194.3 1481.78"/><polygon fill="#2184b8" points="2192.93 1494.72 2063.66 1486.2 2064.39 1478.59 2193.74 1487 2192.93 1494.72"/><polygon fill="#2184b8" points="2191.56 1507.63 2062.43 1498.92 2063.16 1491.33 2192.37 1499.92 2191.56 1507.63"/><path fill="#155373" d="M1732.76,1372.84l-18.35-1c-8.08-.44-14.22-6.56-13.74-13.68l4.31-63c.49-7.19,7.48-12.74,15.61-12.39l18.49.79c8.2.36,14.43,6.51,13.91,13.75l-4.56,63.37C1747.91,1367.84,1740.89,1373.28,1732.76,1372.84Z"/><path fill="#0c3042" d="M1735,1373l-14.23-.78c-7.56-.41-13.31-6.13-12.85-12.79l4.46-64.76c.46-6.72,7-11.92,14.62-11.59l14.34.62c7.66.33,13.48,6.08,13,12.84l-4.69,65.1C1749.13,1368.29,1742.57,1373.37,1735,1373Z"/><polygon fill="#0c3042" points="1772.06 1342.02 1748.2 1328.79 1747.3 1341.36 1771.13 1354.6 1772.06 1342.02"/><path fill="#0c3042" d="M1783.55,1349.86c-.64,8.62-5.5,15.37-10.85,15.09s-9.15-7.48-8.52-16.08,5.47-15.39,10.82-15.12S1784.19,1341.23,1783.55,1349.86Z"/><polygon fill="#ff4e4a" points="1487.09 1016.29 992.02 1011.54 990.96 1081.44 1483.26 1090.96 1487.09 1016.29"/><polygon fill="#ff4e4a" points="986.87 1384.23 986.12 1433.21 1452.34 1464.8 1454.96 1412.71 986.87 1384.23"/><polygon fill="#bfe8ff" points="1448.59 1547.72 981.9 1510.72 977.33 1514.85 976.51 1570.68 1445.37 1611.81 1448.59 1547.72"/><polygon fill="#72bee8" points="976.51 1570.68 976.38 1579.32 1444.9 1620.98 1445.37 1611.81 976.51 1570.68"/><path fill="#0c3042" d="M1041.25,1585c-.83-86.58,31.8-124.89,64.54-121.58,34.47,3.48,64.76,47.16,60.11,133.09Z"/><polygon fill="#0c3042" points="1782.61 1527.98 1732.92 1524.33 1716.66 1751.18 1795.99 1759.3 1782.61 1527.98"/><polygon fill="#0c3042" points="1083.34 1476.6 1078.6 1685.88 1145.58 1692.73 1125.2 1479.68 1083.34 1476.6"/><path fill="#11455e" d="M1022.91,1577c-1,57,23.4,105.48,54.83,108.7,31.71,3.24,58.87-40.67,60.44-98.55,1.57-58.4-23.48-108.06-55.71-110.43C1050.52,1474.38,1024,1519.49,1022.91,1577Z"/><path fill="#a9cde0" d="M1042.86,1578.77c-.74,37.18,15.2,68.78,35.7,70.77s38.19-26.64,39.14-64.18c1-37.77-15.23-69.87-36.07-71.51S1043.59,1541.37,1042.86,1578.77Z"/><path fill="#0c3042" d="M1064.26,1580.65c-.34,15.83,6.45,29.28,15.18,30.08s16.16-11.4,16.54-27.29-6.45-29.47-15.24-30.21S1064.6,1564.79,1064.26,1580.65Z"/><path fill="#333" d="M1382.7,1615.26l-153.17-13.61,0-.53,13.66-401.77c.26-7.79,7.16-13.92,15.36-13.64l128,4.2a15.83,15.83,0,0,1,11.09,4.95,13.69,13.69,0,0,1,3.71,10Zm-152-14.63,151,13.41,18.65-409.27a12.58,12.58,0,0,0-3.41-9.15,14.74,14.74,0,0,0-10.3-4.6l-128-4.19c-7.59-.23-14,5.39-14.21,12.56Z"/><path fill="#2184b8" d="M1369.62,1275.41,1268.37,1271c-5.81-.26-10.36-4.9-10.17-10.37l1.72-48.74c.19-5.51,5.08-9.82,10.92-9.62l101.81,3.55c6,.21,10.7,4.92,10.45,10.52l-2.19,49.54C1380.66,1271.38,1375.6,1275.67,1369.62,1275.41Z"/><rect width="177.7" height="75.57" x="1989.9" y="1604.27" fill="#289fde" transform="translate(128.65 -150.89)"/><rect width="31.36" height="154.07" x="1101.2" y="1150.29" fill="#ff4e4a"/><polygon fill="#ff4e4a" points="1071.04 1286.79 1052.73 1257.84 1162.72 1167.87 1181.03 1196.82 1071.04 1286.79"/><polygon fill="#ff4e4a" points="1050.96 1202.16 1067.39 1171.79 1182.8 1252.5 1166.37 1282.88 1050.96 1202.16"/><polygon fill="#289fde" points="2136.67 1289.06 2105.03 1350.5 1866.22 1337.53 1942.78 1188.83 2092.18 1193.36 2136.67 1289.06"/><g mask="url(#o)"><path d="M971.62,1009.22C822.07,1013,627.35,1013,484.91,948.1l-5.73,10C593.09,1058.08,787,1091.92,969,1088.73Z" style="mix-blend-mode:screen" fill="url(#i)" opacity=".5"/></g><g mask="url(#p)"><path d="M973.46,1382.66c-149.23-10.51-344-29.68-479.59-107.88l-6.65,9.4c93.63,93,304.76,132.23,486.24,146.43Z" style="mix-blend-mode:screen" fill="url(#l)" opacity=".5"/></g><g data-name="phone"><circle cx="864.76" cy="510.57" r="256.03" fill="#fff" transform="rotate(-45 864.762 510.564)"/><g clip-path="url(#q)"><rect width="655.26" height="564.01" x="565.82" y="218.57" fill="#66caff"/><g data-name="back building"><rect width="167.51" height="327.33" x="849.75" y="356.5" fill="#4ab9f5"/><rect width="182.64" height="28.88" x="842.18" y="356.5" fill="#a3deff"/><rect width="182.64" height="28.88" x="842.18" y="410.37" fill="#a3deff"/><rect width="182.64" height="28.88" x="842.18" y="464.25" fill="#a3deff"/><rect width="182.64" height="28.88" x="842.18" y="518.13" fill="#80d3ff"/><rect width="182.64" height="28.88" x="842.18" y="572.01" fill="#80d3ff"/><rect width="182.64" height="28.88" x="842.18" y="625.89" fill="#a3deff"/><rect width="182.64" height="28.88" x="842.18" y="679.77" fill="#a3deff"/><rect width="77.49" height="77.49" x="857.85" y="327.54" fill="#00a651" rx="7.71"/><polygon fill="#fff" points="903.8 359.39 903.8 340.15 890.19 340.15 890.19 359.39 870.95 359.39 870.95 373 890.19 373 890.19 392.64 903.8 392.64 903.8 373.4 903.84 373.4 903.84 373 923.44 373 923.44 359.39 903.8 359.39"/></g><g data-name="building B"><path fill="#2184b8" d="M582.28,710.78c-9-.42-12.17-8.57.93-9.95-5.22-9.32,8.38-13.57,13.14-8.77,1.39-13.54,16.61-8.31,18.29-3-1.19-8.63,15.2-13.86,17.82-1.95,9.15-13.06,20.08-5.49,17.58-.69,1.77-4.8,20-6.58,19,3.89,11.21,5.26,7,12.8,7,12.8s8.23,3.07,5.65,7.29C672.53,710.37,582.28,710.78,582.28,710.78Z"/><rect width="119.14" height="201.73" x="659.84" y="506.92" fill="#fff"/><rect width="19.72" height="23.62" x="672.32" y="532.54" fill="#85ced6"/><rect width="20.1" height="23.62" x="694.12" y="532.54" fill="#85ced6"/><rect width="20.1" height="23.62" x="716.3" y="532.54" fill="#85ced6"/><rect width="20.1" height="23.62" x="738.48" y="532.54" fill="#85ced6"/><rect width="20.1" height="23.62" x="760.66" y="532.54" fill="#85ced6"/><rect width="20.1" height="23.62" x="782.84" y="532.54" fill="#85ced6"/><polygon fill="#85ced6" points="822.59 532.59 822.59 556.2 805.02 556.15 805.02 532.54 822.59 532.59"/><rect width="19.72" height="25.13" x="672.32" y="558.19" fill="#85ced6"/><rect width="20.1" height="25.13" x="694.12" y="558.19" fill="#85ced6"/><rect width="20.1" height="25.13" x="716.3" y="558.19" fill="#85ced6"/><rect width="20.1" height="25.13" x="738.48" y="558.19" fill="#85ced6"/><rect width="20.1" height="25.13" x="760.66" y="558.19" fill="#85ced6"/><rect width="20.1" height="25.13" x="782.84" y="558.19" fill="#85ced6"/><polygon fill="#85ced6" points="822.59 558.24 822.59 583.37 805.02 583.33 805.02 558.19 822.59 558.24"/><polygon fill="#85ced6" points="841.8 532.59 841.8 556.2 824.23 556.15 824.23 532.54 841.8 532.59"/><polygon fill="#85ced6" points="841.8 558.24 841.8 583.37 824.23 583.33 824.23 558.19 841.8 558.24"/><polygon fill="#85ced6" points="861.43 532.59 861.43 556.2 843.86 556.15 843.86 532.54 861.43 532.59"/><polygon fill="#85ced6" points="861.43 558.24 861.43 583.37 843.86 583.33 843.86 558.19 861.43 558.24"/><rect width="19.72" height="23.62" x="672.32" y="624.3" fill="#85ced6"/><rect width="20.1" height="23.62" x="694.12" y="624.3" fill="#85ced6"/><rect width="20.1" height="23.62" x="716.3" y="624.3" fill="#85ced6"/><rect width="20.1" height="23.62" x="738.48" y="624.3" fill="#85ced6"/><rect width="20.1" height="23.62" x="760.66" y="624.3" fill="#85ced6"/><rect width="20.1" height="23.62" x="782.84" y="624.3" fill="#85ced6"/><polygon fill="#85ced6" points="822.59 624.35 822.59 647.97 805.02 647.92 805.02 624.3 822.59 624.35"/><rect width="19.72" height="25.13" x="672.32" y="649.95" fill="#85ced6"/><rect width="20.1" height="25.13" x="694.12" y="649.95" fill="#85ced6"/><rect width="20.1" height="25.13" x="716.3" y="649.95" fill="#85ced6"/><rect width="20.1" height="25.13" x="738.48" y="649.95" fill="#85ced6"/><rect width="20.1" height="25.13" x="760.66" y="649.95" fill="#85ced6"/><rect width="20.1" height="25.13" x="782.84" y="649.95" fill="#85ced6"/><polygon fill="#85ced6" points="822.59 650 822.59 675.14 805.02 675.09 805.02 649.96 822.59 650"/><polygon fill="#85ced6" points="841.8 624.35 841.8 647.97 824.23 647.92 824.23 624.3 841.8 624.35"/><polygon fill="#85ced6" points="841.8 650 841.8 675.14 824.23 675.09 824.23 649.96 841.8 650"/><polygon fill="#85ced6" points="861.43 624.35 861.43 647.97 843.86 647.92 843.86 624.3 861.43 624.35"/><polygon fill="#85ced6" points="861.43 650 861.43 675.14 843.86 675.09 843.86 649.96 861.43 650"/><rect width="132.07" height="4.83" x="659.42" y="502.95" fill="#2184b8"/><polygon fill="#fff" points="927.77 505.9 927.77 604.19 1090.1 604.19 1090.1 707.64 1150.41 707.64 1150.41 505.9 927.77 505.9"/><polygon fill="#2184b8" points="1149.55 507.08 1148.48 507.08 1148.48 493.67 929.7 493.67 929.7 507.08 928.63 507.08 928.63 492.6 1149.55 492.6 1149.55 507.08"/><rect width="1.07" height="13.71" x="1135.84" y="493.14" fill="#2184b8"/><rect width="1.07" height="13.71" x="1120.91" y="493.14" fill="#2184b8"/><rect width="1.07" height="13.71" x="1105.97" y="493.14" fill="#2184b8"/><rect width="1.07" height="13.71" x="1091.04" y="493.14" fill="#2184b8"/><rect width="1.07" height="13.71" x="1076.11" y="493.14" fill="#2184b8"/><rect width="1.07" height="13.71" x="1061.18" y="493.14" fill="#2184b8"/><rect width="1.07" height="13.71" x="1046.25" y="493.14" fill="#2184b8"/><rect width="1.07" height="13.71" x="1031.32" y="493.14" fill="#2184b8"/><rect width="1.07" height="13.71" x="1016.39" y="493.14" fill="#2184b8"/><rect width="1.07" height="13.71" x="1001.45" y="493.14" fill="#2184b8"/><rect width="1.07" height="13.71" x="986.52" y="493.14" fill="#2184b8"/><rect width="1.07" height="13.71" x="971.59" y="493.14" fill="#2184b8"/><rect width="1.07" height="13.71" x="956.66" y="493.14" fill="#2184b8"/><rect width="1.07" height="13.71" x="941.73" y="493.14" fill="#2184b8"/><rect width="222.59" height="4.83" x="928.48" y="502.95" fill="#2184b8"/><rect width="19.72" height="23.62" x="943.97" y="532.54" fill="#85ced6"/><rect width="20.1" height="23.62" x="965.77" y="532.54" fill="#85ced6"/><rect width="20.1" height="23.62" x="987.95" y="532.54" fill="#85ced6"/><rect width="20.1" height="23.62" x="1010.13" y="532.54" fill="#85ced6"/><rect width="20.1" height="23.62" x="1032.31" y="532.54" fill="#85ced6"/><rect width="20.1" height="23.62" x="1054.49" y="532.54" fill="#85ced6"/><polygon fill="#85ced6" points="1094.24 532.59 1094.24 556.2 1076.67 556.15 1076.67 532.54 1094.24 532.59"/><rect width="19.72" height="25.13" x="943.97" y="558.19" fill="#85ced6"/><rect width="20.1" height="25.13" x="965.77" y="558.19" fill="#85ced6"/><rect width="20.1" height="25.13" x="987.95" y="558.19" fill="#85ced6"/><rect width="20.1" height="25.13" x="1010.13" y="558.19" fill="#85ced6"/><rect width="20.1" height="25.13" x="1032.31" y="558.19" fill="#85ced6"/><rect width="20.1" height="25.13" x="1054.49" y="558.19" fill="#85ced6"/><polygon fill="#85ced6" points="1094.24 558.24 1094.24 583.37 1076.67 583.33 1076.67 558.19 1094.24 558.24"/><polygon fill="#85ced6" points="1113.44 532.59 1113.44 556.2 1095.88 556.15 1095.88 532.54 1113.44 532.59"/><polygon fill="#85ced6" points="1113.44 558.24 1113.44 583.37 1095.88 583.33 1095.88 558.19 1113.44 558.24"/><polygon fill="#85ced6" points="1133.08 532.59 1133.08 556.2 1115.51 556.15 1115.51 532.54 1133.08 532.59"/><polygon fill="#85ced6" points="1133.08 558.24 1133.08 583.37 1115.51 583.33 1115.51 558.19 1133.08 558.24"/><polygon fill="#99dbff" points="957.18 507.78 957.18 606.06 998 606.06 970.51 507.78 957.18 507.78"/></g><g data-name="front building"><rect width="179.32" height="37.53" x="763.79" y="428.1" fill="#85ded6"/><rect width="179.32" height="13.89" x="763.79" y="428.1" fill="#85ded6"/><rect width="3.81" height="37.92" x="777.52" y="426.71" fill="#fff"/><rect width="3.81" height="37.92" x="759.98" y="426.71" fill="#fff"/><rect width="3.81" height="37.92" x="796.03" y="426.71" fill="#fff"/><rect width="3.81" height="37.92" x="814.53" y="426.71" fill="#fff"/><rect width="3.81" height="37.92" x="833.04" y="426.71" fill="#fff"/><rect width="3.81" height="37.92" x="851.55" y="426.71" fill="#fff"/><rect width="3.81" height="37.92" x="870.05" y="426.71" fill="#fff"/><rect width="3.81" height="37.92" x="888.56" y="426.71" fill="#fff"/><rect width="3.81" height="37.92" x="907.07" y="426.71" fill="#fff"/><rect width="3.81" height="37.92" x="925.57" y="426.71" fill="#fff"/><rect width="3.81" height="37.92" x="943.11" y="426.71" fill="#fff"/><rect width="207.46" height="14.2" x="749.72" y="413.9" fill="#fff"/><rect width="207.46" height="231.49" x="749.72" y="462.21" fill="#fff"/><rect width="172.81" height="82.64" x="766.88" y="611.06" fill="#85ded6"/><polygon fill="#85ded6" points="792.17 642.37 939.69 642.37 939.69 608.64 766.5 608.64 766.5 693.69 792.17 693.69 792.17 642.37"/><rect width="22.68" height="23.5" x="766.41" y="509.04" fill="#85ded6"/><rect width="23.13" height="23.5" x="791.48" y="509.04" fill="#85ded6"/><rect width="23.13" height="23.5" x="817" y="509.04" fill="#85ded6"/><rect width="23.13" height="23.5" x="842.51" y="509.04" fill="#85ded6"/><rect width="23.13" height="23.5" x="868.03" y="509.04" fill="#85ded6"/><rect width="23.13" height="23.5" x="893.55" y="509.04" fill="#85ded6"/><polygon fill="#85ded6" points="939.27 509.09 939.27 532.59 919.06 532.54 919.06 509.04 939.27 509.09"/><rect width="22.68" height="25.01" x="766.41" y="536.1" fill="#85ded6"/><rect width="23.13" height="25.01" x="791.48" y="536.1" fill="#85ded6"/><rect width="23.13" height="25.01" x="817" y="536.1" fill="#85ded6"/><rect width="23.13" height="25.01" x="842.51" y="536.1" fill="#85ded6"/><rect width="23.13" height="25.01" x="868.03" y="536.1" fill="#85ded6"/><rect width="23.13" height="25.01" x="893.55" y="536.1" fill="#85ded6"/><polygon fill="#85ded6" points="939.27 536.15 939.27 561.16 919.06 561.11 919.06 536.1 939.27 536.15"/><rect width="185.91" height="4.83" x="760.5" y="606.23" fill="#2184b8"/><path fill="#2184b8" d="M773,581.55h9.45v-9.42H789v25.23h-6.58V587.14H773v10.22h-6.55V572.13H773Z"/><path fill="#2184b8" d="M817.05,594.18a15.06,15.06,0,0,1-19.89,0,13.19,13.19,0,0,1,0-18.88,15.09,15.09,0,0,1,19.89,0,13.19,13.19,0,0,1,0,18.88Zm-15-14.26a6.92,6.92,0,0,0-2,5,6.41,6.41,0,0,0,2,4.7,7.16,7.16,0,0,0,5.11,2,6.87,6.87,0,0,0,7.11-6.81,6.77,6.77,0,0,0-2.05-4.84,7.54,7.54,0,0,0-5.06-2A7.28,7.28,0,0,0,802,579.92Z"/><path fill="#2184b8" d="M826.85,589.79a8.81,8.81,0,0,0,5.79,2.57,3.28,3.28,0,0,0,2.53-.87,2.22,2.22,0,0,0,.65-1.58,2,2,0,0,0-.72-1.52,9.28,9.28,0,0,0-3.26-1.32l-1.7-.53a8.26,8.26,0,0,1-3.63-2,6.34,6.34,0,0,1-1.44-4.47,8.25,8.25,0,0,1,2.31-6.09,8.94,8.94,0,0,1,6.47-2.38,17.66,17.66,0,0,1,7.79,2L839,578.71a6.66,6.66,0,0,0-4.31-1.7,3.18,3.18,0,0,0-2.16.75,1.87,1.87,0,0,0-.64,1.36,1.72,1.72,0,0,0,.34,1.14,4.09,4.09,0,0,0,2.19,1.13l2,.61a9.64,9.64,0,0,1,4.58,2.5,6,6,0,0,1,1.62,4.5,8.5,8.5,0,0,1-2.38,6.35c-2.16,2.16-4.77,2.58-7.45,2.58a13.56,13.56,0,0,1-5-.84,17.6,17.6,0,0,1-3.82-2Z"/><path fill="#2184b8" d="M853.33,589v8.36h-6.54V572.13h10.44a8.66,8.66,0,0,1,6.39,2.27,7.81,7.81,0,0,1,2.35,6.12,8.19,8.19,0,0,1-2.24,6.28,8.39,8.39,0,0,1-6.28,2.2Zm0-5.3h2.19a4.28,4.28,0,0,0,2.77-.79,2.9,2.9,0,0,0,.83-2.31,3.07,3.07,0,0,0-.76-2.27,3.88,3.88,0,0,0-2.8-.91h-2.23Z"/><path fill="#2184b8" d="M876,572.13v25.23h-6.55V572.13Z"/><path fill="#2184b8" d="M890.82,577.69v19.67h-6.55V577.69H878.9v-5.56h17.29v5.56Z"/><path fill="#2184b8" d="M913.36,593.12h-9.15l-1.7,4.24h-6.93l9.69-25.23h7.15l9.49,25.23h-7Zm-1.74-5L908.78,580,906,588.13Z"/><path fill="#2184b8" d="M931.37,572.13V591.8h7.87v5.56H924.82V572.13Z"/><rect width="3.14" height="82.64" x="851.71" y="611.06" fill="#fff"/><rect width="3.14" height="82.64" x="807.31" y="611.06" fill="#fff"/><rect width="173.7" height="3.14" x="765.99" y="623.01" fill="#fff"/><rect width="3.14" height="82.64" x="897.72" y="611.06" fill="#fff"/><rect width="2.1" height="19.4" x="859.8" y="649.72" fill="#85ded6"/><rect width="2.1" height="19.4" x="845.73" y="649.72" fill="#85ded6"/><rect width="207.95" height="4.83" x="749.23" y="428.1" fill="#2184b8"/><rect width="207.95" height="4.83" x="749.23" y="457.38" fill="#2184b8"/></g><rect width="330.43" height="20.48" x="644.67" y="688.86" fill="#fff"/><rect width="665.89" height="94.21" x="561.28" y="704.97" fill="#4ab9f5"/><path fill="#2184b8" d="M880,708.36c-9-.42-12.16-8.57.94-10-5.22-9.32,8.38-13.57,13.13-8.77,1.39-13.54,16.62-8.3,18.29-3-1.19-8.63,15.2-13.86,17.82-2,9.16-13,20.09-5.49,17.59-.69,1.77-4.8,20-6.58,19,3.9,15,1.07,8.61,11,7,12.79,0,0,11.85.73,9.78,7.2C974.39,707.86,880,708.36,880,708.36Z"/><path fill="#2184b8" d="M966.66,708.36c-5.56-.26-7.5-5.28.58-6.13-3.22-5.75,5.16-8.36,8.09-5.41.86-8.34,10.24-5.12,11.27-1.86-.73-5.32,9.37-8.55,11-1.2,5.64-8,12.38-3.39,10.84-.43,1.09-3,12.33-4.06,11.7,2.4,9.23.66,5.31,6.8,4.33,7.88,0,0,7.3.46,6,4.44C1024.83,708.05,966.66,708.36,966.66,708.36Z"/><path fill="#2184b8" d="M675.63,708.36c-7.76-.36-10.47-7.38.81-8.57-4.5-8,7.21-11.68,11.3-7.54,1.2-11.66,14.3-7.15,15.75-2.61-1-7.43,13.08-11.94,15.34-1.68,7.88-11.24,17.29-4.73,15.14-.6,1.52-4.13,17.22-5.66,16.34,3.36,12.89.92,7.41,9.49,6.05,11,0,0,10.2.63,8.42,6.2C756.88,707.93,675.63,708.36,675.63,708.36Z"/></g><circle cx="1512.66" cy="505.74" r="146.26" fill="#fff"/><path fill="#39c0e6" d="M1597.27,438.84l-3.48-2.76.38-.48-36.46-29-36.85,46.28,19.72,15.7a630.83,630.83,0,0,1-59.07,74.29l-19.77-15.75-36.85,46.28,7.31,5.82a4.23,4.23,0,0,1-1.11-.64l33.62,26.77C1482.44,619.44,1615,453,1597.27,438.84Z"/><circle cx="1155.15" cy="512.22" r="10.38" fill="#fff" transform="rotate(-80.78 1155.194 512.21)"/><circle cx="1190" cy="512.22" r="10.38" fill="#fff" transform="rotate(-80.78 1190.046 512.208)"/><circle cx="1224.85" cy="512.22" r="10.38" fill="#fff" transform="rotate(-45 1224.857 512.217)"/><circle cx="1259.7" cy="512.22" r="10.38" fill="#fff" transform="rotate(-76.72 1259.654 512.236)"/><circle cx="1294.55" cy="512.22" r="10.38" fill="#fff" transform="matrix(.16 -.99 .99 .16 581.58 1708)"/><circle cx="1329.4" cy="512.22" r="10.38" fill="#fff" transform="rotate(-80.78 1329.444 512.2)"/></g><g data-name="!"><g data-name="text box"><rect width="205.04" height="191.91" x="1816.44" y="688.85" fill="#fff" rx="22.03" transform="rotate(180 1918.965 784.805)"/><polygon fill="#fff" points="1880.26 849.75 1880.26 936.33 1968.51 848.09 1880.26 849.75"/></g><polygon fill="#ff4e4a" points="1926.2 812.38 1901.52 812.38 1898.48 716.98 1929.24 716.98 1926.2 812.38"/><circle cx="1913.86" cy="839.16" r="14.46" fill="#ff4e4a"/></g><g data-name="cloud 02"><path fill="#fff" d="M1037.23,936.65c.06-.79.1-1.59.1-2.4a30.68,30.68,0,0,0-61.36,0c0,.81,0,1.61.1,2.4Z"/><path fill="#fff" d="M1138,936.65c.06-.79.1-1.59.1-2.4a30.68,30.68,0,1,0-61.36,0c0,.81,0,1.61.1,2.4Z"/><path fill="#fff" d="M1164.12,936.65a21.18,21.18,0,0,0,.14-2.4,21.7,21.7,0,1,0-43.39,0,21.18,21.18,0,0,0,.14,2.4Z"/><path fill="#fff" d="M1102.73,936.65a44.95,44.95,0,1,0-89.17,0Z"/></g><g data-name="cloud 01"><path fill="#fff" d="M1418.66,837c.08-1,.13-1.92.13-2.9a36.92,36.92,0,0,0-73.84,0c0,1,0,1.94.12,2.9Z"/><path fill="#fff" d="M1539.94,837c.08-1,.13-1.92.13-2.9a36.92,36.92,0,0,0-73.84,0c0,1,0,1.94.13,2.9Z"/><path fill="#fff" d="M1571.35,837a25.23,25.23,0,0,0,.17-2.9,26.11,26.11,0,0,0-52.21,0,27.72,27.72,0,0,0,.16,2.9Z"/><path fill="#fff" d="M1497.48,837a54.09,54.09,0,1,0-107.73-6.89,55.9,55.9,0,0,0,.43,6.89Z"/></g></g></svg>