<svg xmlns="http://www.w3.org/2000/svg" enable-background="new 0 0 1364 960" viewBox="0 0 1364 960"><path fill="#c1e8ea" d="M986.91,579.81c-0.3-1.02-0.56-2.1-0.79-3.21c-2.08-10-1.54-23.13-2.04-28.56
		c-0.54-5.91-8.47-17.41-11.01-15.7l-0.17,0.14c-3.18,3.21-3.12,10.72-1.29,17.02c3.47,11.98-12.05,29.01-4.53,41.88
		c1.46,2.5,2.61,4.95,3.54,7.26c4.33,10.78,3.86,18.77,7.8,16.78C985.96,611.61,989.9,590,986.91,579.81z M971.07,295.85
		c4.04,3,10.02,15.07,12.99,15.07c0,0,4.69,0.12-1.63-9.42C976.11,291.96,967.02,292.86,971.07,295.85z M931.2,568.35
		c-0.46-0.54-0.92-1.05-1.36-1.54c-2.58-2.83-4.84-4.9-6.37-5.25c-0.05-0.01-0.1-0.02-0.15-0.04c-4.43-1.09-6.88-5.36-11.94-25.05
		c-5.13-19.94,4.92-44.34,6.08-73.6c1.01-25.97-14.59-54.51-20.19-59.47c0,0-0.01,0-0.01-0.01c-0.7-0.61-1.25-0.86-1.58-0.68
		c-3.01,1.61-3.17,9.42-6.3,15.08c-3.14,5.66-13.52,13.82-15.1,20.15s-9.42,9.45-10.32,2.95c-0.32-2.37-2.03-4.04-4.65-5.1
		c-21.72,31.3-53.7,60.15-95.44,86.06c-0.24,0.15-0.48,0.3-0.71,0.46c-25.36,17.45-52.5,33.09-80.78,46.55
		c-23.2-10.69-44.75-22.06-64.47-34.01c-15.42-9.35-29.73-19.06-42.86-29.08c-10.76-8.22-20.74-16.66-29.91-25.28
		c-8.26,4.9-19.97-4.38-18.69,5.39c0.07,0.54,0.1,1.1,0.1,1.68v0.01c0.02,9.87-9.4,24.44-10.93,32.51
		c-0.45,2.41-0.26,4.87,0.24,7.24c1.2,5.74,4.18,10.97,4.17,13.73c-0.03,3.36-3.91,6.15-6.35,7.9c-0.41,0.29-0.78,0.56-1.08,0.79
		c-3.9,2.99-5.7,6.48-6.28,9.89c-1.08,6.32,1.97,12.35,3.46,14.42c2.21,3.07-3.71,20.75,5.35,31.8c0.35,0.43,0.72,0.85,1.11,1.25
		c10.81,11.11-8.64,26.19,9.28,37.08c15.59,9.46,8.29,15.05,23.27,16.81c14.97,1.76,13.23,29.49,30.17,22.4
		c11.15-4.68,20.44-4.09,27.88-3.82h0.01c0.87,0.03,1.71,0.06,2.52,0.07c0.78,0.02,1.53,0.02,2.25-0.01
		c4.62-0.11,8.33-0.99,11.14-4.57c4.94-6.3,13.27-8.11,20.21-9.67c3.89-0.87,7.34-1.66,9.53-3.12c6.11-4.04,2.81-11.66,17.64-24.12
		c14.86-12.47,15.98,10.68,30.08,0.18c14.11-10.48,27.04-11.56,28.3,5.77c0.25,3.4,1.11,6.2,2.53,8.53
		c5.04,8.34,17.1,10.64,33.15,12.4c1.2,0.13,2.43,0.26,3.68,0.39c1.19,0.12,2.41,0.25,3.64,0.37c0.13,0.01,0.26,0.03,0.39,0.04
		c24.1,2.55,24.92,16.2,27.42,36.12c0.34,2.76,0.97,5.3,1.84,7.61c5.46,14.47,20.38,20.27,33.81,17.9
		c25.2-4.44,48.02,19.2,53.04,16.6c19.98-10.35,21.15-27.27,35.41-36.55c22.63-14.72-4.02-23.65,11.04-45.21
		c15.07-21.56-2.91-26.66-2.5-29.85c0.54-4.23,2.83-8.61,5.62-13.02c2.19-3.49,4.69-7,6.87-10.47c5.24-8.37,8.59-16.52,1.22-23.67
		C941.68,581.41,936.04,573.89,931.2,568.35z M872.4,556.24c1.2,2.18,0.41,7.4-4.98,7.87c-3.8,0.34-5.84-6.41-6.01-8.36
		c-0.32-3.35,6.01-13.1,8.87-12.45C873.12,543.93,871.21,554.07,872.4,556.24z M868.55,596.35c-0.89-0.3-7.48-10.58-9.4-11.37
		c-1.89-0.76,1.73-0.96,7.25,4.46c3.31,3.24,8.92,5.45,12.44,7.36c2.37,1.3,3.8,2.45,2.96,3.7c-0.83,1.24-4.89-0.28-8.31-1.82
		C871.04,597.58,868.92,596.47,868.55,596.35z M917.59,608.7c-2.78-0.12-8.5-5.8-9.84-9.55c-1.01-2.82-4.24-5.81-5.8-7.47
		c-0.52-0.53-0.85-0.93-0.88-1.14c-0.01-0.08,0.02-0.13,0.09-0.16c0.14-0.06,0.44-0.01,0.84,0.12c1.47,0.49,4.37,2.14,6.28,4.1
		c0.59,0.61,1.09,1.41,1.57,2.31l0.01,0.01c1.73,3.22,3.28,7.76,7.83,9.83C923.52,609.4,917.59,608.7,917.59,608.7z M874.48,411.86
		c-0.09-0.39-0.17-0.78-0.23-1.16c-3.7,7.41-7.95,14.7-12.74,21.86C870.72,434.64,876.38,420.05,874.48,411.86z M708.38,372.46
		c2.37-0.59,6.57-6.16,6.63-9.6c0.05-3.43-5.23,1.26-6.06,1.86C708.11,365.32,706.37,372.95,708.38,372.46z M671.79,399.02
		c5-1.14,8.3-7.08,9.49-9.01c1.18-1.92-3.55,0.14-4.53,1.6c-0.99,1.46-8.04,3.68-9.58,4.93
		C665.63,397.78,669.18,399.61,671.79,399.02z M579.79,412.84c0.95,1.2-3.47,4.83-2.31,5.06c1.16,0.24,3.09,3.42,3.92,6.21
		c0.84,2.8,2.93,3.3,5.24,1.52c3.18-2.47,0.3-7.99-1.55-9.18c-1.84-1.18-1.94-5.21-2.45-5.92c-0.51-0.71-4.19-3.07-5.2-5.48
		c-1.01-2.4-4.53,0.85-4.36,2.34S578.84,411.65,579.79,412.84z M571.36,149.15c-2.83,0.7-5.24,3.29-4.59,7.3
		C568.29,153.96,569.82,151.53,571.36,149.15z M520.59,481.52c-0.31-0.31-0.61-0.63-0.9-0.94c-0.57-0.59-1.13-1.18-1.68-1.77
		c-1.35-1.43-2.68-2.87-3.98-4.31c-0.61-0.68-1.22-1.35-1.82-2.03c-0.6-0.67-1.2-1.35-1.79-2.03c-0.59-0.67-1.18-1.35-1.76-2.03
		c-1.01-1.17-1.99-2.33-2.96-3.5c-1.46-1.75-2.88-3.5-4.27-5.26c0.2,2.88,0.52,6.22,1.33,10c2.65,12.29,4.87,7.5,12.87,11.12
		C517.47,481.6,519.09,481.77,520.59,481.52z M503.14,390.5c2.19-7.39,10.13-10.87,14.13-14.86c0.43-0.42,0.81-0.85,1.13-1.29
		c3.39-4.58-3.57-10.49-7.69-13.96c-3.42-2.89-9.9-3.09-12.31-7.27c-0.49-0.84-0.81-1.86-0.9-3.09c-0.55-7.29-3.77-3.73-6.37-2.58
		c-2.59,1.16,2.66-9.6-1.16-7.39c-3.82,2.21-4.68,9.8-4.37,12.98c0.05,0.58,0.17,1.1,0.34,1.56c0.23,0.64,0.55,1.18,0.93,1.63
		c0.49,0.57,1.06,1.02,1.65,1.38c0.47,0.28,0.95,0.51,1.42,0.72c0.69,0.31,1.09,1.25,1.5,2.25c0.64,1.51,1.34,3.13,3.22,2.83
		c0.19-0.03,0.4-0.09,0.62-0.16c1.29-0.44,2.08,0.72,2.51,2.57c0.82,3.54,0.32,9.61-0.52,11.74c-1.28,3.24,4.61,3.66,2.6,6.89
		C497.87,387.68,502.23,393.58,503.14,390.5z M495.1,229.79c2.19,0.14,8.86,4.27,10.77,4.28h0.01c0.08,0,0.16,0,0.22-0.02
		c0.15-0.04,0.22-0.14,0.23-0.3c0.05-0.69-0.99-2.45-1.32-4.82c-0.41-2.93,2.15-1.19,5.48-2.33c3.32-1.14-1.72-2.88-4.18-3.79
		c-2.46-0.92,2.98-3.39,2.25-5.66c-0.73-2.26-6.35,5.49-11.24,6.97C493.04,225.43,492.83,229.64,495.1,229.79z M490.94,369.51
		c0.65-5.37-11.48-6.69-9.91-1.74c0.94,2.95-1.41,7.18-2.81,10.14c-0.96,2.01-1.47,3.44-0.2,3.47c0.53,0.01,0.96,0.12,1.3,0.32
		c0.94,0.5,1.19,1.58,0.88,2.81c-0.23,0.95-0.8,1.99-1.63,2.91c-2.31,2.56,1.37,5.28,3.95,4.5c0.08-0.03,0.17-0.05,0.25-0.08
		c4.17-1.42,7.13-6.36,8.98-10.67C493.64,376.77,490.29,374.88,490.94,369.51z M446.65,236.38c-7.56,0.94-9.05,10.25-23.5,17.41
		c-12.35,6.13-8.87,12.54-7.34,15.47c3.41,6.49-9.64,16.94-11.07,26.74c-1.83,12.47-6.81,31.18-17.68,41.14
		c-7.33,6.71-3.34,19.92-0.75,21.28c3.75,1.96,4.93,9.24,8.31,6.55c9.23-7.36,8.85-27.83,17.29-32.28
		c8.43-4.45,12.67-14.74,18.19-17.64c5.53-2.9,10.2-7.42,10.76-14.71c0.84-10.88,10.59-19.14,13.65-22.41
		c3.05-3.27,6.53-15.25,4.91-21.77c-1.81-7.29,4.77-10.67,5.87-20.05C466.4,226.73,454.43,235.42,446.65,236.38z M457.92,313.03
		c-0.2-0.37-0.43-0.68-0.68-0.93c-2.35-2.36-6.36,0.46-6.61,1.93c-0.27,1.63-4.53,6.01-7.64,3.95c-3.1-2.06-6.31-0.75-4.86,0.96
		c2.16,2.53-0.27,7.62,2.93,11.03c1.95,2.09,13.14,3.39,10.29,0.39c-1.87-1.97-2.39-7.24,1.18-6.09c0.84,0.27,1.83,0.33,2.88,0.24
		c3.8-0.29,8.4-2.48,9.31-3.76C465.89,319.1,460.08,316.95,457.92,313.03z M356.66,364.35c-2.27,5.59-1.32-11,2.09-15.55
		c2.09-2.79-0.04-9.73-0.32-12.09c-0.28-2.41-2.9,9-6.47,12.07c-3.14,2.72-3.25,17.92-9.48,25.06c-0.09,0.1-0.18,0.21-0.27,0.32
		c4.37,10.31,8.58,24.86,12.35,40.22c0.92-1.61,2.69-3.34,3.64-5.26c0.69-1.41,0.93-2.92,0.06-4.56c0-0.01,0-0.01,0-0.01
		c-0.11-0.22-0.25-0.44-0.4-0.66c-3.58-5.13-4.69-11.7-0.66-17.78c0.54-0.81,1.01-1.71,1.41-2.66c1.98-4.64,2.47-10.64,2.7-15.5
		c0.22-4.43,0.21-7.9,0.89-8.47C363.77,358.17,358.96,358.77,356.66,364.35z M1058,457.51c-0.8-21.44-3.5-42.76-8.09-63.85
		c-0.06-0.26-0.12-0.53-0.18-0.79c-3.03-13.79-6.84-27.3-11.42-40.51c-2.84-8.23-5.98-16.33-9.41-24.32
		c-10.26-23.81-23.13-46.52-38.51-67.92c-28.98-40.32-65.18-73.62-107.61-98.97c-28.43-16.99-58.8-29.93-90.7-38.66
		c-14.08-3.87-28.45-6.91-43.09-9.13c-11.4-1.72-22.82-2.93-34.25-3.6c-18.02-1.07-36.04-0.83-54.01,0.7
		c-18.42,1.57-36.77,4.5-54.97,8.8c-12.07,2.85-23.95,6.27-35.62,10.25c-35.59,12.15-69.2,29.52-100.3,51.87
		c-0.95,0.69-1.9,1.37-2.85,2.07c-4.15,3.03-8.22,6.14-12.22,9.31c-34.64,27.5-63.9,60.28-87.12,97.66
		c-7.2,11.59-13.74,23.48-19.6,35.64c-5.3,10.96-10.04,22.15-14.22,33.54c-7.69,20.92-13.52,42.52-17.42,64.69
		c-3.56,20.22-5.45,40.49-5.67,60.67c-0.27,25.85,2.2,51.59,7.4,76.99c0.3,1.46,0.61,2.93,0.93,4.39
		c10.51,48.3,30.53,93.22,59.52,133.54c3.47,4.83,7.04,9.55,10.71,14.17c5.58,7.02,11.38,13.79,17.43,20.33
		c23.22,25.16,49.82,46.76,79.47,64.47c16.87,10.08,34.41,18.74,52.56,25.93c25.94,10.3,53.1,17.62,81.23,21.87
		c17.18,2.59,34.42,4,51.63,4.21c7.04,0.1,14.07-0.01,21.09-0.32c23.63-1.03,47.19-4.3,70.51-9.8c21.34-5.03,42.09-11.85,62.11-20.4
		c25.87-11.05,50.54-24.98,73.81-41.71c17.21-12.37,33.21-25.95,47.94-40.68c6.14-6.13,12.05-12.45,17.74-18.98
		c13.45-15.41,25.64-31.89,36.51-49.38c21.44-34.49,37-71.65,46.42-110.76c1.85-7.63,3.45-15.34,4.82-23.12
		c3.35-19.03,5.22-38.09,5.61-57.09C1058.32,471.58,1058.26,464.54,1058,457.51z M665.35,357.25c-2.5,1.8-5,2.59-5.59,1.77
		c-0.58-0.8,0.97-2.92,3.48-4.72c2.48-1.79,4.98-2.58,5.56-1.78C669.39,353.35,667.84,355.46,665.35,357.25z M663.23,350.02
		c-3.09,1.64-12.29-1.02-10.88-6.86c1.38-5.83-0.02-11.79-3.43-15.78c-3.39-3.98,0.29-12.89,2.86-10.81
		c3.44,2.73,6.91-3.18,7.82,0.09c0.93,3.29,4.17,1.14,9,4.93c3.18,2.46-0.63-6.72,1.53-9c2.14-2.27-5.66-0.46-6.65-5.59
		c-0.95-5.12,4.26-11.39,6.15-9.53c1.89,1.87,5.12-0.64,5.36,2.42c0.21,3.07-2.22,6.51,0.26,7.02l15.37-2.33
		c4.4,3.13,11.88-3.01,15.61-0.85c3.72,2.16-0.06,6.61,0.02,9.8c0.15,5.67-10.24,8.79-12.11,8.01c-4.28-1.82-15.42,2.18-17.32,9.77
		C676.08,334.21,672.07,345.27,663.23,350.02z M710.61,264.79c1.86-2.18,0.39-4.11-0.82-7.67c-1.2-3.55,5.39-7.34,7.77-4.25
		c2.37,3.13-1.08,5.76,0.18,7.81c3.34,5.37,10.01,7.15,16.54,5.13c6.54-2.03,14.4,3.57,15.87,5.49c2.27,2.99,11.51,0.03,15.01,3.96
		s7.89,2.91,7.66,6.72c-0.25,3.79-5.96,10.91-9.48,9.76c-4.03-1.33-11.33,4.2-15.12-2.6c-4.27-7.6-5.65-11.11-9.31-8.82
		c-5.73,3.58-16.21-0.5-18.68-1.77c-2.28-1.16-2.57-3.95-8.22-4.39C709.68,273.98,706.67,269.45,710.61,264.79z M543.79,144.74
		c-0.04,0.1-0.1,0.21-0.2,0.33c-0.62,0.78-3.08,1.57-5.88,2.35C539.73,146.51,541.76,145.62,543.79,144.74z M1037.45,578.33
		c-14.98,49.42-40.35,96.2-75.48,136.73c-5.24,6.05-10.7,11.97-16.39,17.73c-14.9,15.14-31.3,29.23-49.15,42.06
		c-22.66,16.29-46.5,29.71-71.08,40.34c-42.54,18.41-87.28,28.45-131.92,30.48c-7.52,0.35-15.03,0.46-22.53,0.34
		c-39.15-0.57-77.9-7.3-114.7-19.93c0.34-0.1,0.7-0.18,1.09-0.23c6.41-0.69-5.38-13.26-19.86-22.26c-1.41-0.87-2.84-1.72-4.29-2.51
		c-11.74-6.44-5.01-9.16-4.83-15.3c0.08-2.37-0.82-5.26-4.16-9.07c-9.98-11.36-14.05-8.02-20.46-10.93
		c-1.3-0.59-2.69-1.43-4.25-2.71c-6.64-5.44-15.62-10.48-22.58-7.36c-12.38,5.55-16.75-9.15-24.97-11.03
		c-11.65-2.63-13.76-19.87-26.41-22.06c-10.94-1.9-15.25-16.24-19.22-25.34c-2.48-5.68-4.83-9.31-8.57-6.6
		c-1.51,1.08-3.24,3.2-5.3,6.63c-3.6,5.99-9.61,0.45-10.03-0.14c-26.52-36.9-44.94-77.26-55.61-119.01
		c-4.75-18.53-7.96-37.33-9.68-56.22c-0.01-0.01-0.01-0.03-0.01-0.04c-1.11-12.16-1.6-24.36-1.47-36.55c0,0.87-0.01,1.75-0.01,2.62
		c2.01-13.24,3.66-24.92,6.83-21.99c6.19,5.71,0.78-9.44,9.56-14.93c8.76-5.51-4.15,11.15,2.18,8.11
		c7.46-3.58,6.35-14.33,3.74-16.42c-4.87-3.91,5.4-18.07-2.9-17.61c-8.31,0.47,1.78-8.81,4.96-5.32c3.17,3.47,5.48,3.86,8,0.96
		c2.52-2.88-1.66,4.31-0.85,7.58c1.22,4.89-5.06,10.74-0.09,14.83c4.95,4.08,2.81,5.62,5.32,7.19c2.47,1.56,5.9-2.56,2.38-7.22
		c-1.66-2.2,2.77-8.56-1.12-13.97c-3.87-5.39,4.09-7.65,0.98-11.43c-0.89-1.08-0.68-2.19-0.01-3.37c0.92-1.61,2.69-3.34,3.64-5.26
		c0.69-1.41,0.93-2.92,0.06-4.56c0-0.01,0-0.01,0-0.01c-0.11-0.22-0.25-0.44-0.4-0.66c-3.58-5.13-4.69-11.7-0.66-17.78
		c0.54-0.81,1.01-1.71,1.41-2.66c1.98-4.64,2.47-10.64,2.7-15.5c0.22-4.43,0.21-7.9,0.89-8.47c1.57-1.31-3.24-0.71-5.54,4.87
		c-2.27,5.59-1.32-11,2.09-15.55c2.09-2.79-0.04-9.73-0.32-12.09c-0.28-2.41-2.9,9-6.47,12.07c-3.14,2.72-3.25,17.92-9.48,25.06
		c-0.09,0.1-0.18,0.21-0.27,0.32c-2.94,3.57-6.4,11.05-7.13,12.72c0.4-2.08,0.49-13.52,4.08-18.16c0.1-0.13,0.2-0.27,0.3-0.43
		c3.3-5.13,6.96-24.78,13.37-40.12c2.48-5.95,5.38-11.25,8.83-14.81c12.66-13.02,17.38-19.76,21.25-18.13
		c2.19,0.92-4.35,12.4-5.45,16.07c-1.43,4.78-7.64,5.22-9.07,6.89c-3.03,3.55-3.86,14.21-0.14,15.85
		c3.69,1.63,6.63-16.73,9.44-13.96c2.75,2.72,4.74,9.59,7.81,5.84c4.06-4.94,0.83-20.72,6-25.77c4.45-4.34,13.7-30.79,7.84-31.75
		c-5.04-0.83-12.37,18.92-15.41,20.74c-3.02,1.81,0.62-7.19,3.59-12.58c2.98-5.4,6.97-16.65,12.15-18.49
		c2.68-0.96,5.59-7.15,7.38-13.18c2.84-3.28,5.74-6.51,8.7-9.7c-1.65,2.21-2.65,4.27-2.2,5.25c1.91,4.11-2.15,9.32-4.82,11.25
		c-2.68,1.92-4.42,7.99-4.63,10.15c-0.21,2.16,2.67,2.72,5.28,1.85c3.2-1.06,8.02-10.86,9.6-13.74c1.58-2.88,12.4-5.7,16.95-11.78
		c4.55-6.09,12.19-6.75,7.19-9.2c-5-2.44-10.66,5.36-15.08,5.75c-3.97,0.34-7.56,4.9-7.59,2.23c-0.02-2.66,6.23-5.82,9.06-7.72
		c2.83-1.89-0.68-2.58-4.13-1.99c-1.26,0.22-2.87,1.21-4.51,2.56c11.38-11.77,23.65-22.94,36.78-33.37
		c4.85-3.87,9.82-7.62,14.9-11.28c0.12-0.09,0.24-0.17,0.36-0.26c17.88-12.82,36.5-23.86,55.63-33.16c0.53,0.29,1.44,0.57,2.85,0.84
		c11.75,2.28,22.05-7.19,23.25-8.72c1.2-1.53,15.6-9.73,18.13-8.08c2.55,1.66-9.86,4.53-9.54,6.86c0.25,2.77,2.5,1.97,8.34,0.85
		c1.49-0.28,2.55-0.08,3.23,0.38c1.97,1.35,0.73,4.9-2.34,5.12c-0.37,0.03-0.74,0.08-1.1,0.17c-2.83,0.7-5.24,3.29-4.59,7.3
		c0.19,1.2,0.65,2.52,1.46,3.96c3.85,6.9,6.25,0.16,10.44,5.02c4.22,4.84,19.38-3.93,14.19-0.35c-5.2,3.55-4.23,8.39-4.7,9.28
		c-0.42,0.77-12.54-0.26-14.23,3.14c-0.17,0.33-0.24,0.71-0.18,1.13c0.24,1.78,7.67,0.39,12.75,3.7c5.09,3.33,19.21-3.6,19.45-1.82
		c0.49,3.75-7.6,0.39-16.57,7.71c-8.96,7.36-13.22,6.56-21.11,7.39c-7.87,0.83-11.24-13.89-12.12-13.11
		c-0.86,0.8-3.09,11.01,4.29,16.77c7.41,5.77,34.01-7.67,31.32-3.09c-3.58,6.1-5.07,14.59-6.44,18.62
		c-0.64,1.92-1.26,2.82-2.06,1.96c-2.45-2.64-15.45-1.75-7.39,1.03c8.09,2.76,5.97,6.04,5.15,8.48c-0.67,2.06,1.95,3.98,3.88,5.67
		c0.39,0.35,0.76,0.68,1.06,1c1.79,1.93-8.26,3.38-8.33,4.23c-0.06,0.86,3.56,0.26,6.84,2.34c3.24,2.08-12.47,1.85-17.07,1.12
		c-3.11-0.5,2.36-4.5,5.92-8.77c1.66-2,2.91-4.06,2.65-5.84c-0.77-5.59-13.83,0.3-32.14,8.35c-4.36,1.93-7.96,4.47-10.88,7.26
		c-9.31,8.87-11.81,20.15-10.69,21.41c1.45,1.64-0.51,22.62-2.78,27.75c-2.28,5.1-11.67,16.14-6.36,26.55
		c5.33,10.4,15.23,6.51,16.96-0.12c1.75-6.61,6.7-3.48,9.62,0.59c2.93,4.07,15.9,6.3,18.48,1.22c2.57-5.07-7.63-12.48-4.1-17.72
		c3.54-5.23-1.49-10.73-4.92-10.94c-3.41-0.23-8.93-10.21-4.15-13.37c4.74-3.17-0.13-7.69-0.55-13.56c-0.44-5.86,9.47-6.02,8.6-2.71
		c-0.86,3.32-1.59,16.98,2.27,20.1c3.87,3.11,8.76,2.03,17.88-7.47c9.13-9.51,6.74,1.84,4.6,3.38s-19.6,10.35-6.8,11.61
		c12.8,1.25,3.61,4.64,1.6,6.36c-2.02,1.72,5.8,15.96,0.38,18.23c-5.39,2.27-9.91,13.3-12.75,14.25c-2.83,0.97-6.18,4.2-10.89,7.03
		c-4.72,2.85-9.7-16.1-14.34-13.55c-4.67,2.54,0.31,16.25,2.29,20.33c0.86,1.77-0.77,4.11-3,6.39c-2.91,2.97-6.83,5.82-7.58,7.12
		c-1.33,2.29,1.74,9.75-1.69,13.43c-2.67,2.84-1.54,6.8-1.73,9.44c-0.05,0.78-0.22,1.44-0.64,1.93c-1.86,2.16-2.1,7.07-3.91,8.56
		c-1.81,1.48-6.06-1.91-6.99-0.69c-0.95,1.2,3.28,5.33,2.77,8.38c-0.51,3.04-12.78,4.53-11.29,6.13c1.53,1.61,8.49,3.02,13.63,4.16
		c5.16,1.12,9.83,17.44,7.8,21.39c-1.48,2.92-11.27,6.95-18.36,8.83c-2.54,0.68-4.73,1.07-6.08,1.05
		c-5.11-0.07-7.84,8.16-2.68,10.35c3.45,1.45,3.44,5.33,3.84,11.41c0.01,0.25,0.03,0.51,0.04,0.77c0.2,2.88,0.52,6.22,1.33,10
		c2.65,12.29,4.87,7.5,12.87,11.12c1.84,0.83,3.46,1,4.96,0.75c5.04-0.82,8.7-6.36,14.65-7.34c0.91-0.15,1.79-0.41,2.61-0.77
		c0.85-0.35,1.64-0.81,2.39-1.34c4.77-3.38,7.62-9.89,8.16-14.59c0.73-6.15-3.07-14.42,2.58-24.65c5.62-10.21,0.63-18.69,2.22-20.62
		c1.57-1.95,10.65,0.91,12.02-4.36c1.34-5.25,6.12-15.92,16.61-9.26c10.48,6.69,23.31-2.53,32.26,3.9
		c8.98,6.43-14.9,15.02-5.64,21.5c9.26,6.48,18.86-17.57,17.7-23.18c-1.15-5.62-7.86-12.95-10.77-10.86
		c-2.9,2.08-19.26-3.34-26.67-4.09c-7.39-0.77-8.77-18.72,3-10.37c11.79,8.34,26.77-2.42,32.41,4.95
		c5.67,7.39,31.69,20.51,34.68,17.63c3.01-2.85-7.49-16.44-11.48-19.98c-2.38-2.11,0.29-7.6,4.07-10.05
		c2.59-1.69,5.7-1.94,8.05,1.33c0.62,0.86,1.44,1.57,2.41,2.13c1.69,0.99,3.85,1.56,6.23,1.84c0.01,0,0.01,0,0.02,0
		c8.95,1.04,21.11-2.08,24.02-3.04c4.16-1.38,17.68-15.66,17.31-18.1c-0.38-2.4,6.04-3.25,15.14,11.68
		c2.69,4.41,3.35,8.48,2.91,12.08c-1.06,8.57-8.44,14.41-9.95,15.5c-2.14,1.54-3.07,10.78-9.45,11.45
		c-6.38,0.63-33.94,12.75-39.57,17.71c-5.65,4.94-3.35,10.61-0.36,12.05c3.02,1.42,6.08,9.95-2.97,8.4s-12.6,7.68-17.67,5.01
		c-8.14-4.28-17.16-1.86-19.55,0.52c-4.22,4.28-20.12,10.66-17.44,3.72c2.2-5.72-1.43-10.01-4.61-11.19
		c-1.97-0.74-0.08-3.35-2.36-6.51c-2.29-3.19-6.98-1.19-11.61,5.64c-4.27,6.29-7.63,11.47-19.26,12.6
		c-15.67,1.53-18.58,15.1-22.8,23.64c-1.29,2.61-2.71,4.75-4.64,5.93c-0.03,0.02-0.07,0.04-0.1,0.06
		c-8.26,4.9-19.97-4.38-18.69,5.39c0.07,0.54,0.1,1.1,0.1,1.68v0.01c0.02,9.87-9.4,24.44-10.93,32.51
		c-0.45,2.41-0.26,4.87,0.24,7.24c1.2,5.74,4.18,10.97,4.17,13.73c-0.03,3.36-3.91,6.15-6.35,7.9c-0.41,0.29-0.78,0.56-1.08,0.79
		c-3.9,2.99-5.7,6.48-6.28,9.89c-1.08,6.32,1.97,12.35,3.46,14.42c2.21,3.07-3.71,20.75,5.35,31.8c0.35,0.43,0.72,0.85,1.11,1.25
		c10.81,11.11-8.64,26.19,9.28,37.08c15.59,9.46,8.29,15.05,23.27,16.81c14.97,1.76,13.23,29.49,30.17,22.4
		c11.15-4.68,20.44-4.09,27.88-3.82h0.01c0.87,0.03,1.71,0.06,2.52,0.07c0.78,0.02,1.53,0.02,2.25-0.01
		c4.62-0.11,8.33-0.99,11.14-4.57c4.94-6.3,13.27-8.11,20.21-9.67c3.89-0.87,7.34-1.66,9.53-3.12c6.11-4.04,2.81-11.66,17.64-24.12
		c14.86-12.47,15.98,10.68,30.08,0.18c14.11-10.48,27.04-11.56,28.3,5.77c0.25,3.4,1.11,6.2,2.53,8.53
		c5.04,8.34,17.1,10.64,33.15,12.4c1.2,0.13,2.43,0.26,3.68,0.39c1.19,0.12,2.41,0.25,3.64,0.37c0.13,0.01,0.26,0.03,0.39,0.04
		c24.1,2.55,24.92,16.2,27.42,36.12c0.34,2.76,0.97,5.3,1.84,7.61c5.46,14.47,20.38,20.27,33.81,17.9
		c25.2-4.44,48.02,19.2,53.04,16.6c19.98-10.35,21.15-27.27,35.41-36.55c22.63-14.72-4.02-23.65,11.04-45.21
		c15.07-21.56-2.91-26.66-2.5-29.85c0.54-4.23,2.83-8.61,5.62-13.02c2.19-3.49,4.69-7,6.87-10.47c5.24-8.37,8.59-16.52,1.22-23.67
		c-4-3.88-9.64-11.4-14.48-16.94c-0.46-0.54-0.92-1.05-1.36-1.54c-2.58-2.83-4.84-4.9-6.37-5.25c-0.05-0.01-0.1-0.02-0.15-0.04
		c-4.43-1.09-6.88-5.36-11.94-25.05c-5.13-19.94,4.92-44.34,6.08-73.6c1.01-25.97-14.59-54.51-20.19-59.47c0,0-0.01,0-0.01-0.01
		c-0.7-0.61-1.25-0.86-1.58-0.68c-3.01,1.61-3.17,9.42-6.3,15.08c-3.14,5.66-13.52,13.82-15.1,20.15s-9.42,9.45-10.32,2.95
		c-0.32-2.37-2.03-4.04-4.65-5.1c-4.57-1.84-11.93-1.85-19.59-0.55c-5.66,0.96-11.37-0.8-16.24-2.82c-5.5-2.31-9.94-4.95-12.03-4.4
		c-3.95,1.04-18.64-13.6-24.71-13.52c-2.12,0.03-3.73-0.52-5.55-1.44c-3.43-1.73-7.61-4.76-17.26-7.73
		c-14.83-4.55-26.24-23.71-8.55-13.38c17.52,10.21,26.2-1.88,38.15,9.08c0.14,0.13,0.29,0.26,0.43,0.4
		c12.15,11.66,21.84,11.11,30.77,10.96c3.98-0.07,7.97,0.79,12.3,2.84c5.36,2.53,11.25,6.91,18.28,13.64
		c2.19,2.1,4.27,3.26,6.2,3.69c9.21,2.08,14.87-12.51,12.97-20.7c-0.09-0.39-0.17-0.78-0.23-1.16c-1.93-12.09,10.36-21.64,7.96-33
		c-1.1-5.29,7.25-11.23,2.77-21.48c-1.61-3.67-0.11-6.43,1.04-9c1.04-2.32,1.79-4.48-0.29-7.01c-1.81-2.2-3.49-5.46-5.12-8.87
		c-2.33-4.88-4.57-10.08-6.94-12.95c-4.06-4.87-14.55-0.83-17.66,2.35c-1.2,1.22-3.84,0.16-6.55-1.3c-4.39-2.33-8.93-5.68-7.79-2.07
		c1.78,5.68,0.8,25.57-6.69,19.83c-7.5-5.74-9.73-0.91-5.78,3.09c3.97,3.99-12.45-0.9-22.38-4.44c-13.62-4.83-12.58-14.3-3.59-10.83
		c8.97,3.47,16.21-7.9,39.35-14.87c8.48-2.55,13.12-8.76,16.28-15.15c5.47-11.03,6.51-22.58,15.25-16.64
		c5.57,3.8,10.25,2.29,14.85,0.22c1.68-0.75,3.34-1.58,5.03-2.25H894c5.16-2.04,10.61-2.63,17.45,4.72
		c15.29,16.37,35.48,10.97,47.8,23.58c12.3,12.6,21.54,8.9,15.5,3.88c-6.05-5.05-9.24-17.77-14.76-25.06
		c-5.51-7.28-14.67-9.57-20.4-26.13c-7.29-21.05-43.98-52.9-24.23-43.47c19.83,9.46,6.81,1.54,25.12,4.46
		c4.56,0.73,12.28,6.19,21.05,13.45c8.84,9.78,17.23,20.13,25.09,31.07c14.41,20.06,26.44,41.13,36.12,62.9
		c4.35,9.76,8.22,19.65,11.62,29.66c14.68,43.05,20.75,88.12,18.65,132.8C1051.58,518.67,1046.35,548.97,1037.45,578.33z
		 M917.69,606.75c5.83,2.65-0.1,1.95-0.1,1.95c-2.78-0.12-8.5-5.8-9.84-9.55c-1.01-2.82-4.24-5.81-5.8-7.47
		c-0.52-0.53-0.85-0.93-0.88-1.14c-0.01-0.08,0.02-0.13,0.09-0.16c0.14-0.06,0.44-0.01,0.84,0.12c1.47,0.49,4.37,2.14,6.28,4.1
		c0.59,0.61,1.09,1.41,1.57,2.31l0.01,0.01C911.59,600.14,913.14,604.68,917.69,606.75z M872.4,556.24c1.2,2.18,0.41,7.4-4.98,7.87
		c-3.8,0.34-5.84-6.41-6.01-8.36c-0.32-3.35,6.01-13.1,8.87-12.45C873.12,543.93,871.21,554.07,872.4,556.24z M868.55,596.35
		c-0.89-0.3-7.48-10.58-9.4-11.37c-1.89-0.76,1.73-0.96,7.25,4.46c3.31,3.24,8.92,5.45,12.44,7.36c2.37,1.3,3.8,2.45,2.96,3.7
		c-0.83,1.24-4.89-0.28-8.31-1.82C871.04,597.58,868.92,596.47,868.55,596.35z M986.12,576.6c-2.08-10-1.54-23.13-2.04-28.56
		c-0.54-5.91-8.47-17.41-11.01-15.7l-0.17,0.14c-3.18,3.21-3.12,10.72-1.29,17.02c3.47,11.98-12.05,29.01-4.53,41.88
		c1.46,2.5,2.61,4.95,3.54,7.26c4.33,10.78,3.86,18.77,7.8,16.78c7.54-3.81,11.48-25.42,8.49-35.61
		C986.61,578.79,986.35,577.71,986.12,576.6z M984.06,310.92c0,0,4.69,0.12-1.63-9.42c-6.32-9.54-15.41-8.64-11.36-5.65
		C975.11,298.85,981.09,310.92,984.06,310.92z M708.38,372.46c2.37-0.59,6.57-6.16,6.63-9.6c0.05-3.43-5.23,1.26-6.06,1.86
		C708.11,365.32,706.37,372.95,708.38,372.46z M671.79,399.02c5-1.14,8.3-7.08,9.49-9.01c1.18-1.92-3.55,0.14-4.53,1.6
		c-0.99,1.46-8.04,3.68-9.58,4.93C665.63,397.78,669.18,399.61,671.79,399.02z M579.79,412.84c0.95,1.2-3.47,4.83-2.31,5.06
		c1.16,0.24,3.09,3.42,3.92,6.21c0.84,2.8,2.93,3.3,5.24,1.52c3.18-2.47,0.3-7.99-1.55-9.18c-1.84-1.18-1.94-5.21-2.45-5.92
		c-0.51-0.71-4.19-3.07-5.2-5.48c-1.01-2.4-4.53,0.85-4.36,2.34S578.84,411.65,579.79,412.84z M497.79,365.82
		c0.82,3.54,0.32,9.61-0.52,11.74c-1.28,3.24,4.61,3.66,2.6,6.89c-2,3.23,2.36,9.13,3.27,6.05c2.19-7.39,10.13-10.87,14.13-14.86
		c0.43-0.42,0.81-0.85,1.13-1.29c3.39-4.58-3.57-10.49-7.69-13.96c-3.42-2.89-9.9-3.09-12.31-7.27c-0.49-0.84-0.81-1.86-0.9-3.09
		c-0.55-7.29-3.77-3.73-6.37-2.58c-2.59,1.16,2.66-9.6-1.16-7.39c-3.82,2.21-4.68,9.8-4.37,12.98c0.05,0.58,0.17,1.1,0.34,1.56
		c0.23,0.64,0.55,1.18,0.93,1.63c0.49,0.57,1.06,1.02,1.65,1.38c0.47,0.28,0.95,0.51,1.42,0.72c0.69,0.31,1.09,1.25,1.5,2.25
		c0.64,1.51,1.34,3.13,3.22,2.83c0.19-0.03,0.4-0.09,0.62-0.16C496.57,362.81,497.36,363.97,497.79,365.82z M495.1,229.79
		c2.19,0.14,8.86,4.27,10.77,4.28h0.01c0.08,0,0.16,0,0.22-0.02c0.15-0.04,0.22-0.14,0.23-0.3c0.05-0.69-0.99-2.45-1.32-4.82
		c-0.41-2.93,2.15-1.19,5.48-2.33c3.32-1.14-1.72-2.88-4.18-3.79c-2.46-0.92,2.98-3.39,2.25-5.66c-0.73-2.26-6.35,5.49-11.24,6.97
		C493.04,225.43,492.83,229.64,495.1,229.79z M490.94,369.51c0.65-5.37-11.48-6.69-9.91-1.74c0.94,2.95-1.41,7.18-2.81,10.14
		c-0.96,2.01-1.47,3.44-0.2,3.47c0.53,0.01,0.96,0.12,1.3,0.32c0.94,0.5,1.19,1.58,0.88,2.81c-0.23,0.95-0.8,1.99-1.63,2.91
		c-2.31,2.56,1.37,5.28,3.95,4.5c0.08-0.03,0.17-0.05,0.25-0.08c4.17-1.42,7.13-6.36,8.98-10.67
		C493.64,376.77,490.29,374.88,490.94,369.51z M446.65,236.38c-7.56,0.94-9.05,10.25-23.5,17.41c-12.35,6.13-8.87,12.54-7.34,15.47
		c3.41,6.49-9.64,16.94-11.07,26.74c-1.83,12.47-6.81,31.18-17.68,41.14c-7.33,6.71-3.34,19.92-0.75,21.28
		c3.75,1.96,4.93,9.24,8.31,6.55c9.23-7.36,8.85-27.83,17.29-32.28c8.43-4.45,12.67-14.74,18.19-17.64
		c5.53-2.9,10.2-7.42,10.76-14.71c0.84-10.88,10.59-19.14,13.65-22.41c3.05-3.27,6.53-15.25,4.91-21.77
		c-1.81-7.29,4.77-10.67,5.87-20.05C466.4,226.73,454.43,235.42,446.65,236.38z M457.92,313.03c-0.2-0.37-0.43-0.68-0.68-0.93
		c-2.35-2.36-6.36,0.46-6.61,1.93c-0.27,1.63-4.53,6.01-7.64,3.95c-3.1-2.06-6.31-0.75-4.86,0.96c2.16,2.53-0.27,7.62,2.93,11.03
		c1.95,2.09,13.14,3.39,10.29,0.39c-1.87-1.97-2.39-7.24,1.18-6.09c0.84,0.27,1.83,0.33,2.88,0.24c3.8-0.29,8.4-2.48,9.31-3.76
		C465.89,319.1,460.08,316.95,457.92,313.03z M506.31,222.81c-2.46-0.92,2.98-3.39,2.25-5.66c-0.73-2.26-6.35,5.49-11.24,6.97
		c-4.28,1.31-4.49,5.52-2.22,5.67c2.19,0.14,8.86,4.27,10.77,4.28h0.01c0.08,0,0.16,0,0.22-0.02c0.15-0.04,0.22-0.14,0.23-0.3
		c0.05-0.69-0.99-2.45-1.32-4.82c-0.41-2.93,2.15-1.19,5.48-2.33C513.81,225.46,508.77,223.72,506.31,222.81z M446.65,236.38
		c-7.56,0.94-9.05,10.25-23.5,17.41c-12.35,6.13-8.87,12.54-7.34,15.47c3.41,6.49-9.64,16.94-11.07,26.74
		c-1.83,12.47-6.81,31.18-17.68,41.14c-7.33,6.71-3.34,19.92-0.75,21.28c3.75,1.96,4.93,9.24,8.31,6.55
		c9.23-7.36,8.85-27.83,17.29-32.28c8.43-4.45,12.67-14.74,18.19-17.64c5.53-2.9,10.2-7.42,10.76-14.71
		c0.84-10.88,10.59-19.14,13.65-22.41c3.05-3.27,6.53-15.25,4.91-21.77c-1.81-7.29,4.77-10.67,5.87-20.05
		C466.4,226.73,454.43,235.42,446.65,236.38z M457.92,313.03c-0.2-0.37-0.43-0.68-0.68-0.93c-2.35-2.36-6.36,0.46-6.61,1.93
		c-0.27,1.63-4.53,6.01-7.64,3.95c-3.1-2.06-6.31-0.75-4.86,0.96c2.16,2.53-0.27,7.62,2.93,11.03c1.95,2.09,13.14,3.39,10.29,0.39
		c-1.87-1.97-2.39-7.24,1.18-6.09c0.84,0.27,1.83,0.33,2.88,0.24c3.8-0.29,8.4-2.48,9.31-3.76
		C465.89,319.1,460.08,316.95,457.92,313.03z M490.94,369.51c0.65-5.37-11.48-6.69-9.91-1.74c0.94,2.95-1.41,7.18-2.81,10.14
		c-0.96,2.01-1.47,3.44-0.2,3.47c0.53,0.01,0.96,0.12,1.3,0.32c0.94,0.5,1.19,1.58,0.88,2.81c-0.23,0.95-0.8,1.99-1.63,2.91
		c-2.31,2.56,1.37,5.28,3.95,4.5c0.08-0.03,0.17-0.05,0.25-0.08c4.17-1.42,7.13-6.36,8.98-10.67
		C493.64,376.77,490.29,374.88,490.94,369.51z M510.71,360.39c-3.42-2.89-9.9-3.09-12.31-7.27c-0.49-0.84-0.81-1.86-0.9-3.09
		c-0.55-7.29-3.77-3.73-6.37-2.58c-2.59,1.16,2.66-9.6-1.16-7.39c-3.82,2.21-4.68,9.8-4.37,12.98c0.05,0.58,0.17,1.1,0.34,1.56
		c0.23,0.64,0.55,1.18,0.93,1.63c0.49,0.57,1.06,1.02,1.65,1.38c0.47,0.28,0.95,0.51,1.42,0.72c0.69,0.31,1.09,1.25,1.5,2.25
		c0.64,1.51,1.34,3.13,3.22,2.83c0.19-0.03,0.4-0.09,0.62-0.16c1.29-0.44,2.08,0.72,2.51,2.57c0.82,3.54,0.32,9.61-0.52,11.74
		c-1.28,3.24,4.61,3.66,2.6,6.89c-2,3.23,2.36,9.13,3.27,6.05c2.19-7.39,10.13-10.87,14.13-14.86c0.43-0.42,0.81-0.85,1.13-1.29
		C521.79,369.77,514.83,363.86,510.71,360.39z M585.09,416.45c-1.84-1.18-1.94-5.21-2.45-5.92c-0.51-0.71-4.19-3.07-5.2-5.48
		c-1.01-2.4-4.53,0.85-4.36,2.34s5.76,4.26,6.71,5.45c0.95,1.2-3.47,4.83-2.31,5.06c1.16,0.24,3.09,3.42,3.92,6.21
		c0.84,2.8,2.93,3.3,5.24,1.52C589.82,423.16,586.94,417.64,585.09,416.45z M676.75,391.61c-0.99,1.46-8.04,3.68-9.58,4.93
		c-1.54,1.24,2.01,3.07,4.62,2.48c5-1.14,8.3-7.08,9.49-9.01C682.46,388.09,677.73,390.15,676.75,391.61z M708.95,364.72
		c-0.84,0.6-2.58,8.23-0.57,7.74c2.37-0.59,6.57-6.16,6.63-9.6C715.06,359.43,709.78,364.12,708.95,364.72z M982.43,301.5
		c-6.32-9.54-15.41-8.64-11.36-5.65c4.04,3,10.02,15.07,12.99,15.07C984.06,310.92,988.75,311.04,982.43,301.5z M986.91,579.81
		c-0.3-1.02-0.56-2.1-0.79-3.21c-2.08-10-1.54-23.13-2.04-28.56c-0.54-5.91-8.47-17.41-11.01-15.7l-0.17,0.14
		c-3.18,3.21-3.12,10.72-1.29,17.02c3.47,11.98-12.05,29.01-4.53,41.88c1.46,2.5,2.61,4.95,3.54,7.26
		c4.33,10.78,3.86,18.77,7.8,16.78C985.96,611.61,989.9,590,986.91,579.81z"/><path fill="#92e0dc" d="M773.36,537.14c-28.78,19.8-59.26,37.01-90.87,51.53c-423.12-189.36-156.22-514.62-1.04-309.81
			C828.43,86.21,1059.74,359.37,773.36,537.14z"/><path fill="#dd473c" d="M891.46,349.14c-0.97,17.31-5.43,37.32-16.08,59.29c-20.34,41.96-57.86,80.12-111.51,113.42
			c-0.24,0.15-0.48,0.3-0.71,0.46c-25.36,17.45-52.5,33.08-80.78,46.54c-41.35-19.04-77.43-40.25-107.34-63.09
			c-28.45-21.73-51.47-45.03-68.43-69.27c-17.33-24.77-28.22-50.68-32.21-75.93c0,0,49.19-21.25,115.46-11.43
			c53.4,7.91,96.89,49.92,164.54,17.22C838.88,325.53,891.46,349.14,891.46,349.14z"/><path fill="#eadcda" d="M909.63,341.43c0,61.15-37.09,134.15-136.28,195.71c-28.77,19.8-59.26,37.02-90.86,51.54
			c-88.22-39.48-146.44-84.86-181.94-130.13c238.22,97.96,382.96-140.6,363.65-219.62c1.72,1.45,3.39,2.95,5.04,4.51
			c0.3,0.29,0.59,0.57,0.89,0.86c0.51,0.5,1.02,1,1.53,1.51c0.64,0.63,1.25,1.27,1.88,1.92c0.55,0.59,1.1,1.18,1.65,1.78
			c0.3,0.33,0.59,0.65,0.88,0.98c2.75,3.07,5.37,6.3,7.83,9.66c0.35,0.46,0.69,0.94,1.02,1.42c0.38,0.55,0.77,1.09,1.16,1.65
			c0.23,0.36,0.48,0.72,0.72,1.08c1.32,1.97,2.6,4,3.82,6.06c0.3,0.49,0.59,0.99,0.87,1.48c0.88,1.54,1.74,3.11,2.57,4.69
			c0.19,0.35,0.36,0.69,0.53,1.03c0.36,0.71,0.72,1.43,1.08,2.15c0.37,0.77,0.74,1.53,1.09,2.31c0.05,0.09,0.09,0.2,0.14,0.29
			c0.35,0.76,0.7,1.51,1.02,2.28c0.48,1.09,0.94,2.2,1.41,3.31c0.36,0.87,0.7,1.74,1.03,2.63c0.09,0.24,0.19,0.5,0.29,0.76
			c0.29,0.77,0.57,1.53,0.84,2.31c0.21,0.59,0.42,1.2,0.63,1.8c0.26,0.76,0.51,1.52,0.76,2.28c0.24,0.75,0.48,1.51,0.71,2.28
			c0.24,0.82,0.49,1.65,0.72,2.47c0.27,0.95,0.52,1.9,0.77,2.87c0.16,0.6,0.31,1.21,0.45,1.81c0.34,1.37,0.65,2.74,0.95,4.14
			c0.08,0.41,0.16,0.81,0.26,1.22c0.2,1.01,0.38,2.02,0.58,3.04c0.15,0.88,0.31,1.78,0.45,2.68c0,0.06,0.01,0.13,0.03,0.2
			c0.16,1.02,0.31,2.06,0.45,3.1c0.1,0.79,0.21,1.58,0.3,2.38c0.05,0.41,0.09,0.8,0.14,1.21c0.12,0.98,0.21,1.96,0.3,2.95
			c0.08,0.86,0.15,1.72,0.21,2.59c0.02,0.33,0.05,0.65,0.07,0.98c0.07,1.13,0.14,2.27,0.19,3.42c0.02,0.6,0.05,1.21,0.06,1.81
			c0.01,0.22,0.02,0.44,0.02,0.65c0.01,0.44,0.02,0.87,0.03,1.31C909.62,339.65,909.63,340.53,909.63,341.43z"/><path fill="#ddc3c0" d="M773.36,537.14c-28.77,19.8-59.26,37.02-90.86,51.54c-40.54-18.14-74.75-37.53-103.32-57.58
			c185.49,33.49,323.53-164.41,308.73-265.16C930.73,331.9,918.84,446.83,773.36,537.14z"/><radialGradient id="a" cx="-979.255" cy="-2999.509" r="87.887" gradientTransform="matrix(.8412 -.2986 .2595 .7027 2164.264 2121.106)" gradientUnits="userSpaceOnUse"><stop offset="0" stop-color="#a1ccce"/><stop offset="1" stop-color="#848587"/></radialGradient><path fill="url(#a)" d="M589.88,370.86c-46.36,19.77-96.34,6.73-111.64-29.14s9.88-80.98,56.23-100.75s96.34-6.73,111.64,29.14
			S636.24,351.09,589.88,370.86z"/><circle cx="681.54" cy="252.68" r="27.42" fill="#92e0dc"/><circle cx="681.54" cy="252.68" r="16.01" fill="#fff"/><path fill="#dd473c" d="M1084.84,340.39l-4.08-19.27c-0.07-0.32-0.32-0.56-0.63-0.63l-19.31-3.89c-0.86-0.17-0.87-1.4-0.01-1.59
		l19.27-4.08c0.32-0.07,0.56-0.32,0.63-0.63l3.89-19.31c0.17-0.86,1.4-0.87,1.59-0.01l4.08,19.27c0.07,0.32,0.32,0.56,0.63,0.63
		l19.31,3.89c0.86,0.17,0.87,1.4,0.01,1.59l-19.27,4.08c-0.32,0.07-0.56,0.32-0.63,0.63l-3.89,19.31
		C1086.25,341.24,1085.03,341.25,1084.84,340.39z"/><path fill="#196572" d="M256.3,572.93l-3.78-19.33c-0.06-0.32-0.31-0.57-0.62-0.64l-19.25-4.18c-0.86-0.19-0.85-1.42,0.02-1.59
		l19.33-3.78c0.32-0.06,0.57-0.31,0.64-0.62l4.18-19.25c0.19-0.86,1.42-0.85,1.59,0.02l3.78,19.33c0.06,0.32,0.31,0.57,0.62,0.64
		l19.25,4.18c0.86,0.19,0.85,1.42-0.02,1.59l-19.33,3.78c-0.32,0.06-0.57,0.31-0.64,0.62l-4.18,19.25
		C257.7,573.81,256.47,573.79,256.3,572.93z"/><path fill="#a7c149" d="M460.91,213.11l-3.78-19.33c-0.06-0.32-0.31-0.57-0.62-0.64l-19.25-4.18c-0.86-0.19-0.85-1.42,0.02-1.59
		l19.33-3.78c0.32-0.06,0.57-0.31,0.64-0.62l4.18-19.25c0.19-0.86,1.42-0.85,1.59,0.02l3.78,19.33c0.06,0.32,0.31,0.57,0.62,0.64
		l19.25,4.18c0.86,0.19,0.85,1.42-0.02,1.59l-19.33,3.78c-0.32,0.06-0.57,0.31-0.64,0.62l-4.18,19.25
		C462.31,213.99,461.08,213.97,460.91,213.11z"/><path fill="#92e0dc" d="M973.29,186.7c-4.8,1-9.68,1.57-14.55,1.73c-44.43-47.49,7.76-75.05,16.7-40.12
			C1004.92,131.37,1019.99,179.27,973.29,186.7z"/><path fill="#92e0dc" d="M283.96,332.79c-3.01,3.87-6.35,7.46-9.96,10.75c-64.61-7.37-42.72-62.19-13.28-41.38
			C272.19,270.15,314.71,296.87,283.96,332.79z"/><path fill="#92e0dc" d="M1111.75,538.65c-3.03,0.29-6.08,0.3-9.1,0.07c-24.15-32.35,9.95-45.77,13.06-23.61
			C1135.06,506.68,1141.07,537.27,1111.75,538.65z"/><path fill="#a7c149" d="M966.69,777.88c0.19-0.04,0.38-0.09,0.57-0.13c6.33,0.87,12.71,1.34,19.11,1.04
			c1.75-0.08,3.51-0.25,5.27-0.48l-0.03,0.15c7.18,1.52,13.94,5.2,19.14,10.38c-0.06,1.01,0.09,2.04,0.37,3.04
			c0.75,2.68,2.1,5.27,3.93,7.37c1.99,2.28,4.61,4.03,7.56,4.76c0.37,0.09,0.74,0.16,1.11,0.22c4.57,0.71,9.13-0.88,13.56-2.18
			c4.43-1.31,9.3-2.33,13.57-0.58c-2.32-5.34-5.19-10.54-9.29-14.68c-4.09-4.14-9.53-7.17-15.34-7.51c-3.44-0.2-6.97,0.64-9.93,2.43
			c-1.9,1.15-3.9,2.62-4.92,4.65c-0.05,0.11-0.1,0.22-0.14,0.33c-4.37-4.1-9.68-7.21-15.38-9.05c12.29-2.38,24.58-8.16,36.07-16.86
			c5.61-3.02,11.63-0.93,16.45,1.51c0.06,0.58,0.18,1.16,0.34,1.72c0.75,2.68,2.1,5.27,3.93,7.37c1.99,2.28,4.61,4.03,7.56,4.76
			c0.37,0.09,0.74,0.16,1.11,0.22c4.57,0.71,9.13-0.88,13.56-2.18c4.43-1.31,9.3-2.33,13.57-0.58c-2.32-5.34-5.19-10.54-9.29-14.68
			c-4.09-4.14-9.53-7.17-15.34-7.51c-3.44-0.2-6.97,0.64-9.93,2.43c-1.9,1.15-3.9,2.62-4.92,4.65c-0.28,0.56-0.45,1.13-0.55,1.72
			c-3.52-1.7-7.9-3.24-12.37-2.7c7-5.83,13.65-12.76,19.76-20.68l-0.53-0.41c0.93,0.66,2.03,1.1,3.17,1.37
			c2.7,0.64,5.63,0.73,8.35,0.15c2.96-0.63,5.76-2.07,7.83-4.29c0.26-0.28,0.5-0.57,0.73-0.86c2.84-3.65,3.67-8.4,4.69-12.91
			s2.49-9.26,6.09-12.14c-5.8-0.57-11.73-0.59-17.34,0.97c-5.61,1.56-10.9,4.84-14.03,9.75c-1.85,2.91-2.83,6.4-2.71,9.85
			c0.08,2.22,0.39,4.68,1.67,6.56c0.37,0.54,0.82,1,1.31,1.38l-0.75-0.58c-7.16,9.27-15.06,17.17-23.39,23.5
			c-0.05,0.03-0.1,0.05-0.15,0.08l0.02,0.03c-5.58,4.23-11.36,7.75-17.22,10.52c6.16-5.67,10.66-13.16,12.38-20.85
			c0.56-0.15,1.11-0.34,1.64-0.58c2.53-1.14,4.9-2.86,6.7-4.98c1.96-2.3,3.3-5.16,3.58-8.18c0.03-0.38,0.05-0.76,0.05-1.13
			c0.02-4.62-2.22-8.9-4.17-13.09c-1.95-4.19-3.69-8.85-2.6-13.34c-4.94,3.08-9.65,6.7-13.14,11.36
			c-3.49,4.66-5.68,10.49-5.15,16.29c0.31,3.44,1.67,6.8,3.88,9.45c1.42,1.71,3.17,3.46,5.33,4.18c0.62,0.2,1.24,0.29,1.87,0.29
			c-2.26,9.15-8.63,17.96-17.01,23.34l0.01,0.02c-6.86,2.53-13.8,4.01-20.66,4.34c-4.89,0.23-9.79,0-14.67-0.52
			c6.3-2.61,11.95-7.57,15.16-13.47c1.2,0.13,2.42-0.06,3.6-0.42c2.65-0.83,5.21-2.25,7.25-4.13c2.22-2.05,3.9-4.72,4.54-7.69
			c0.08-0.37,0.14-0.74,0.19-1.12c0.58-4.58-1.13-9.1-2.56-13.49c-1.43-4.39-2.59-9.23-0.96-13.55c-5.28,2.46-10.39,5.48-14.41,9.69
			c-4.03,4.21-6.9,9.72-7.08,15.55c-0.1,3.45,0.84,6.95,2.7,9.85c1.2,1.87,2.73,3.82,4.79,4.79c0.02,0.01,0.03,0.01,0.05,0.02
			c-3.68,6.48-10.5,11.69-17.7,13.43c-6.82-0.95-13.59-2.36-20.24-3.75c-4.09-0.85-8.26-1.72-12.46-2.49
			c3.23-0.63,6.36-1.77,9.19-3.41c2.63-1.53,4.74-3.32,6.31-5.34c1.31,0.22,2.66,0.03,3.96-0.37c2.65-0.83,5.21-2.25,7.25-4.13
			c2.22-2.05,3.9-4.72,4.54-7.69c0.08-0.37,0.14-0.74,0.19-1.12c0.58-4.58-1.13-9.1-2.56-13.5c-1.43-4.39-2.59-9.23-0.96-13.55
			c-5.28,2.46-10.39,5.48-14.41,9.69c-4.03,4.21-6.9,9.72-7.08,15.55c-0.1,3.45,0.84,6.95,2.7,9.85c1.13,1.76,2.57,3.6,4.45,4.61
			c-1.38,1.62-3.16,3.09-5.35,4.36c-4.66,2.71-10.2,4.01-15.58,3.66l-0.01,0.19c-1.57-0.23-3.15-0.44-4.72-0.61
			c-3.5-0.39-7.01-0.61-10.53-0.7c-0.09-0.04-0.18-0.09-0.27-0.13l-0.06,0.13c-5.23-0.11-10.48,0.1-15.69,0.63
			c3.81-2.58,6.77-6.15,8.88-8.99c0.99-1.33,1.94-2.71,2.86-4.1c1.07,0.27,2.21,0.29,3.33,0.15c2.76-0.34,5.53-1.29,7.87-2.78
			c2.55-1.62,4.67-3.95,5.83-6.76c0.14-0.35,0.27-0.71,0.39-1.07c1.38-4.41,0.5-9.16-0.13-13.74c-0.63-4.58-0.91-9.54,1.45-13.51
			c-5.63,1.49-11.2,3.56-15.9,6.98c-4.71,3.43-8.52,8.35-9.72,14.05c-0.71,3.38-0.41,6.99,0.92,10.18c0.85,2.05,2.01,4.25,3.86,5.56
			c0.1,0.07,0.21,0.13,0.32,0.2c-0.84,1.26-1.7,2.51-2.6,3.71c-2.81,3.78-7.19,8.93-13.02,10.83
			c-25.11,3.67-49.23,14.63-68.12,31.55l1.27,1.42c11.85-10.61,25.78-18.84,40.73-24.36c8.97-0.15,18.08,2.31,25.78,6.92
			c-0.73,0.8-1.28,1.77-1.7,2.8c-1.03,2.58-1.54,5.46-1.37,8.24c0.19,3.02,1.2,6,3.1,8.38c0.24,0.3,0.49,0.58,0.75,0.85
			c3.19,3.34,7.78,4.86,12.09,6.53c4.31,1.66,8.79,3.81,11.12,7.8c1.42-5.65,2.3-11.52,1.57-17.3c-0.72-5.78-3.19-11.49-7.6-15.3
			c-2.61-2.26-5.92-3.73-9.35-4.12c-2.21-0.25-4.69-0.29-6.74,0.69c-0.1,0.05-0.2,0.11-0.3,0.17c-6.71-4.16-14.5-6.7-22.4-7.38
			c6.84-2.22,13.86-3.87,20.96-4.93l0.03,0.1c0.2-0.06,0.4-0.13,0.6-0.19c6.88-1,13.84-1.44,20.79-1.29
			c8.52,4.07,15.95,10.19,21.59,17.76c-0.57,0.72-1.01,1.54-1.35,2.4c-1.03,2.58-1.54,5.46-1.37,8.24c0.19,3.02,1.2,6,3.1,8.38
			c0.24,0.29,0.49,0.58,0.75,0.85c3.19,3.34,7.78,4.86,12.09,6.53c4.31,1.66,8.79,3.81,11.12,7.8c1.42-5.65,2.3-11.52,1.57-17.3
			c-0.72-5.78-3.19-11.49-7.6-15.3c-2.61-2.26-5.92-3.73-9.35-4.12c-2.21-0.25-4.69-0.29-6.74,0.69c-0.3,0.15-0.58,0.32-0.84,0.5
			c-4.99-6.65-11.32-12.19-18.54-16.27c2.11,0.12,4.23,0.29,6.33,0.53c8.16,0.9,16.39,2.62,24.35,4.28c1.59,0.33,3.2,0.67,4.8,1
			c9.1,4.08,17.8,11.43,24.11,20.31c-0.41,0.98-0.62,2.04-0.68,3.12c-0.15,2.78,0.29,5.67,1.34,8.24c1.15,2.8,3.06,5.3,5.62,6.94
			c0.32,0.2,0.65,0.39,0.98,0.57c4.09,2.14,8.92,2.12,13.54,2.32c4.62,0.2,9.55,0.8,13.03,3.83c-0.47-5.8-1.51-11.65-4.04-16.89
			c-2.54-5.24-6.7-9.87-12.09-12.07c-3.19-1.3-6.8-1.64-10.18-0.91c-2.17,0.47-4.53,1.22-6.16,2.81c-0.1,0.09-0.18,0.19-0.26,0.29
			c-5.1-7-11.65-13.04-18.7-17.3c2.92,0.54,5.85,1.04,8.8,1.46L966.69,777.88z"/><path fill="#a7c149" d="M397.59,777.88c-0.19-0.04-0.38-0.09-0.57-0.13c-6.33,0.87-12.71,1.34-19.11,1.04
			c-1.75-0.08-3.51-0.25-5.27-0.48l0.03,0.15c-7.18,1.52-13.94,5.2-19.14,10.38c0.06,1.01-0.09,2.04-0.37,3.04
			c-0.75,2.68-2.1,5.27-3.93,7.37c-1.99,2.28-4.61,4.03-7.56,4.76c-0.37,0.09-0.74,0.16-1.11,0.22c-4.57,0.71-9.13-0.88-13.56-2.18
			c-4.43-1.31-9.3-2.33-13.57-0.58c2.32-5.34,5.19-10.54,9.29-14.68c4.09-4.14,9.53-7.17,15.34-7.51c3.44-0.2,6.97,0.64,9.93,2.43
			c1.9,1.15,3.9,2.62,4.92,4.65c0.05,0.11,0.1,0.22,0.14,0.33c4.37-4.1,9.68-7.21,15.38-9.05c-12.29-2.38-24.58-8.16-36.07-16.86
			c-5.61-3.02-11.63-0.93-16.45,1.51c-0.06,0.58-0.18,1.16-0.34,1.72c-0.75,2.68-2.1,5.27-3.93,7.37c-1.99,2.28-4.61,4.03-7.56,4.76
			c-0.37,0.09-0.74,0.16-1.11,0.22c-4.57,0.71-9.13-0.88-13.56-2.18c-4.43-1.31-9.3-2.33-13.57-0.58
			c2.32-5.34,5.19-10.54,9.29-14.68c4.09-4.14,9.53-7.17,15.34-7.51c3.44-0.2,6.97,0.64,9.93,2.43c1.9,1.15,3.9,2.62,4.92,4.65
			c0.28,0.56,0.45,1.13,0.55,1.72c3.52-1.7,7.9-3.24,12.37-2.7c-7-5.83-13.65-12.76-19.76-20.68l0.53-0.41
			c-0.93,0.66-2.03,1.1-3.17,1.37c-2.7,0.64-5.63,0.73-8.35,0.15c-2.96-0.63-5.76-2.07-7.83-4.29c-0.26-0.28-0.5-0.57-0.73-0.86
			c-2.84-3.65-3.67-8.4-4.69-12.91s-2.49-9.26-6.09-12.14c5.8-0.57,11.73-0.59,17.34,0.97c5.61,1.56,10.9,4.84,14.03,9.75
			c1.85,2.91,2.83,6.4,2.71,9.85c-0.08,2.22-0.39,4.68-1.67,6.56c-0.37,0.54-0.82,1-1.31,1.38l0.75-0.58
			c7.16,9.27,15.06,17.17,23.39,23.5c0.05,0.03,0.1,0.05,0.15,0.08l-0.02,0.03c5.58,4.23,11.36,7.75,17.22,10.52
			c-6.16-5.67-10.66-13.16-12.38-20.85c-0.56-0.15-1.11-0.34-1.64-0.58c-2.53-1.14-4.9-2.86-6.7-4.98c-1.96-2.3-3.3-5.16-3.58-8.18
			c-0.03-0.38-0.05-0.76-0.05-1.13c-0.02-4.62,2.22-8.9,4.17-13.09c1.95-4.19,3.69-8.85,2.6-13.34c4.94,3.08,9.65,6.7,13.14,11.36
			c3.49,4.66,5.68,10.49,5.15,16.29c-0.31,3.44-1.67,6.8-3.88,9.45c-1.42,1.71-3.17,3.46-5.33,4.18c-0.62,0.2-1.24,0.29-1.87,0.29
			c2.26,9.15,8.63,17.96,17.01,23.34l-0.01,0.02c6.86,2.53,13.8,4.01,20.66,4.34c4.89,0.23,9.79,0,14.67-0.52
			c-6.3-2.61-11.95-7.57-15.16-13.47c-1.2,0.13-2.42-0.06-3.6-0.42c-2.65-0.83-5.21-2.25-7.25-4.13c-2.22-2.05-3.9-4.72-4.54-7.69
			c-0.08-0.37-0.14-0.74-0.19-1.12c-0.58-4.58,1.13-9.1,2.56-13.49c1.43-4.39,2.59-9.23,0.96-13.55c5.28,2.46,10.39,5.48,14.41,9.69
			c4.03,4.21,6.9,9.72,7.08,15.55c0.1,3.45-0.84,6.95-2.7,9.85c-1.2,1.87-2.73,3.82-4.79,4.79c-0.02,0.01-0.03,0.01-0.05,0.02
			c3.68,6.48,10.5,11.69,17.7,13.43c6.82-0.95,13.59-2.36,20.24-3.75c4.09-0.85,8.26-1.72,12.46-2.49
			c-3.23-0.63-6.36-1.77-9.19-3.41c-2.63-1.53-4.74-3.32-6.31-5.34c-1.31,0.22-2.66,0.03-3.96-0.37c-2.65-0.83-5.21-2.25-7.25-4.13
			c-2.22-2.05-3.9-4.72-4.54-7.69c-0.08-0.37-0.14-0.74-0.19-1.12c-0.58-4.58,1.13-9.1,2.56-13.5c1.43-4.39,2.59-9.23,0.96-13.55
			c5.28,2.46,10.39,5.48,14.41,9.69c4.03,4.21,6.9,9.72,7.08,15.55c0.1,3.45-0.84,6.95-2.7,9.85c-1.13,1.76-2.57,3.6-4.45,4.61
			c1.38,1.62,3.16,3.09,5.35,4.36c4.66,2.71,10.2,4.01,15.58,3.66l0.01,0.19c1.57-0.23,3.15-0.44,4.72-0.61
			c3.5-0.39,7.01-0.61,10.53-0.7c0.09-0.04,0.18-0.09,0.27-0.13l0.06,0.13c5.23-0.11,10.48,0.1,15.69,0.63
			c-3.81-2.58-6.77-6.15-8.88-8.99c-0.99-1.33-1.94-2.71-2.86-4.1c-1.07,0.27-2.21,0.29-3.33,0.15c-2.76-0.34-5.53-1.29-7.87-2.78
			c-2.55-1.62-4.67-3.95-5.83-6.76c-0.14-0.35-0.27-0.71-0.39-1.07c-1.38-4.41-0.5-9.16,0.13-13.74c0.63-4.58,0.91-9.54-1.45-13.51
			c5.63,1.49,11.2,3.56,15.9,6.98c4.71,3.43,8.52,8.35,9.72,14.05c0.71,3.38,0.41,6.99-0.92,10.18c-0.85,2.05-2.01,4.25-3.86,5.56
			c-0.1,0.07-0.21,0.13-0.32,0.2c0.84,1.26,1.7,2.51,2.6,3.71c2.81,3.78,7.19,8.93,13.02,10.83c25.11,3.67,49.23,14.63,68.12,31.55
			l-1.27,1.42c-11.85-10.61-25.78-18.84-40.73-24.36c-8.97-0.15-18.08,2.31-25.78,6.92c0.73,0.8,1.28,1.77,1.7,2.8
			c1.03,2.58,1.54,5.46,1.37,8.24c-0.19,3.02-1.2,6-3.1,8.38c-0.24,0.3-0.49,0.58-0.75,0.85c-3.19,3.34-7.78,4.86-12.09,6.53
			c-4.31,1.66-8.79,3.81-11.12,7.8c-1.42-5.65-2.3-11.52-1.57-17.3c0.72-5.78,3.19-11.49,7.6-15.3c2.61-2.26,5.92-3.73,9.35-4.12
			c2.21-0.25,4.69-0.29,6.74,0.69c0.1,0.05,0.2,0.11,0.3,0.17c6.71-4.16,14.5-6.7,22.4-7.38c-6.84-2.22-13.86-3.87-20.96-4.93
			l-0.03,0.1c-0.2-0.06-0.4-0.13-0.6-0.19c-6.88-1-13.84-1.44-20.79-1.29c-8.52,4.07-15.95,10.19-21.59,17.76
			c0.57,0.72,1.01,1.54,1.35,2.4c1.03,2.58,1.54,5.46,1.37,8.24c-0.19,3.02-1.2,6-3.1,8.38c-0.24,0.29-0.49,0.58-0.75,0.85
			c-3.19,3.34-7.78,4.86-12.09,6.53c-4.31,1.66-8.79,3.81-11.12,7.8c-1.42-5.65-2.3-11.52-1.57-17.3c0.72-5.78,3.19-11.49,7.6-15.3
			c2.61-2.26,5.92-3.73,9.35-4.12c2.21-0.25,4.69-0.29,6.74,0.69c0.3,0.15,0.58,0.32,0.84,0.5c4.99-6.65,11.32-12.19,18.54-16.27
			c-2.11,0.12-4.23,0.29-6.33,0.53c-8.16,0.9-16.39,2.62-24.35,4.28c-1.59,0.33-3.2,0.67-4.8,1c-9.1,4.08-17.8,11.43-24.11,20.31
			c0.41,0.98,0.62,2.04,0.68,3.12c0.15,2.78-0.29,5.67-1.34,8.24c-1.15,2.8-3.06,5.3-5.62,6.94c-0.32,0.2-0.65,0.39-0.98,0.57
			c-4.09,2.14-8.92,2.12-13.54,2.32c-4.62,0.2-9.55,0.8-13.03,3.83c0.47-5.8,1.51-11.65,4.04-16.89c2.54-5.24,6.7-9.87,12.09-12.07
			c3.19-1.3,6.8-1.64,10.18-0.91c2.17,0.47,4.53,1.22,6.16,2.81c0.1,0.09,0.18,0.19,0.26,0.29c5.1-7,11.65-13.04,18.7-17.3
			c-2.92,0.54-5.85,1.04-8.8,1.46L397.59,777.88z"/><g><path fill="#f2b288" d="M461.53,585.89c-14.65-10.43-65.17-90.94-66.03-95.37c-3.4-17.65-4.38-75.8-5.95-107.39
				c-0.83-16.7-28.84-31.88-30.73-6.17c-0.78,10.55-1.59,167.14-3.51,167.14l48.5,68.97C403.81,613.08,476.18,596.32,461.53,585.89z
				"/><path fill="#f2b288" d="M380.83,438.85c0,0,7.72-36.42,11.96-38.97c15.88-9.57,17.24,24.22,13.88,35.89
				c-5,17.33-13.4,85.77-13.4,85.77L380.83,438.85z"/><path fill="#f9bf98" d="M368.3,514.07c0,0-2.82-107.88-0.67-139.77c3.34-49.41-28.04-60.98-41.4-36.06
						c-9.45,17.63-31.32,175.38-14.46,210.98c14.83,31.34,70.12,126.99,70.12,126.99l68.93-95.36L368.3,514.07z"/><path fill="#ffcea9" d="M671.62,850.86c-17.21-0.21-34.45-1.62-51.63-4.21c-28.13-4.25-55.29-11.57-81.23-21.87
						c0.5-7.8,0.22-14.8-1.33-21.19c-1.57-6.49-4.45-12.36-9.12-17.81c-2.02-2.36-4.38-4.65-7.11-6.87
						c-4.53-3.68-10.51-8.13-17.51-13.13c-26.19-18.7-66.53-45.14-97.43-68.5c-2.95-2.23-5.81-4.43-8.57-6.6
						c-9.6-7.52-17.9-14.6-24.05-20.82c-7.19-7.27-16.76-29.14-25.97-53.77c-15.59-41.71-30.11-91.35-30.11-91.35
						s-0.18-0.98-0.49-2.8c-0.01-0.01-0.01-0.03-0.01-0.04c-1.01-5.71-3.43-19.54-6.32-36.94c-1.18-7.11-2.44-14.81-3.71-22.79
						c-2.64-16.59-5.34-34.4-7.52-50.64c-0.07-0.51-0.14-1.03-0.21-1.54c-2.58-19.46-4.37-36.52-4.37-46.27
						c0-0.31,0.01-0.61,0.01-0.9c0.05-4.38,0.51-7.11,1.48-7.66c9.07-5.14,17.73-7.8,25.89-4.65c3.96,1.53,7.81,4.43,11.52,9.09
						c1.57,1.97,3.12,4.27,4.65,6.9c0.33,0.57,0.66,1.17,0.98,1.79c0.93,1.75,1.84,3.72,2.75,5.87
						c4.37,10.31,8.58,24.86,12.35,40.22c1.17,4.8,2.31,9.68,3.39,14.53c4.1,18.42,7.45,36.5,9.57,48.58
						c1.56,8.99,2.45,14.65,2.45,14.65s37.39,48.09,54.24,67.19c1.6,1.81,3.01,3.37,4.19,4.59c4.41,4.58,11.57,10.55,22.38,16.92
						c0.01,0.01,0.03,0.02,0.04,0.03c3.43,2.01,7.23,4.07,11.43,6.13l0.78,0.39c0.59,0.29,1.19,0.58,1.8,0.86
						c1.29,0.61,2.61,1.23,3.98,1.84c12.31,5.52,27.56,10.98,46.32,15.76c10.1,2.58,21.21,4.96,33.43,7.05
						c1.11,0.19,2.23,0.38,3.36,0.57c0.64,0.1,1.29,0.21,1.94,0.31c0.42,0.07,0.84,0.14,1.27,0.21
						c16.37,2.9,41.08,12.46,51.69,18.91c17.04,10.37,28.43,20.85,36.15,32.49c13.14,19.83,15.65,43.05,17.33,75.01
						c0.64,12.35,2.04,29.4,3.77,48.13c2.02,21.91,4.51,41.53,6.83,57.48C671.14,847.67,671.38,849.28,671.62,850.86z"/><path fill="#ffcea9" d="M617.64,702.18c-0.12-1.3-0.31-2.56-0.53-3.79c-0.02-0.13-0.05-0.25-0.08-0.38
					c-0.21-1.15-0.46-2.27-0.75-3.37c-0.04-0.15-0.08-0.29-0.12-0.43c-0.29-1.07-0.62-2.12-0.98-3.14
					c-0.07-0.21-0.15-0.42-0.23-0.63c-0.35-0.94-0.72-1.86-1.12-2.77c-0.08-0.17-0.13-0.35-0.21-0.52
					c-0.05-0.11-0.11-0.21-0.16-0.32c-0.33-0.71-0.68-1.4-1.04-2.09c-0.54-1.03-1.11-2.03-1.71-3.02c-0.2-0.33-0.39-0.67-0.6-0.99
					c-0.36-0.56-0.75-1.11-1.14-1.67c-0.29-0.42-0.58-0.83-0.88-1.24c-0.4-0.55-0.82-1.09-1.24-1.63c-0.24-0.31-0.49-0.61-0.74-0.92
					c-0.32-0.4-0.63-0.8-0.96-1.19c-6.8-7.93-15.26-14.17-23.65-20.3c-4.19-3.08-8.42-6.13-12.33-9.56
					c-3.89-3.42-7.44-7.4-9.23-12.34c-4.2-9.52-8.34-19.08-12.39-28.66c-4.01-9.6-8.09-19.19-11.55-29
					c-3.32-9.87-6.93-19.65-11.17-29.17c-4.21-9.52-9.1-18.79-15.11-27.33c-3.04-4.24-6.41-8.26-10.28-11.79
					c-3.84-3.54-8.31-6.49-13.31-8.16c-5-1.59-10.57-1.62-15.49,0.32c-4.9,1.91-9.23,5.23-12.3,9.52
					c-2.95,4.51-3.11,10.13-2.49,15.25c0.63,5.2,1.97,10.25,3.31,15.28c2.65,10.01,5.81,20.14,5.32,30.57
					c-0.1,2.6-0.77,5.11-0.92,7.75c-0.03,2.62,0.18,5.23,0.59,7.8c0.78,5.16,1.95,10.24,3.29,15.28
					c5.44,20.12,12.59,39.71,19.94,59.18c5.91,15.48,12.08,30.86,18.47,46.15c3.04,7.3,4.95,11.73,4.95,11.75c0,0,0,0,0,0
					c0,0,0,0,0,0v0L617.64,702.18z"/><path fill="#f2b288" d="M535.6,573.6c5.68,11.83,11.56,23.49,17.11,35.32c2.86,5.87,5.53,11.83,8.33,17.73
						c1.42,2.86,2.66,6.24,4.07,8.32c1.54,2.33,3.67,4.51,6,6.54c4.62,4.16,9.98,7.89,15.2,11.87c5.18,4.04,10.47,8.16,15.13,13.03
						c2.33,2.43,4.61,4.93,6.59,7.68c1.98,2.75,3.76,5.65,5.25,8.68c1.42,3.07,2.55,6.26,3.31,9.52c0.74,3.27,1.04,6.59,1.03,9.88
						c-0.75-3.21-1.61-6.34-2.84-9.31c-1.25-2.96-2.69-5.81-4.43-8.46c-3.45-5.32-7.82-9.94-12.58-14.13
						c-9.57-8.45-20.8-14.8-31.2-23.67c-2.54-2.31-5.02-4.86-7.05-8.01l-0.74-1.19l-0.65-1.29c-0.47-0.91-0.71-1.57-1.06-2.35
						c-0.65-1.5-1.31-3-1.92-4.52c-2.47-6.07-5.02-12.1-7.31-18.24c-2.37-6.11-4.58-12.28-6.71-18.49
						C539.09,586.28,537.02,580.03,535.6,573.6z"/><path fill="#f2b288" d="M510.81,716.63c-9.23-15.98-17.4-32.53-24.88-49.4c-7.46-16.89-14.2-34.13-19.24-52.1
						c-1.21-4.51-2.28-9.07-3.12-13.72c-0.8-4.66-1.48-9.39-1.33-14.38l0.22-3.48c0.06-1.06,0.07-2.14,0.04-3.23
						c-0.04-2.17-0.23-4.38-0.47-6.6c-0.53-4.43-1.29-8.91-2.12-13.4c-1.7-8.97-3.67-18.02-4.81-27.27
						c-0.49-4.63-0.85-9.33-0.42-14.03c0.23-2.34,0.63-4.69,1.42-6.92c0.8-2.21,1.97-4.33,3.63-5.94c-1.36,1.87-2.2,4.02-2.64,6.22
						c-0.47,2.2-0.58,4.46-0.52,6.71c0.14,4.5,0.88,8.98,1.84,13.42c1.87,8.9,4.53,17.68,6.7,26.69c1.12,4.5,2.15,9.05,2.84,13.74
						c0.35,2.34,0.63,4.72,0.76,7.14c0.07,1.21,0.1,2.43,0.08,3.67l-0.1,3.41c-0.01,4.22,0.59,8.65,1.42,13.03
						c0.84,4.39,1.93,8.78,3.14,13.14c2.33,8.76,5.2,17.43,8.19,26.06c2.92,8.66,6.2,17.22,9.38,25.82
						C497.35,682.36,504.14,699.44,510.81,716.63z"/><path fill="#b3b3b3" d="M473.32,566.56c7.24,7.35,38-3.64,40.45-17.37c-0.89-1.89-11.04-53.38-39.69-43.61
					C447.25,514.73,473.32,566.56,473.32,566.56z"/><path fill="#b3b3b3" d="M298.42,410.18c-3.06-28.63-4.77-52.15-2.36-53.86c0,0,10.3,11.55,14.86,32.32
					C314.65,405.65,307.61,408.21,298.42,410.18z"/><path fill="#f2b288" d="M902.74,585.89c14.65-10.43,65.17-90.94,66.03-95.37c3.4-17.65,4.38-75.8,5.95-107.39
				c0.83-16.7,28.84-31.88,30.73-6.17c0.78,10.55,1.59,167.14,3.51,167.14l-48.5,68.97C960.46,613.08,888.09,596.32,902.74,585.89z"/><path fill="#f2b288" d="M983.44,438.85c0,0-7.72-36.42-11.96-38.97c-15.88-9.57-17.24,24.22-13.88,35.89
				c5,17.33,13.4,85.77,13.4,85.77L983.44,438.85z"/><path fill="#f9bf98" d="M995.98,514.07c0,0,2.82-107.88,0.67-139.77c-3.34-49.41,28.04-60.98,41.4-36.06
				c9.45,17.63,31.32,175.38,14.46,210.98c-14.83,31.34-70.12,126.99-70.12,126.99l-73.28-92.88L995.98,514.07z"/><path fill="#ffcea9" d="M1069.36,364.13c-0.05,9.82-1.83,26.67-4.38,45.86c-0.06,0.51-0.13,1.03-0.2,1.54
				c-1.98,14.73-4.38,30.75-6.78,45.98c-0.25,1.58-0.5,3.15-0.75,4.71c-1.46,9.19-2.91,18.01-4.24,25.97
				c-3.55,21.33-6.28,36.55-6.28,36.55s-14.51,49.61-30.1,91.31c-9.21,24.64-18.79,46.53-25.99,53.81
				c-31.36,31.74-118.84,85.67-147.56,109.05c-12.59,10.26-17.21,21.79-17.73,36.28c-0.06,1.68-0.07,3.39-0.02,5.15
				c-20.02,8.55-40.77,15.37-62.11,20.4c-23.32,5.5-46.88,8.77-70.51,9.8c0.24-1.58,0.48-3.21,0.72-4.87
				c2.31-15.88,4.78-35.38,6.79-57.14c1.72-18.73,3.12-35.78,3.77-48.13c2.05-39.06,4.84-65.07,27.06-87.77
				c6.63-6.79,14.99-13.28,25.59-19.73c10.61-6.45,36.11-16.01,52.51-18.91c0.43-0.07,0.85-0.14,1.27-0.21
				c0.7-0.11,1.4-0.22,2.09-0.34c1.08-0.18,2.15-0.36,3.21-0.54c22.95-3.92,42.02-8.88,57.77-14.22c1.83-0.62,3.61-1.25,5.35-1.88
				c6.07-2.2,11.6-4.45,16.64-6.71c1.3-0.59,2.57-1.17,3.81-1.76c0.66-0.31,1.32-0.62,1.96-0.94c0.26-0.12,0.52-0.25,0.78-0.38
				c2.51-1.23,4.88-2.47,7.11-3.7c9.79-5.36,16.97-10.54,22.06-14.96c1.82-1.59,3.37-3.07,4.68-4.43c1.64-1.7,3.74-4.04,6.16-6.84
				c17.61-20.36,52.27-64.94,52.27-64.94s0.89-5.68,2.46-14.7c2.12-12.08,5.47-30.14,9.56-48.53c5.52-24.79,12.41-50.2,19.48-62.41
				c2.77-4.78,5.62-8.43,8.55-11.11c1.3-1.2,2.61-2.21,3.95-3.03c1.21-0.76,2.43-1.37,3.66-1.84c8.15-3.16,16.82-0.5,25.9,4.64
				C1068.93,355.77,1069.38,358.98,1069.36,364.13z"/><path fill="#ffcea9" d="M904.53,506.17c-12.52-14.37-45.17-24.37-75.86,67.43c-3.88,11.61-16.86,41.72-25.18,60.43
				c-8.32,18.71-53.23,30.36-56.86,68.15l106.82,14.45c0,0,51.62-119.88,46.79-142.9C895.41,550.71,917.05,520.54,904.53,506.17z"/><path fill="#f2b288" d="M828.67,573.6c-5.69,11.83-11.56,23.49-17.11,35.32c-2.86,5.87-5.53,11.83-8.33,17.73
				c-1.42,2.86-2.66,6.24-4.07,8.32c-1.54,2.33-3.67,4.51-6,6.54c-4.62,4.16-9.98,7.89-15.2,11.87
				c-5.18,4.04-10.47,8.16-15.13,13.03c-2.33,2.43-4.61,4.93-6.59,7.68c-1.98,2.75-3.76,5.65-5.25,8.68
				c-1.42,3.07-2.55,6.26-3.31,9.52c-0.74,3.27-1.04,6.59-1.03,9.88c0.75-3.21,1.61-6.34,2.84-9.31c1.26-2.96,2.69-5.81,4.43-8.46
				c3.45-5.32,7.82-9.94,12.58-14.13c9.57-8.45,20.8-14.8,31.2-23.67c2.54-2.31,5.03-4.86,7.05-8.01l0.74-1.19l0.65-1.29
				c0.47-0.91,0.71-1.57,1.06-2.35c0.65-1.5,1.31-3,1.92-4.52c2.47-6.07,5.02-12.1,7.31-18.24c2.37-6.11,4.58-12.28,6.71-18.49
				C825.18,586.28,827.26,580.03,828.67,573.6z"/><path fill="#f2b288" d="M853.46,716.63c9.23-15.98,17.4-32.53,24.88-49.4c7.46-16.89,14.2-34.13,19.24-52.1
				c1.21-4.51,2.28-9.07,3.12-13.72c0.8-4.66,1.48-9.39,1.33-14.38l-0.22-3.48c-0.06-1.06-0.07-2.14-0.04-3.23
				c0.04-2.17,0.23-4.38,0.48-6.6c0.53-4.43,1.29-8.91,2.11-13.4c1.7-8.97,3.67-18.02,4.81-27.27c0.49-4.63,0.86-9.33,0.42-14.03
				c-0.23-2.34-0.63-4.69-1.42-6.92c-0.8-2.21-1.97-4.33-3.63-5.94c1.36,1.87,2.2,4.02,2.64,6.22c0.47,2.2,0.58,4.46,0.52,6.71
				c-0.14,4.5-0.88,8.98-1.84,13.42c-1.87,8.9-4.53,17.68-6.7,26.69c-1.12,4.5-2.15,9.05-2.84,13.74c-0.35,2.34-0.63,4.72-0.76,7.14
				c-0.07,1.21-0.1,2.43-0.08,3.67l0.1,3.41c0.01,4.22-0.59,8.65-1.42,13.03c-0.84,4.39-1.93,8.78-3.14,13.14
				c-2.33,8.76-5.2,17.43-8.19,26.06c-2.92,8.66-6.2,17.22-9.38,25.82C866.93,682.36,860.14,699.44,853.46,716.63z"/><path fill="#b3b3b3" d="M889.18,567.1c-7.53,7.05-37.83-5.16-39.72-18.98c0.97-1.86,13.17-52.89,41.41-41.98
				C917.31,516.36,889.18,567.1,889.18,567.1z"/><path fill="#b3b3b3" d="M1065.86,410.18c3.06-28.63,4.76-52.15,2.36-53.86c0,0-10.3,11.55-14.86,32.32
				C1049.62,405.65,1056.67,408.21,1065.86,410.18z"/></g></svg>