<svg xmlns="http://www.w3.org/2000/svg" id="Layer_1" x="0" y="0" enable-background="new 0 0 600 500" version="1.1" viewBox="19.17 43.525 561.66 413.05" xml:space="preserve"><g id="Clinic_Reception_1_"><g id="Clinic_Reception"><g opacity=".5"><rect width="14.3" height="375.5" x="289" y="62.3" fill="#f5f5f5"/><rect width="14.3" height="375.5" x="257.1" y="62.3" fill="#f5f5f5"/><rect width="14.3" height="375.5" x="225.3" y="62.3" fill="#f5f5f5"/><rect width="14.3" height="375.5" x="193.5" y="62.3" fill="#f5f5f5"/><rect width="14.3" height="375.5" x="161.6" y="62.3" fill="#f5f5f5"/><rect width="14.3" height="375.5" x="129.8" y="62.3" fill="#f5f5f5"/><rect width="14.3" height="375.5" x="97.9" y="62.3" fill="#f5f5f5"/><rect width="14.3" height="375.5" x="66.1" y="62.3" fill="#f5f5f5"/></g><path fill="#f5f5f5" d="M138.6,425.9c0,2.8,271.8,3.1,271.8,0.9c0-1.3-51.6-3.2-130-3.2C202.1,423.6,138.6,424.7,138.6,425.9z"/><rect width="7.3" height="7.5" x="148.3" y="418.4" fill="#fff"/><rect width="4.5" height="7.5" x="143.7" y="418.4" fill="#e1e5e2"/><rect width="7.3" height="7.5" x="180.9" y="418.4" fill="#fff"/><rect width="4.5" height="7.5" x="176.3" y="418.4" fill="#e1e5e2"/><rect width="7.3" height="7.5" x="356.8" y="418.4" fill="#fff"/><rect width="4.5" height="7.5" x="352.3" y="418.4" fill="#e1e5e2"/><rect width="7.3" height="7.5" x="390.5" y="418.4" fill="#fff"/><rect width="4.5" height="7.5" x="385.9" y="418.4" fill="#e1e5e2"/><g><path fill="#fff" d="M322.4,370.9c-1.6-0.7,5.3,2.3-11.2-4.8c0.7,0.3,1.6,0.4,2.4,0.4c7.7,0,7.5,0.1,7.9-0.1              L322.4,370.9z"/><path fill="#fff" d="M208.9,273.1c27.9,10.2,26.5-2.1,50.2,1.5c-1.4-27-2.8-54-4.8-66.7c-0.4-0.6-1.4-1.1-2.3-1.7           c-3.9-2.3-8.2-3.6-12.7-4.1l-11-1c0,0-15.3,2.3-19.1,6.5C200.9,216.7,208.9,273.1,208.9,273.1z"/><polygon fill="#fff" points="239.9 184.9 239.9 202.3 239.5 230.7 228.9 201.2 228.9 184.9"/><path fill="#fff" d="M206.6,213.8l-5,27.2c-0.5,3.5,1.2,6.9,4.2,8.7c8.1,4.9,24.6,12.5,34,17.6c-1-1.1-1.4-3.2-0.1-5.2           c1.9-2.9,5-5.3,7-5.3c0.1,0,0.2,0,0.3,0l-28.6-16.3l4.2-17.9L206.6,213.8z"/><path fill="#fff" d="M286.6,370.9l-0.7-4.8c0.7,0.3,1.6,0.4,2.4,0.4C288.1,369.5,307.5,361.2,286.6,370.9z"/><path fill="#fff" d="M259.4,253.5c3.8-0.4,3.4,2.7-1,3.5c10,0.3,11.3,3.8,5,3.8c0,0,4.8,2.9-0.1,3.4c0,0,3.8,3.2-0.8,2.8           c4.6,4.2-7.6,4.4-15-0.8l-8.5-2.4c1.1-3,3.2-5.3,6.7-7.1L259.4,253.5z"/><path fill="#fff" d="M249.8,181.5c0,8.1-4.8,14.6-10.7,14.6c-4.6,0-8.5-4-10.1-9.5c-2.7,0.5-5.6-1.1-5.6-3.6           c0-1.5,1.2-2.8,2.8-3.4c11.6-1,17.1-6,19.6-9.6C248.2,172.8,249.8,176.9,249.8,181.5z"/><path fill="#fff" d="M243.4,181.6c0.7,3,1.4,3.8,0.8,4.4c-0.6,0.6-1.5,0-2.3,0.3L243.4,181.6z"/><path fill="#fff" d="M238.9,189.2c0.9,1,2.2,1.5,3.5,1.5L238.9,189.2z"/><path fill="#fff" d="M236.3,178.5c0,0,1.6-1.6,3.3-0.3L236.3,178.5z"/><path fill="#fff" d="M245.8,177.9c0,0,1.3-1.4,2.8-0.3L245.8,177.9z"/><g><path fill="#fff" d="M251.6,206.1l14.1,6.8l24.6-15.7l6.8,7.9c0,0-18.8,21.1-27.7,22.8c-2.4,0.5-15.2-6.1-15.2-6.1           L251.6,206.1z"/><path fill="#fff" d="M306.9,195.8c-0.5,0.6-1.1,1.1-1.7,1.6c-1.6,1.2-5.2,3.9-7,4.5c-1,0.9-2.2,2.2-3.3,3.5            c-1.1-0.3-4.3-4.2-4.7-6.6c1-1.4,2.6-4,2.7-5.7c0.2-2.4,0.4-7.8,2-7.4c1.6,0.4,2.9,3.7,2.5,6.1c0,0,4.7-3.7,5.5-7.1            c0,0,0.5-2.1,1.7-1c0.4,0.3,0,4-0.7,5c0.4-0.5,2.1-2.5,2.4-3.1c0.4-0.7,1.9-0.5,1.2,2.1l0,0c1.8-0.8,1.9,0.7,1,2.4            c0.1-0.1,0.6-0.5,1.3,0.1C310.7,191.1,308.2,194.2,306.9,195.8z"/><path fill="#fff" d="M296.1,191.7c0,0-0.3,2.4-1.3,3.6L296.1,191.7z"/><path fill="#fff" d="M306.2,187.5c0,0-1.2,1.8-2.7,3L306.2,187.5z"/><path fill="#fff" d="M307.2,190c0,0-1.7,1.9-2.8,2.8L307.2,190z"/></g><g><path fill="#f5f5f5" d="M44.7,395.6l510.6-0.1c-20.8-24-37-37.9-50.9-54.5c-39-46.6-68.7,19.5-104.1,5.6          c-16.4-6.5-65.9-40.4-97-11.2c-13.1,12.4-23-13.1-51.5,3.6c-32.2,18.8-56.5,27.6-90.9,8.7c-10.6-5.8-19.9-13.4-30.9-18.6          c-11-5.2-24.8-7.8-35.6-2.8c-6.4,2.9-10.9,8.1-15.2,13.1C67.7,352.7,56.2,366,44.7,395.6z"/></g><g><path fill="#67db8a" d="M188.1,94.8v127.3c0,2.9-2.4,5.3-5.3,5.3H73.1c-2.9,0-5.3-2.4-5.3-5.3V94.8c0-2.9,2.4-5.3,5.3-5.3          h109.7C185.7,89.5,188.1,91.9,188.1,94.8z"/><path fill="#fff" d="M73.5,221.9c-0.1-0.1-1.1-0.8-1.1-1.9V96c0.4-1.7,0.9-1.7,1.1-1.9c0.1-0.1,106.3-0.1,106.3-0.1          c1.6-0.7,2.4,0.4,3.3,2v124c-1,1.5-2.3,2.1-3.3,1.8L73.5,221.9z"/><g><path fill="#fff" d="M130.9,143.3l3.6,0.8l-0.6,2.8l-2.6-0.5l-1.6,1.1c2.7,2.5,3.2,3.8,3.3,10.1            c0.2,6.3-7.2,27.3-17.6,32.7c-10.4,5.4-26.3-10.6-32.6-23.3c-6.1-12.2-1.2-20.7-0.8-21.4c0,0,0,0,0,0c0,0-0.2-0.6-0.5-1.6            c-1.1-4.5,0.1-9.3,3.1-12.8l4.9-5.9c5.2-5.9,5.6-16.5,5.6-16.5h6.5c0,0-0.2,2.6,0,3.7c0.2,1.1,2.6,1,2.6,1l-0.1,4.6            c0,0-0.7-0.4-2.7,0.5c-2,0.9-2.2,3.8-2.2,3.8l1-0.8c2.5-1.9,6.2-3.9,7.5-5.5c1.5-1.8,1.1-5.2,1.1-5.2l5.2-1.1            c0,0,1.1,3.7,2.9,3.9c1.8,0.2,2.5-2,2.5-2l3.2,1.4c0,0-0.2,0.3-0.6,1.3c-0.4,1,0.8,1.5,0.8,1.5c8.2,3.5,5.5,9.9,5.5,9.9            c1,0.2,1.9,0.4,2.5,0.7c2,0.7,2.3,1.2,2.3,1.2l-2.6,8.4c3.5,1.3,4.6,3,4.6,3l-0.9,3.6l-3.3-0.7L130.9,143.3z"/><path fill="#67db8a" d="M101.7,108.6c0,0.6-1.5,1-3.3,1c-1.8,0-3.3-0.5-3.3-1c0-0.6,1.5-1,3.3-1            C100.2,107.6,101.7,108.1,101.7,108.6z"/><path fill="#67db8a" d="M105,115.6c0,1.3-0.4,2.3-0.8,2.3c-0.4,0-0.7-1-0.7-2.3c0-1.3,0.4-2.3,0.8-2.3            C104.7,113.4,105,114.4,105,115.6z"/><path fill="#67db8a" d="M128.4,125.9l-25,8.8c0,0-3.8,0.5-8.8,2.5c-3.7-9.2,4.8-14.7,4.8-14.7l1-0.8c2.5-1.9,6.2-3.9,7.5-5.5            c1.5-1.8,1.1-5.2,1.1-5.2l5.2-1.1c0,0,1.4,3.3,2.9,3.7c1.7,0.4,2.5-1.8,2.5-1.8l3.2,1.4c0,0-0.2,0.3-0.6,1.3            c-0.4,1,0.8,1.5,0.8,1.5C131.1,119.5,128.4,125.9,128.4,125.9z"/><path fill="#fff" d="M129.8,147.3l0.6-0.4h-7.7v-10.9h8c-0.1,0-0.1,0-0.2-0.1l2.6-8.4c0,0-0.5-1-4.8-1.9            c0,0-13.4-4.4-25,8.8c0,0-10.6-2-21.2,11.1c0,0,0,0,0,0c-0.4,0.7-6.2,10.2-0.1,22.4c6.3,12.7,23.2,27.7,33.6,22.3            c10.4-5.4,17.8-26.4,17.6-32.7C132.9,151,132.4,149.8,129.8,147.3z"/><g><path fill="#fff" d="M131.9,132.3c-0.8,2.3-2,3.9-2.7,3.7c-1.6-0.7,1.3-9,2.8-8.4C132.7,127.8,132.8,130,131.9,132.3z"/></g><g><path fill="#fff" d="M111.6,111.1c-1.4,0.3-2.7,0.2-2.8-0.3c-0.1-0.5,1-1.1,2.4-1.4c1.4-0.3,2.7-0.2,2.8,0.3           C114.1,110.3,113,110.9,111.6,111.1z"/></g><g><path fill="#fff" d="M122.6,113c-0.1,0.3-0.9,0.2-1.8-0.2c-0.9-0.4-1.5-0.9-1.4-1.2c0.1-0.3,0.9-0.2,1.8,0.2           C122.1,112.2,122.7,112.7,122.6,113z"/></g><g><path fill="#fff" d="M118.2,144.6c0,0,2.1,12,1.6,14.9c-0.5,2.9-2,5.9-2,8.1c0,2.2-0.7,4.3-2.2,5.8          c-1.5,1.6-4.8,4.2-7.3,9.1L118.2,144.6z"/></g><g><path fill="#67db8a" d="M130.9,143.3l3.9,0.7l-0.7,2.9l-2.4-0.5l-1.6,1.1c0,0-10.7,3.5-12.4-4.6c-1.7-8.1,9.7-7.6,13.1-6.8          c3.5,1.3,4.6,3,4.6,3l-0.9,3.6l-3.6-0.7L130.9,143.3z"/></g><g><path fill="#fff" d="M134.9,146c-0.3,1-0.8,1-1.2,0.9c-0.4-0.1-0.5-0.9-0.3-1.9c0.3-1,0.7-1,1.1-0.9          C135,144.1,135.2,145,134.9,146z"/></g><g><path fill="#fff" d="M135.3,140.9c-0.3,1-0.8,1.8-1.2,1.7c-0.4-0.1-0.5-0.9-0.3-1.9c0.3-1,0.8-1.7,1.2-1.6          C135.4,139.1,135.6,139.9,135.3,140.9z"/></g></g></g><g><rect width="225.4" height="20.8" x="180.1" y="270" fill="#fff"/><rect width="59.7" height="20.8" x="121.5" y="270" fill="#f5f5f5"/><rect width="214.2" height="131.5" x="186.9" y="290.9" fill="#fff"/><rect width="157.9" height="75.2" x="213.9" y="319" fill="#fff"/><rect width="140.7" height="58" x="223.6" y="327.6" fill="#67db8a"/><rect width="59.6" height="131.5" x="127.3" y="290.8" fill="#f5f5f5"/><g><path fill="#fff" d="M271.8,345.8c0.1-4.1,2.6-6.6,6.1-6.6c1.3,0,2.5,0.3,3.9,1.1c0.4,0.3,0.5,0.9,0.2,1.2              c-0.2,0.2-0.6,0.3-0.8,0.1c-1.2-0.7-2-0.9-3.1-0.9c-2.9,0-4.6,2.1-4.6,5c0,2.9,1.6,5,4.5,5c1.1,0,1.9-0.2,3.1-0.9              c0.2-0.1,0.6-0.1,0.8,0.1c0.3,0.3,0.3,0.9-0.2,1.2c-1.4,0.9-2.6,1.1-3.9,1.1C274.4,352.4,271.8,350,271.8,345.8z"/><path fill="#fff" d="M284.1,351.5l0.2-11.9c0-0.5,0.3-0.8,0.8-0.8c0.5,0,0.8,0.4,0.8,0.8l-0.2,11.9              c0,0.5-0.4,0.8-0.8,0.8C284.4,352.3,284.1,352,284.1,351.5z"/><path fill="#fff" d="M288.3,351.5l0.1-7.9c0-0.5,0.3-0.8,0.8-0.8c0.4,0,0.8,0.3,0.8,0.8l-0.1,7.9c0,0.5-0.4,0.8-0.8,0.8              C288.6,352.3,288.3,352,288.3,351.5z M288.3,340.1L288.3,340.1c0-0.6,0.4-1,0.9-1h0.1c0.5,0,0.9,0.4,0.9,0.9l0,0.1              c0,0.5-0.4,0.9-0.9,0.9h-0.1C288.7,341,288.3,340.6,288.3,340.1z"/><path fill="#fff" d="M292.6,351.5l0.1-7.9c0-0.5,0.3-0.8,0.8-0.8c0.4,0,0.8,0.4,0.8,0.8l0,0.8c1.2-1.3,2.2-1.7,3.2-1.7              c2,0,3,1.6,3,3.6l-0.1,5.2c0,0.5-0.4,0.8-0.8,0.8c-0.4,0-0.8-0.4-0.8-0.8l0.1-5c0-1.5-0.6-2.2-1.9-2.2              c-1.2,0-2.1,0.8-2.8,1.8l-0.1,5.5c0,0.5-0.4,0.8-0.8,0.8C292.9,352.3,292.6,352,292.6,351.5z"/><path fill="#fff" d="M303,351.5l0.1-7.9c0-0.5,0.3-0.8,0.8-0.8c0.4,0,0.8,0.3,0.8,0.8l-0.1,7.9c0,0.5-0.4,0.8-0.8,0.8              C303.3,352.3,303,352,303,351.5z M303,340.1L303,340.1c0-0.6,0.4-1,0.9-1h0.1c0.5,0,0.9,0.4,0.9,0.9l0,0.1              c0,0.5-0.4,0.9-0.9,0.9h-0.1C303.4,341,303,340.6,303,340.1z"/><path fill="#fff" d="M306.8,347.6c0-3,2.1-4.9,4.6-4.9c0.9,0,1.7,0.2,2.8,0.9c0.4,0.3,0.4,0.8,0.1,1.1              c-0.2,0.3-0.5,0.3-0.8,0.1c-0.9-0.5-1.3-0.6-2-0.6c-2,0-3.2,1.4-3.2,3.3c0,1.9,1.1,3.3,3.1,3.3c0.7,0,1.1-0.1,2-0.6              c0.3-0.2,0.6-0.2,0.8,0.1c0.3,0.4,0.3,0.9-0.2,1.1c-1,0.7-1.9,0.9-2.8,0.9C308.8,352.4,306.7,350.6,306.8,347.6z"/><path fill="#fff" d="M252.9,370.6l0.2-11.2c0-0.5,0.3-0.8,0.8-0.8h4c3.3,0,4.6,1.6,4.6,3.7c0,1.4-0.8,2.8-2.3,3.3              c0.8,0.2,1.4,0.8,1.7,1.6c0.6,1.7,0.4,2.8,0.4,3.4c0,0.5-0.4,0.8-0.8,0.8c-0.5,0-0.8-0.4-0.8-0.8c0-1.4,0.1-2.6-0.8-3.6              c-0.4-0.4-1-0.6-1.8-0.6h-3.5l-0.1,4.2c0,0.5-0.4,0.8-0.8,0.8C253.2,371.5,252.9,371.1,252.9,370.6z M257.6,364.8              c1.7,0,3.2-0.7,3.2-2.4c0-1.8-1.4-2.3-3.3-2.3h-3l-0.1,4.6H257.6z"/><path fill="#fff" d="M264.3,366.7c0-2.7,1.5-4.9,4.2-4.9c2.6,0,4,2.1,4,4.6c0,0.2-0.1,0.4-0.2,0.6              c-0.1,0.2-0.3,0.2-0.6,0.2h-5.8c0.2,1.7,1.1,2.7,3,2.7c0.8,0,1.5-0.1,2.3-0.6c0.2-0.1,0.5-0.1,0.8,0.1              c0.3,0.3,0.3,0.8-0.3,1.2c-1.1,0.6-1.8,0.8-3,0.8C265.7,371.5,264.2,369.6,264.3,366.7z M270.9,365.9              c-0.2-3.6-4.8-3.6-5,0H270.9z"/><path fill="#fff" d="M273.9,366.7c0-3,2.2-4.9,4.6-4.9c0.9,0,1.8,0.2,2.8,0.9c0.4,0.3,0.4,0.8,0.1,1.1              c-0.2,0.3-0.5,0.3-0.8,0.1c-0.9-0.5-1.3-0.6-2-0.6c-2,0-3.2,1.4-3.2,3.3c0,1.9,1.1,3.3,3.1,3.3c0.6,0,1.1-0.1,2-0.6              c0.3-0.2,0.6-0.2,0.8,0.1c0.3,0.3,0.3,0.9-0.2,1.1c-1,0.7-1.9,0.9-2.8,0.9C276,371.5,273.9,369.7,273.9,366.7z"/><path fill="#fff" d="M283.5,364.3c0.6-1.5,1.9-2.5,3.7-2.5c1.7,0,3,0.9,3.6,2.3c0.3,0.7,0.5,1.5,0.4,2.3              c0,0.2-0.1,0.4-0.2,0.6c-0.1,0.2-0.3,0.2-0.6,0.2h-5.8c0.2,1.7,1.1,2.7,3,2.7c0.8,0,1.5-0.1,2.3-0.6              c0.4-0.2,1,0.1,1,0.6c0,0.3-0.2,0.5-0.5,0.7c-1.1,0.6-1.8,0.8-3,0.8C283,371.5,282.3,367.1,283.5,364.3z M289.6,365.9              c0-0.6-0.2-1.1-0.4-1.5c-0.5-0.8-1.3-1.2-2.1-1.2c-0.8,0-1.6,0.4-2.1,1.2c-0.3,0.4-0.4,0.9-0.4,1.5H289.6z"/><path fill="#fff" d="M293.1,374.8l0.2-12.1c0-0.5,0.4-0.8,0.8-0.8c0.4,0,0.8,0.3,0.8,0.8l0,0.5c0.8-0.9,1.8-1.4,2.9-1.4              c2.1,0,4.1,1.8,4.1,4.9c0,3-2.1,4.9-4.2,4.9c-1.1,0-2.1-0.5-2.9-1.4l-0.1,4.7c0,0.5-0.3,0.8-0.8,0.8              C293.4,375.7,293.1,375.3,293.1,374.8z M300.2,366.7c0-2.2-1.2-3.3-2.8-3.3c-1.1,0-2,0.6-2.7,1.4l-0.1,3.8              c0.7,0.8,1.6,1.4,2.7,1.4C299.2,370,300.2,368.6,300.2,366.7z"/><path fill="#fff" d="M304.4,369.1l0.1-5.7h-1.2c-0.3,0-0.5-0.4-0.2-0.7l2.4-2.4c0.2-0.2,0.4-0.2,0.5-0.1              c0.1,0.1,0.1,0.2,0.1,0.3l0,1.5h1.9c0.4,0,0.7,0.3,0.7,0.7c0,0.4-0.3,0.7-0.7,0.7H306l-0.1,5.5c0,0.7,0.2,1.1,1.1,1.1              c0.5,0,0.7-0.2,1-0.2c0.3,0,0.6,0.3,0.6,0.7c0,0.3-0.1,0.5-0.4,0.6c-0.4,0.2-0.9,0.3-1.4,0.3              C305.2,371.5,304.4,370.7,304.4,369.1z"/><path fill="#fff" d="M310.4,370.6l0.1-7.9c0-0.8,0.9-1.1,1.3-0.6c0.1,0.2,0.2,0.2,0.2,0.6c0,0.7-0.1,2.5-0.1,7.8              c0,0.5-0.4,0.8-0.8,0.8C310.7,371.5,310.4,371.1,310.4,370.6z M310.7,359.8c-0.2-0.2-0.3-0.4-0.2-0.7l0-0.1              c0-0.5,0.4-0.9,0.9-0.9h0.1c0.5,0,0.9,0.4,0.9,0.9l0,0.1c0,0.5-0.4,0.9-0.9,0.9C311.3,360.1,311,360.2,310.7,359.8z"/><path fill="#fff" d="M314.2,366.7c0-2.8,1.7-4.9,4.4-4.9c2.7,0,4.3,2.1,4.3,4.9c0,2.8-1.7,4.9-4.4,4.9              C315.7,371.5,314.1,369.5,314.2,366.7z M318.6,363.4c-1.5,0-2.8,1.1-2.9,3.3c0,2.3,1.3,3.3,2.8,3.3              C322.3,370,322.4,363.4,318.6,363.4z"/><path fill="#fff" d="M325,370.6c0.2-8.2-0.1-8,0.3-8.4c0.5-0.5,1.3-0.2,1.3,0.6l0,0.8c1.2-1.3,2.2-1.7,3.2-1.7              c2,0,3,1.7,3,3.6l-0.1,5.2c0,1.1-1.6,1.1-1.6,0l0.1-5c0-1.5-0.6-2.2-1.9-2.2c-1.2,0-2.1,0.8-2.8,1.8l-0.1,5.5              c0,0.5-0.4,0.8-0.8,0.8C325.4,371.5,325,371.1,325,370.6z"/></g><g><path fill="#f5f5f5" d="M281.1,229.3v30c0,0.9,0.7,1.6,1.6,1.6h25.9c0.9,0,1.6-0.7,1.6-1.6v-30c0-0.9-0.7-1.6-1.6-1.6h-25.9           C281.8,227.8,281.1,228.5,281.1,229.3z"/><rect width="5.8" height="9.1" x="292.8" y="260.9" fill="#f5f5f5"/><path fill="#fff" d="M284.6,229.4v30c0,0.9,0.7,1.6,1.6,1.6H312c0.9,0,1.6-0.7,1.6-1.6v-30c0-0.9-0.7-1.6-1.6-1.6h-25.9            C285.3,227.8,284.6,228.5,284.6,229.4z"/><rect width="5.8" height="9.1" x="296.3" y="260.9" fill="#fff"/><path fill="#f5f5f5" d="M287.6,232.5V246c0,0.7,0.6,1.2,1.2,1.2h20.5c0.7,0,1.2-0.6,1.2-1.2v-13.5c0-0.7-0.6-1.2-1.2-1.2              h-20.5C288.2,231.3,287.6,231.8,287.6,232.5z"/><path fill="#67db8a" d="M310.6,255.9l0-1.5c0-0.8-0.6-1.5-1.5-1.5l-7.1,0c-0.8,0-1.5,0.7-1.5,1.5l0,1.5             c0,0.8,0.7,1.5,1.5,1.5l7.1,0C309.9,257.4,310.6,256.7,310.6,255.9z"/><path fill="#67db8a" d="M297.6,255.9v-1.5c0-0.8-0.6-1.5-1.5-1.5l-7.1,0c-0.8,0-1.5,0.7-1.5,1.5v1.5c0,0.8,0.7,1.5,1.5,1.5             l7.1,0C297,257.4,297.6,256.7,297.6,255.9z"/><g><path fill="#34b75c" d="M323.6,250.9c-0.2,3.5,2.6,6.4,6.1,6.4h3.6c-3.5,0-6.3-2.9-6.1-6.4l2.1-45.2                           c0.2-3.3,2.9-5.9,6.1-5.9h-3.6c-3.3,0-6,2.6-6.1,5.9L323.6,250.9z"/><path fill="#67db8a" d="M325.1,250.9c-0.2,3.5,2.6,6.4,6.1,6.4h2.1c-3.5,0-6.3-2.9-6.1-6.4l2.1-45.2                           c0.2-3.3,2.9-5.9,6.1-5.9h-2.1c-3.3,0-6,2.6-6.1,5.9L325.1,250.9z"/><path fill="#fff" d="M409.7,206.3l-2.1,45.2c-0.2,3.3-2.9,5.9-6.1,5.9h-68c-3.5,0-6.3-2.9-6.1-6.4                           l2.1-45.2c0.2-3.3,2.9-5.9,6.1-5.9h68C407.1,199.9,409.9,202.8,409.7,206.3z"/><path fill="#f5f5f5" d="M338.1,248.2h59.1c1.3,0,2.4-1,2.5-2.4l1.6-34.3c0.1-1.4-1.1-2.6-2.5-2.6h-59.1                          c-1.3,0-2.4,1-2.5,2.4l-1.6,34.3C335.5,247.1,336.7,248.2,338.1,248.2z"/><path fill="#fff" d="M363,227.5l2.7,42.6h13.5c-2.9-45.9-2.8-43.8-2.8-43.9c-0.2-0.5-0.4-0.8-0.8-0.8                          c-0.1,0-10.4,0-10.5,0C363.8,225.3,362.9,226.3,363,227.5z"/><g><path fill="#fff" d="M368.2,233.7l1.7,21.5c0.1,1.2,1.2,2.2,2.4,2.2c1.2,0,2.2-1,2.1-2.2l-1.7-21.5                 c-0.1-1.2-1.1-2.2-2.4-2.2C369.1,231.4,368.1,232.4,368.2,233.7z"/></g></g></g></g><g><path fill="#f5f5f5" d="M101.3,430.3c0,2-7.4,3.7-16.6,3.7c-9.2,0-16.6-1.7-16.6-3.7c0-2,7.4-3.7,16.6-3.7          C93.8,426.6,101.3,428.3,101.3,430.3z"/><path fill="#67db8a" d="M118.1,355.8c0,0-10.7,2.3-14.9,10.9s-12,14.8-12,14.8s-2.8-15.1,3.1-22            C100.2,352.5,106,350.1,118.1,355.8z"/><path fill="#67db8a" d="M109.1,318.5c0,0-27.1-2.5-22.5,41.5c0,0,8.4-7.4,11-20.8C100.2,325.9,109.1,318.5,109.1,318.5z"/><path fill="#67db8a" d="M58.4,328.4c0,0,27.7-10,23.6,44.1c0,0-7.9-4.8-10.1-16.7C69.7,343.9,64,330.1,58.4,328.4z"/><path fill="#67db8a" d="M48.6,363.9c0,0,23-11.5,27.4,10.8c0,0,2.3,9.7,1.3,14.3c-1,4.6-10.5-16.3-14.3-19.9            C57.9,364,48.6,363.9,48.6,363.9z"/><g><path fill="#fff" d="M68.1,405.4l5,22.6c0.3,1.3,1.4,2.1,2.7,2.1h16.9c1.3,0,2.4-0.9,2.7-2.1l5-22.6H68.1z"/><path fill="#fff" d="M102.3,400.3v5.1c0,0.5-0.4,0.9-0.9,0.9H67c-0.5,0-0.9-0.4-0.9-0.9v-5.1c0-0.5,0.4-0.9,0.9-0.9h34.5            C102,399.5,102.3,399.9,102.3,400.3z"/></g></g><g><path fill="#67db8a" d="M535.4,308.7L535.4,308.7c0-3.3,0-6.7,0-10.1c0-1.4,0-2.9,0-4.4l-24-0.8l-1,0L499,293l-16.5-0.5            c0,0,0,0.1,0,0.1c-1.2,5.7-5.2,123.8-5.2,123.8c0,1.6,1.2,2.8,2.7,2.8h9.9c0.7,0,1.2-0.5,1.4-1.1l0.9-4.3l15.3-85.3            c0.2,1.2-1.7-11.7,12.6,86.4c0.3,2.3,2.3,4,4.5,4l10.5,0.1c1.4,0,2.6-1.2,2.6-2.6L535.4,308.7z M498.2,304.9            c0,0.3-0.2,0.5-0.5,0.5c-0.1,0.4-0.2,0.7-0.3,1c-1,3.4-2.6,1.5-1.7,1.1c0.4-0.2,0.6-0.9,0.7-1.3c0.1-0.3,0.4-1.1,0.3-1.5            c-0.1-0.1,0-0.2,0-0.3c-0.5-0.2-0.4-1.1,0.3-0.9c-0.1-1.2-0.2-2.4-0.2-3.7c0-0.2,0.1-0.3,0.2-0.4c0.2-0.4,0.8-0.4,0.9,0.1            c0.1,0.9,1.2,2.5,0.2,3.2c0,0-0.1,0-0.1,0.1C498.1,303.4,498.2,304.2,498.2,304.9z"/><path fill="#26a851" d="M492.3,413.8l-0.9,4.3c-0.1,0.6-0.7,1.1-1.4,1.1h-9.9c-1.5,0-2.8-1.3-2.7-2.8c0,0,4-118,5.2-123.8            c2.4,0.8,4.7,2.5,6,4.7c2.6,4.1,2.6,9.5,1.1,14.2c-1.1,3.4-2.9,6.7-3,10.2c-0.1,6.2,5.3,11.9,3.9,17.9            c-0.5,2.3-2,4.2-3.1,6.2c-1.7,3.4-2.4,7.4-1.8,11.2c0.5,3.2,1.8,20.5,2.4,23.6c1.7,9.3-2.8,19.5,1.1,28.1            C490,410.5,491.1,412.1,492.3,413.8z"/><path fill="#26a851" d="M537.8,416.3c0,1.4-1.1,2.6-2.6,2.6l-10.5-0.1c-2.3,0-4.2-1.7-4.5-4l-0.2-0.9c1.4-6.7,5-10,5.6-13.8            c0.6-3.9-1.7-7.6-2-11.5c-0.3-3.7,1.3-21.6,1.8-25.4c1-8.4-4-17.3,0.2-27.1c0.8-1.9,2-3.8,2.5-5.8c1.5-6.4-3.8-13-2-19.3            c1.3-4.5,5.4-7.1,8-10.7c0.5-0.6,0.9-1.3,1.3-1.9c0,3.5,0,6.8,0,10.1v0L537.8,416.3z"/><path fill="#f28a3b" d="M503,211c0,0-5.3,6.1-7.1,23.1c-1.8,17,2.8,68.6-2.5,69.4c-5.3,0.8-13.3-2-13.3-2l3.4-33.4             c0,0-0.3-38.5,2.8-47.3C490.6,208.6,503,211,503,211z"/><path fill="#fff" d="M515.6,211.8l8.2,87.1c-0.3,4.4-38,1.1-37.7-3.3l5-70.8L503,211C510.8,211.5,507.8,211.3,515.6,211.8            z"/><path fill="#fff" d="M538.5,305.8c-3.4,7.5-18.6,5.4-22.8,3c-0.6-0.3-1.2-1.6-1.8-3.7c-3-10.3-5.4-33.6-6.2-44            c-8.2-1.3-11.9-2.3-11.9-2.3c0-0.8,0.2-3.1,0.2-2.9l0.4-6.5l10.5-0.3c0-1.3,0-2.3,0-3.1c0.3-10,0.8-24.5,8.7-34.2            c0.1,0,17.4-0.2,19.5,8.3c0.6,2.4,8.2,33.2-1.7,41.4c0,0-0.1,0.1-0.1,0.1c0,0.9,0,2.2,0.2,3.1            C535.3,272,541.9,298.4,538.5,305.8z"/><path fill="#fff" d="M495.9,234.1c1.8-17,7.1-23.1,7.1-23.1s-8.4-1.6-13.8,4.6l0,0L473,234.9c-0.4,0.5-1.1,0.7-1.7,0.5            l-24.2-7.2l-5,8.9c0,0,23.7,16.3,32.1,15.1c2.8-0.4,6.3-2.8,9.6-5.6c-0.4,11.2-0.3,21.5-0.3,21.5l-4.5,36.6            c-0.1,1,0.5,2,1.5,2.2c3.3,0.8,11.8,3,16.1,1.2c0.7-0.3,1.1-1.6,1.4-3.7c-0.7,0-0.6-1.1,0.1-1            C499.6,289.5,494.5,248.4,495.9,234.1z M484.6,247.6h-0.3v-0.2h0.3V247.6z"/><g><path fill="#fff" d="M516.5,198.8l-1.6,13l-10.4,9.5l-1.2-10.3v-2.3c-2.8,0.4-5.4,0-6.6-1.6c-3.1-3.9-2.3-20-2.3-20              c6.7-12.2,21.1-2.2,21.1-2.2s0.3,3,0.5,6.5c1.4,0.3,2,1.8,2.1,3.6C518.1,196.8,517.7,198.2,516.5,198.8z"/><path fill="#fff" d="M499.8,196.3c0,0.4,0,0.8-0.2,1.1c-0.3,0.6-0.8,0.6-1,0.8c-0.4,0.2-0.3,0.6,0,0.8              c0.3,0.2,0.7,0,1.1,0.1L499.8,196.3z"/><g><path fill="#fff" d="M514.6,196.5c0.8-1.1,0.6-2.5,0-3c-0.3-0.3-0.9-0.3-1.2,0L514.6,196.5z"/></g></g><g><polygon fill="#fff" points="525.2 418.9 525.4 428.5 534.5 427.5 534.4 419"/><path fill="#fff" d="M526.2,424.4L526.2,424.4c0-0.8-0.7-1.5-1.5-1.4h0c-0.6,0-1.2,0.4-1.4,1l-1,3l-9.6,3.3            c-1.3,0.4-2.1,1.7-2.1,3l0,0c0,0.2,0.2,0.4,0.4,0.4l26.7-0.2c0.2,0,0.4-0.2,0.4-0.4l0-3.6c0,0-0.1-4.6-3.8-5.4            c0,0-1.8,3.8-5.5,3.5C526.5,427.2,526.2,424.4,526.2,424.4z"/></g><g><polygon fill="#fff" points="480.1 419.2 480.3 428.8 489.4 427.8 489.3 419.2"/><path fill="#fff" d="M481.2,424.7L481.2,424.7c0-0.8-0.7-1.5-1.5-1.4h0c-0.6,0-1.2,0.4-1.4,1l-1,3l-9.6,3.3            c-1.3,0.4-2.1,1.7-2.1,3l0,0c0,0.2,0.2,0.4,0.4,0.4l26.7-0.2c0.2,0,0.4-0.2,0.4-0.4l0-3.6c0,0-0.1-4.6-3.8-5.4            c0,0-1.8,3.8-5.5,3.5C481.4,427.6,481.2,424.7,481.2,424.7z"/></g><g><path fill="#fff" d="M535.8,258.4c-1.9,3.5-5,5.5-9.9,5c-21.2-2.2-33-4.6-33-4.6l-0.6-9.7l32.1-0.5l-0.6-4.5L535.8,258.4z"/></g><g><path fill="#fff" d="M446.8,229.7c-0.4,2.5-1.6,4.7-3.5,6.5l-0.9-0.5c-6.5-0.4-13.3-4.6-11-6.9c-1.3-1.5,0.5-2.3,0.5-2.3            c-0.8-1.9,1.5-2.2,1.5-2.2l-1-0.8c-0.1-0.1-5-3.4-4.7-3.2c-1-0.8-1.3-2.6-0.3-2.6c2.8,0.8,6.7,3,10.3,5.5            c-0.9-1.3-0.5-3.2,0-3.4c1.6-0.8,7.5,8.2,8.4,9.7C446.3,229.4,446.5,229.5,446.8,229.7z"/><path fill="#fff" d="M430.2,228.7c0,0,1.1,0.1,3.3,2.1L430.2,228.7z"/><path fill="#fff" d="M430.7,226.3c0,0,1.1,0.1,3.3,2.1L430.7,226.3z"/><path fill="#fff" d="M432.1,224.1c0,0,1.1,0.1,3.3,2.1L432.1,224.1z"/></g><g><path fill="#fff" d="M494.3,250.7c-2.6-1-3.4-1.4-4.8-1.8c-1.4-2-3.4-3.5-5.2-4.4c-1.6-0.1-2.3,1.3,0.4,3.4             c-1.2,0-2.6,0-4.3,0.2c-7.3,0.8-0.8,3.3-0.8,3.3s-4.3,1.6-0.5,2.8c0,0-3.2,2,0.5,2.4c-3.3,2.6,6.5,4,11.8,1.5             c0.1,0,1.9,0.8,1.8,0.7C494.3,258.4,495.9,253.2,494.3,250.7z"/><path fill="#f5f5f5" d="M479.1,257.7c0.1,1.9,8,2.6,12.5,0.5c0.1,0,1.9,0.8,1.8,0.7c1-0.5,2.6-5.7,1-8.1            c-0.1,0-0.2-0.1-0.3-0.1c-1.5,1.2-1,2.6-1.6,3.6c-0.4,0.6-1.2,1-1.9,0.8c-0.5-0.1-1-0.5-1.5-0.6c-0.8-0.1-1.6,0.5-2.1,1.1            c-1.2,1.4-1.6,2.3-4,1.9C481.8,257.3,480.3,256.8,479.1,257.7z"/></g></g><g><rect width="45.5" height="86.5" x="371.7" y="75.1" fill="#fff"/><rect width="45.5" height="88" x="431.8" y="75.1" fill="#fff"/></g></g><g><path fill="#67db8a" d="M180.8,196v13.2c0,0.5-0.4,1-1,1H86.6c-0.5,0-1-0.4-1-1V196c0-0.5,0.4-1,1-1h93.3        C180.4,195.1,180.8,195.5,180.8,196z"/></g></g><path fill="#3c4150" d="M243.2,186.6c0.6-0.2,1.7,0.4,2.4-0.4c0.7-0.8,0-1.8-0.7-4.7c0-0.2-0.2-0.3-0.4-0.3     c-0.2,0.1-0.3,0.2-0.3,0.4c0.2,0.7,0.4,1.4,0.6,2.1c0.4,1.2,0.9,2.3-0.5,2.2c-1-0.1-1.1-0.1-1.3,0     C242.5,186.1,242.8,186.8,243.2,186.6z"/><path fill="#3c4150" d="M243.6,191.1c0.5,0,0.5-0.7,0-0.7c-0.1,0-1.9,0.1-3.3-1.4c-0.1-0.1-0.3-0.2-0.5,0c-0.1,0.1-0.2,0.4,0,0.5     C240.7,190.4,242.2,191.1,243.6,191.1z"/><ellipse cx="240" cy="181.9" fill="#3c4150" rx=".8" ry="1.2"/><path fill="#3c4150" d="M247.9,183.5c0.4,0,0.7-0.5,0.7-1.2c0-0.6-0.3-1.1-0.7-1.2c-0.1-0.1-0.5,0.1-0.7,0.6c0,0,0,0,0,0     C246.9,182.4,247.3,183.5,247.9,183.5z"/><path fill="#3c4150" d="M237.7,178.7c0-0.1,1.4-1.4,2.8-0.3c0.1,0.1,0.4,0.1,0.5-0.1c0.1-0.2,0.1-0.4-0.1-0.5     c-1.5-1.1-3.1-0.3-3.8,0.4C236.9,178.5,237.3,179,237.7,178.7z"/><path fill="#3c4150" d="M188.1,222V94.7c0-3.1-2.5-5.5-5.5-5.5H72.9c-3,0-5.5,2.5-5.5,5.5V222c0,3.1,2.5,5.5,5.5,5.5h109.7     C185.6,227.6,188.1,225.1,188.1,222z M67.8,222V94.7c0-2.8,2.3-5,5-5h109.7c2.8,0,5,2.3,5,5V222c0,2.8-2.3,5-5,5H72.9     C70.1,227.1,67.8,224.8,67.8,222z"/><path fill="#3c4150" d="M183.1,96c0-1.2-1-2.2-2.2-2.2H74.5c-1.2,0-2.2,1-2.2,2.2v124c0,1.2,1,2.2,2.2,2.2h106.3     c1.2,0,2.2-1,2.2-2.2V96z M182.6,220c0,0.9-0.8,1.7-1.7,1.7H74.5c-0.9,0-1.7-0.8-1.7-1.7V96c0-0.9,0.7-1.7,1.7-1.7h106.3     c0.9,0,1.7,0.8,1.7,1.7V220z"/><path fill="#3c4150" d="M113.3,191.3c2.9-0.7,5.8-3,8.3-6c6.9-8.1,11.8-21.9,11.6-27.8c-0.2-6.1-0.6-7.6-3.2-10.1     c0.1-0.1,1.4-1,1.3-0.9c1.4,0.3,2.4,0.5,2.5,0.5c1.5,0,1.6-3.3,0.6-3.3l-3.5-0.7l0-1l2.8,0.6c0.1,0.1,0.4,0.1,0.4,0.1     c1-0.3,2-3.5,0.9-3.9c-0.8-1.2-2.7-2.3-4.1-2.8c1-0.6,1.8-2.5,2.2-3.6c0.8-2.2,0.8-4.5,0-4.9c0,0,0,0,0,0c-0.1-0.3-0.9-0.7-1-0.7     c-0.9-0.5-2.6-1-3.7-1.2c0.1-0.4,0.3-1,0.3-1.5c0.3-3.2-1.3-6.4-6-8.4c0,0-1-0.4-0.7-1.2c0.1-0.3,0.4-1,0.6-1.3     c0.4-0.9-3.3-2.4-3.5-1.5c0,0.1-0.3,0.7-0.4,0.8c-0.4,0.6-1.1,1.2-1.9,1.1c-1.6-0.2-2.6-3.5-2.7-3.7l0,0     c-0.4-1.3-5.8-0.1-5.6,1.1c-0.1,0.1,0.6,3.6-1.4,5.4c-1,1-2.9,2.2-4,3c-3.4,2.3-3.2,2.3-3.6,2.6c0.2-0.9,0.6-2.6,2-3.2     c0.8-0.3,1.6-0.6,2.4-0.6c0.1,0,0.2,0.1,0.3,0l0,0c1.1-0.3,1.1-4.9,0-4.9h0c0,0,0,0,0,0c-0.6,0-2.2-0.1-2.4-0.9     c-0.2-1.3,0-3.6,0-3.7c-0.2-1.6-6.9-1.5-6.9,0.1c0,4.3-1.9,12.2-5.5,16.3l-4.9,5.9c-3.6,4.3-4.3,10.2-2.6,14.6     c-3.6,6.3-4.1,14.6-0.1,22.6C87.1,178.8,102.2,194,113.3,191.3z M134.5,144.2c0.3,0.1,0.3,0.9,0.3,1.2c-0.1,0.6-0.3,1.1-0.6,1.3     c-0.1,0.1-0.3,0-0.4,0c-0.4-0.1-0.2-1.2-0.1-1.7C133.8,144.3,134.1,144.2,134.5,144.2z M135.1,139.4     C135.1,139.4,135.1,139.4,135.1,139.4c0.2,0.5-0.1,2-0.7,2.8c-0.2,0.2-0.3,0.3-0.4,0.3C133.3,141.6,134.7,138.5,135.1,139.4z      M134.7,138.9c-0.9,0.4-1.4,2.4-1.2,3.3c-2.7-0.6-2.6-0.6-2.8-0.5c-0.1,0.1,0,0.2,0,1.6c0,0.1,0.1,0.2,0.2,0.2l2.8,0.6     c-0.4,0.4-0.7,1.7-0.5,2.4c-0.1,0-1.9-0.4-1.8-0.3c-0.1,0-0.1,0-1.1,0.6h0c-0.1,0.1-0.8,0.5-0.7,0.4l0,0     c-3.3,0.9-8.1,1.2-10.3-1.5v0c-0.2-0.3-1.1-1.1-1.5-3.1c-0.7-3.3,0.7-5.6,4.6-6.5c3.1-0.7,7.6-0.1,7.8,0     C130.5,136.1,133.3,137.2,134.7,138.9z M132.9,132.2c-1.3,3.5-2.3,3.5-2.4,3.6c-1.5-0.5,1.2-8.1,2.5-8.1     C133.5,127.7,133.7,129.8,132.9,132.2z M120,111.7c0.3,0.1,0.5,0.1,1.1,0.3c0.5,0.2,0.8,0.4,1,0.6c0.2,0.1,0.2,0.2,0.3,0.3     c-0.1,0-0.3,0.1-0.6,0c-0.6-0.1-1.4-0.5-1.8-0.8c-0.2-0.2-0.4-0.3-0.4-0.4C119.6,111.6,119.9,111.7,120,111.7z M109.1,110.5     c1-0.9,4-1.3,4.6-0.8c0.1,0.1,0.1,0.2,0,0.2c-0.7,1-4.6,1.5-4.8,0.9C109,110.7,109.1,110.6,109.1,110.5z M103.4,119.5     c1.1-0.7,4.1-2.7,4.7-3.8c0.8-1.2,1-3,0.9-4.5c1,0.5,4.1-0.1,5-1c0.4,1,1.3,3.4,2.9,3.5c1.4,0.2,2.2-1,2.5-1.7     c0.3,0.3,0.9,0.7,1.3,0.8c0.8,0.4,1.3,0.3,1.5,0.4c-0.1,0.2-0.2,0.5-0.4,0.9c-0.3,0.9,0.5,1.5,0.9,1.7c3.4,1.5,6,4,5.8,7.7     c-0.1,0.6-0.2,1.2-0.4,1.7c-1.4-0.4-3.4-0.6-3.8-0.6c-8.3-0.6-15.5,3.2-21.1,9.4c-0.7-0.1-4.2-0.4-9,1.5     c-2.5-8.2,5-13.2,5.2-13.2C100.2,121.9,99.7,122,103.4,119.5z M104,113.9L104,113.9c0.1-0.2,0.2-0.3,0.2-0.3     c0.4,0,0.8,2.5,0.1,3.9c-0.2,0.4-0.3,0.3-0.4,0C103.6,116.6,103.6,114.8,104,113.9z M95.4,108.4c0.9-0.8,5-0.8,5.9,0     c0.1,0.1,0.2,0.2,0,0.4c-1,0.8-4.9,0.8-5.9,0C95.3,108.7,95.3,108.6,95.4,108.4z M84.8,131.2l4.9-5.9c4.5-5.1,5.4-13.7,5.6-16     c1.2,0.9,4.9,0.9,6.1,0c0,0.8-0.1,2.3,0,3.1c0.1,0.9,1.5,1.1,2.3,1.2c-0.5,0.9-0.6,3.2-0.1,4.1c-0.4,0-1.2,0.2-2.2,0.6     c-1.9,0.8-2.2,3.4-2.3,3.9c-0.8,0.6-7.7,5.6-5.2,13.7c-3.5,1.5-7.6,4.2-11.8,9.2C80.5,140.2,81.7,134.9,84.8,131.2z M79.8,152.5     c0.6-3,1.6-5.3,2.2-6.3c0,0,0.3-0.5,0.3-0.6c10.6-13.1,21-10.8,21.2-11c11.1-12.6,23.9-9,24.8-8.8c0,0,0,0,0,0     c0.5,0,4,1.1,4.4,1.6c-1.4,0.6-3.5,6.4-2.8,8.3c-2.6-0.4-8.5-0.8-11.2,1.9c-1.3,1.2-1.7,3-1.2,5.1c0.3,1.6,1,2.8,2,3.7     c0.4,2.6,1.6,10.2,1.3,12.8c-1,0.5-1.8,1.7-2.4,2.6c-0.5,0.9-0.9,1.3-1.5,1.2c-1-0.2-1.3-1.5-2.4-1.6c-1.1-0.1-1.1,0.3-1.9-0.3     c-0.3-0.2-0.3-0.5-0.3-0.8c0-0.4,0-0.8-0.8-1c-1.2-0.2-2.3,0-2.5-0.6c-0.1-0.2-0.5-0.1-0.4,0.2c0.4,0.8,1.5,0.6,2.9,0.8     c0.5,0.1,0.5,0.2,0.5,0.6c0,0.3,0,0.8,0.5,1.1c0.9,0.7,1.1,0.3,2.1,0.3c0.5,0,0.9,0.5,1.1,0.8c-0.4,0.3-1.4,1.1-2.3,1.1     c-1.2,0-1.1-0.5-1.9,0.2c-0.7,0.6-1.1,0.7-1.9,0.8c-0.9,0.1-2.2,0.9-2.3,1.5c-0.1,0.3,0.3,0.3,0.4,0.1c0.1-0.4,1.2-1.2,2-1.2     c0.9-0.1,1.4-0.3,2.1-0.9c0.3-0.3,0.4-0.3,0.6-0.2c1,0.3,2.1,0.2,3.6-1c0.3,0.3,0.6,0.5,1,0.6c1.6,0.2,1.8-2.3,3.9-3.6     c-0.5,2.6-1.7,5-1.9,7.1c0,0,0,0,0,0c-0.1,0.2-1.7,3.5-3.6,4.2c-2,0.7-2.5-0.5-4.5,0.1c-1.9,0.7-1.9,1-2.6,0.6     c-0.9-0.5-1.1-0.7-2.4,0.1c-1.3,0.7-0.9,1-2.5,0.9c-0.3,0-0.3,0.4,0,0.4c1.7,0.2,1.5-0.3,2.7-0.9c1.1-0.6,1.2-0.5,2-0.1     c1,0.5,1.1,0,2.9-0.6c1.8-0.6,2.4,0.6,4.5-0.1c1.5-0.5,2.8-2.5,3.4-3.6c0,2.1-0.7,4-2.1,5.5c-1.7,1.7-4.9,4.3-7.3,9.2     c-0.1,0.3,0.3,0.4,0.4,0.2c1.2-2.5,2.7-4.4,4-5.9c-1.4,4.6,0.8,4.5,1.1,6.7c0,0.2,0.4,0.2,0.4-0.1c-0.3-2.5-2.8-2-0.8-7.3v0     c1-1,1.9-1.8,2.5-2.5c2.5-2.7,2.1-5.6,2.3-6.7c0.1,2,0.6,3,1.8,4.6c0.5,0.7,1,1.3,1,1.9c0,1-1.3,2-1,2.7c0.1,0.2,0.3,0.3,0.5,0.4     c1.1,0.3,1.7,0.8,1.5,1.4c0,0.3,0.3,0.3,0.4,0.1c0.2-0.9-0.5-1.6-1.8-1.9c-0.1,0-0.2-0.1-0.2-0.1c-0.1-0.2,0.2-0.6,0.4-0.9     c0.3-0.5,0.6-1.1,0.6-1.7c0-1.3-1.5-2.4-2.3-4.2c-0.5-1.2-0.5-3.3-0.4-4.5c1.5-4.6,1.8-4.9,1.4-9.1c0.5,0.2,1.5,0.8,1.9,3     c0.7,3.3,0.4,3,1.4,4.5c1,1.5,0.8,2,0.6,4.1c-0.2,2.1-0.2,2.9,0.2,3.5c0.1,0.2,0.5,0,0.3-0.2c-0.3-0.4-0.3-1.1-0.1-3.2     c0.2-2,0.4-2.8-0.7-4.3c-1-1.5-0.6-1.1-1.3-4.3c-0.5-2.6-1.8-3.2-2.3-3.3c-0.3-2.8-0.8-6.2-1.1-8.4c2.5,1.9,6.8,1.8,9.8,0.8     c2.6,2.5,3,3.8,3.2,9.9c0.2,8-9.3,30.9-19.6,33.3c-3.4,0.9-7.4-0.2-10.6-1.8c-8.7-4.2-16.8-13.6-20.6-21.2     C79.1,161.8,79,156.4,79.8,152.5z"/><path fill="#3c4150" d="M96.9,174.4c0.1,0.2,0.5,0,0.3-0.2c-1.1-1.7-2.4-2.5-3.8-3.1c-0.8-0.3-1.3-0.5-2.1-1.7     c-1.2-1.6-0.4-2.6-1.2-4.5c-0.7-1.8-0.8-2.7-1.4-4.8c0-0.1-0.4-1.3,0.6-2.9c0.6-0.5,0.9-1.5,1.1-2.3c0.1,0.7,0.3,1.6,0.8,2.1     c2.1,2.6,0.3,3.4,2.6,5.2c0.7,0.5,1,0.5,1.6,4c0.1,0.4,0.1,0.6,0.1,0.7c0.1,0.3,0.5,0.1,0.4-0.1c0-0.1-0.1-0.3-0.1-0.6     c-0.7-3.8-1-3.7-1.8-4.3c-0.6-0.4-1.1-0.8-1.2-1.8c-0.2-1.5-0.4-2.2-1.4-3.3c-0.3-0.4-0.8-1.4-0.7-3.4c0.1-0.3,0.2-0.7,0.3-1.1     c0.4-1.2,2.9-2.4,3.6-2.6c0.2,0.3,0.8,0.7,1.1,0.9c1.7,0.9,1.9,2.7,3,4.3c-0.1,0.3-0.5,1.2-0.8,2.3c-0.3,1.3-2,1.6-2.1,2.8     c0,0.3,0.4,0.3,0.4,0c0-0.4,0.4-0.7,0.8-1.1c1.7-1.3,0.9-1.4,1.9-3.6c0.2,0.2,0.5,0.5,0.8,0.8c1.3,1,1.7,1.2,1.8,5.1     c0,0.3,0.4,0.2,0.4,0c-0.1-3.9-0.6-4.3-1.7-5.1c-1.5-1.3-1.2-1-2.5-3.6c-1.1-2.2-1.8-1.8-2.8-2.6c-0.7-0.6,0.2-1.7,0.8-2.3     c0.9-0.5,1-1.5,2.4-2.5c1.7-1.2,2.5-1.5,3.2-2.8c0.1,0.8,0.4,2.1,0.9,3.2c0,0,0,0,0,0.1c0.5,1.3,1.2,1.9,2.8,3.3     c1.8,1.5,1.8,1.6,1.4,3.5c-0.1,0.6-0.3,1.1-0.3,1.8c0,1.7,1.7,3.3,2.3,3.6c0.3,0.1,0.4-0.3,0.2-0.4c-0.5-0.2-2.1-1.8-2.1-3.2     c0-0.6,0.1-1.1,0.3-1.7c0.4-2,0.4-2.3-1.5-3.9c-0.7-0.7-1.8-1.5-2.3-2.4c1.3,0.7,2.8,0.1,4-0.8c0.6-0.4,1-0.7,1.5-0.6     c1.2,0.3,2.3,0.2,2.7,1.5c0.1,0.3,0.5,0.1,0.4-0.1c-0.4-1.3-1.5-1.5-2.5-1.7c-0.9-0.1-1-0.4-2.4,0.5c-0.5,0.3-1.1,0.7-1.8,0.9     c-1.5,0.4-2.3-0.5-2.4-0.6c0,0,0,0,0,0c-0.6-1.5-0.9-3.3-1-3.7c0.8-1.7,2-2.9,2-2.9c0.1-0.1,0.1-0.2,0-0.3     c-0.1-0.1-0.2-0.1-0.3,0c0,0.1-1.3,1.3-2.1,3c0,0,0,0,0,0.1c-0.6,1.3-1.2,1.7-2.2,2.4c-1.3,0.9-1.7,1.1-2.6,2.4     c-0.5,0.7-0.8,1.1-1.9,1.2c-1.9,0.1-0.8-1.3-3.5,0.6c-1.4,1-1.9,1.2-2.4,1.4c-0.8,0.3-0.8,0.4-2.3,1.4c-0.8,0.5-1.2,0.8-1.4,2.1     c0,0.1,0.1,0.2,0.2,0.2h0c0.1,0,0.2-0.1,0.2-0.2c0.2-1.6,0.5-1.3,2.1-2.5c1.4-1,1.3-0.5,3.7-2.2c1.5-1,1.6-1,1.8-0.8     c0.6,0.4,1.3,0.4,1.9,0.3c-0.4,0.5-0.7,1.1-0.6,1.8c-0.7,0.3-3.3,1.5-3.8,2.9c-0.1,0.2-0.3,1.1-0.3,1.2c-0.2,0.9-0.4,2.5-1.3,3.5     c0,0-0.1,0-0.1,0.1c-0.6,0.6-1.4,0.7-1.9,2.8c-0.5,2.2-0.7,6.8,0,7.8c0.6,0.8,1,2,1.7,2.9c0.1,0.2,0.5,0,0.3-0.2     c-0.6-0.8-1-2.1-1.7-2.9c-0.5-0.8-0.5-4.9,0-7.4c0.3-1.1,0.6-1.6,1-1.9c-0.6,1.4-0.2,2.2,0.2,3.7c0.9,3.9,1.3,3.3,1.4,5.4     c0,0.8,0.1,1.6,0.9,2.6c1.3,1.7,1.9,1.5,3.5,2.4C96,172.9,96.9,174.3,96.9,174.4z"/><path fill="#3c4150" d="M139.9,107.7h36.7c0.1,0,0.3-0.1,0.3-0.3s-0.1-0.3-0.3-0.3h-36.7c-0.1,0-0.3,0.1-0.3,0.3     S139.7,107.7,139.9,107.7z"/><path fill="#3c4150" d="M176.6,118.5h-16.3c-0.3,0-0.3,0.5,0,0.5h16.3c0.1,0,0.3-0.1,0.3-0.3S176.7,118.5,176.6,118.5z"/><path fill="#3c4150" d="M139.9,119h14.1c0.1,0,0.3-0.1,0.3-0.3s-0.1-0.3-0.3-0.3h-14.1c-0.1,0-0.3,0.1-0.3,0.3S139.7,119,139.9,119z     "/><path fill="#3c4150" d="M176.6,129.7h-6c-0.3,0-0.3,0.5,0,0.5h6c0.1,0,0.3-0.1,0.3-0.3S176.7,129.7,176.6,129.7z"/><path fill="#3c4150" d="M167.2,130.2c0.1,0,0.3-0.1,0.3-0.3s-0.1-0.3-0.3-0.3h-16c-0.3,0-0.3,0.5,0,0.5H167.2z"/><path fill="#3c4150" d="M139.9,130.2h7c0.3,0,0.3-0.5,0-0.5h-7C139.5,129.7,139.5,130.2,139.9,130.2z"/><path fill="#3c4150" d="M176.6,141h-16.7c-0.3,0-0.3,0.5,0,0.5h16.7c0.1,0,0.3-0.1,0.3-0.3S176.7,141,176.6,141z"/><path fill="#3c4150" d="M139.9,141.5h15.7c0.3,0,0.3-0.5,0-0.5h-15.7C139.5,141,139.5,141.5,139.9,141.5z"/><path fill="#3c4150" d="M176.6,152.3h-8.9c-0.1,0-0.3,0.1-0.3,0.3s0.1,0.3,0.3,0.3h8.9c0.1,0,0.3-0.1,0.3-0.3     S176.7,152.3,176.6,152.3z"/><path fill="#3c4150" d="M139.9,152.8h23.3c0.3,0,0.3-0.5,0-0.5h-23.3C139.5,152.3,139.5,152.8,139.9,152.8z"/><path fill="#3c4150" d="M176.8,163.8c0-0.1-0.1-0.3-0.3-0.3c-28.9,0.1-27.9-0.2-27.9,0.3c0,0.5-1,0.1,27.9,0.3     C176.7,164,176.8,163.9,176.8,163.8z"/><path fill="#3c4150" d="M139.9,164h5.5c0.3,0,0.3-0.5,0-0.5h-5.5C139.5,163.5,139.5,164,139.9,164z"/><path fill="#3c4150" d="M156.7,174.8c-0.3,0-0.3,0.5,0,0.5H168c0.3,0,0.3-0.5,0-0.5H156.7z"/><path fill="#3c4150" d="M139.9,175.3h13.5c0.3,0,0.3-0.5,0-0.5h-13.5C139.5,174.8,139.5,175.3,139.9,175.3z"/><path fill="#3c4150" d="M215,394.6h157.9c0.2,0,0.3-0.2,0.3-0.3V319c0-0.2-0.2-0.4-0.3-0.4c-98.2,0-59.9,0-157.9,0     c-0.2,0-0.4,0.2-0.4,0.4v75.2C214.6,394.4,214.8,394.6,215,394.6z M215.4,319.3c29.4,0,126.2,0,157.2,0v74.5H215.4V319.3z"/><path fill="#3c4150" d="M364.3,327.2c-29.9,0-114.4,0-140.7,0c-0.2,0-0.4,0.1-0.4,0.3v58c0,0.2,0.2,0.4,0.4,0.4     c16.6,0,123.9,0,140.7,0c0.2,0,0.3-0.1,0.3-0.4v-58C364.6,327.4,364.5,327.2,364.3,327.2z M363.9,385.3c-134.1,0-23,0-140,0     v-57.3c26,0,107.3,0,140,0V385.3z"/><path fill="#3c4150" d="M309.4,230.9h-20.5c-0.9,0-1.6,0.7-1.6,1.6V246c0,0.9,0.7,1.6,1.6,1.6h20.5c0.9,0,1.6-0.7,1.6-1.6v-13.5     C310.9,231.6,310.2,230.9,309.4,230.9z M310.2,246c0,0.5-0.4,0.9-0.9,0.9h-20.5c-0.5,0-0.9-0.4-0.9-0.9v-13.5     c0-0.5,0.4-0.9,0.9-0.9h20.5c0.5,0,0.9,0.4,0.9,0.9V246z"/><path fill="#3c4150" d="M309.1,252.6H302c-1,0-1.8,0.8-1.8,1.8v1.5c0,1,0.8,1.8,1.8,1.8h7.1c1,0,1.8-0.8,1.8-1.8v-1.5     C310.9,253.4,310.1,252.6,309.1,252.6z M310.2,255.9c0,0.6-0.5,1.1-1.1,1.1H302c-0.6,0-1.1-0.5-1.1-1.1v-1.5     c0-0.6,0.5-1.1,1.1-1.1h7.1c0.6,0,1.1,0.5,1.1,1.1V255.9z"/><path fill="#3c4150" d="M296.2,252.6h-7.1c-1,0-1.8,0.8-1.8,1.8v1.5c0,1,0.8,1.8,1.8,1.8h7.1c1,0,1.8-0.8,1.8-1.8v-1.5     C298,253.4,297.2,252.6,296.2,252.6z M297.3,255.9c0,0.6-0.5,1.1-1.1,1.1h-7.1c-0.6,0-1.1-0.5-1.1-1.1v-1.5     c0-0.6,0.5-1.1,1.1-1.1h7.1c0.6,0,1.1,0.5,1.1,1.1V255.9z"/><path fill="#3c4150" d="M121.1,270v20.8c0,0.2,0.2,0.3,0.4,0.3h5.4c0.2,140.1-0.3,131.5,0.3,131.5h16.1v3.2c0,0.2,0.2,0.4,0.4,0.4     c4.3,0,7.8,0,11.9,0c0.2,0,0.3-0.2,0.3-0.4v-3.2h20v3.2c0,0.2,0.2,0.4,0.4,0.4c4.3,0,7.8,0,11.9,0c0.2,0,0.3-0.2,0.3-0.4v-3.2     h163.4v3.2c0,0.2,0.2,0.4,0.4,0.4c4.3,0,7.8,0,11.9,0c0.2,0,0.3-0.2,0.3-0.4v-3.2h21v3.2c0,0.2,0.2,0.4,0.4,0.4     c4.3,0,7.8,0,11.9,0c0.2,0,0.3-0.2,0.3-0.4v-3.2h2.9c0.7,0,0.2,5.4,0.3-131.5h5.3c0.2,0,0.3-0.1,0.3-0.3V270     c0-0.2-0.1-0.4-0.3-0.4h-27.1l-0.8-12h22.6c3.5,0,6.3-2.7,6.5-6.2l2.1-45.2c0.2-3.6-2.7-6.8-6.5-6.8h-71.6     c-3.5,0-6.3,2.7-6.5,6.2l-2.1,45.1c-0.2,3.7,2.8,6.8,6.5,6.8h32.5l0.5,7.7l-15.4,3c-0.6,0.1-1,0.6-1,1.2v0.1h-44v-8.4     c0.2,0,9.7,0,9.7,0c1.1,0,1.9-0.9,1.9-1.9v-30c0-1.1-0.9-1.9-1.9-1.9h-29.3c-1.1,0-1.9,0.9-1.9,1.9v30c0,1.1,0.9,1.9,1.9,1.9h9.7     v8.4h-29c0.5-0.4,0.7-1.2,0-2.2c2.2-0.1,2.2-1.4,0.7-3c2.3-0.5,2.2-1.9,0.3-3.4c2-0.1,3.1-0.7,3.1-1.6c0-1.4-2.9-2.4-7.3-2.8     c3-1.4,2.5-4-1-3.6c-0.1,0-1.1,0.3-1,0.2c-0.6-11.1-1.3-21.6-2-30.2c2,1,11.1,5.5,13.2,5.1c8.2-1.6,25.3-20.4,27.9-23     c0.3-0.6,0.4-1.3,0.1-2.3c0.2-0.2,0.5-0.5,0.7-0.7c1.9-0.7,5.2-3.2,7.1-4.6c0.6-0.5,1.2-1,1.8-1.6c0,0,0,0,0,0     c2.8-3.2,3.7-5.2,2.7-6.2c-0.3-0.3-0.6-0.4-0.9-0.4c0.7-2-0.1-2.6-1.1-2.4c0.3-1.6-0.5-2.1-0.7-2.2c-0.5-0.2-1,0-1.2,0.5     c-0.1,0.3-0.6,0.9-1.1,1.6c0.3-1.5,0.4-3.2,0-3.6c-1-0.9-2-0.1-2.3,1.2c-0.6,2.5-3.4,5.2-4.7,6.4c0-2.3-1.1-5.2-2.8-5.6     c-2.1-0.5-2.1,5.2-2.4,7.7c-0.1,1.1-0.8,2.5-1.5,3.6c-0.4,0-0.8,0.1-1,0.4c0,0,0,0,0,0l-24.3,15.5l-13.9-6.8     c-3.4-2-7.4-3.3-11.5-3.8v-5.6c4-0.6,7.4-4,9-8.8c2.7,1.2,6.2-1.6,6.2-6.8c0-3.4-1.7-6.3-4-6.9c0.7-7.4-4.2-15.3-19.4-13.8     c-16,1.6-12.7,25.1-11,33.4c0.3,1.7,1.8,2.9,3.5,2.9h4v4.5l-0.3,0c-0.6,0.1-15.5,2.4-19.3,6.6c-2.3,2.5-2.8,7.7-3,8.3l-4.6,25.2     c-0.5,3.5,1.1,7.2,4.7,9.3c0,0.3-0.1-1.1,0.3,3.9c0,0.1,0,0.1,0.1,0.2c0.6,6.5,1.3,12.1,1.7,15.5h-86.6     C121.3,269.7,121.1,269.8,121.1,270z M147.9,425.6H144v-2.9h3.8V425.6z M155.2,425.6h-6.6v-2.9h6.6V425.6z M127.6,422V291.2h58.9     c0,15.6,0,116.2,0,130.8C155.6,422,176.8,422,127.6,422z M180.5,425.6h-3.8v-2.9h3.8V425.6z M187.8,425.6h-6.6v-2.9h6.6V425.6z      M356.5,425.6h-3.8v-2.9h3.8V425.6z M363.8,425.6h-6.6v-2.9h6.6V425.6z M390.1,425.6h-3.8v-2.9h3.8V425.6z M397.5,425.6h-6.6     v-2.9h6.6V425.6z M400.7,422c-1.2,0-202.6,0-213.5,0c0-14.6,0-115.3,0-130.8c9.4,0,204.2,0,213.5,0V422z M378.9,269.7h-12.8     c-1.7-26.4,0.3,5.1-2.7-42.2c-0.1-0.8,0.4-1.4,0.8-1.6c1-0.3,0.6-0.1,11-0.2c0.2,0.4,0.4,0.7,0.8,0.9c0,0,0.1,0,0.1,0     C378.3,260.3,376.4,231.6,378.9,269.7z M329.8,257c-3.6,0-6.1-3.2-5.8-6.1l2.1-45.1c0.2-3.1,2.7-5.5,5.8-5.5h0.7c0,0,0,0-0.1,0     c-2.1,1-3.3,3.2-3.5,5.5l-2.2,45.1c-0.1,2.6,1.3,5,3.5,6.1H329.8z M333.4,257c-3.1,0-6-2.5-5.8-6.1c0-0.1,1.5-31.3,2.1-45.1     c0.1-3.1,2.7-5.5,5.8-5.5h68c3.3,0,5.8,2.7,5.8,5.8c0,0.1,0,0.2,0,0.3l-2.1,45.2c-0.2,3.1-2.7,5.5-5.8,5.5h-22.6l-0.5-8.4h18.9     c1.5,0,2.8-1.2,2.8-2.7l1.6-34.3c0.1-1.6-1.2-3-2.8-3h-59c-1.5,0-2.8,1.2-2.8,2.7l-1.6,34.3c-0.1,1.6,1.2,3,2.8,3h23.6l0.5,8.4     H333.4z M360.6,229.3l1.1,18.6h-23.5c-1.2,0-2.2-1-2.1-2.2l1.6-34.3c0-1.1,1-2,2.1-2h59c1.2,0,2.2,1,2.1,2.2l-1.6,34.3     c0,1.1-1,2-2.1,2h-19c-1.2-19.4-1.4-21.8-1.4-21.9c-0.2-0.6-0.6-1.1-1.2-1.1c-10.7,0.1-10.7-0.2-11.6,0.3     C362.1,225.8,360.4,227.5,360.6,229.3z M284.7,260.6h-2c-0.7,0-1.2-0.5-1.2-1.2v-30c0-0.7,0.5-1.2,1.2-1.2h2     c-0.3,0.3-0.4,0.8-0.4,1.2v30C284.3,259.8,284.4,260.2,284.7,260.6z M286.2,260.6c-0.7,0-1.2-0.5-1.2-1.2v-30     c0-0.7,0.5-1.2,1.2-1.2H312c0.7,0,1.2,0.6,1.2,1.2v30c0,0.7-0.5,1.2-1.2,1.2H286.2z M301.6,261.3v8.4c-0.3,0-5.1,0-5.1,0v-8.4     C297.4,261.3,301.6,261.3,301.6,261.3z M295.9,261.3v8.4h-2.8v-8.4H295.9z M259.4,253.9c3.4-0.3,2.6,2-0.9,2.8     c-0.1,0-0.1,0-0.2,0.1c-0.4,0.1-0.4,0.7,0.1,0.7c0.1,0,0.1,0,0.2,0c5.9,0.2,8.3,1.5,8.3,2.2c0,0.3-0.9,0.9-3.4,0.9l-4.2-1     c-0.2,0-0.4,0.1-0.4,0.3c0,0.2,0.1,0.4,0.3,0.4l4.2,1l0,0c0.9,0.5,2,1.5,1.9,2c0,0.1-0.3,0.5-1.8,0.7h0c-0.1,0-4.3-1-4.4-1     c-0.4,0-0.5,0.6-0.1,0.7c0.1,0,4.6,1,4.3,1c0,0,0.1,0,0.1,0h0c0.6,0.6,1.4,1.5,1.3,1.9c0,0.1-0.3,0.4-1.8,0.3c-0.1,0-4.2-1-4.3-1     c-0.4,0.1-0.4,0.6,0,0.7c0.1,0,0.9,0.2,0.8,0.2l3.4,0.8c1.2,1.1,1.1,1.9-0.6,2.3c-0.2,0-3.4,0-3.3,0h-0.9     c-6.3-0.8-9.6-3.7-10-3.8c-0.1,0-3-0.9-2.8-0.8c-0.1,0-5.6-1.6-5.3-1.5c1.2-3,3.6-5.2,6.3-6.5C245.9,257,259.6,253.8,259.4,253.9     z M290.5,198.8c0.8-1,2.5-4.1,2.7-5.8c0.1-1.2,0.4-7.4,1.5-7.1c1.4,0.4,2.6,3.4,2.2,5.7v0c0,0-0.3,2.3-1.2,3.4     c-0.1,0.1-0.1,0.4,0,0.5c0.1,0.1,0.4,0.1,0.5,0c0.9-1.1,1.3-3.1,1.3-3.6c0.7-0.6,4.7-4,5.5-7.2c0.1-0.3,0.3-0.9,0.6-1     c0.1-0.1,0.3,0,0.5,0.2c0.2,0.4-0.1,3.7-0.7,4.6c-0.3,0.4,0.3,0.8,0.6,0.4c0.4-0.5,2.1-2.5,2.4-3.2c0.2-0.4,1,0,0.5,1.8     c-0.2,0.3-1.3,1.8-2.6,2.9c-0.4,0.3,0.1,0.8,0.5,0.5c1.3-1.1,2.5-2.7,2.7-3c0.4-0.2,0.7-0.2,0.9,0c0.3,0.3-0.1,1.3-0.4,2     c-0.2,0.2-1.7,1.9-2.8,2.8c-0.2,0.1-0.2,0.3-0.1,0.5c0.1,0.1,0.4,0.2,0.5,0.1c0.9-0.7,2.1-2,2.9-2.8c0.3-0.2,0.5-0.1,0.8,0.1     c0.5,0.4,0,2.1-2.8,5.2c-0.5,0.6-1.1,1.1-1.7,1.5c-1.8,1.4-5.2,3.8-6.9,4.5c0,0-0.1,0-0.1,0.1c-1.1,1.1-1.7,1.6-3.1,3.3     C293.3,204,291.1,201.1,290.5,198.8C290.5,198.8,290.5,198.8,290.5,198.8L290.5,198.8z M251.3,174.6c1.9,0.6,3.3,3.2,3.3,6.2     c0,3.5-1.9,6.3-4.2,6.3c-0.4,0-0.8-0.1-1.1-0.3c0.7-2.5,0.9-5.2,0.6-7.8C250.6,177.7,251.1,176.1,251.3,174.6z M249,177.6     c0.6,2.8,0.5,5.9-0.3,8.9c-1.9-1.3-3-4.9-2-8.4c0.1,0.1,0.3,0.1,0.4,0C247.2,178.1,248,177.2,249,177.6z M245.8,170.6     c1,1.2,1.8,2.5,2.4,4c-1.3,1-2.2,2.8-2.4,4.9l-3-0.1c0-1.7-0.5-3.3-1.3-4.5C243.3,173.6,244.8,172,245.8,170.6z M233.7,178.6     c2.9-0.9,5.2-2,7.1-3.2c2.1,3.2,1.3,8.5-1.3,10.2C236.6,187.5,233.1,183.9,233.7,178.6z M223.7,183c0-1.3,1-2.5,2.5-3     c0,0,0,0,0,0c2.2-0.2,4.7-0.6,6.8-1.2c-0.6,6.3,4,9.7,7.2,7.1c1.4-1.1,2.4-3.3,2.5-5.8l3,0.1c-0.1,2.5,0.8,5.6,2.9,6.9     c-2.5,7.8-9.6,11.1-15.1,6.2c-1.8-1.6-3.3-4.1-4.1-7c0-0.2-0.3-0.3-0.4-0.3C226.7,186.7,223.7,185.3,223.7,183z M239.5,196.4     c0,12.8,0,4.3-0.1,12.3h-7.5c0-0.1-2.9-8.1-2.8-7.6c0-0.2,0-4.8,0-4.7v-8.1c1.6,4.3,5.2,8.2,9.9,8.2     C239.2,196.4,239.3,196.4,239.5,196.4z M205.9,249.3c-2.9-1.7-4.4-5-4-8.3c0,0,0.1-0.3,0.1-0.4c0,0,0,0,0,0c0,0,0,0,0-0.1     c0,0,0-0.3,0.1-0.3c0.3-1.4,4.8-26.1,4.5-24.4c0.5-2.5,1.1-6.1,2.8-8c3.7-4,18.7-6.3,18.8-6.4l0.4,0l2.7,7.6c0,0,0,0,0,0.1     l7.6,21.6c0.1,0.3,0.8,0.3,0.8-0.1l0.4-28c4,0.5,7.8,1.8,11.2,3.7c0.1,0.1,0.1,0.1,14.2,6.9c0.1,0.1,0.2,0.1,0.3,0l23.8-15.1     c0,0.7,0.2,1.2,0.2,1.3c0.7,1.9,1.7,3.5,3,4.9c0.5,0.7,1.7,1.7,2.9,1.7c-4,4.4-18.9,20.1-26.5,21.6c-2.1,0.4-13.2-5.2-15-6.1     c-0.4-0.2-0.7,0.4-0.3,0.6c0.2,0.1,0.7,0.4,1.4,0.7c0.8,8.8,1.4,19.4,2,30.7l-11.1,2.6l-27.8-15.8l4.2-17.7     c0-0.2-0.1-0.4-0.3-0.4c-0.2-0.1-0.4,0.1-0.4,0.3l-4.1,17.5l-2.2-1.4c-0.4-0.2-0.8,0.3-0.4,0.6l2.6,1.7c0,0,0,0,0,0l27.3,15.6     c-2.8,1.4-6.5,4.5-7,7.6c0,0,0,0,0,0c-0.1,0.8,0,1.6,0.3,2.3c-8.7-4.7-24.7-12.2-32-16.5C206.7,249.8,205.9,249.3,205.9,249.3z      M207.1,254.5c31.8,12.6,29.9,12,30.2,11.8c0.8,0.4,1.5,0.8,2.2,1.2c0.5,0.6,1.2,0.9,1.9,0.9c1.3,0,2.3-1.1,3.3-2.6l2.6,0.8     c2,1.4,4.4,2.5,6.7,3.1h-45.3C208.4,266.3,207.7,260.9,207.1,254.5z M181.6,270.4c35.1,0,213.9,0,224.7,0v20.1     c-46,0-179.6,0-224.7,0V270.4z M121.8,270.4h59v20.1h-59V270.4z"/><path fill="#3c4150" d="M378.2,247.8C378.2,247.9,378.2,247.9,378.2,247.8C378.2,247.9,378.2,247.9,378.2,247.8z"/><path fill="#3c4150" d="M378.2,247.6C378.2,247.6,378.2,247.6,378.2,247.6C378.1,247.6,378.2,247.6,378.2,247.6z"/><path fill="#3c4150" d="M367.9,233.4c0,0.2,1.8,21.8,1.8,21.8c0.1,1.4,1.4,2.5,2.8,2.5c1.5,0,2.5-1.2,2.4-2.6     c-1-13.1-0.5-6.3-1.8-21.5C372.8,230.3,367.9,230.2,367.9,233.4z M374.1,255.1c0.1,1-0.6,1.9-1.7,1.9c-1.1,0-2-0.9-2.1-1.9     c-0.1-0.9-0.5-6-1.7-21.5c-0.1-1,0.6-1.9,1.7-1.9c1.1,0,2,0.9,2,1.9C373.8,251.6,372.3,233.8,374.1,255.1z"/><path fill="#3c4150" d="M373.1,243.1C372.8,239,373.1,242.7,373.1,243.1L373.1,243.1z"/><path fill="#3c4150" d="M383,216.2c0-0.2-0.2-0.4-0.3-0.4h-25.8c-0.5,0-0.5,0.7,0,0.7h25.8C382.8,216.6,383,216.4,383,216.2z"/><path fill="#3c4150" d="M48.6,364.3c0.1,0,9.2,0.1,14.3,5.1c3.3,3.3,11.3,20.4,13.9,20.7l0.2,9H66.9c-0.7,0-1.2,0.6-1.2,1.2v5.1     c0,0.7,0.5,1.2,1.2,1.2h1c0,0.2,4.6,20.5,4.8,21.4c0.3,1.4,1.5,2.4,3,2.4h16.9c1.5,0,2.7-1,3-2.4c6.5-29.3,4.3-19.2,4.8-21.4h1     c0.7,0,1.2-0.5,1.2-1.2v-5.1c0-0.7-0.5-1.2-1.2-1.2H91.1c-0.1-5.4,0-11.7,0.5-17.5c1-0.8,8.1-6.9,12-14.8     c4-8.3,14.5-10.6,14.6-10.7c0.1,0,0.3-0.1,0.3-0.3c0-0.1-0.1-0.3-0.2-0.4c-4.7-2.2-8.5-3.2-11.6-3.2c-5.3-0.1-9,2.6-12.6,6.9     c-4.5,5.3-4.3,15.4-3.2,22.3c-0.5,5.9-0.6,12.3-0.5,17.7h-3.9c-0.4-11.4-0.6-28,0.6-38.9c0.9-0.9,8.5-8.3,11-20.9     c2.5-13.1,11.3-20.5,11.4-20.5c0.3-0.2,0.1-0.6-0.2-0.6c-0.1,0-8.5-0.7-15.1,6.1c-6.9,6.9-9.5,19-7.7,35.8     c0,0.8-1.6,10.9-0.6,39.1h-4.1c-0.4-23.1,1.1-24.3,0.7-26.6c0,0,0,0,0,0c1.7-21.8-1.5-35.9-9.6-42c-6.7-5.1-14.4-2.4-14.4-2.4     c-0.3,0.1-0.3,0.6,0,0.7c5.4,1.6,11,15.3,13.2,27.1c2,11,9,16.1,10.1,16.8c0.3,2.2-1.1,4.1-0.7,26.5h-3.2l-0.2-9.3     c0.1-0.2,0.2-0.4,0.3-0.6c1-4.7-1.3-14-1.3-14.4c-1.2-6.2-4-10.5-8.3-12.6c-8.3-4.1-19.2,1.3-19.6,1.5     C48.1,363.8,48.3,364.3,48.6,364.3z M94.5,324.7c5.2-5.3,11.5-5.9,13.7-5.9c-2.1,2-8.8,9.1-11,20.4c-2.1,10.9-8.1,17.8-10.2,19.9     c2.3-17.4,12-33.9,12.1-34.1c0.2-0.4-0.3-0.8-0.6-0.4c-0.1,0.2-9.2,15.5-11.9,32.3C85.6,342,88.2,331.1,94.5,324.7z M74.6,340.9     c-0.1-0.5-0.8-0.4-0.7,0.1c0,0.2,3,20.3,7.3,30c0.1,0.2,0.2,0.4,0.2,0.6c-2-1.5-7.5-6.5-9.2-15.9c-2.1-11.6-7.4-24.4-12.8-27.3     c2.2-0.5,7.8-1.3,12.8,2.5c7.5,5.7,10.7,19.4,9.4,39.6C77.5,360.8,74.6,341.1,74.6,340.9z M95.5,425.3H72.9l-4.2-18.7     c17.2,0,13.4,0,31,0L95.5,425.3z M94.6,359.6c3.4-4.1,6.9-6.6,11.9-6.6c2.9,0,6.3,0.8,10.6,2.8c-2.8,0.8-10.7,3.7-14.1,10.8     c-3.4,6.9-9.3,12.4-11.3,14.1c1.7-13.1,16.3-24.5,16.5-24.6c0.3-0.3-0.1-0.8-0.4-0.6c-0.1,0.1-13.8,10.7-16.5,23.5     C90.8,374.4,90.3,364.7,94.6,359.6z M101.4,399.8c0.3,0,0.5,0.2,0.5,0.5v5.1c0,0.3-0.2,0.5-0.5,0.5c-13.4,0-27.2,0-34.5,0     c-0.3,0-0.5-0.2-0.5-0.5v-5.1c0-0.3,0.2-0.5,0.5-0.5H101.4z M67.8,362.8c4.1,2,6.7,6,7.9,12.1c0,0.1,1.8,7.5,1.6,12.3     c-1.6-13.4-11.9-20.3-12-20.4c-0.2-0.1-0.4-0.1-0.5,0.1c-0.1,0.2-0.1,0.4,0.1,0.5c0.1,0.1,11.2,7.6,11.9,22     c-2.1-0.5-10.3-17.4-13.4-20.5c-4.1-4-10.4-5-13.3-5.2C53.3,362.4,61.5,359.7,67.8,362.8z"/><path fill="#3c4150" d="M526,208.6c2.2-0.4,7.5-1.4,8.1-3.4c0.1-0.4,0.1-1-0.6-1.7c-5.3-4.9-2.3-15.9-9.1-25.3     c-2.2-3-4.7-4.7-7.3-4.8c-3.1-0.2-5.5,1.7-6.4,2.5c-2.3-6.7-13-12.4-15.4-1.8c-2.4,10.6-13.1,19-10.2,25c1.8,3.7,6.5,4.5,9.9,4.5     c0.9,3.8,2.3,6.1,8.1,5.4v1.6c-1.3-0.2-8.9-1-13.8,4.6c-0.1,0.1,0.8-0.9-16.4,19.4c-0.3,0.4-0.9,0.6-1.3,0.4     c-25.3-7.5-24.3-7.3-24.6-7.1c-0.3,0.1-0.6,0.3-0.8,0.4c-4.4-6.7-7.2-9.7-8.4-9.1c-0.7,0.4-0.9,1.9-0.6,2.8     c-1.5-1-7.8-4.9-9.5-4.9c-1.4,0.1-1.1,2.2,0.1,3.2l4.7,3.2l0.5,0.4c-1,0.4-1.5,1.2-1.2,2.2c-0.9,0.6-1.2,1.6-0.6,2.5     c-2.2,2.9,5.6,7,10.8,7.2c0,0.4,0,0.8,0.1,1.2c0,0.1,0,0.2,0.1,0.3c0.1,0.1,23.8,16.4,32.3,15.1c1.1-0.2,2.4-0.7,3.8-1.4h0     c0.3,0.2,0.5,0.3,0.8,0.4c-1.8,0.9-2.1,2.1-0.3,2.9c-1.3,1.1-1.2,2.2,0.5,2.6c-0.5,0.6-0.3,1.1-0.1,1.3c0.5,0.8,2.1,1.3,4.2,1.5     c0,4.9,0,8.3,0,8.3l-4.5,36.6c-0.1,1.2,0.6,2.3,1.9,2.6c0.2,0.1,0.4,0.1,0.7,0.2c-1.6,32.2-4.1,105.2-4.2,109     c0,1.6,1.1,3,2.8,3.2l0.1,3.4c-0.6-0.1-1.6,0.3-1.9,1.2l-1,2.8l-9.4,3.2c-1.4,0.5-2.4,1.8-2.4,3.4c0,0.4,0.3,0.7,0.7,0.7h0     l26.7-0.2c0.4,0,0.7-0.3,0.7-0.8c0-0.1,0-1.7,0-1.7c-0.1-0.7,0.2-2.3-0.5-4.2c0-0.2-0.9-2.6-3.2-3.4l-0.1-4.5h0.4     c0.8,0,1.5-0.6,1.7-1.4l15.9-87.5l12.4,84.4c0.4,2.5,2.4,4.3,4.9,4.3h0.1l0.1,3.4c-0.7-0.1-1.6,0.3-1.9,1.2l-1,2.8l-9.4,3.2     c-1.4,0.5-2.4,1.8-2.4,3.4c0,0.4,0.3,0.7,0.7,0.7c1,0,18.9-0.1,26.7-0.2c0.4,0,0.7-0.3,0.7-0.7c0-0.5,0-2.2,0-2.8     c0-2.7-1.1-5.6-3.7-6.4l-0.1-4.4c0.1,0,0.7,0,0.6,0c1.6,0,2.9-1.3,2.9-3l-2.4-107.1c1.4-0.9,2.4-2,3.1-3.4c3.3-7.4-3.2-34-5-41.3     c-0.3-1.2-0.2-2.8-0.2-2.9c0.7-0.6,1.5-1.5,2-2.2c5.9-9.1,2.5-29.2-0.1-39.5l0-0.1c-1.8-6.8-13.3-8.4-20.1-8.4l0.3-2.3     C518.1,209.3,522.3,209.1,526,208.6z M502.9,211.6c1.3,9.9,1,9.9,1.4,10c0.3,0.2,0,0.2,10.1-9c-7.3,9.8-7.7,23.9-7.9,33.3     c0,0.8,0,1.7,0,2.6l-10.4,0.2c-0.2-6-0.3-11.1,0.1-14.6C497.7,219.8,501.8,213.2,502.9,211.6z M431.4,229.1     c0.4,0.1,1.3,0.5,2.9,1.9c0.4,0.3,0.8-0.2,0.5-0.5c-1.9-1.6-2.9-2-3.3-2.1c-0.3-0.3-0.4-0.6-0.3-0.8c0.1-0.4,0.5-0.7,0.8-0.8     c0.4,0.1,1.4,0.6,2.9,1.9c0.3,0.3,0.8-0.2,0.5-0.5c-1.7-1.5-2.8-1.9-3.2-2.1v0c-0.3-0.9,0.4-1.3,1.3-1.5c0,0,0,0,0,0     c0.4,0.1,1.4,0.6,2.9,1.9c0.3,0.3,0.8-0.2,0.5-0.5c-1.8-1.6-2.9-2-3.3-2.1l-0.9-0.7c-0.1-0.1-4.4-3-4.7-3.2c-0.8-0.7-1-1.9-0.5-2     c3.9,1.1,8.9,4.6,10.1,5.3l1.8,2.4c0.2,0.3,0.8,0,0.5-0.4c-0.1-0.1-1.8-2.4-1.8-2.4c-0.8-1.3-0.4-2.8-0.1-2.9     c0.6-0.3,3.4,2.6,7.5,8.8c0,0.1,0.5,0.8,0.6,0.8c0,0,0.4,0.3,0.5,0.3c0,1.1-1,3.7-3.2,5.9h0c-1-0.5-0.6-0.4-1.1-0.5     C436.4,235,429.8,231,431.4,229.1z M474.1,251.8c-7.6,1.1-28.3-12.7-31.5-14.8c2.7-2.2,4.3-4.9,4.5-8.4l0-0.1l23.9,7.1     c0.7,0.2,1.5,0,2-0.6l16.2-19.2c0,0,0.1,0,0.1-0.1c4.3-5,10.8-4.8,12.8-4.6c0,0,0.1,0,0.1,0c-4.1,5.7-6.1,15.8-6.8,22.8     c-0.4,3.5-0.3,8.7-0.1,14.7l-3.1,0.1l0,0c-0.3,0-0.5,0-0.8,0.4c-0.5-0.2-1.1-0.4-1.7-0.6h0c-1.6-2.2-4.8-4.2-5.5-4.4     c-1.7-0.2-2.2,1.2-1.3,2.6c-0.4,0.3-0.7,0.6-1.1,0.9c-4.5,0.3-5.3,1-5.4,1.7c-0.1,0.5,0.3,0.9,0.8,1.3     C476.2,251.3,475.1,251.7,474.1,251.8z M479.5,257.8c-0.1-0.1-0.2-0.4,0.4-0.9l3.1-0.2c0.2,0,0.3-0.2,0.3-0.4     c0-0.2-0.2-0.3-0.4-0.3c-0.2,0-3.1,0.2-3.2,0.2c-1.3-0.2-1.4-0.5-1.4-0.5c-0.1-0.3,0.5-0.9,1-1.2c0,0,3.6-0.1,3.6-0.1     c0.5,0,0.4-0.7,0-0.7l-3.6,0.2c0,0,0,0,0,0c-1-0.3-1.3-0.6-1.3-0.8c0-0.4,1-1,1.8-1.3c1.2-0.1,2.3-0.1,3.5-0.1     c0.4,0,0.4-0.7,0-0.7c0,0-3.5,0.1-3.6,0.1c0,0,0,0,0,0c-0.5-0.2-2.6-1.1-2.5-1.7c0.1-1,6.5-1.2,7.5-1.2c0.2,0,0.3-0.1,0.3-0.3     c0.1-0.4-0.4-0.3-1-0.9c-0.8-0.7-1.5-2.1-0.2-2.1c0.1,0,0.1,0,0.2,0c2,1,3.7,2.4,5.2,4.2c0.1,0.1,0.2,0.2,0.4,0.2     c1.3,0.4,3.1,1.2,4.4,1.7c1.2,1.8,0.1,6.5-0.8,7.5c-0.1,0-1.3-0.5-1.4-0.6c-0.2-0.1-0.3-0.2-0.5-0.1c-2.3,1.1-5.7,1.4-8.2,1.2     C481.3,258.8,479.9,258.4,479.5,257.8z M483.1,247.6c0.1-0.1,0.2-0.2,0.3-0.2v0.2H483.1z M480.7,306.5c-0.8-0.2-1.4-1-1.3-1.9     l4.5-36.6c0-0.1,0-3.4,0-8.3c2.3,0.1,5.5-0.2,7.7-1.2l1,0.4c0.3,0.2,0.5,0.4,0.8,0.3c0.5,0.1,1.4,0.3,2.7,0.5     c1.1,17.8,3.6,46.7,0.5,48c0,0,0,0,0,0C492.7,309.4,484.7,307.6,480.7,306.5z M496.7,259.8c2.4,0.4,6,1,10.6,1.7     c0.9,11.2,2.8,28.1,5.1,39c-4.3-0.1-9.2-0.5-13.6-1.1C499,290.3,497.5,272,496.7,259.8z M467.8,433.5l-1.9,0     c0-1.2,0.8-2.3,1.9-2.7l0.6-0.2L467.8,433.5z M492.1,427.2c-1.9,0.3-3.1,2.3-2.4,4l-17.9,0.1c-0.2,0-0.3,0.2-0.3,0.3     c0,0.2,0.2,0.3,0.3,0.3c0,0,0,0,0,0c0,0,0,0,0.1,0c0,0,0,0,0,0c0,0,0.1,0,0.1,0c0,0,0,0,0,0c0,0,0.1,0,0.1,0c0,0,0,0,0,0     c0,0,0,0,0.1,0c0,0,0,0,0,0c1.1,0,5.5,0,20.5-0.1l0,1.4l-24.2,0.1l0.7-3.1c8.6-3,8.3-2.7,8.4-3l1-3c0.1-0.4,0.6-0.7,1-0.7     c0.3,0,0.6,0.1,0.8,0.3c0.3,0.3,0.3,0.6,0.3,0.8c0.5,4.8,6.2,4.2,8.6-0.1C489.9,424.7,491.5,426,492.1,427.2z M480.4,419.6h8.4     l0.1,4.4c-0.1,0-0.1,0.1-0.2,0.2c0,0-1.8,3.6-5.1,3.3c-1.9-0.2-2.2-2.5-2.3-2.7c0-0.7-0.4-1.3-0.9-1.5L480.4,419.6z M512.8,433.2     l-1.9,0c0-1.2,0.8-2.3,1.9-2.7l0.6-0.2L512.8,433.2z M537.1,426.9c-1.9,0.3-3.1,2.3-2.4,4.1l-17.9,0.1c-0.2,0-0.3,0.2-0.3,0.3     s0.2,0.4,0.4,0.4c2.1,0-7.7,0.1,20.9-0.1l0,1.4l-24.2,0.1l0.7-3.1c8.5-3,8.3-2.7,8.4-3l1-3c0.4-1.2,2.1-0.8,2.1,0.4v0     c0.1,1.1,0.9,3.1,2.8,3.3c0,0,0,0,0,0c1.9,0.2,4.1-0.7,5.7-3.4C535.5,424.7,536.5,425.5,537.1,426.9z M525.5,419.3l8.5,0.1     l0.1,4.3c-0.1,0-0.1,0.1-0.2,0.2c0,0-1.8,3.6-5.1,3.3c-1.9-0.2-2.2-2.5-2.3-2.7c0-0.6-0.3-1.2-0.9-1.5L525.5,419.3z M537.5,416.4     c0,0.6-0.2,1.2-0.6,1.6c-0.7,0.7-1.5,0.6-1.6,0.7c-2.5,0-8.4-0.1-10.5-0.1c-2.1,0-3.9-1.6-4.2-3.7c0-0.1-11.8-80.5-12.7-86.4     c-3.2-18.2-1.6-9.1-2.1-11.8c-0.1-0.5-0.8-0.3-0.7,0.1l0.3,1.7v0l-0.1,18.7c0,0.2,0.1,0.3,0.3,0.3L491,418     c-0.1,0.5-0.5,0.8-1,0.8h-9.9c-1.4,0-2.4-1.1-2.4-2.5c0-0.9,2.6-76,4.2-108.9c4.1,1,11.1,2.5,15,0.8c1.2-0.5,1.8-3.3,1.9-8.2     c4.4,0.6,9.4,1,13.8,1.1c0.4,1.9,1.6,7,3,7.9c4.1,2.3,14.3,3.4,19.6,0.6L537.5,416.4z M538.2,305.6c-0.5,1.1-1.3,2.1-2.4,2.8     c-4.6,3.3-15.6,2.5-19.9,0c-1.3-0.7-2.6-7.4-2.8-7.9c-2.3-11-4.1-27.7-5.1-38.9c2.1,0.3,13.4,1.8,17.9,2.1c2.5,0.2,4.8,0,7.1-1.5     c0,0.3,0,1.7,0.2,2.5C535.1,272.2,541.3,298.5,538.2,305.6z M515.7,212.1h0.2c6.3,0.1,17.1,1.7,18.8,7.9c0,0,0,0.1,0,0.2     c2.4,9.3,5.9,30.4,0.2,39c-2.1,3.1-5.2,4.3-9,3.9c-14.2-1.5-26.6-3.4-31.9-4.4c1.2-1.6,2-5.8,0.7-8.1c0,0,0,0,0,0     c-0.3-0.5-0.6-0.8-1-1.1c2.2,0,30.1-0.5,30.8-0.5l2.5-0.2c0.5,0,0.4-0.7,0-0.7l-2.2,0.1l-0.5-4.2c0-0.2-0.2-0.3-0.4-0.3     c-0.2,0-0.3,0.2-0.3,0.4l0.5,4.1c-1.9,0-12.1,0.2-16.9,0.3c0-1,0-1.9,0-2.6C507.5,233.7,508.3,221.7,515.7,212.1z M514.6,211.6     c-18.7,17-3.9,3.6-9.9,9c0-0.1-1.2-9.6-1.2-9.6v-2c1.7-0.3,3.5-0.8,4.3-1.1c0.6-0.1,0.3-0.8-0.1-0.7c-1.4,0.5-3.3,1-4.9,1.1     c-4.3,0.5-6.5-0.5-7.3-4.8c-0.1-0.4-0.2-0.8-0.2-0.9c0,0,0,0,0,0c-0.6-2.7-0.8-8.2-0.8-11c2.1-0.7,5.8-2.6,7.8-7.4     c0.3,3.3,1.9,10.4,9,10.7c0.2,0,0.3-0.1,0.4-0.3c0.3-2.3,2.7-3.5,4.3-2.9c0,0,0,0,0,0c1.2,0.4,1.6,1.9,1.6,3.2     c0.1,1.2-0.1,2.8-1.3,3.4c-0.1,0.1-0.2,0.1-0.2,0.3C516.1,198.8,514.7,210.8,514.6,211.6z"/><path fill="#3c4150" d="M497.6,194.9c-0.5-0.1-0.9,0.3-0.9,0.7s0.3,0.9,0.7,0.9c0.5,0.1,0.9-0.3,0.9-0.7     C498.3,195.4,498,195,497.6,194.9z"/><path fill="#3c4150" d="M498.8,194.3c0.3,0.3,0.8-0.1,0.5-0.5c-0.9-1-2.7-0.8-2.7-0.8c-0.5,0.1-0.3,0.8,0.1,0.7     C497.2,193.7,498.3,193.8,498.8,194.3z"/><path fill="#3c4150" d="M504,196.2c-0.5-0.1-0.9,0.3-0.9,0.7s0.3,0.9,0.7,0.9c0.5,0.1,0.9-0.3,0.9-0.7S504.4,196.2,504,196.2z"/><path fill="#3c4150" d="M503.1,194.4c-0.5,0-0.5,0.7-0.1,0.7c2,0.1,2.4,0.6,2.7,0.9c0.4,0.4,0.8-0.2,0.5-0.5     C505.6,194.9,504.9,194.5,503.1,194.4z"/><path fill="#3c4150" d="M499.5,199.3c0.4,0.2,0.8,0.1,1.1,0.1c0.5,0.1,0.6-0.6,0.2-0.7c-0.3-0.1-0.9,0-1-0.1c-0.2-0.1,0-0.2,0.2-0.3     c0.9-0.4,1.2-1.2,1.2-2.1c0-0.5-0.7-0.4-0.7,0c0.1,1.3-0.8,1.4-1.1,1.6C499.2,198,499,199,499.5,199.3z"/><path fill="#3c4150" d="M501.9,201.8c-1.3,0.5-2.5,0.3-3,0.1c-0.1,0-0.2,0.1-0.2,0.2c0.5,2,2.2,2.3,3.4-0.1     C502.1,201.9,502,201.7,501.9,201.8z"/><path fill="#3c4150" d="M515.9,193.2c-0.9-0.7-2.1,0-1.7,0.5c0.1,0.1,0.3,0.2,0.5,0c0.2-0.2,0.6-0.1,0.8,0c0.6,0.5,0.5,1.8,0,2.5     c-0.3,0.3,0.3,0.8,0.5,0.4C517,195.5,516.7,193.8,515.9,193.2z"/><path fill="#3c4150" d="M417.3,161.8c0.2-1.2,0-11.2,0.1-86.7c0-0.1-0.1-0.3-0.3-0.3h-45.5c-0.1,0-0.3,0.1-0.3,0.3v86.5     c0,0.1,0.1,0.2,0.2,0.2c2.8,0.2,45.4,0.1,45.6,0.1C417.3,161.9,417.3,161.9,417.3,161.8z M416.9,161.4h-45v-86h45V161.4z"/><path fill="#3c4150" d="M411.7,80.9c0-0.1-0.1-0.3-0.3-0.3h-34.2c-0.1,0-0.3,0.1-0.3,0.3v75c0,0.1,0.1,0.2,0.3,0.2     c1.2,0.1,6.9-0.1,34.1,0c0.1,0,0.2,0,0.2-0.2C411.8,154.6,411.6,144.9,411.7,80.9z"/><path fill="#3c4150" d="M477.2,163.4c0.1,0,0.3-0.1,0.3-0.3v-88c0-0.1-0.1-0.3-0.3-0.3h-45.5c-0.1,0-0.3,0.1-0.3,0.3v88     c0,0.1,0.1,0.3,0.3,0.3H477.2z M432,75.4h45v87.5h-45V75.4z"/><path fill="#3c4150" d="M471.6,80.7h-34.2c-0.1,0-0.3,0.1-0.3,0.3v76.3c0,0.1,0.1,0.3,0.3,0.3h34.2c0.1,0,0.3-0.1,0.3-0.3V81     C471.8,80.8,471.7,80.7,471.6,80.7z"/><g opacity=".15"><polygon fill="#fff" points="378 124.1 403.5 81.6 391.7 81.6 378 104.5"/><polygon fill="#fff" points="410.5 81.6 378 136 378 155.3 399.1 155.3 410.8 135.8 410.8 81.6"/></g><g opacity=".15"><polygon fill="#fff" points="451.9 81.5 437.9 104.9 437.9 124.6 463.7 81.5"/><polygon fill="#fff" points="470.9 82.5 470.6 82.5 437.9 137.3 437.9 156.8 458.8 156.8 470.9 136.7"/></g><path fill="#3c4150" d="M179.9,194.8H86.6c-0.7,0-1.2,0.5-1.2,1.2v13.2c0,0.7,0.5,1.2,1.2,1.2h93.3c0.7,0,1.2-0.5,1.2-1.2V196     C181.1,195.4,180.5,194.8,179.9,194.8z M180.6,209.2c0,0.4-0.3,0.7-0.7,0.7H86.6c-0.4,0-0.7-0.3-0.7-0.7V196     c0-0.4,0.3-0.7,0.7-0.7h93.3c0.4,0,0.7,0.3,0.7,0.7V209.2z"/><path fill="#fff" d="M248.2,175.5l0.6,1.5c-0.6,0-1.2,0.3-1.8,0.6C247.1,176.8,247.4,176.1,248.2,175.5z"/><path fill="#3c4150" d="M139.9,186.6c29.1-0.1,28.4,0.2,28.4-0.3c0-0.1-0.1-0.3-0.3-0.3h-28.1C139.5,186.1,139.5,186.6,139.9,186.6z"/></g></svg>