<svg xmlns="http://www.w3.org/2000/svg" viewBox="0 0 2571.5 1946"><defs><clipPath id="a"><circle cx="439.34" cy="839.96" r="413.26" fill="none" stroke="#31a2d8" stroke-linecap="round" stroke-linejoin="round" stroke-width="21.11" transform="rotate(-45 439.342 839.959)"/></clipPath></defs><path fill="#e8dbcf" d="M1970.62 1243.87c61.27-47.66 178.7-127.64 241.67-144.66s119.13 0 143 30.63 39.15 69.78 22.13 83.39-32.91-3.78-40.47-15.88-25.72-31-25.72-31 21.94 28 11.35 49.16-37.07 24.21-45.39 23.45-15.88-17.4-5.29-27.23 15.13-12.86 15.13-12.86l-11.35-11.34s-12 54.68-31 56.35c-32.34 2.83-31.2-18.15-31.2-18.15l-216.15 160-65.8-25Z"/><path fill="#fe7a59" d="M2105.07 356.61c43.27-5.77 72.38 18.29 90.39 48 16.27 26.85-3.78 54.46 12.86 68.83s46.14 44.25 25 103.25-65.43 51.44-80.55 95.31-4.54 125.94-132 137.29l-228.85 178.16s-107.79 2.27-127.07-61.27 21.55-79.42-3.41-130.48-32.9-99.84-4.54-145.23c26.52-42.43 52.2-43.11 93-61.27s17-88.5 73.75-107.78 57.87-32.91 80.56-68.08 53.32-64.67 103.25-45.38c39.89 15.39 57.9-6.05 97.61-11.35Z"/><path fill="none" stroke="#fe9479" stroke-miterlimit="10" stroke-width="6.11" d="M2465.92 1476.46h-248.18l17.05-42.08h214.07l17.06 42.08z"/><path fill="#f7eae1" d="M2138.73 418.26s38.58 6.05 44.63 41.6-3.78 52.95 2.27 58.24 24.2 9.83 23.45 17.4-28.75 12.86-31 18.15-2.26 25.72-23.44 56.73-54.46 40.09-54.46 40.09l-67.32 254.15-120.08 36.31-80-61.27S1957 670.33 1965.52 638c0 0 52.94-29.12 73.37-68.45 0 0 61.27.75 80.93-32.53s18.91-118.76 18.91-118.76Z"/><path fill="#feab96" d="M2128.72 556c-6.94-3.06-8.19-9.79-3.71-19.95s10.3-13.78 17.24-10.72 8.19 9.79 3.71 19.95-10.3 13.8-17.24 10.72Z"/><path fill="#f7eae1" d="M2042.67 540.79c0-15.88-20.42-31-39.33-11.34s-15.89 59-.76 66.56 31 5.3 31 5.3ZM2347.5 1431.83c-16.52-.54-19.77-21.12-19.41-39.14-3.75 16.72-12.49 35.62-32.79 38.38-27.09 3.69-24.09-20.93-20.37-34.81-4.65 12.94-14.45 35.21-26.52 34.81-23.44-.75-23.44-27.22-20.43-53l-139.22 70.24c-46.21-34.41-75.61-106.28-67-155.74 55.72-26.24 140.69-60.48 204.72-60.48 103.82 0 140.69 59.39 145.8 117.25s-6.08 83.09-24.78 82.49Z"/><path fill="#fdf3d6" d="M2021.75 1292.62c-34.07 16.05-57.2 29.12-57.91 29.51.74-2 28.15-116.46 91.69-164.11-6.05-37.07-21.94-96.82-1-181.53-3.24-58.36-27.38-102.63-77-121.79-74.89-28.93-121-24.21-121-24.21-37.82 40.84-129.35 171.71-200.83 331.69-69.17 154.8-126.7 376.65-126.7 376.65h87.56a122.8 122.8 0 0 0 7.37 12.52c20.27 29.27 74.88 71.48 154.31 40.84s187.21-84 257-116.86l53.46-27c-46.15-34.33-75.55-106.26-66.95-155.71Z"/><path fill="none" stroke="#fe7754" stroke-linecap="round" stroke-linejoin="round" stroke-width="3.05" d="M2272.61 1398.55c9.84-32.52 18.92-65 9.08-89.25s-49.92-22.69-49.92-22.69M2327.83 1394c6.81-49.92 9.08-83.2-8.32-102.11s-34.79-22.69-34.79-22.69M2312.7 1168.61c-18.91-32.53-33.28-52.95-56-54.46M2275.64 1186c6.81-26.47.76-49.92-9.83-53.7M2140.24 559.7c9.08 9.08 30.26 18.91 30.26 18.91M2015.44 537c2.27 13.62.75 45.39.75 45.39M1963.84 1322.13c-69.8 34.06-192.34 93.06-213.9 106.68"/><path fill="none" stroke="#fe7754" stroke-linecap="round" stroke-linejoin="round" stroke-width="3.05" d="M1849.79 1377.75c44.25-66.37 115.73-202.53 154.87-270.6s49.35-125.94 49.35-143M2099.4 651.23c-38.58 7.56-70.35-34.8-70.35-34.8M2151.21 487.09c10.21-3.78 21.94-1.89 26.1 1.13"/><path fill="none" stroke="#fd3c0b" stroke-linecap="round" stroke-linejoin="round" stroke-width="3.05" d="M1962.49 639.13c-47.65 15.12-67.63-25.26-101.36 25.71-34 51.44-52.19 25.72-86.23 32.53-20.78 4.16-44.63 32.52-37.82 71.86M1950.39 525.67c-11.35 3-34.8 11.34-49.92 42.35s-35.56 25-49.17 25.72-30.26 16.64-31.77 35.55M2138 416c1.51-17.4 1.51-37.82 1.51-37.82M1992 418.26c-21.18-5.3-48.41 7.56-57.49 32.52s-28 45.39-51.43 50.68M2131.17 656.52c-19.67 15.89-15.17 62.79-31.77 82.48"/><path fill="none" stroke="#fe7754" stroke-linecap="round" stroke-linejoin="round" stroke-width="3.05" d="M2213.24 1224.2c6.81-10.59 16.64-38.2 16.64-38.2s-7.94 18.16-45 39.71"/><path fill="#292f44" d="M2163.56 522.57c-2.25-.64-2.91-2.64-2-5.93s2.57-4.63 4.81-4 2.91 2.65 2 5.94-2.57 4.64-4.81 3.99Z"/><path fill="none" stroke="#100c27" stroke-linecap="round" stroke-linejoin="round" stroke-width="6.11" d="M2064.23 366.06c-41.42 11.92-43.87 95.31-38.58 171.33M2110.88 597c-36.87 18.15-79.18 15.25-84.09-30.51"/><path fill="#292f44" d="M2144.92 586.52a20.14 20.14 0 1 1-20.14-20.14 20.14 20.14 0 0 1 20.14 20.14ZM2040.92 554.47c0 10.34-6.86 18.72-15.32 18.72s-15.32-8.38-15.32-18.72 6.86-18.72 15.32-18.72 15.32 8.38 15.32 18.72Z"/><path fill="#e8dbcf" d="M1970.62 1243.87c61.27-47.66 178.7-127.64 241.67-144.66s119.13 0 143 30.63 39.15 69.78 22.13 83.39-32.91-3.78-40.47-15.88-25.72-31-25.72-31 21.94 28 11.35 49.16-37.07 24.21-45.39 23.45-15.88-17.4-5.29-27.23 15.13-12.86 15.13-12.86l-11.35-11.34s-12 54.68-31 56.35c-32.34 2.83-31.2-18.15-31.2-18.15l-216.15 160-65.8-25Z"/><path fill="#3160d8" d="M2105.07 356.61c43.27-5.77 72.38 18.29 90.39 48 16.27 26.85-3.78 54.46 12.86 68.83s46.14 44.25 25 103.25-65.43 51.44-80.55 95.31-4.54 125.94-132 137.29l-228.85 178.16s-107.79 2.27-127.07-61.27 21.55-79.42-3.41-130.48-32.9-99.84-4.54-145.23c26.52-42.43 52.2-43.11 93-61.27s17-88.5 73.75-107.78 57.87-32.91 80.56-68.08 53.32-64.67 103.25-45.38c39.89 15.39 57.9-6.05 97.61-11.35Z"/><path fill="#f7eae1" d="M2138.73 418.26s38.58 6.05 44.63 41.6-3.78 52.95 2.27 58.24 24.2 9.83 23.45 17.4-28.75 12.86-31 18.15-2.26 25.72-23.44 56.73-54.46 40.09-54.46 40.09l-67.32 254.15-120.08 36.31-80-61.27S1957 670.33 1965.52 638c0 0 52.94-29.12 73.37-68.45 0 0 61.27.75 80.93-32.53s18.91-118.76 18.91-118.76Z"/><path fill="#feab96" d="M2128.72 556c-6.94-3.06-8.19-9.79-3.71-19.95s10.3-13.78 17.24-10.72 8.19 9.79 3.71 19.95-10.3 13.8-17.24 10.72Z"/><path fill="#f7eae1" d="M2042.67 540.79c0-15.88-20.42-31-39.33-11.34s-15.89 59-.76 66.56 31 5.3 31 5.3ZM2347.5 1431.83c-16.52-.54-19.77-21.12-19.41-39.14-3.75 16.72-12.49 35.62-32.79 38.38-27.09 3.69-24.09-20.93-20.37-34.81-4.65 12.94-14.45 35.21-26.52 34.81-23.44-.75-23.44-27.22-20.43-53l-139.22 70.24c-46.21-34.41-75.61-106.28-67-155.74 55.72-26.24 140.69-60.48 204.72-60.48 103.82 0 140.69 59.39 145.8 117.25s-6.08 83.09-24.78 82.49Z"/><path fill="#31a2d8" d="M2021.75 1292.62c-34.07 16.05-57.2 29.12-57.91 29.51.74-2 28.15-116.46 91.69-164.11-6.05-37.07-21.94-96.82-1-181.53-3.24-58.36-27.38-102.63-77-121.79-74.89-28.93-121-24.21-121-24.21-37.82 40.84-129.35 171.71-200.83 331.69-69.17 154.8-126.7 376.65-126.7 376.65h87.56a122.8 122.8 0 0 0 7.37 12.52c20.27 29.27 74.88 71.48 154.31 40.84s187.21-84 257-116.86l53.46-27c-46.15-34.33-75.55-106.26-66.95-155.71Z"/><path fill="#292f44" d="M2163.56 522.57c-2.25-.64-2.91-2.64-2-5.93s2.57-4.63 4.81-4 2.91 2.65 2 5.94-2.57 4.64-4.81 3.99Z"/><path fill="none" stroke="#100c27" stroke-linecap="round" stroke-linejoin="round" stroke-width="6.11" d="M2064.23 366.06c-41.42 11.92-43.87 95.31-38.58 171.33M2110.88 597c-36.87 18.15-79.18 15.25-84.09-30.51"/><path fill="#292f44" d="M2144.92 586.52a20.14 20.14 0 1 1-20.14-20.14 20.14 20.14 0 0 1 20.14 20.14Z"/><path fill="none" stroke="#48c4da" stroke-miterlimit="10" stroke-width="6.5" d="M2465.92 1476.46h-248.18l17.05-42.08h214.07l17.06 42.08z"/><path fill="none" stroke="#48c4da" stroke-linecap="round" stroke-linejoin="round" stroke-width="6.5" d="m2429.63 1212.8 101.31-33.77"/><path fill="none" stroke="#edd602" stroke-linecap="round" stroke-linejoin="round" stroke-width="6.5" d="m2460.99 1282.76 84.42-4.83"/><path fill="none" stroke="#9384e8" stroke-linecap="round" stroke-linejoin="round" stroke-width="6.5" d="m2417.57 1340.65 101.31 60.31"/><path fill="none" stroke="#31a2d8" stroke-linecap="round" stroke-linejoin="round" stroke-width="6.5" d="M2220.62 858.91a35.18 35.18 0 1 1-35.17-35.18 35.17 35.17 0 0 1 35.17 35.18Z"/><circle cx="2264.56" cy="675.63" r="19.29" fill="none" stroke="#edd602" stroke-linecap="round" stroke-linejoin="round" stroke-width="6.5" transform="rotate(-76.72 2264.49 675.661)"/><path fill="none" stroke="#edd602" stroke-linecap="round" stroke-linejoin="round" stroke-width="6.5" d="m2169.11 1000.53 24.12 65.13"/><path fill="none" stroke="#9384e8" stroke-linecap="round" stroke-linejoin="round" stroke-width="6.5" d="m2309.02 942.64-9.65 108.55"/><path fill="#f2c2b4" d="M2311.57 1397c-5.22 15.66-7.16 26.1-7.89 31.71 10.72-4.55 17.23-14.42 21.17-25v-.62l4.16-15.88.75-14.75s-9.87-.38-18.19 24.54ZM2373.33 1366.06c-13.81 8.8-18.17 43.36-16 63.25 10.96-6.71 17.32-26.99 16-63.25ZM2250.8 1430.85c10.14-2.15 18.44-19.56 23.07-31.72l4.42-20.62c-16.53 2.11-24.88 36.56-27.49 52.34ZM2268.08 1230.64c1.89 4.56 5.41 8 9.07 8.31 7.22.66 28.11-1.54 40.43-16-8.92-2.5-39.03.8-49.5 7.69ZM2370.2 1152.19c-5.73 10.59-7.77 29.93 3.39 51.21 1.77 3.37 3.36 6.33 4.78 8.94 11.71-10.95 5.69-35.7-8.17-60.15Z"/><path fill="none" stroke="#f3a8a3" stroke-linecap="round" stroke-linejoin="round" stroke-width="3.25" d="M2272.61 1398.55c9.84-32.52 18.92-65 9.08-89.25s-49.92-22.69-49.92-22.69M2327.83 1394c6.81-49.92 9.08-83.2-8.32-102.11s-34.79-22.69-34.79-22.69M2312.7 1168.61c-18.91-32.53-33.28-52.95-56-54.46M2275.64 1186c6.81-26.47.76-49.92-9.83-53.7M2140.24 559.7c9.08 9.08 30.26 18.91 30.26 18.91M2015.44 537c2.27 13.62.75 45.39.75 45.39"/><path fill="none" stroke="#303145" stroke-linecap="round" stroke-linejoin="round" stroke-width="3.25" d="M1963.84 1322.13c-69.8 34.06-192.34 93.06-213.9 106.68M1616.63 1538.83c-39.15-57-28.94-133.28 8.51-226.89s156.57-309.74 156.57-309.74"/><path fill="none" stroke="#303145" stroke-linecap="round" stroke-linejoin="round" stroke-width="3.25" d="M1849.79 1377.75c44.25-66.37 115.73-202.53 154.87-270.6s49.35-125.94 49.35-143"/><path fill="none" stroke="#f3a8a3" stroke-linecap="round" stroke-linejoin="round" stroke-width="3.25" d="M2099.4 651.23c-38.58 7.56-70.35-34.8-70.35-34.8M2151.21 487.09c10.21-3.78 21.94-1.89 26.1 1.13"/><path fill="none" stroke="#303145" stroke-linecap="round" stroke-linejoin="round" stroke-width="3.25" d="M1962.49 639.13c-47.65 15.12-67.63-25.26-101.36 25.71-34 51.44-52.19 25.72-86.23 32.53-20.78 4.16-44.63 32.52-37.82 71.86M1950.39 525.67c-11.35 3-34.8 11.34-49.92 42.35s-35.56 25-49.17 25.72-30.26 16.64-31.77 35.55M2138 416c1.51-17.4 1.51-37.82 1.51-37.82M1992 418.26c-21.18-5.3-48.41 7.56-57.49 32.52s-28 45.39-51.43 50.68M2131.17 656.52c-19.67 15.89-15.17 62.79-31.77 82.48"/><path fill="none" stroke="#f3a8a3" stroke-linecap="round" stroke-linejoin="round" stroke-width="3.25" d="M2213.24 1224.2c6.81-10.59 16.64-38.2 16.64-38.2s-7.94 18.16-45 39.71"/><path fill="#292f44" d="M2040.92 554.47c0 10.34-6.86 18.72-15.32 18.72s-15.32-8.38-15.32-18.72 6.86-18.72 15.32-18.72 15.32 8.38 15.32 18.72Z"/><path fill="#3160d8" d="M1059.06 836.7c-57.26 34.07-225.8 129-323.35 183.72v-379.8h272.08c7.13 66.92 21.1 137.01 51.27 196.08Z"/><path fill="#48c4da" d="M1003 581H735.71V324.46a138.82 138.82 0 0 1 138.84-138.82h160.08C1019.35 271.53 994.91 426.78 1003 581Z"/><path fill="#4881f1" d="M1319.18 975.74v232.43H874.55A138.84 138.84 0 0 1 737 1088.05c47.25-26.46 281.47-157.73 354.27-201.18 54.38 67.81 138.22 100.95 227.91 88.87Z"/><path fill="#80eac4" d="M1063.48 592.9c-10.79-159.53 15.81-319.46 31.7-407.26H1427c-6.3 279.07-7.75 271.83-1.21 282.17 2.86 4.51 61.45 66.91 69.7 143.54 8.54 79.38-11 161-55.08 229.76-45.69 71.33-158.74 99.44-241 58.29-82.47-41.22-124.41-135.76-135.93-306.5Z"/><path fill="#31a2d8" d="M1802 324.46v97.61h-320.58l5.21-236.43h176.51A138.83 138.83 0 0 1 1802 324.46Z"/><path fill="#bcf4e0" d="M1509.67 481.67H1802v426.06a31.3 31.3 0 0 0-2.14 2.42c-.42.52-42.58 52.69-129.86 89.05-78.1 32.54-213.7 43.53-291.19 38.56v-77c47.59-17.86 86.65-48.24 111.84-87.55 51.35-80.12 74.12-175.41 64.13-268.21-5.25-48.6-25.85-92-45.11-123.33Z"/><path fill="#48c4da" d="M1692.9 1054.23A451.75 451.75 0 0 0 1802 989.9v79.45a138.82 138.82 0 0 1-138.83 138.82h-284.39v-110.72c89.05 4.94 229.98-8.17 314.12-43.22Z"/><path fill="#415a96" d="M1802 481.67h-292.3c19.26 31.28 39.86 74.73 45.11 123.31 10 92.82-12.8 188.11-64.16 268.28-25.19 39.31-64.25 69.69-111.84 87.55v77c77.49 5 213.09-6 291.19-38.56 87.28-36.36 129.44-88.53 129.86-89.05a31.3 31.3 0 0 1 2.14-2.42v82.12a451.75 451.75 0 0 1-109.07 64.33c-84.14 35-225.07 48.16-314.12 43.22v110.72h-59.6V975.74c-89.69 12.08-173.53-21.06-228-88.87-72.8 43.45-307 174.72-354.27 201.18a139.07 139.07 0 0 1-1.25-18.7v-48.93c97.55-54.7 266.09-149.65 323.35-183.72-30.17-59.07-44.14-129.16-51.27-196.08H735.71V581H1003c-8.13-154.23 16.31-309.48 31.59-395.37h60.55c-15.89 87.8-42.49 247.73-31.7 407.26 11.54 170.74 53.46 265.28 135.91 306.5 82.3 41.15 195.35 13 241-58.29 44.07-68.78 63.62-150.38 55.08-229.76-8.25-76.63-66.84-139-69.7-143.54-6.54-10.34-5.09-3.1 1.21-282.17h59.61l-5.21 236.43H1802Z"/><path fill="#fff" d="m1367.52 647.24-98.85-66.07-98.84 66.07v143.05h197.69V647.24z"/><path fill="#48c4da" d="M1367.52 647.24h94.89v143.05h-94.89z" transform="rotate(180 1414.965 718.76)"/><path fill="#ed5fbb" d="M1268.67 581.17h94.9l98.84 66.07h-94.89l-98.85-66.07zM1280.52 790.29h-23.35v-53.65h23.35Zm-6.66-117.72h-10.38v19.87h10.38Zm-54.3 0h-10.38v19.87h10.38Zm108.28 0h-10.38v19.87h10.38Z"/><path fill="none" stroke="#303145" stroke-linecap="round" stroke-linejoin="round" stroke-width="3.25" d="m1282.56 581.17 98.85 66.07M1305 581.17l98.84 66.07m-76.41-66.07 98.84 66.07m-76.42-66.07 98.85 66.07"/><path fill="none" stroke="#ed5fbb" stroke-linecap="round" stroke-linejoin="round" stroke-width="6.5" d="M1362.55 400.87c0 75-71 233.45-91.39 233.45-22.85 0-91.4-150.5-91.4-233.45a91.4 91.4 0 0 1 182.79 0Z"/><circle cx="1271.16" cy="400.87" r="44.78" fill="none" stroke="#fff" stroke-linecap="round" stroke-linejoin="round" stroke-width="6.5" transform="rotate(-66.93 1271.243 400.846)"/><path fill="#415a96" d="M915.67 1048.34h16.43v102.37h-16.43z"/><path fill="#87ebc7" d="M966.78 1048.38a26.8 26.8 0 0 0-19.08-44.87 26.86 26.86 0 1 0-47 .09 26.81 26.81 0 0 0-17.24 44.78 26.85 26.85 0 0 0 5.93 53h71.41a26.85 26.85 0 0 0 5.93-53Z"/><path fill="#415a96" d="M1566.02 872.17h16.43v102.37h-16.43z"/><path fill="#87ebc7" d="M1617.13 872.22a26.8 26.8 0 0 0-19.08-44.88 26.86 26.86 0 1 0-47 .1 26.81 26.81 0 0 0-17.24 44.78 26.84 26.84 0 0 0 5.93 53h71.41a26.84 26.84 0 0 0 5.93-53Z"/><path fill="#415a96" d="M1569.64 239.94h16.43v102.37h-16.43z"/><path fill="#87ebc7" d="M1620.76 240a26.81 26.81 0 0 0-19.09-44.88 26.86 26.86 0 1 0-46.94.09 26.82 26.82 0 0 0-17.25 44.79 26.85 26.85 0 0 0 5.93 53h71.41a26.85 26.85 0 0 0 5.94-53Z"/><path fill="#415a96" d="M877.25 387.39h16.43v102.37h-16.43z"/><path fill="#87ebc7" d="M928.37 387.44a26.8 26.8 0 0 0-19.09-44.88 26.85 26.85 0 1 0-46.94.09 26.82 26.82 0 0 0-17.25 44.79 26.85 26.85 0 0 0 5.94 53h71.41a26.85 26.85 0 0 0 5.93-53Z"/><path fill="#415a96" d="M888.16 792.5h16.43v102.37h-16.43z"/><path fill="#48c4da" d="M963.15 787.13A26.84 26.84 0 0 0 942.23 761a26.8 26.8 0 0 0-19.09-44.88 26.85 26.85 0 1 0-46.94.09A26.82 26.82 0 0 0 859 761a26.83 26.83 0 0 0 2.39 52.77 39.16 39.16 0 0 0 78.08.06 26.84 26.84 0 0 0 23.68-26.7Z"/><path fill="#415a96" d="M1641.83 628.26h16.43v102.37h-16.43z"/><path fill="#68e6b9" d="M1716.82 622.89a26.86 26.86 0 0 0-20.92-26.18 26.8 26.8 0 0 0-19.09-44.88 26.86 26.86 0 1 0-46.94.1 26.81 26.81 0 0 0-17.25 44.78 26.83 26.83 0 0 0 2.38 52.77 39.17 39.17 0 0 0 78.09.07 26.86 26.86 0 0 0 23.73-26.66Z"/><path fill="#415a96" d="M1112.01 234.87h16.43v102.37h-16.43z"/><path fill="#48c4da" d="M1187 229.5a26.86 26.86 0 0 0-20.92-26.18 26.8 26.8 0 0 0-19.08-44.87 26.85 26.85 0 1 0-46.94.09 26.81 26.81 0 0 0-17.25 44.78 26.83 26.83 0 0 0 2.38 52.77 39.17 39.17 0 0 0 78.09.07A26.85 26.85 0 0 0 1187 229.5Z"/><path fill="#415a96" d="M1716 830.92h16.43v102.37H1716z"/><path fill="#48c4da" d="M1791 825.54a26.84 26.84 0 0 0-20.92-26.17 26.8 26.8 0 0 0-19.08-44.88 26.85 26.85 0 1 0-46.94.09 26.82 26.82 0 0 0-17.25 44.79 26.83 26.83 0 0 0 2.39 52.77 39.16 39.16 0 0 0 78.08.06 26.84 26.84 0 0 0 23.72-26.66Z"/><path fill="none" stroke="#fff" stroke-linecap="round" stroke-linejoin="round" stroke-width="3.25" d="m1180.76 1056.98-79.31-53.01-79.31 53.01v114.78h158.62v-114.78zM1745.01 1056.98l-79.3-53.01-79.31 53.01v114.78h158.61v-114.78zM1295.99 1077.97l-39.73-43.31-39.74 43.31v93.79h79.47v-93.79zM1745.01 287.22l-39.73-43.31-39.74 43.31V381h79.47v-93.78zM1566.2 1122.37l-71.53-22.8-71.52 22.8v49.39h143.05v-49.39z"/><path fill="none" stroke="#ed5fbb" stroke-linecap="round" stroke-linejoin="round" stroke-width="6.5" d="M284.61 1097.98H950.6v481.57H284.61z" transform="rotate(20.87 617.546 1338.54)"/><path fill="none" stroke="#48c4da" stroke-linecap="round" stroke-linejoin="round" stroke-width="6.5" d="m392.22 995.16 138.94 360.1a100.73 100.73 0 0 0 140 53.36l343.39-176.23M706.06 1390.7 843 1682.37M220.69 1445.14l296.34-126.5"/><g clip-path="url(#a)"><circle cx="439.34" cy="839.96" r="413.26" fill="#fff" transform="rotate(-45 439.342 839.959)"/><path fill="#3160d8" d="M281.06 602.2c-6-11.92-14.43-58.32 11.59-89.07 32.78-38.75 103.32-30.8 130.14-5l37.08-3.31s55.33-28.63 126.83 2.32C653.26 536 701.6 589 736.7 681s-10 183.86-37.75 211.93C648 944.6 577.1 960.49 577.1 960.49L410.87 768.43Z"/><path fill="none" stroke="#100c27" stroke-linecap="round" stroke-linejoin="round" stroke-width="3.25" d="M384 506.17c2.65 24.51 16.89 104.64 54.64 155s68.22 70.2 68.22 70.2M407.56 518.75c4.63 17.22 35.76 92.72 61.59 126.5s61.59 84.11 61.59 84.11M450.6 543.92c13.25 21.86 43.71 57 62.26 100S542 736 542 736M352.26 517.1c-26.5 5.3-55.3 48-55.3 68.54"/><path fill="none" stroke="#100c27" stroke-linecap="round" stroke-linejoin="round" stroke-width="3.25" d="M498.29 529.35c22.51-1.35 142.38 29.14 195.37 170.87 54.18 144.93-130.47 238.42-130.47 238.42"/><path fill="none" stroke="#100c27" stroke-linecap="round" stroke-linejoin="round" stroke-width="3.25" d="M520.14 556.5c23.84 5.3 140.4 90.74 150.34 195.37 8.52 89.76-119.87 158.29-119.87 158.29"/><path fill="none" stroke="#100c27" stroke-linecap="round" stroke-linejoin="round" stroke-width="3.25" d="M563.19 638.63c22.52 20.53 82.78 66.22 50.33 145.7s-80.13 103.31-80.13 103.31"/><path fill="#0047c2" d="M422.79 508.16c22.51 12.58 78.15 47 107.29 113.25s25.82 132.45 25.82 132.45l12.59 22.52s15.8-62.72 5.3-117.22c-10.6-55-37.09-91.4-60.93-117.23s-48.35-37.75-48.35-37.75Z"/><path fill="#f7e5dd" d="M365.83 559.15s-42.38 4-65.56 19.21c-20.8 13.67-29.14 28.15-38.41 46S248.94 684 248.94 684s-46.69 9.27-50.66 21.86S237 720.75 237 720.75s-10.26 35.1-6.29 44.37 60.29 4.64 60.29 4.64-9.94 12.58-25.17 18.54-28.48 9.27-29.14 21.19-.36 51.22 13.24 80.14c15.9 33.77 72.85 55.63 98.68 56.29 0 0 44.38 97.35 70.2 162.26s58.95 155.63 58.95 155.63 121.19-17.22 176.16-48.35 58.94-37.08 58.94-37.08L530.74 862.47s70.2-68.21 24.5-120.53-70.86 5.3-70.86 5.3S436 716.77 408.88 679s-43.05-119.85-43.05-119.85Z"/><path fill="#100c27" d="M301.59 703.12c4.61 0 7-3.43 7-10.19s-2.35-10.19-7-10.19-7 3.44-7 10.19 2.41 10.19 7 10.19Z"/><path fill="none" stroke="#303145" stroke-linecap="round" stroke-linejoin="round" stroke-width="6.5" d="M345.3 654.52c-13.24-11.92-40.73-16.89-59.27-12.25"/><path fill="none" stroke="#ed5fbb" stroke-linecap="round" stroke-linejoin="round" stroke-width="6.5" d="M234 765.12c6.29 1.66 14.57 3.64 31.79 3.64a222.64 222.64 0 0 0 28.48-2.32s-2.49 7.94-19.21 20.2c-14.9 10.93-35.76 16.23-35.76 16.23"/><ellipse cx="342.65" cy="751.54" fill="#f3a8a3" rx="24.87" ry="36.42" transform="rotate(-10.38 342.714 751.648)"/><path fill="none" stroke="#f3a8a3" stroke-linecap="round" stroke-linejoin="round" stroke-width="3.25" d="M348.61 945.92c38.75 1.32 69.54-11.59 79.48-18.54"/><path fill="none" stroke="#31a2d8" stroke-linecap="round" stroke-linejoin="round" stroke-width="6.5" d="M644.65 751.87c-16.56-45.69-44.37-68.21-81.46-74.17s-68.88 62.92-72.85 90.73-4 74.84 28.48 86.1c0 0-4 45.69-13.91 75.5s-39.74 116.56-39.74 116.56-45-21.86-60.93-18.55-32.45 58.28-35.1 93.38 4 51.66 39.74 68.22 87.42 9.27 117.22-15.24 86.76-161.59 107.29-230.47 26.48-150.05 11.26-192.06Z"/><path fill="none" stroke="#31a2d8" stroke-linecap="round" stroke-linejoin="round" stroke-width="6.5" d="M451.93 1041.29c-16.56 17.88-27.82 51-31.79 79.47s-6 63.58-4.64 71.53M597 691c-19.86 13.24-49 42.8-61.59 75.49-13.24 34.44-16.55 88.09-16.55 88.09"/><path fill="#fbf3ef" d="M809.55 1049.57S777.76 982 712.2 925.39 571.14 847.9 538.35 848.9s-61.59 12.91-68.54 31.79-3 33.77-3 33.77S448 924.4 448 942.28s6 35.76 6 35.76-19 9.96-21.94 25.83a47.58 47.58 0 0 0 3 27.81s53.64 18.88 85.43 45.7 77.49 72.52 98.35 101.33 29.8 43.71 29.8 43.71 60.6-48.68 101.33-90.4 59.58-82.45 59.58-82.45Z"/><path fill="none" stroke="#f3a8a3" stroke-linecap="round" stroke-linejoin="round" stroke-width="3.25" d="M466.83 914.46c24.83-15.89 56-18.21 56-18.21M453.91 978c19.87-11.59 46.36-12.25 46.36-12.25"/><path fill="none" stroke="#31a2d8" stroke-linecap="round" stroke-linejoin="round" stroke-width="6.5" d="M426.1 1196.26c-6.62 25.16-46.36 78.15-139.08 49s-75.5-182.79-59.6-213.25c14.92-28.6 68.87-42.39 70.2 5.29 1.51 54.31-86.1 54.31-120.54 37.09s-63.57-68.88-64.9-119.21-8-100.66-39.73-124.51-64.91-22.5-64.91-22.5"/></g><circle cx="439.34" cy="839.96" r="413.26" fill="none" stroke="#31a2d8" stroke-linecap="round" stroke-linejoin="round" stroke-width="21.11" transform="rotate(-45 439.342 839.959)"/><rect width="327.16" height="66.23" x="1256.26" y="1423.42" fill="#3160d8" rx="20.41"/><path fill="none" stroke="#6879e8" stroke-linecap="round" stroke-linejoin="round" stroke-width="6.5" d="M1167.51 1339.97h60.93M1260.23 1339.97h60.93M1352.95 1339.97h60.93M1445.67 1339.97h60.92M1538.38 1339.97h60.93"/><path fill="none" stroke="#ed5fbb" stroke-linecap="round" stroke-linejoin="round" stroke-width="6.5" d="M1631.1 1339.97h60.93"/><circle cx="1110.56" cy="1343.95" r="21.19" fill="none" stroke="#ed5fbb" stroke-linecap="round" stroke-linejoin="round" stroke-width="6.5" transform="rotate(-45 1110.55 1343.945)"/><path fill="none" stroke="#ed5fbb" stroke-linecap="round" stroke-linejoin="round" stroke-width="6.5" d="M1245.66 1640.64h370.87"/><path fill="none" stroke="#48c4da" stroke-linecap="round" stroke-linejoin="round" stroke-width="6.5" d="M1284.35 1708.19h293.49"/><path fill="none" stroke="#a7e0f0" stroke-linecap="round" stroke-linejoin="round" stroke-width="6.5" d="m1023.14 1602.23 769.56-80.8"/><rect width="768.9" height="562.27" x="1023.8" y="1265.13" fill="none" stroke="#303145" stroke-linecap="round" stroke-linejoin="round" stroke-width="6.5" rx="65.06"/><circle cx="1272.81" cy="1772.43" r="9.93" fill="none" stroke="#31a2d8" stroke-linecap="round" stroke-linejoin="round" stroke-width="3.25"/><circle cx="1379.44" cy="1772.43" r="9.93" fill="none" stroke="#31a2d8" stroke-linecap="round" stroke-linejoin="round" stroke-width="3.25"/><path fill="none" stroke="#31a2d8" stroke-linecap="round" stroke-linejoin="round" stroke-width="3.25" d="M1496 1772.43a9.94 9.94 0 1 1-9.94-9.93 9.94 9.94 0 0 1 9.94 9.93Z"/><circle cx="1592.69" cy="1772.43" r="9.93" fill="none" stroke="#31a2d8" stroke-linecap="round" stroke-linejoin="round" stroke-width="3.25"/><path fill="none" stroke="#f6ea7c" stroke-linecap="round" stroke-linejoin="round" stroke-width="6.5" d="m652.26 197.22 44.71 68.55"/><path fill="none" stroke="#a0e0ec" stroke-linecap="round" stroke-linejoin="round" stroke-width="6.5" d="m1898 286.63-44.71 77.48M1844.35 1627.73l47.69 74.5"/><path fill="none" stroke="#a0bdf8" stroke-linecap="round" stroke-linejoin="round" stroke-width="6.5" d="m1930.78 1586.01 92.39 44.7M956.25 1550.24l-17.88 83.45"/><path fill="none" stroke="#c7bff3" stroke-linecap="round" stroke-linejoin="round" stroke-width="6.5" d="m211.19 1282.02-77.48 26.82"/><path fill="none" stroke="#8fdbe8" stroke-linecap="round" stroke-linejoin="round" stroke-width="6.5" d="M437.59 359.34C404.7 355.23 405 325 417.82 314s30.83-3.49 34.9 1.74c0 0-7-30.24 15.12-48.27s52.34-7 60.49 18.61c0 0 11.63-30.25 42.45-25.59S601 300 598.7 305.83c0 0 25.59-14.54 44.79 2.91s11.63 46.53 11.63 46.53-184.95 8.14-217.53 4.07Z"/></svg>