<svg xmlns="http://www.w3.org/2000/svg" viewBox="0 0 1364 960"><path fill="#D3EBEF" d="M1187.888 747.748a939.643 939.643 0 0 1-17.425 19.621c-.29.331-.591.652-.891.984-.787.859-1.584 1.729-2.381 2.589a743.403 743.403 0 0 1-6.191 6.647c-2.63 2.806-5.291 5.602-7.962 8.387a1006.996 1006.996 0 0 1-13.564 13.833c-.062.062-.124.124-.187.197-.932.921-1.864 1.853-2.795 2.785a1071.194 1071.194 0 0 1-20.252 19.6 1162.648 1162.648 0 0 1-35.027 31.745c-.021.031-.042.052-.072.062H277.126a1069.44 1069.44 0 0 1-35.1-31.807 980.446 980.446 0 0 1-20.107-19.6 727.336 727.336 0 0 1-2.775-2.785c-.083-.083-.176-.176-.259-.269a924.985 924.985 0 0 1-19.444-20.273 732.556 732.556 0 0 1-7.838-8.542 801.941 801.941 0 0 1-11.783-13.263c-.818-.942-1.636-1.884-2.444-2.827a64.46 64.46 0 0 1-.828-.963 910.879 910.879 0 0 1-6.895-8.128 814.728 814.728 0 0 1-10.53-12.849c-390.887-487.219 200.315-937.32 518.125-502.874a699.35 699.35 0 0 1 4.856 6.74 259.624 259.624 0 0 1 3.976-6.74c108.87-179.608 421.752-264.871 570.557-41.446 136.701 189.825 78.907 387.913-68.749 559.176z"/><path fill="#FFF" d="m1130.211 372.149-21.756-43.955c-.924-1.867-3.718-.229-2.796 1.634l21.756 43.955c.925 1.868 3.718.229 2.796-1.634zM1135.087 366.6c-2.21-6.036-3.521-12.344-3.839-18.766-.103-2.074-3.341-2.086-3.238 0 .332 6.703 1.646 13.324 3.954 19.626.712 1.941 3.842 1.103 3.123-.86zM1121.837 373.802a175.05 175.05 0 0 1-25.933-18.815c-1.561-1.368-3.86.913-2.289 2.289a179.63 179.63 0 0 0 26.588 19.322c1.795 1.067 3.425-1.731 1.634-2.796zM1118.117 385.094a260.923 260.923 0 0 1-40.575 4.459c-2.078.065-2.087 3.303 0 3.237a266.618 266.618 0 0 0 41.436-4.574c2.044-.389 1.179-3.51-.861-3.122zM1124.578 391.391a87.567 87.567 0 0 1-27.733 16.639c-1.938.716-1.1 3.846.861 3.122a91.798 91.798 0 0 0 29.162-17.472c1.561-1.386-.736-3.669-2.29-2.289zM1138.63 438.493a300.546 300.546 0 0 1-1.928-42.902c.056-2.084-3.182-2.083-3.237 0a300.56 300.56 0 0 0 1.928 42.902c.101.868.671 1.619 1.619 1.619.795-.001 1.72-.745 1.618-1.619zM1153.12 405.322c-3.731-3.629-6.18-8.276-7.125-13.39-.378-2.046-3.499-1.179-3.122.861 1.039 5.624 3.861 10.834 7.957 14.819 1.495 1.453 3.786-.834 2.29-2.29zM1149.322 334.01c-.768-.211-1.856.262-1.991 1.131a290.79 290.79 0 0 1-7.596 34.683c-.57 2.008 2.553 2.865 3.122.861a290.986 290.986 0 0 0 7.596-34.683c.134-.863-.22-1.742-1.131-1.992zM1157.73 360.329a94.903 94.903 0 0 0-10.178 12.656c-1.166 1.733 1.637 3.355 2.795 1.634a89.95 89.95 0 0 1 9.672-12c1.441-1.506-.845-3.799-2.289-2.29zM1198.337 370.673a343.452 343.452 0 0 0-48.757 8.62c-2.019.51-1.163 3.633.86 3.122a337.38 337.38 0 0 1 47.896-8.504c.87-.09 1.619-.68 1.619-1.619 0-.805-.743-1.709-1.618-1.619zM1172.936 394.032a156.898 156.898 0 0 0-23.981-6.508c-2.036-.383-2.909 2.737-.861 3.122a156.898 156.898 0 0 1 23.981 6.508c1.965.705 2.811-2.422.861-3.122zM1165.249 353.863c-2.083 0-2.087 3.237 0 3.237 2.083 0 2.086-3.237 0-3.237zM1128.309 329.751c-2.083 0-2.087 3.238 0 3.238 2.083 0 2.086-3.238 0-3.238zM1087.273 352.24c-2.083 0-2.087 3.237 0 3.237 2.083 0 2.087-3.237 0-3.237zM1157.289 415.068c-2.083 0-2.087 3.237 0 3.237 2.083.001 2.086-3.237 0-3.237zM1137.119 442.194c-2.083 0-2.087 3.237 0 3.237 2.083 0 2.086-3.237 0-3.237zM1090.519 412.286c-2.083 0-2.087 3.237 0 3.237 2.083.001 2.086-3.237 0-3.237zM874.572 180.514l-21.756-43.955c-.924-1.867-3.718-.229-2.795 1.634l21.756 43.955c.924 1.867 3.717.229 2.795-1.634zM879.448 174.965c-2.21-6.036-3.521-12.344-3.839-18.766-.103-2.074-3.341-2.086-3.238 0 .332 6.703 1.646 13.324 3.954 19.626.712 1.941 3.842 1.102 3.123-.86zM866.198 182.167a175.05 175.05 0 0 1-25.933-18.815c-1.561-1.368-3.86.913-2.289 2.289a179.63 179.63 0 0 0 26.588 19.322c1.795 1.067 3.426-1.731 1.634-2.796zM862.479 193.459a260.923 260.923 0 0 1-40.575 4.459c-2.078.065-2.087 3.303 0 3.237a266.592 266.592 0 0 0 41.435-4.574c2.045-.389 1.179-3.51-.86-3.122zM868.94 199.756a87.567 87.567 0 0 1-27.733 16.639c-1.938.716-1.1 3.846.861 3.122a91.798 91.798 0 0 0 29.162-17.472c1.56-1.386-.736-3.669-2.29-2.289zM882.991 246.857a300.546 300.546 0 0 1-1.928-42.902c.056-2.084-3.182-2.083-3.237 0a300.56 300.56 0 0 0 1.928 42.902c.102.868.671 1.619 1.619 1.619.795 0 1.72-.744 1.618-1.619zM897.481 213.687c-3.731-3.629-6.18-8.276-7.125-13.39-.378-2.046-3.499-1.179-3.122.861 1.039 5.624 3.861 10.834 7.957 14.819 1.495 1.453 3.787-.834 2.29-2.29zM893.683 142.375c-.768-.211-1.856.262-1.991 1.131a290.79 290.79 0 0 1-7.596 34.683c-.57 2.008 2.553 2.865 3.122.861a290.986 290.986 0 0 0 7.596-34.683c.134-.864-.22-1.742-1.131-1.992zM902.091 168.693a95.046 95.046 0 0 0-10.178 12.656c-1.166 1.733 1.637 3.355 2.795 1.634a89.95 89.95 0 0 1 9.672-12c1.441-1.506-.845-3.798-2.289-2.29zM942.698 179.038a343.452 343.452 0 0 0-48.757 8.62c-2.019.51-1.163 3.633.86 3.122a337.38 337.38 0 0 1 47.896-8.504c.87-.09 1.619-.68 1.619-1.619.001-.806-.743-1.71-1.618-1.619zM917.297 202.397a156.898 156.898 0 0 0-23.981-6.508c-2.036-.383-2.909 2.737-.861 3.122a156.898 156.898 0 0 1 23.981 6.508c1.965.704 2.811-2.423.861-3.122zM909.61 162.227c-2.083 0-2.087 3.238 0 3.238 2.083 0 2.087-3.238 0-3.238zM872.67 138.116c-2.083 0-2.087 3.238 0 3.238 2.083 0 2.087-3.238 0-3.238zM831.634 160.605c-2.083 0-2.087 3.237 0 3.237 2.084 0 2.087-3.237 0-3.237zM901.65 223.433c-2.083 0-2.087 3.237 0 3.237 2.083.001 2.087-3.237 0-3.237zM881.48 250.558c-2.083 0-2.087 3.238 0 3.238 2.083 0 2.087-3.238 0-3.238zM834.88 220.651c-2.083 0-2.087 3.237 0 3.237 2.083.001 2.087-3.237 0-3.237zM489.637 180.514l21.756-43.955c.924-1.867 3.718-.229 2.796 1.634l-21.756 43.955c-.925 1.867-3.718.229-2.796-1.634zM484.761 174.965c2.21-6.036 3.521-12.344 3.839-18.766.103-2.074 3.341-2.086 3.237 0-.332 6.703-1.646 13.324-3.954 19.626-.711 1.941-3.841 1.102-3.122-.86zM498.011 182.167a174.998 174.998 0 0 0 25.933-18.815c1.561-1.368 3.86.913 2.289 2.289a179.63 179.63 0 0 1-26.588 19.322c-1.795 1.067-3.425-1.731-1.634-2.796zM501.73 193.459a260.923 260.923 0 0 0 40.575 4.459c2.078.065 2.087 3.303 0 3.237a266.592 266.592 0 0 1-41.435-4.574c-2.044-.389-1.179-3.51.86-3.122zM495.269 199.756a87.567 87.567 0 0 0 27.733 16.639c1.938.716 1.1 3.846-.861 3.122a91.798 91.798 0 0 1-29.162-17.472c-1.56-1.386.737-3.669 2.29-2.289zM481.218 246.857a300.546 300.546 0 0 0 1.928-42.902c-.055-2.084 3.182-2.083 3.238 0a300.56 300.56 0 0 1-1.928 42.902c-.102.868-.671 1.619-1.619 1.619-.796 0-1.721-.744-1.619-1.619zM466.728 213.687c3.731-3.629 6.18-8.276 7.125-13.39.378-2.046 3.499-1.179 3.122.861-1.039 5.624-3.861 10.834-7.957 14.819-1.495 1.453-3.786-.834-2.29-2.29zM470.526 142.375c.768-.211 1.856.262 1.991 1.131a290.79 290.79 0 0 0 7.596 34.683c.57 2.008-2.553 2.865-3.122.861a290.79 290.79 0 0 1-7.596-34.683c-.134-.864.22-1.742 1.131-1.992zM462.118 168.693a95.046 95.046 0 0 1 10.178 12.656c1.166 1.733-1.637 3.355-2.795 1.634a89.95 89.95 0 0 0-9.672-12c-1.441-1.506.845-3.798 2.289-2.29zM421.511 179.038a343.452 343.452 0 0 1 48.757 8.62c2.019.51 1.163 3.633-.861 3.122a337.38 337.38 0 0 0-47.896-8.504c-.87-.09-1.619-.68-1.619-1.619.001-.806.744-1.71 1.619-1.619zM446.912 202.397c7.81-2.8 15.827-4.976 23.981-6.508 2.036-.383 2.909 2.737.861 3.122a156.898 156.898 0 0 0-23.981 6.508c-1.965.704-2.811-2.423-.861-3.122zM454.599 162.227c2.083 0 2.087 3.238 0 3.238-2.083 0-2.086-3.238 0-3.238zM491.539 138.116c2.083 0 2.087 3.238 0 3.238-2.083 0-2.086-3.238 0-3.238zM532.575 160.605c2.083 0 2.087 3.237 0 3.237-2.083 0-2.087-3.237 0-3.237zM462.559 223.433c2.083 0 2.087 3.237 0 3.237-2.083.001-2.086-3.237 0-3.237zM482.729 250.558c2.083 0 2.087 3.238 0 3.238-2.083 0-2.086-3.238 0-3.238zM529.329 220.651c2.083 0 2.087 3.237 0 3.237-2.083.001-2.087-3.237 0-3.237zM236.952 374.555 215.196 330.6c-.924-1.867-3.717-.229-2.796 1.634l21.756 43.955c.925 1.867 3.718.229 2.796-1.634zM241.828 369.005c-2.21-6.036-3.521-12.344-3.839-18.766-.103-2.074-3.341-2.086-3.237 0 .332 6.703 1.646 13.324 3.954 19.626.711 1.942 3.841 1.103 3.122-.86zM228.578 376.208a174.998 174.998 0 0 1-25.933-18.815c-1.561-1.368-3.86.913-2.289 2.289a179.63 179.63 0 0 0 26.588 19.322c1.795 1.067 3.425-1.731 1.634-2.796zM224.858 387.5a260.923 260.923 0 0 1-40.575 4.459c-2.078.065-2.087 3.303 0 3.237a266.618 266.618 0 0 0 41.436-4.574c2.044-.389 1.179-3.51-.861-3.122zM231.32 393.797a87.567 87.567 0 0 1-27.733 16.639c-1.938.716-1.1 3.846.861 3.122a91.798 91.798 0 0 0 29.162-17.472c1.56-1.386-.737-3.669-2.29-2.289zM245.371 440.898a300.546 300.546 0 0 1-1.928-42.902c.055-2.084-3.182-2.083-3.237 0a300.56 300.56 0 0 0 1.928 42.902c.102.868.671 1.619 1.619 1.619.795 0 1.72-.745 1.618-1.619zM259.861 407.728c-3.731-3.629-6.18-8.276-7.125-13.39-.378-2.046-3.499-1.179-3.122.861 1.039 5.624 3.861 10.834 7.957 14.819 1.495 1.453 3.786-.834 2.29-2.29zM256.063 336.416c-.768-.211-1.856.262-1.991 1.131a290.79 290.79 0 0 1-7.596 34.683c-.57 2.008 2.553 2.865 3.122.861a290.79 290.79 0 0 0 7.596-34.683c.134-.864-.22-1.742-1.131-1.992zM264.471 362.734a94.982 94.982 0 0 0-10.178 12.656c-1.166 1.733 1.637 3.355 2.795 1.634a89.95 89.95 0 0 1 9.672-12c1.441-1.506-.845-3.798-2.289-2.29zM305.078 373.079a343.452 343.452 0 0 0-48.757 8.62c-2.019.51-1.163 3.633.86 3.122a337.38 337.38 0 0 1 47.896-8.504c.87-.09 1.619-.68 1.619-1.619 0-.806-.743-1.71-1.618-1.619zM279.677 396.438a156.898 156.898 0 0 0-23.981-6.508c-2.036-.383-2.909 2.737-.861 3.122a156.898 156.898 0 0 1 23.981 6.508c1.965.704 2.811-2.423.861-3.122zM271.99 356.268c-2.083 0-2.087 3.237 0 3.237 2.083.001 2.086-3.237 0-3.237zM235.05 332.157c-2.083 0-2.087 3.238 0 3.238 2.083-.001 2.086-3.238 0-3.238zM194.014 354.645c-2.083 0-2.087 3.237 0 3.237 2.083.001 2.087-3.237 0-3.237zM264.03 417.474c-2.083 0-2.087 3.237 0 3.237 2.083 0 2.086-3.237 0-3.237zM243.86 444.599c-2.083 0-2.087 3.237 0 3.237 2.083.001 2.086-3.237 0-3.237zM197.26 414.692c-2.083 0-2.087 3.237 0 3.237 2.083 0 2.087-3.237 0-3.237zM1093.134 195.036c-1.582 0-3.087.327-4.453.917.017-.303.027-.609.027-.917 0-8.707-7.058-15.765-15.765-15.765-3.168 0-6.118.936-8.589 2.544-.408-11.555-9.903-20.798-21.558-20.798-11.915 0-21.573 9.659-21.573 21.573 0 .237.005.473.013.708a15.704 15.704 0 0 0-10.523-4.027c-8.707 0-15.765 7.058-15.765 15.765 0 .629.038 1.249.11 1.859a11.187 11.187 0 0 0-6.194-1.859c-6.212 0-11.248 5.036-11.248 11.248s5.036 11.248 11.248 11.248c2.986 0 5.701-1.164 7.714-3.063 2.576 5.202 7.937 8.779 14.135 8.779 3.95 0 7.561-1.453 10.327-3.853a15.696 15.696 0 0 0 8.757 2.655c4.311 0 8.217-1.731 11.063-4.535a15.713 15.713 0 0 0 11.063 4.535 15.7 15.7 0 0 0 9.842-3.45 15.716 15.716 0 0 0 11.178 4.649c5.814 0 10.892-3.147 13.625-7.831a11.195 11.195 0 0 0 6.566 2.115c6.212 0 11.248-5.036 11.248-11.248 0-6.214-5.036-11.249-11.248-11.249zM1298.76 434.624a11.21 11.21 0 0 0-4.452.916c.017-.303.027-.609.027-.916 0-8.707-7.058-15.765-15.765-15.765-3.168 0-6.118.936-8.589 2.544-.408-11.555-9.903-20.798-21.558-20.798-11.915 0-21.573 9.659-21.573 21.573 0 .237.005.473.013.708a15.704 15.704 0 0 0-10.523-4.027c-8.707 0-15.765 7.058-15.765 15.765 0 .629.038 1.249.11 1.859a11.195 11.195 0 0 0-6.194-1.859c-6.212 0-11.248 5.036-11.248 11.248s5.036 11.247 11.248 11.247c2.986 0 5.701-1.164 7.714-3.063 2.576 5.202 7.938 8.779 14.135 8.779 3.95 0 7.561-1.453 10.327-3.853a15.694 15.694 0 0 0 8.757 2.655c4.311 0 8.217-1.731 11.063-4.535a15.713 15.713 0 0 0 11.063 4.535 15.7 15.7 0 0 0 9.842-3.45 15.716 15.716 0 0 0 11.178 4.649c5.814 0 10.892-3.148 13.625-7.831a11.194 11.194 0 0 0 6.565 2.115c6.212 0 11.248-5.036 11.248-11.247-.001-6.213-5.036-11.249-11.248-11.249zM73.05 434.624c1.582 0 3.087.327 4.452.916a16.363 16.363 0 0 1-.027-.916c0-8.707 7.058-15.765 15.765-15.765 3.168 0 6.118.936 8.589 2.544.408-11.555 9.903-20.798 21.558-20.798 11.914 0 21.573 9.659 21.573 21.573 0 .237-.005.473-.013.708a15.704 15.704 0 0 1 10.523-4.027c8.707 0 15.765 7.058 15.765 15.765 0 .629-.038 1.249-.11 1.859a11.195 11.195 0 0 1 6.194-1.859c6.212 0 11.248 5.036 11.248 11.248s-5.036 11.247-11.248 11.247a11.206 11.206 0 0 1-7.714-3.063c-2.576 5.202-7.937 8.779-14.135 8.779-3.95 0-7.561-1.453-10.327-3.853a15.694 15.694 0 0 1-8.757 2.655 15.713 15.713 0 0 1-11.063-4.535 15.713 15.713 0 0 1-11.063 4.535 15.7 15.7 0 0 1-9.842-3.45 15.716 15.716 0 0 1-11.178 4.649c-5.814 0-10.892-3.148-13.625-7.831a11.194 11.194 0 0 1-6.565 2.115c-6.212 0-11.248-5.036-11.248-11.247.001-6.213 5.036-11.249 11.248-11.249zM269.74 195.036c1.582 0 3.087.327 4.452.917a16.37 16.37 0 0 1-.027-.917c0-8.707 7.058-15.765 15.765-15.765 3.169 0 6.118.936 8.589 2.544.408-11.555 9.903-20.798 21.558-20.798 11.915 0 21.573 9.659 21.573 21.573 0 .237-.005.473-.013.708a15.704 15.704 0 0 1 10.523-4.027c8.707 0 15.765 7.058 15.765 15.765 0 .629-.038 1.249-.11 1.859a11.187 11.187 0 0 1 6.194-1.859c6.212 0 11.247 5.036 11.247 11.248s-5.036 11.248-11.247 11.248a11.21 11.21 0 0 1-7.715-3.063c-2.576 5.202-7.937 8.779-14.135 8.779-3.95 0-7.561-1.453-10.327-3.853a15.696 15.696 0 0 1-8.757 2.655 15.713 15.713 0 0 1-11.063-4.535 15.713 15.713 0 0 1-11.063 4.535 15.7 15.7 0 0 1-9.842-3.45 15.716 15.716 0 0 1-11.178 4.649c-5.814 0-10.892-3.147-13.625-7.831a11.195 11.195 0 0 1-6.566 2.115c-6.212 0-11.247-5.036-11.247-11.248.002-6.214 5.038-11.249 11.249-11.249z"/><path fill="#317889" d="M588.531 313.214h6.044v76.646h-6.044zM761.299 313.214h6.056v76.646h-6.056z"/><path fill="#317889" d="M801.229 255.735v31.768c0 14.196-11.515 25.711-25.724 25.711H580.368c-14.197 0-25.711-11.515-25.711-25.711v-31.768c0-14.208 11.515-25.723 25.711-25.723h195.137c14.209 0 25.724 11.515 25.724 25.723z"/><path fill="#3D8FA8" d="m148.422 498.354 258.79-1.812.103 14.8-258.79 1.812z"/><path fill="#2F8396" d="m407.33 511.31-258.784 1.824 7.029 8.023 243.658-.297 8.097-9.55z"/><path fill="#FFF" d="M159.127 519.818h239.644v334.317H159.127z"/><path fill="#D3EBEF" d="M189.84 531.937h208.932v-12.119H159.127v334.317h10.527V552.123c0-11.148 9.038-20.186 20.186-20.186z"/><path fill="#D5E5F7" d="m399.222 798.587-24.585.161-5.379.04-36.716.231-23.462.14-5.388.04-15.243.101-40.591.251-5.379.04-60.238.381-4.657.03h-.01l-.05-12.282-.25-58.001-.031-8.179-.19-43.882-.071-15.935-.05-13.808-.371-85.837-.01-1.114v-.02h222.4l.121 106.358.06 52.252z"/><path fill="#E3EDF7" d="m261.455 560.944-84.473 100.779-.05-13.808 72.883-86.971zM382.575 560.944 182.241 799.972l-4.657.03h-.01l-.05-12.282 190.069-226.776zM318.724 560.944l-141.45 168.775-.031-8.179-.19-43.882 97.818-116.714zM399.132 719.554l-66.59 79.465-23.462.14-5.388.04-15.243.101 110.623-131.998z"/><path fill="#4A525D" d="M176.552 560.945h3.271v241.848h-3.271zM232.197 560.945h3.27v241.848h-3.27zM287.841 560.945h3.27v241.848h-3.27zM343.486 560.945h3.27v241.848h-3.27z"/><path fill="#4A525D" d="M398.951 560.945v2.794H178.28v-2.794zM398.95 638.314v2.794H178.28v-2.794zM398.951 715.685v2.793H178.28v-2.793zM398.952 800v2.793H178.28V800z"/><path fill="#3D8FA8" d="M155.531 822.388h243.304v31.807H155.531zM1198.418 513.167l-258.79-1.811.104-14.8 258.79 1.811z"/><path fill="#2F8396" d="m939.681 511.31 258.783 1.824-7.029 8.023-243.658-.297-8.096-9.55z"/><path fill="#FFF" d="M948.24 519.818h239.645v334.317H948.24z"/><path fill="#D3EBEF" d="M1157.172 531.937H948.24v-12.119h239.645v334.317h-10.527V552.123c-.001-11.148-9.038-20.186-20.186-20.186z"/><path fill="#D5E5F7" d="m947.79 798.587 24.584.161 5.379.04 36.717.231 23.462.14 5.388.04 15.243.101 40.591.251 5.378.04 60.239.381 4.656.03h.01l.05-12.282.251-58.001.031-8.179.19-43.882.07-15.935.05-13.808.371-85.837.011-1.114v-.02H948.06l-.12 106.358-.06 52.252z"/><path fill="#E3EDF7" d="m1085.557 560.944 84.472 100.779.05-13.808-72.882-86.971zM964.437 560.944l200.334 239.028 4.656.03h.01l.05-12.282-190.069-226.776zM1028.288 560.944l141.45 168.775.031-8.179.19-43.882-97.819-116.714zM947.88 719.554l66.59 79.465 23.462.14 5.388.04 15.243.101L947.94 667.302z"/><path fill="#4A525D" d="M1170.46 802.793h-3.272V560.945h3.271zM1114.815 802.793h-3.27V560.945h3.27zM1059.17 802.793h-3.27V560.945h3.27zM1003.526 802.793h-3.27V560.945h3.27z"/><path fill="#4A525D" d="M1168.733 560.946v2.794H948.06v-2.794zM1168.732 638.315v2.794H948.06v-2.794zM1168.732 715.685v2.793H948.06v-2.793zM1168.733 800v2.794H948.06V800z"/><path fill="#3D8FA8" d="M948.176 822.388h243.304v31.807H948.176zM334.082 437.848h252.633v416.347H334.082z"/><path fill="#F2F2F2" d="M326.552 411.11h279.714v65.345H326.552zM326.552 521.151h279.714v21.586H326.552zM326.552 587.219h279.714v21.586H326.552zM326.552 653.286h279.714v21.586H326.552zM326.552 719.353h279.714v21.586H326.552zM326.552 785.421h279.714v21.586H326.552z"/><path fill="#3D8FA8" d="M772.793 437.848h252.622v416.347H772.793z"/><path fill="#F2F2F2" d="M1032.952 476.455H753.238V411.11h279.714zM1032.952 542.737H753.238V521.15h279.714zM1032.952 608.804H753.238v-21.586h279.714zM1032.952 674.872H753.238v-21.586h279.714zM1032.952 740.94H753.238v-21.587h279.714zM1032.952 807.006H753.238V785.42h279.714z"/><path fill="#FFF" d="M526.114 381.337h304.309v472.858H526.114z"/><path fill="#D3EBEF" d="M526.11 663.134h304.314v10.124H526.11z"/><path fill="#3D8FA8" d="M522.413 654.899h316.232v14.211H522.413z"/><path fill="#D3EBEF" d="M526.11 375.365h304.314v10.124H526.11z"/><path fill="#3D8FA8" d="M522.413 367.13h316.232v14.212H522.413z"/><path fill="#CFE9FF" d="M675.851 745.191v103.985h-71.46v-53.709h28.485v-3.529h-28.485v-46.747zM678.045 745.191h44.805v103.986h-44.805zM725.051 745.191h29.36v46.747h-29.36zM725.051 795.467h29.36v53.709h-29.36zM604.391 727.317h150.021v14.344H604.391z"/><path fill="#3D8FA8" d="M683.203 791.656h2.195V806h-2.195zM668.495 791.195h2.195v14.344h-2.195z"/><path fill="#6D6E71" d="M650.563 745.191h9.835l-52.171 46.747h-3.836v-5.383zM680.352 727.317l-16.012 14.344h-9.843l16.012-14.344zM754.411 741.354v.307h-.348zM634.066 849.176l41.785-37.438v11.357l-29.109 26.081zM678.045 809.779l44.805-40.15v11.357l-44.805 40.142zM754.411 745.191v7.512l-29.36 26.308v-11.349l25.078-22.471zM671.755 745.191h4.096v29.546l-71.46 64.029v-33.221l11.243-10.078 3.942-3.529zM678.045 745.191h30.784l-30.784 27.579zM728.775 727.317l-16.011 14.344h-37.075l16.012-14.344zM705.373 849.176l17.477-15.655v15.655zM754.411 805.238v33.221l-11.964 10.717h-17.396v-17.63z"/><path fill="#3D8FA8" d="M632.873 745.193h2.205v103.986h-2.205z"/><path fill="#3D8FA8" d="M601.251 722.309v131.887h156.291V722.309H601.251zm3.138 5.011h150.016v14.34H604.389v-14.34zm150.016 64.618h-29.353V745.19h29.353v46.748zm-78.554 57.236h-71.462v-53.705h28.483v-3.531h-28.483V745.19h71.462v103.984zm46.995 0h-44.801V745.19h44.801v103.984zm2.206 0v-53.705h29.353v53.705h-29.353z"/><path fill="#E6E6E6" d="M560.354 701.611h4.194v152.584h-4.194z"/><path fill="#F2F2F2" d="M572.944 701.611h4.193v152.584h-4.193z"/><path fill="#E6E6E6" d="M794.329 701.611h4.194v152.584h-4.194z"/><path fill="#F2F2F2" d="M781.739 701.611h4.194v152.584h-4.194z"/><path fill="#3D8FA8" d="M553.283 700.489h252.229v6.995H553.283z"/><path fill="#F3F6FF" d="M609.891 410.077h138.458v85.622H609.891z"/><circle cx="679.12" cy="452.888" r="36.509" fill="#E64747"/><path fill="#FFF" d="M660.166 448.191h13.34v-11.774a4.697 4.697 0 0 1 9.394 0v11.774h13.34a4.697 4.697 0 0 1 0 9.394H682.9v11.774a4.697 4.697 0 0 1-9.394 0v-11.774h-13.34a4.697 4.697 0 0 1 0-9.394z"/><path fill="#CFE9FF" d="M558.407 527.218h234.561v127.675H558.407z"/><path fill="#4D4D4D" d="m792.963 607.526-1.502 1.222-.062.052-18.606 15.189-29.425 24.01-1.512 1.232-5.084 4.152-1.843 1.512h16.66l1.646-1.346.197-.166.114-.093 19.248-15.707 18.668-15.23 1.502-1.232.01-.01v-13.595l-.011.01zm0-74.837-1.502 1.232-10.799 8.811-7.869 6.43-29.425 24.01-1.512 1.222-15.614 12.756-1.864 1.512-26.475 21.608-1.512 1.242-.01.01-43.952 35.865-1.512 1.243-5.829 4.752-1.843 1.512h25.895l1.843-1.512 25.398-20.718.01-.01 1.512-1.242 43.952-35.876 1.512-1.242 6.906-5.633 1.843-1.512 20.677-16.877 18.668-15.23 1.502-1.211.01-.01v-21.143l-.01.011zm-51.106 116.542-5.084 4.152-1.843 1.512h16.66l1.646-1.346v-.166h.197l.114-.093 19.248-15.707v-13.594l-29.425 24.01-1.513 1.232zM579.291 527.222l-1.843 1.512-17.157 13.998-.372.3-1.512 1.242v16.11l1.512-1.242 20.118-16.411 6.678-5.446 10.478-8.552 1.843-1.512h-19.745zm101.726 0-1.843 1.512-26.744 21.815-1.512 1.242-43.331 35.358-.642.528-.683.559-.528.424-.3.248-18.72 15.282-5.653 4.607-21.142 17.26-1.512 1.232v27.603h27.666l.642-.528 1.201-.984.114-.093 17.405-14.206 1.512-1.242 43.973-35.876 1.512-1.242 14.785-12.062 1.843-1.512 27.324-22.292.01-.01 1.512-1.222 42.741-34.892 1.211-.984.631-.528h-61.472zm-30.098 121.409-5.829 4.752-1.843 1.512h25.895l1.843-1.512 25.398-20.718v-21.142l-43.952 35.865-1.512 1.243z"/><path fill="#4A525D" d="M586.715 653.383v1.512h164.874l1.646-1.346v-.166h-166.52zm-28.308-126.161v127.673h234.565V527.222H558.407zm233.054 126.161H559.919V528.734h231.542v124.649z"/><path fill="#4A525D" d="M605.434 527.218h1.513v127.675h-1.513zM650.92 527.219h1.513v127.675h-1.513zM696.386 527.218h1.513v127.675h-1.513zM741.857 527.219h1.513v127.675h-1.513z"/><path fill="#4A525D" d="M558.407 587.152h234.561v1.513H558.407z"/><path fill="#CCC" d="M589.314 257.029v10.209h-9.857v-10.209h-9.008v29.167h9.008v-11.793h9.857v11.793h9.049v-29.167h-9.049zM629.507 260.436c-2.63-2.599-6.378-3.904-11.223-3.904-.653 0-1.284.021-1.895.073-3.841.321-6.906 1.615-9.184 3.903-2.661 2.661-3.986 6.368-3.986 11.12 0 3.417.673 6.254 2.009 8.521 1.253 2.133 2.867 3.728 4.845 4.763.124.083.259.145.393.207 1.688.828 3.727 1.325 6.119 1.501.652.052 1.346.073 2.061.073 3.23 0 5.922-.601 8.096-1.822 2.174-1.211 3.831-2.899 4.98-5.094a12.41 12.41 0 0 0 1.16-3.21c.01-.01.02-.01.01-.021.041-.145.073-.29.104-.445.3-1.398.445-2.982.445-4.701.001-4.7-1.315-8.345-3.934-10.964zm-13.067 19.258a5.261 5.261 0 0 1-2.568-1.677c-1.097-1.284-1.646-3.406-1.646-6.347 0-2.972.549-5.104 1.657-6.388.694-.807 1.522-1.356 2.485-1.657.01-.01.01 0 .021 0a6.351 6.351 0 0 1 1.874-.269c1.895 0 3.396.632 4.504 1.905 1.108 1.263 1.657 3.261 1.657 6.016 0 3.262-.528 5.529-1.584 6.782-1.067 1.263-2.557 1.895-4.504 1.895a6.54 6.54 0 0 1-1.896-.26zM662.029 272.384c-.776-1.284-2.019-2.361-3.727-3.23-1.108-.559-2.681-1.118-4.721-1.667a80.886 80.886 0 0 0-3.748-.911c-1.584-.321-2.588-.683-3.013-1.066-.445-.383-.663-.797-.663-1.263 0-.632.259-1.17.797-1.615.155-.135.342-.249.548-.331.477-.228 1.077-.331 1.812-.331 1.273 0 2.278.29 3.003.891.683.569 1.139 1.439 1.377 2.64.011.072.031.145.042.228l4.659-.28 3.841-.217c-.062-.456-.135-.88-.227-1.294-.508-2.371-1.605-4.142-3.272-5.322-1.956-1.387-4.794-2.081-8.521-2.081-.694 0-1.357.021-1.977.062-2.123.135-3.852.497-5.198 1.077-1.739.766-3.054 1.812-3.914 3.148-.87 1.336-1.315 2.754-1.315 4.255 0 2.268.859 4.152 2.558 5.622.59.518 1.315 1.004 2.184 1.439 1.605.828 3.707 1.532 6.275 2.112 2.412.518 3.945 1.087 4.607 1.688.663.59.994 1.273.994 2.019 0 .808-.341 1.501-1.045 2.112-.694.6-1.688.901-2.972.901-.704 0-1.346-.093-1.915-.3a4.322 4.322 0 0 1-2.061-1.48c-.58-.715-.942-1.781-1.139-3.179l-3.8.238-4.773.3c.259 2.951 1.336 5.374 3.251 7.279 1.626 1.636 4.38 2.578 8.252 2.806.652.042 1.336.062 2.05.062 2.827 0 5.156-.404 7.02-1.222 1.853-.818 3.302-2.009 4.338-3.593a9.23 9.23 0 0 0 1.553-5.167c-.001-1.597-.384-3.036-1.16-4.33zM690.004 259.349c-.973-.922-2.237-1.574-3.79-1.947-1.046-.259-2.237-.373-3.551-.373h-14.972v29.167h9.049v-10.82h4.928c3.645 0 6.337-.828 8.107-2.485 1.781-1.667 2.661-3.965 2.661-6.906.001-2.868-.816-5.083-2.432-6.636zm-13.263 10.115v-6.502h2.558c1.698 0 2.837.311 3.447.953.611.642.922 1.418.922 2.33 0 .942-.363 1.708-1.067 2.319-.694.601-1.915.901-3.655.901h-2.205zM697.511 257.029v29.167h9.039v-29.167h-9.039zM710.96 257.029v7.206h9.195v21.961h9.018v-21.961h9.184v-7.206H710.96zM767.534 283.608l-9.298-24.725-.694-1.853h-9.826l-1.418 3.769-9.557 25.398h9.215l1.419-4.815h10.24l1.449 4.815h9.443l-.973-2.589zm-18.202-8.532 1.273-4.214 1.905-6.275 3.23 10.489h-6.408zM780.383 279.021V257.03h-9.008v29.167h23.079v-7.175h-14.071z"/><path fill="#FFF" d="M585.472 257.029v10.209h-9.857v-10.209h-9.008v29.167h9.008v-11.793h9.857v11.793h9.049v-29.167h-9.049zM625.666 260.436c-2.267-2.236-5.353-3.52-9.277-3.831a23.448 23.448 0 0 0-1.946-.073c-4.732 0-8.438 1.325-11.079 3.976-2.661 2.661-3.986 6.368-3.986 11.12 0 3.417.673 6.254 2.009 8.521 1.253 2.133 2.868 3.728 4.845 4.763.124.083.259.145.393.207 2.164 1.056 4.887 1.574 8.18 1.574.611 0 1.211-.021 1.781-.073 2.454-.176 4.566-.756 6.316-1.75 2.174-1.211 3.831-2.899 4.98-5.094.569-1.077.994-2.288 1.273-3.675.3-1.398.445-2.982.445-4.701.001-4.7-1.315-8.345-3.934-10.964zm-17.281 11.233c0-2.972.549-5.104 1.657-6.388 1.108-1.284 2.557-1.926 4.38-1.926.704 0 1.346.083 1.946.269.01-.01.01 0 .021 0 .994.29 1.843.839 2.536 1.636 1.108 1.263 1.657 3.261 1.657 6.016 0 3.262-.518 5.529-1.584 6.782-.673.808-1.522 1.346-2.558 1.636-.58.176-1.232.259-1.936.259-1.895 0-3.376-.652-4.473-1.936-1.097-1.285-1.646-3.407-1.646-6.348zM658.187 272.384c-.776-1.284-2.019-2.361-3.727-3.23-1.108-.559-2.682-1.118-4.721-1.667-1.118-.3-2.36-.611-3.748-.911-1.584-.321-2.588-.683-3.013-1.066-.445-.383-.663-.797-.663-1.263 0-.632.269-1.17.797-1.615.528-.445 1.325-.663 2.36-.663.787 0 1.46.104 2.029.331.373.135.694.321.973.559.725.6 1.201 1.553 1.429 2.868l3.789-.228.859-.052 3.841-.217c-.062-.456-.135-.88-.228-1.294-.508-2.371-1.605-4.142-3.262-5.322-1.625-1.149-3.841-1.822-6.667-2.019a26.932 26.932 0 0 0-1.864-.062c-3.034 0-5.436.383-7.175 1.139-1.739.766-3.054 1.812-3.913 3.148-.87 1.336-1.305 2.754-1.305 4.255 0 2.268.849 4.152 2.547 5.622a10.338 10.338 0 0 0 2.195 1.439c1.595.828 3.697 1.532 6.264 2.112 2.412.518 3.945 1.087 4.607 1.688.673.59.994 1.273.994 2.019 0 .808-.342 1.501-1.045 2.112-.29.259-.642.456-1.046.6-.549.197-1.191.3-1.926.3-1.719 0-3.055-.59-3.976-1.781-.549-.673-.901-1.657-1.098-2.941-.021-.072-.031-.155-.041-.238l-8.563.538h-.01v.021c.269 2.94 1.336 5.353 3.251 7.258 1.905 1.915 5.343 2.868 10.302 2.868.621 0 1.221-.021 1.791-.062 2.04-.135 3.779-.518 5.228-1.16 1.853-.818 3.303-2.009 4.338-3.593a9.23 9.23 0 0 0 1.553-5.167c.003-1.593-.379-3.032-1.156-4.326zM686.163 259.349c-.974-.922-2.237-1.574-3.79-1.947-1.046-.259-2.226-.373-3.552-.373H663.85v29.167h9.05v-10.82h4.928c3.644 0 6.337-.828 8.107-2.485 1.781-1.667 2.661-3.965 2.661-6.906 0-2.868-.818-5.083-2.433-6.636zm-11.058 10.115H672.9v-6.502h2.557c.477 0 .901.021 1.284.083 1.005.114 1.729.404 2.174.87.601.642.911 1.418.911 2.33 0 .942-.352 1.708-1.067 2.319-.456.393-1.128.652-2.019.787-.475.072-1.024.113-1.635.113zM693.67 257.029v29.167h9.039v-29.167h-9.039zM707.119 257.029v7.206h9.195v21.961h9.018v-21.961h9.183v-7.206h-27.396zM754.395 258.883l-.694-1.853h-9.826l-1.418 3.769-9.547 25.398h9.205l1.418-4.815h10.24l1.45 4.815h9.443l-10.271-27.314zm-8.905 16.193 3.189-10.489 1.926 6.275 1.294 4.214h-6.409zM776.552 279.021V257.03h-9.018v29.167h23.079v-7.175h-14.061z"/><path fill="#2D707F" d="M1029.525 859.919H119.77a2.864 2.864 0 1 1 0-5.728h909.755a2.864 2.864 0 0 1 0 5.728zM1229.041 859.919h-163.508a2.864 2.864 0 1 1 0-5.728h163.508a2.864 2.864 0 0 1 0 5.728zM587.13 905.511H235.241a2.864 2.864 0 1 1 0-5.728H587.13a2.864 2.864 0 1 1 0 5.728zM676.023 905.511h-62.044a2.864 2.864 0 1 1 0-5.728h62.044a2.864 2.864 0 1 1 0 5.728z"/></svg>