<svg xmlns="http://www.w3.org/2000/svg" fill="none" viewBox="0 0 3000 3000"><path fill="#E7E8FF" d="M574.892 2573H2480.16C2755.15 2573 2939.15 2290.16 2827.6 2038.93C2790.14 1954.54 2784.69 1859.39 2812.29 1771.28L2887.13 1532.35C2965.14 1283.3 2795.81 1025.14 2536.21 997.335L2509.46 994.471C2351.52 977.555 2221.27 863.194 2184.14 708.815C2116.37 427.101 1768.51 324.922 1559.04 525.201L1445.44 633.82C1341.22 733.467 1195.98 777.967 1053.8 753.822L1033 750.289C738.942 700.353 481.245 950.745 522.857 1245.97C545.46 1406.33 478.201 1566.15 347.716 1662.15L289.72 1704.81C179.598 1785.83 109.164 1909.85 96.0215 2045.89C68.7257 2328.43 290.916 2573 574.892 2573Z"/><path fill="#fff" d="M1674.91 1776.53C1674.91 1793.08 1656.91 1821.34 1647.91 1833.41L1658.71 1895.45L1739.71 1905.79C1761.31 1879.94 1826.11 1869.6 1842.31 1828.24C1855.27 1795.15 1818.91 1759.3 1799.11 1750.68L1865.47 1661.74C1873.66 1650.76 1871.77 1635.27 1861.18 1626.57C1850.61 1617.9 1835.1 1619.03 1825.91 1629.15L1734.31 1730C1734.31 1733.45 1731.07 1733.1 1718.11 1704.15C1701.91 1667.96 1685.71 1683.47 1674.91 1688.64C1664.11 1693.81 1674.91 1755.85 1674.91 1776.53Z"/><path fill="#032068" fill-rule="evenodd" d="M1865.45 1621.37C1852.11 1610.42 1832.53 1611.86 1820.93 1624.63L1733.66 1720.71C1731.5 1716.85 1728.43 1710.74 1724.25 1701.4C1715.83 1682.58 1706.02 1674.16 1694.49 1674.16C1689.26 1674.16 1684.61 1675.97 1680.98 1677.76C1679.15 1678.66 1677.41 1679.63 1675.93 1680.46L1675.91 1680.48C1674.35 1681.35 1673.12 1682.04 1672.01 1682.57C1668.12 1684.43 1666.33 1688.2 1665.43 1690.94C1664.44 1693.93 1663.92 1697.49 1663.65 1701.15C1663.1 1708.54 1663.47 1717.83 1664.15 1727.26C1664.71 1734.97 1665.49 1743.02 1666.22 1750.46C1666.38 1752.16 1666.54 1753.82 1666.7 1755.45C1667.55 1764.34 1668.19 1771.75 1668.19 1776.53C1668.19 1782.99 1664.45 1792.89 1658.84 1803.51C1653.4 1813.79 1646.85 1823.58 1642.52 1829.38L1640.79 1831.71L1652.94 1901.49L1742.51 1912.93L1744.88 1910.1C1749.46 1904.62 1756.66 1899.61 1765.87 1894.45C1771.47 1891.31 1777.34 1888.35 1783.5 1885.25C1787.59 1883.19 1791.82 1881.07 1796.17 1878.78C1817.01 1867.84 1839.47 1853.94 1848.58 1830.69C1856.24 1811.12 1849.04 1791.44 1838.51 1776.42C1830.15 1764.51 1819.02 1754.5 1809.18 1748.43L1870.86 1665.77C1881.2 1651.9 1878.82 1632.35 1865.45 1621.37ZM1830.89 1633.68C1837.67 1626.21 1849.11 1625.37 1856.91 1631.77C1864.73 1638.19 1866.12 1649.62 1860.07 1657.72L1788.65 1753.46L1796.43 1756.85C1805.03 1760.6 1818.15 1770.83 1827.49 1784.15C1836.84 1797.48 1841.34 1812.27 1836.05 1825.78C1828.95 1843.9 1810.92 1855.84 1789.91 1866.87C1786.03 1868.91 1781.98 1870.95 1777.93 1872.99C1771.5 1876.23 1765.06 1879.48 1759.29 1882.71C1750.99 1887.36 1743.1 1892.5 1737.09 1898.67L1664.49 1889.4L1655.03 1835.07C1659.58 1828.73 1665.6 1819.51 1670.74 1809.79C1676.37 1799.13 1681.64 1786.62 1681.64 1776.53C1681.64 1770.98 1680.93 1762.88 1680.09 1754.16C1679.93 1752.5 1679.77 1750.8 1679.6 1749.09C1678.88 1741.66 1678.12 1733.82 1677.57 1726.29C1676.9 1716.97 1676.6 1708.49 1677.07 1702.14C1677.3 1698.94 1677.71 1696.64 1678.2 1695.17C1678.32 1694.8 1678.43 1694.54 1678.51 1694.37C1679.83 1693.71 1681.16 1692.96 1682.37 1692.28L1682.5 1692.2C1684.03 1691.34 1685.46 1690.55 1686.91 1689.83C1689.85 1688.39 1692.29 1687.61 1694.49 1687.61C1697.8 1687.61 1704.2 1689.53 1711.97 1706.9C1718.45 1721.36 1722.75 1729.31 1725.67 1733.24C1726.42 1734.24 1727.26 1735.25 1728.21 1736.06C1728.91 1736.67 1730.82 1738.22 1733.6 1738.22C1737.46 1738.22 1739.57 1735.49 1740.33 1733.74C1740.41 1733.53 1740.49 1733.33 1740.56 1733.14L1830.89 1633.68Z" clip-rule="evenodd"/><path fill="#fff" d="M802.542 1464.5L787.39 1549.98L804.776 1639.11C846.807 1643.98 932.492 1653.72 938.99 1653.63C945.487 1653.55 992.614 1612.34 1015.37 1591.74L989.338 1462.11C1057.27 1438.5 1078.45 1337.78 1080.55 1290.37C1094.3 1095.26 964.047 1072.56 939.682 1072.87C915.318 1073.18 761.008 1075.16 742.782 1237.84C728.201 1367.98 776.547 1443.17 802.542 1464.5Z"/><path fill="#032068" fill-rule="evenodd" d="M841.818 1100.54C799.761 1120.53 758.291 1159.83 749.467 1238.59C735.091 1366.91 782.896 1439.68 806.809 1459.3L809.854 1461.8L794.233 1549.92L810.437 1632.99C831.304 1635.4 860.528 1638.74 885.946 1641.54C899.683 1643.06 912.294 1644.42 921.869 1645.39C926.66 1645.88 930.669 1646.27 933.67 1646.53C935.173 1646.66 936.399 1646.76 937.332 1646.83C937.67 1646.85 937.96 1646.87 938.203 1646.88C938.556 1646.71 939.062 1646.44 939.738 1646.03C941.427 1645.01 943.694 1643.46 946.47 1641.41C951.996 1637.33 959.086 1631.63 966.771 1625.22C980.889 1613.43 996.743 1599.46 1008.02 1589.31L981.588 1457.68L987.13 1455.76C1018.42 1444.88 1039.66 1415.95 1053.41 1382.6C1067.11 1349.41 1072.81 1313.17 1073.83 1290.08L1073.84 1289.99L1073.84 1289.9C1080.6 1194 1051.98 1141.75 1019.95 1113.37C987.551 1084.67 950.627 1079.46 939.769 1079.6C927.726 1079.75 884.318 1080.34 841.818 1100.54ZM939.538 1066.15L939.596 1066.14C953.102 1065.97 993.49 1071.96 1028.87 1103.3C1064.62 1134.97 1094.24 1191.6 1087.27 1290.76C1086.18 1315.08 1080.24 1352.86 1065.85 1387.73C1052.24 1420.73 1030.55 1452.33 997.053 1466.36L1022.71 1594.16L1019.88 1596.73C1008.47 1607.06 990.924 1622.58 975.394 1635.54C967.641 1642.02 960.309 1647.92 954.46 1652.24C951.549 1654.39 948.891 1656.23 946.67 1657.56C945.566 1658.22 944.447 1658.84 943.379 1659.31C942.504 1659.69 940.902 1660.34 939.076 1660.36C936.954 1660.39 929.832 1659.73 920.507 1658.78C910.876 1657.8 898.22 1656.43 884.47 1654.92C856.966 1651.88 825.023 1648.23 804.001 1645.79L799.115 1645.22L780.547 1550.04L795.253 1467.08C766.852 1441.17 721.829 1364.43 736.096 1237.09C745.499 1153.17 790.297 1110.13 836.042 1088.39C881.274 1066.89 927.13 1066.3 939.538 1066.15Z" clip-rule="evenodd"/><path fill="#fff" d="M907.724 1599.83C826.501 1599.83 796.922 1546.33 786.092 1516.55C775.109 1518.24 748.148 1523.74 732.508 1526.25L844.142 2097.79C853.073 2263 842.763 2404.64 844.142 2557.7H991.501C994.477 2459.47 978.104 2218.35 978.104 2097.79L1058.48 1526.25C1037.94 1522.31 1022.33 1522.09 1009.36 1521.79C1003.95 1551.57 988.946 1599.83 907.724 1599.83Z"/><path fill="#032068" fill-rule="evenodd" d="M790.527 1509.06L792.415 1514.25C797.622 1528.57 807.234 1548.28 825.023 1564.37C842.666 1580.33 868.75 1593.1 907.724 1593.1C946.908 1593.1 968.998 1581.52 982.028 1567.41C995.274 1553.07 1000.1 1535.14 1002.74 1520.59L1003.77 1514.93L1009.52 1515.06C1010.02 1515.08 1010.52 1515.09 1011.03 1515.1C1023.74 1515.39 1039.42 1515.75 1059.75 1519.65L1066.03 1520.85L984.832 2098.26C984.851 2153.39 988.279 2233.67 991.714 2314.1C992.023 2321.35 992.333 2328.6 992.64 2335.83C996.356 2423.35 999.722 2508.48 998.225 2557.9L998.027 2564.43H837.475L837.415 2557.76C836.892 2499.67 838.038 2443.47 839.186 2387.12C841.077 2294.37 842.976 2201.23 837.45 2098.62L724.571 1520.72L731.441 1519.61C739.151 1518.37 749.701 1516.39 759.798 1514.48C760.18 1514.41 760.562 1514.34 760.943 1514.27C770.529 1512.46 779.649 1510.74 785.069 1509.9L790.527 1509.06ZM740.433 1531.74L850.835 2096.96L850.86 2097.43C856.435 2200.57 854.522 2294.9 852.628 2388.26C851.532 2442.32 850.442 2496.05 850.817 2550.97H984.941C985.967 2501.37 982.762 2420.35 979.197 2336.4C978.889 2329.15 978.578 2321.87 978.267 2314.58C974.828 2234.04 971.377 2153.24 971.377 2097.79V2097.32L1050.92 1531.74C1036.73 1529.43 1025.09 1528.91 1014.87 1528.65C1011.78 1543.17 1005.94 1561.35 991.913 1576.54C975.783 1594.01 949.761 1606.56 907.724 1606.56C865.475 1606.56 836.158 1592.58 815.998 1574.35C798.153 1558.21 787.799 1539.02 781.779 1524.09C776.717 1524.98 770.174 1526.22 763.205 1527.53C762.902 1527.59 762.598 1527.65 762.294 1527.71C754.924 1529.1 747.172 1530.56 740.433 1531.74Z" clip-rule="evenodd"/><path fill="#032068" d="M846.158 1382.72C831.12 1477.13 808.237 1487.44 798.676 1480.8C684.038 1409.16 683.794 1175.6 753.133 1095.56C817.17 1021.64 866.263 1049.44 999.854 1015.24C1133.44 981.045 1178.84 1037.32 1155.41 1110.72C1121.68 1216.39 1009.85 1161.32 981.576 1173.87C953.306 1186.41 917.175 1219.36 901.763 1284.54C886.351 1349.72 878.073 1337.64 865.423 1301.25C852.773 1264.86 819.612 1212.49 796.078 1277.77C777.251 1329.99 821.62 1369.5 846.158 1382.72Z"/><path fill="#fff" d="M290.434 2088.86C376.17 1785.23 451.188 1668.94 531.565 1599.83C588.665 1550.73 664.295 1530.4 722.238 1519.83C732.935 1517.88 743.079 1524.95 745.414 1535.57C770.979 1651.79 836.533 1858.9 866.469 2088.86C875.4 2254.07 874.021 2404.64 875.4 2557.7H509.238C423.46 2557.7 183.265 2468.4 290.434 2088.86Z"/><path fill="#fff" d="M1301.65 1660.74C1244.25 1578.09 1151.02 1537.89 1080.72 1520.95C1069.67 1518.28 1058.95 1525.72 1057 1536.92C1029.71 1693.77 961.566 1985 951.312 2097.79C951.312 2218.35 954.289 2459.47 951.312 2557.7H1377.24C1380.6 2468.72 1380.81 2385.36 1378.26 2307.65C1509.49 2307.65 1750.62 1981.7 1759.55 1954.91C1768.48 1928.11 1697.03 1794.16 1638.98 1803.09C1572 1829.88 1446.97 1972.77 1430.82 1932.58C1417.9 1900.43 1339.33 1737.96 1301.65 1660.74Z"/><path fill="#032068" fill-rule="evenodd" d="M738.844 1537.01C737.251 1529.77 730.419 1525.18 723.445 1526.45C665.78 1536.97 591.641 1557.04 535.951 1604.93C457.102 1672.72 382.537 1787.44 296.908 2090.69C243.732 2279.01 277.094 2393.74 332.677 2461.33C388.584 2529.31 468.041 2550.97 509.239 2550.97H868.614C868.358 2520.83 868.201 2490.78 868.044 2460.71C867.416 2340.35 866.785 2219.47 859.766 2089.48C838.343 1925.06 798.778 1772.78 768.591 1656.6C756.634 1610.58 746.148 1570.22 738.844 1537.01ZM721.031 1513.22C735.452 1510.59 748.907 1520.13 751.985 1534.12C759.134 1566.63 769.494 1606.5 781.357 1652.17C811.597 1768.57 851.609 1922.59 873.14 2087.99L873.173 2088.24L873.187 2088.5C880.239 2218.94 880.871 2340.32 881.5 2460.8C881.668 2493.09 881.836 2525.32 882.127 2557.64L882.188 2564.43H509.239C464.658 2564.43 381.128 2541.43 322.285 2469.88C263.118 2397.93 229.967 2278.25 283.96 2087.03C369.803 1783.02 445.273 1665.15 527.179 1594.73C585.69 1544.42 662.81 1523.83 721.031 1513.22ZM1050.38 1535.77C1052.95 1520.95 1067.26 1510.78 1082.3 1514.41C1153.38 1531.54 1248.45 1572.33 1307.18 1656.9L1307.47 1657.33L1307.7 1657.79C1345.29 1734.84 1424.02 1897.63 1437.06 1930.07C1437.65 1931.53 1438.27 1932.1 1438.69 1932.36C1439.13 1932.64 1439.95 1932.96 1441.5 1932.93C1444.93 1932.85 1450.22 1931.12 1457.53 1927.16C1471.92 1919.34 1490.68 1904.83 1511.58 1887.74C1517.94 1882.55 1524.48 1877.12 1531.12 1871.62C1546.06 1859.24 1561.48 1846.45 1576.36 1834.95C1597.76 1818.41 1618.78 1803.92 1636.48 1796.84L1637.2 1796.56L1637.96 1796.44C1655.22 1793.79 1672.47 1801.84 1687.76 1814.01C1703.2 1826.31 1717.74 1843.65 1729.97 1861.85C1742.22 1880.08 1752.36 1899.49 1758.9 1916.17C1762.17 1924.5 1764.6 1932.3 1765.92 1939.03C1767.18 1945.5 1767.62 1951.96 1765.93 1957.03C1765.12 1959.48 1763.29 1962.89 1761.02 1966.71C1758.65 1970.72 1755.46 1975.71 1751.57 1981.5C1743.78 1993.11 1733.04 2008.14 1720.03 2025.38C1694.01 2059.85 1658.79 2103.27 1619.72 2145.87C1580.68 2188.44 1537.65 2230.35 1495.99 2261.68C1457.33 2290.74 1418.79 2311.53 1385.2 2314.11C1387.52 2390.07 1387.23 2471.37 1383.96 2557.95L1383.71 2564.43H944.378L944.588 2557.49C946.645 2489.61 945.854 2353.37 945.171 2235.86C944.867 2183.57 944.585 2134.99 944.585 2097.79V2097.48L944.612 2097.18C949.781 2040.33 969.474 1938.91 991.175 1832.53C996.238 1807.72 1001.41 1782.62 1006.54 1757.73C1023.46 1675.66 1039.92 1595.84 1050.38 1535.77ZM1079.15 1527.49C1072.08 1525.78 1064.95 1530.49 1063.63 1538.08C1053.14 1598.38 1036.62 1678.5 1019.69 1760.61C1014.56 1785.47 1009.4 1810.5 1004.36 1835.22C982.641 1941.68 963.168 2042.09 958.039 2098.1C958.041 2135.03 958.321 2183.32 958.624 2235.36C959.284 2349.12 960.049 2480.8 958.23 2550.97H1370.75C1373.88 2464.57 1374.02 2383.52 1371.54 2307.87L1371.31 2300.92H1378.26C1408.71 2300.92 1446.85 2281.79 1487.9 2250.93C1528.64 2220.3 1571.04 2179.05 1609.81 2136.78C1648.54 2094.54 1683.49 2051.45 1709.29 2017.27C1722.19 2000.18 1732.78 1985.35 1740.4 1974C1744.21 1968.33 1747.25 1963.56 1749.45 1959.85C1751.76 1955.96 1752.86 1953.68 1753.17 1952.78C1753.71 1951.15 1753.87 1947.56 1752.71 1941.61C1751.6 1935.93 1749.46 1928.94 1746.38 1921.08C1740.22 1905.39 1730.55 1886.84 1718.8 1869.35C1707.02 1851.83 1693.37 1835.68 1679.38 1824.54C1665.52 1813.51 1652.33 1808.15 1640.74 1809.64C1625.08 1816.07 1605.63 1829.33 1584.59 1845.6C1569.9 1856.95 1554.78 1869.49 1539.92 1881.8C1533.24 1887.34 1526.61 1892.84 1520.1 1898.16C1499.35 1915.12 1479.64 1930.47 1463.95 1938.98C1456.22 1943.17 1448.57 1946.23 1441.8 1946.38C1438.27 1946.46 1434.68 1945.75 1431.48 1943.72C1428.26 1941.68 1426.01 1938.65 1424.58 1935.09C1411.8 1903.29 1333.68 1741.73 1295.83 1664.16C1239.74 1583.7 1148.54 1544.21 1079.15 1527.49Z" clip-rule="evenodd"/><path fill="#E7E8FF" d="M687.853 1820.95L705.714 1530.72H736.972C754.834 1602.16 797.702 1778.09 826.28 1910.25C854.859 2042.42 859.026 2149.88 857.538 2187.09L705.714 1910.25L759.299 1834.35L687.853 1820.95Z"/><path fill="#E7E8FF" d="M964.707 2075.46C978.997 1954.01 1042.11 1661.7 1071.88 1530.72L1107.6 1539.65L1143.32 1820.95L1049.55 1834.35L1107.6 1914.72L960.242 2196.02V2155.84C960.242 2109.4 963.219 2082.91 964.707 2075.46Z"/><path fill="#032068" d="M1330.88 1887.93C1348.74 1973.66 1368.09 2206.44 1375.53 2312.12L1406.79 2298.72C1399.64 2173.7 1353.2 1972.77 1330.88 1887.93Z"/><path fill="#032068" d="M826.281 2160.3C783.413 2160.3 582.172 2187.09 486.911 2200.49C506.261 2190.07 547.64 2167.45 558.357 2160.3C569.074 2153.16 616.407 2038.25 638.734 1981.7L603.011 2151.37C642.306 2144.23 768.231 2154.35 826.281 2160.3Z"/><path fill="#032068" d="M879.865 2361.23C761.979 2464.82 556.869 2529.42 469.049 2548.77C490.483 2559.48 543.472 2559.19 567.288 2557.7C703.036 2521.98 832.235 2411.84 879.865 2361.23Z"/><path fill="#fff" d="M937.917 1882.92V2298.64C937.917 2312.08 950.814 2321.77 963.725 2318.02L1200.69 2249.23C1209.09 2246.79 1214.96 2239.22 1215.23 2230.48L1227.4 1845.23C1227.8 1832.61 1216.64 1822.73 1204.16 1824.65L955.03 1862.97C945.184 1864.49 937.917 1872.96 937.917 1882.92Z"/><path fill="#032068" fill-rule="evenodd" d="M1220.68 1845.02C1220.94 1836.6 1213.5 1830.01 1205.18 1831.29L956.052 1869.62C949.489 1870.63 944.644 1876.28 944.644 1882.92V2298.64C944.644 2307.6 953.242 2314.06 961.849 2311.56L963.572 2317.49L961.849 2311.56L1198.81 2242.77C1204.41 2241.14 1208.33 2236.1 1208.51 2230.27L1220.68 1845.02ZM1203.14 1818C1219.78 1815.44 1234.66 1828.61 1234.12 1845.44L1221.96 2230.7C1221.59 2242.35 1213.76 2252.44 1202.56 2255.69L965.601 2324.48C948.386 2329.48 931.189 2316.56 931.189 2298.64V1882.92C931.189 1869.64 940.879 1858.34 954.006 1856.32L1203.14 1818Z" clip-rule="evenodd"/><path fill="#fff" d="M933.451 2088.86C876.294 2113.86 859.028 2157.32 857.539 2182.63L879.866 2298.72C897.728 2291.58 930.474 2282.35 942.382 2280.86C1045.09 2249.6 1031.69 2146.91 1018.29 2115.65C1007.58 2090.65 957.266 2114.16 933.451 2129.05V2088.86Z"/><path fill="#032068" fill-rule="evenodd" d="M940.179 2078.57V2117.32C951.554 2111.07 965.674 2104.54 979.012 2100.9C987.842 2098.49 996.968 2097.16 1004.95 2098.46C1013.27 2099.82 1020.7 2104.18 1024.48 2113C1031.67 2129.79 1038.6 2164.74 1030.43 2199.78C1022.12 2235.38 998.21 2270.9 944.341 2287.3L943.789 2287.46L943.216 2287.54C937.824 2288.21 927.1 2290.76 915.197 2294.14C903.401 2297.49 890.994 2301.52 882.365 2304.97L874.799 2307.99L850.774 2183.07L850.824 2182.23C852.453 2154.53 871.164 2108.77 930.755 2082.7L940.179 2078.57ZM864.309 2182.21L884.966 2289.62C893.039 2286.73 902.524 2283.76 911.517 2281.2C923.073 2277.91 934.338 2275.17 940.949 2274.26C989.407 2259.34 1010.03 2228 1017.32 2196.73C1024.78 2164.79 1018.31 2132.77 1012.11 2118.3C1010.53 2114.62 1007.65 2112.54 1002.78 2111.74C997.571 2110.89 990.621 2111.68 982.557 2113.88C966.535 2118.26 948.627 2127.49 937.017 2134.75L926.724 2141.18V2099.5C880.171 2123.52 865.879 2160.55 864.309 2182.21Z" clip-rule="evenodd"/><path fill="#032068" d="M566.278 2536.9C443.171 2379.61 318.353 2326.03 271.333 2318.91C284.157 2400.12 318.353 2464.24 382.472 2515.53C433.767 2556.56 526.382 2546.87 566.278 2536.9Z"/><path fill="#032068" d="M903.31 1461.98C942.46 1474.47 975.12 1466.48 988.587 1460.89L1001.5 1517.58C949.435 1511.75 914.33 1476.73 903.31 1461.98Z"/><path fill="#032068" d="M1107.98 1875.56L1053.68 1883.05C1034.97 1885.63 1018.29 1871.09 1018.29 1852.21L1147.79 1829.88C1147.79 1852.91 1130.79 1872.41 1107.98 1875.56Z"/><path fill="#fff" d="M848.609 2155.84C834.319 2145.12 672.97 2172.21 594.081 2187.09L629.804 2499.65C683.389 2481.79 897.728 2370.16 902.193 2347.84C906.659 2325.51 866.47 2169.23 848.609 2155.84Z"/><path fill="#032068" fill-rule="evenodd" d="M1074.76 1565.1C1059.11 1525.17 1028.38 1501.72 991.509 1501.72V1488.27C1035.02 1488.27 1070.05 1516.21 1087.29 1560.19C1104.48 1604.07 1104.2 1664.09 1078.15 1730.35L1065.63 1725.43C1090.73 1661.56 1090.45 1605.13 1074.76 1565.1ZM717.145 1729.83C671.725 1579.24 744.774 1505.57 793.914 1497.29L796.149 1510.56C757.526 1517.07 686.138 1580.43 730.027 1725.95L717.145 1729.83Z" clip-rule="evenodd"/><path fill="#032068" d="M1103.14 1767.37C1103.14 1794.5 1083.15 1816.49 1058.48 1816.49C1033.82 1816.49 1013.83 1794.5 1013.83 1767.37C1013.83 1740.24 1033.82 1718.25 1058.48 1718.25C1083.15 1718.25 1103.14 1740.24 1103.14 1767.37Z"/><path fill="#032068" fill-rule="evenodd" d="M749.416 1735.7C745.428 1733.99 739.781 1733.29 731.845 1734.56C722.729 1736.03 717.033 1738.91 713.573 1742.27C710.215 1745.54 708.389 1749.8 708.043 1755.32C707.313 1766.93 713.235 1782.99 724.111 1801.17C730.633 1812.07 738.658 1823.28 747.38 1834.14C753.16 1817.35 757.732 1800.82 760.16 1786.03C763.2 1767.5 762.617 1753.12 758.224 1744.32C756.152 1740.17 753.28 1737.34 749.416 1735.7ZM757.408 1846.14C764.656 1826.18 770.499 1806.11 773.437 1788.21C776.563 1769.15 776.659 1751.12 770.262 1738.31C766.939 1731.65 761.839 1726.37 754.7 1723.32C747.685 1720.33 739.296 1719.74 729.708 1721.28C718.849 1723.03 710.254 1726.74 704.2 1732.62C698.044 1738.6 695.133 1746.22 694.614 1754.47C693.614 1770.41 701.447 1789.49 712.566 1808.07C720.683 1821.64 730.965 1835.61 742.043 1848.85C734.48 1868.71 725.615 1888.33 716.992 1905.27L728.983 1911.37C736.767 1896.08 744.829 1878.49 752.011 1860.35C768.865 1879.12 786.572 1895.6 800.738 1906.19L808.797 1895.42C794.022 1884.37 774.98 1866.36 757.408 1846.14Z" clip-rule="evenodd"/><path fill="#032068" d="M735.76 1914.11C735.76 1923.64 728.036 1931.36 718.508 1931.36C708.979 1931.36 701.255 1923.64 701.255 1914.11C701.255 1904.58 708.979 1896.86 718.508 1896.86C728.036 1896.86 735.76 1904.58 735.76 1914.11Z"/><path fill="#032068" d="M825.061 1905.18C825.061 1914.71 817.337 1922.43 807.809 1922.43C798.281 1922.43 790.557 1914.71 790.557 1905.18C790.557 1895.65 798.281 1887.93 807.809 1887.93C817.337 1887.93 825.061 1895.65 825.061 1905.18Z"/><path fill="#032068" d="M1237.13 551.19C1182.39 504.22 1130.91 555.443 1117.32 586.915C1103.72 555.443 1054.8 504.22 1000.05 551.19C930.41 610.937 1033.04 745.972 1111.48 804.655C1114.97 807.266 1119.66 807.266 1123.16 804.658C1201.71 745.976 1306.77 610.938 1237.13 551.19Z"/><path fill="#fff" fill-rule="evenodd" d="M1123.3 622.257L1142.65 685.882L1170.23 648.689L1195.2 678.999L1192.56 681.222L1170.37 654.286L1141.35 693.421L1122.98 633.012L1095.31 707.66L1061.6 658.949L1034.75 686.109L1032.32 683.653L1062.06 653.566L1094.38 700.266L1123.3 622.257Z" clip-rule="evenodd"/><path fill="#fff" d="M1778.53 611.5H1842.99V665.269H1778.53V738.017H1718.99V665.269H1654.34V611.5H1718.99V540.799H1778.53V611.5Z"/><path fill="#fff" d="M1244.62 1255.73H1285.63V1290.8H1244.62V1338.25H1206.72V1290.8H1165.59V1255.73H1206.72V1209.62H1244.62V1255.73Z"/><path fill="#fff" d="M2759.62 1421.08H2794.78V1451.47H2759.62V1492.59H2727.14V1451.47H2691.88V1421.08H2727.14V1381.12H2759.62V1421.08Z"/><path fill="#fff" d="M2825.85 2327.91C2738.31 2327.91 2667.8 2483.82 2643.48 2561.78H2702.75C2780.26 2483.82 2913.39 2327.91 2825.85 2327.91Z"/><path fill="#032068" fill-rule="evenodd" d="M2652.16 2555.52H2700.08C2738.53 2516.66 2789.68 2459.63 2820.86 2412.2C2828.77 2400.17 2835.31 2388.88 2840.03 2378.74C2844.78 2368.52 2847.51 2359.84 2848.12 2352.95C2848.71 2346.12 2847.18 2341.88 2844.44 2339.24C2841.55 2336.46 2836.02 2334.17 2825.85 2334.17C2805.95 2334.17 2786.53 2343.03 2767.91 2358.3C2749.29 2373.58 2731.92 2394.93 2716.31 2418.99C2687.21 2463.84 2664.82 2517.21 2652.16 2555.52ZM2759.78 2348.67C2779.77 2332.27 2801.98 2321.64 2825.85 2321.64C2837.57 2321.64 2847.03 2324.22 2853.31 2330.27C2859.74 2336.46 2861.56 2345.02 2860.77 2354.02C2859.99 2362.97 2856.6 2373.16 2851.58 2383.96C2846.52 2394.83 2839.63 2406.68 2831.52 2419.02C2799.15 2468.27 2746.14 2527.08 2707.29 2566.17L2705.42 2568.05H2634.88L2637.41 2559.94C2649.69 2520.59 2673.61 2461.56 2705.61 2412.23C2721.61 2387.57 2739.8 2365.07 2759.78 2348.67Z" clip-rule="evenodd"/><path fill="#032068" d="M2803.06 2008.58C2646.22 1979.79 2549.26 2371.38 2520.39 2570.78H2661.72C2774.18 2395.37 2959.89 2037.36 2803.06 2008.58Z"/><path fill="#fff" fill-rule="evenodd" d="M2748.12 2174.36L2781.64 2087.26L2769.76 2082.81L2692.11 2284.59L2667.51 2230.88L2655.94 2236.04L2685.75 2301.13L2620.46 2470.79L2594.62 2410.91L2582.93 2415.81L2613.95 2487.71L2582.84 2568.55L2594.72 2573L2657.68 2409.38L2737.88 2383.33L2733.91 2371.43L2663.48 2394.3L2741.02 2192.8L2810.77 2153.44L2804.46 2142.56L2748.12 2174.36Z" clip-rule="evenodd"/><path fill="#fff" d="M1397.38 883.282C1397.38 850.577 1423.83 824.064 1456.45 824.064H2538.21C2570.84 824.064 2597.28 850.577 2597.28 883.282V2273.39C2597.28 2306.1 2570.84 2332.61 2538.21 2332.61H1456.45C1423.83 2332.61 1397.38 2306.1 1397.38 2273.39V883.282Z"/><path fill="#032068" fill-rule="evenodd" d="M1388.53 883.281C1388.53 845.675 1418.94 815.188 1456.45 815.188H2538.21C2575.73 815.188 2606.14 845.675 2606.14 883.281V2273.39C2606.14 2311 2575.73 2341.48 2538.21 2341.48H1456.45C1418.94 2341.48 1388.53 2311 1388.53 2273.39V883.281ZM1456.45 832.94C1428.72 832.94 1406.24 855.479 1406.24 883.281V2273.39C1406.24 2301.19 1428.72 2323.73 1456.45 2323.73H2538.21C2565.95 2323.73 2588.43 2301.19 2588.43 2273.39V883.281C2588.43 855.479 2565.95 832.94 2538.21 832.94H1456.45Z" clip-rule="evenodd"/><path fill="#032068" d="M1397.38 883.282C1397.38 850.577 1423.83 824.064 1456.45 824.064H2538.21C2570.84 824.064 2597.28 850.577 2597.28 883.282V1031.12H1397.38V883.282Z"/><path fill="#fff" d="M1584.26 927.59C1584.26 952.094 1564.44 971.959 1540 971.959C1515.55 971.959 1495.74 952.094 1495.74 927.59C1495.74 903.085 1515.55 883.221 1540 883.221C1564.44 883.221 1584.26 903.085 1584.26 927.59Z"/><path fill="#fff" d="M1731.79 927.59C1731.79 952.094 1711.97 971.959 1687.53 971.959C1663.09 971.959 1643.27 952.094 1643.27 927.59C1643.27 903.085 1663.09 883.221 1687.53 883.221C1711.97 883.221 1731.79 903.085 1731.79 927.59Z"/><path fill="#fff" d="M1879.32 927.59C1879.32 952.094 1859.5 971.959 1835.06 971.959C1810.61 971.959 1790.8 952.094 1790.8 927.59C1790.8 903.085 1810.61 883.221 1835.06 883.221C1859.5 883.221 1879.32 903.085 1879.32 927.59Z"/><path fill="#E7E8FF" fill-rule="evenodd" d="M2410.94 1235.71H1908.73V1217.96H2410.94V1235.71Z" clip-rule="evenodd"/><path fill="#E7E8FF" fill-rule="evenodd" d="M2410.94 1620.18H1908.73V1602.43H2410.94V1620.18Z" clip-rule="evenodd"/><path fill="#E7E8FF" fill-rule="evenodd" d="M2410.94 2032.1H1908.73V2014.35H2410.94V2032.1Z" clip-rule="evenodd"/><path fill="#E7E8FF" fill-rule="evenodd" d="M2410.94 1345.56H1908.73V1327.81H2410.94V1345.56Z" clip-rule="evenodd"/><path fill="#E7E8FF" fill-rule="evenodd" d="M2410.94 1730.02H1908.73V1712.27H2410.94V1730.02Z" clip-rule="evenodd"/><path fill="#E7E8FF" fill-rule="evenodd" d="M2410.94 2141.95H1908.73V2124.2H2410.94V2141.95Z" clip-rule="evenodd"/><path fill="#032068" d="M1570.87 1221.98C1570.87 1189.27 1597.32 1162.76 1629.94 1162.76H1740.08C1772.71 1162.76 1799.15 1189.27 1799.15 1221.98V1332.39C1799.15 1365.1 1772.71 1391.61 1740.08 1391.61H1629.94C1597.32 1391.61 1570.87 1365.1 1570.87 1332.39V1221.98Z"/><path fill="#032068" fill-rule="evenodd" d="M1559.06 1624.75C1559.06 1585.5 1590.8 1553.69 1629.94 1553.69H1740.08C1779.23 1553.69 1810.97 1585.5 1810.97 1624.75V1735.16C1810.97 1774.41 1779.23 1806.22 1740.08 1806.22H1629.94C1590.8 1806.22 1559.06 1774.41 1559.06 1735.16V1624.75ZM1629.94 1577.38C1603.85 1577.38 1582.69 1598.59 1582.69 1624.75V1735.16C1582.69 1761.33 1603.85 1782.54 1629.94 1782.54H1740.08C1766.18 1782.54 1787.34 1761.33 1787.34 1735.16V1624.75C1787.34 1598.59 1766.18 1577.38 1740.08 1577.38H1629.94Z" clip-rule="evenodd"/><path fill="#032068" fill-rule="evenodd" d="M1559.06 2027.52C1559.06 1988.28 1590.8 1956.46 1629.94 1956.46H1740.08C1779.23 1956.46 1810.97 1988.28 1810.97 2027.52V2137.94C1810.97 2177.18 1779.23 2209 1740.08 2209H1629.94C1590.8 2209 1559.06 2177.18 1559.06 2137.94V2027.52ZM1629.94 1980.15C1603.85 1980.15 1582.69 2001.36 1582.69 2027.52V2137.94C1582.69 2164.1 1603.85 2185.31 1629.94 2185.31H1740.08C1766.18 2185.31 1787.34 2164.1 1787.34 2137.94V2027.52C1787.34 2001.36 1766.18 1980.15 1740.08 1980.15H1629.94Z" clip-rule="evenodd"/><path fill="#fff" fill-rule="evenodd" d="M1778.77 1236.84L1653.07 1347.1L1595.46 1266.25L1624.28 1245.61L1659.17 1294.57L1755.45 1210.12L1778.77 1236.84Z" clip-rule="evenodd"/><path fill="#fff" d="M2729.44 1827.18C2547.32 1756.79 2454.67 1701.92 2350.09 1587C2339.72 1575.6 2321.69 1575.43 2311.08 1586.61C2191.83 1712.3 2096.69 1758.84 1935.86 1826.84C1925.67 1831.15 1919.35 1841.65 1920.24 1852.68C1952.71 2251.59 2041.05 2426.54 2319.49 2563.07C2326.57 2566.54 2335.05 2566.49 2342.09 2562.97C2600.79 2433.58 2710.26 2301.38 2745.87 1853.39C2746.77 1842.05 2740.04 1831.28 2729.44 1827.18Z"/><path fill="#032068" fill-rule="evenodd" d="M2304.86 1580.71C2318.9 1565.92 2342.7 1566.14 2356.43 1581.23C2459.82 1694.83 2551.15 1749.08 2732.53 1819.18C2746.7 1824.66 2755.62 1838.98 2754.42 1854.07C2736.58 2078.48 2700.18 2225.16 2634.96 2332.12C2569.58 2439.35 2475.87 2505.65 2345.93 2570.64C2336.5 2575.36 2325.2 2575.42 2315.72 2570.77C2175.42 2501.98 2082.15 2423.05 2020.12 2310.41C1958.27 2198.11 1927.96 2053.16 1911.7 1853.38C1910.5 1838.69 1918.89 1824.71 1932.52 1818.95C2092.98 1751.1 2186.82 1705.11 2304.86 1580.71ZM2343.75 1592.77C2336.73 1585.06 2324.49 1584.94 2317.3 1592.51L2311.08 1586.61L2317.3 1592.51C2196.83 1719.48 2100.4 1766.59 1939.2 1834.74C1932.44 1837.6 1928.19 1844.62 1928.79 1851.99C1945 2051.12 1975.09 2193.1 2035.14 2302.13C2095 2410.83 2185.12 2487.64 2323.27 2555.37C2327.93 2557.66 2333.59 2557.63 2338.25 2555.3C2467.01 2490.91 2557.39 2426.41 2620.32 2323.19C2683.42 2219.71 2719.55 2076.29 2737.32 1852.71C2737.93 1845.13 2733.39 1837.9 2726.34 1835.18C2543.49 1764.5 2449.53 1709.01 2343.75 1592.77Z" clip-rule="evenodd"/><path fill="#032068" d="M2278.35 2003.48H2165.11V2108.49H2278.35V2250.57H2382.96V2108.49H2496.54V2003.48H2382.96V1865.4H2278.35V2003.48Z"/></svg>