<svg xmlns="http://www.w3.org/2000/svg" enable-background="new 0 0 600 600" viewBox="0 0 600 600"><path fill="#ececec" d="M197.8888702,282.0848694c2.1600037,6.3999939,5.1200104,12.5299988,8.8600006,18.1600037
			c-8.8099976,11.7200012-14.6899872,25.6300049-16.9599915,40.1199951
			c-2.8399963,18.1499939,23.2700043,28.1000061,41.3300018,31.3900146
			c18.0699921,3.289978,32.0900116,0.7099915,50.1699982-2.460022
			c10.5400085-35.7200012,16.730011-72.7200012,18.3999939-109.9199829
			c0.2900085-6.4700012,0.3500061-13.3400116-2.9100037-18.9500122
			c-4.9497986-8.5177612-16.3597107-11.7011566-26.1000061-12.8699951
			c-0.8499756,10.6900024-4.9099731,20.3899994-15.3299866,24.2900085
			c-11.3609619,4.2764282-25.0141144-1.0187225-32.3699951-9.1500092
			c-3.9499969-4.3699951-5.4700012-8.8399963-6.3200073-13.9100037h-0.0200043
			c-2.1253662,2.3701782-5.8440094,2.9324036-8.6499939,1.8100128c-4.1156464,0.9488525-7.3392334,1.8362427-10.9900055,2.9099884
			C196.9150391,233.7144623,196.9429779,231.6399689,197.8888702,282.0848694z"/><path fill="#ececec" d="M197.6250458,233.3045349c-1.017807,0.3688049,2.1472015-2.8792267-41.5751953,45.6897583
		l-38.9594727-3.6731567c-1.4022675-0.1322021-2.5983353,1.0044556-2.5376892,2.4116211l1.1940079,27.7016907
		c0.0511475,1.1864929,0.9893799,2.143158,2.1746674,2.2173767l46.8455734,2.9326782l33.1356964-28.5133972"/><polygon fill="#ececec" points="368.639 195.405 361.499 254.545 283.999 278.775 277.529 228.785 365.519 205.415"/><path d="M523.2971191,223.4412384l-20.5068359-16.0639648c3.1382446-4.3338776,1.6118164-10.281311-0.3061523-15.175293
			c-6.411438-16.340744-18.0338135-29.3996887-25.2658691-34.0356445
			c-2.5690918-6.4438477-5.8701172-12.6381836-9.8166504-18.4135742c-3.25-4.7470703-6.4189453-7.0917969-9.3955078-6.9472656
			c-10.076355,0.4660797-5.1717834,13.7778931-0.0800781,22.5507813c0.3313293,0.5739594,1.1970215,0.0705109,0.8652344-0.5019531
			c-4.5263977-7.7980499-9.7385254-20.6333618-0.7392578-21.0507813c2.6035156-0.1171875,5.4833984,2.0722656,8.5244141,6.5136719
			c3.6523438,5.3452148,6.7387695,11.0551758,9.2036133,16.987793c-1.1557617-0.6386719-2.3769531-1.1933594-3.6655273-1.6157227
			c-8.7084961-2.8505859-19.4296875,1.9003906-25.0473633,4.9882813c-0.7888184,0.4355469-1.4973145,0.9018555-2.1401367,1.3911133
			l-19.5625-15.3237305l-24.5183105-62.35009l0.5529785-0.2211914c2.7553711-1.1035156,4.1000977-4.2431641,2.9980469-6.9990234
			l-2.2910156-5.7226563c-1.1025391-2.7548828-4.2412109-4.0986328-7-2.9980469l-54.512207,21.8208008
			c-0.1254883-0.1049805-0.2939453-0.1538086-0.4633789-0.1010742c-10.5114441,3.271431-20.4035034-6.8670959-16.8657227-17.2900391
			c0.2125244-0.6293106-0.735199-0.9452133-0.9467773-0.3232422c-1.730957,5.0478516-10.0258789,8.6347656-14.6542969,9.9589844
			c-5.027832,1.4375-10.6728516,0.2802734-14.7324219-3.0234375c-0.3461914-0.2834473-0.8556213-0.0015564-0.8129883,0.4355469
			c0.8586731,8.8544922,3.1393127,18.5283356,0.1296387,26.7709961
			c-7.9988098,7.6760712-18.9701233,10.9602051-30.0126953,8.5195313
			c-3.9455566-0.8657227-7.2419281-3.0922852-10.7966156-4.4575195c-0.7443848-1.1059418-1.384613-2.1836624-2.019043-3.6660156
			c-0.2571411-0.5957184-1.1564026-0.2304153-0.9267578,0.375c0.5595703,1.4736328-2.5205078,5.0439453-4.59375,6.9501953
			c-5.8999329,5.4404144-16.2744141,10.0128632-23.8037109,7.0449219c-0.3724823-0.1477203-0.7611237,0.1844025-0.6708984,0.5771484
			c1.5683594,6.7851486-4.6567383,13.3447189-11.2241211,14.9892502
			c-7.0175781,1.7568359-14.4067383-0.3046875-20.9257813-2.1220703c-0.3703918-0.1075897-0.7219849,0.2409668-0.6152344,0.6171875
			c2.1171875,7.4804688-0.8789063,18.0810547-6.8217773,24.1337891c-7.6015625,7.7431641-19.3813477,9.9726563-28.0102539,5.3037109
			c-7.6849365-4.1608429-12.3276672-12.6354828-20.9731445-15.4023438
			c-3.9409256-1.2587891-9.3764725-0.9560547-12.6416092,2.5634766c-0.449028,0.4841156,0.2818146,1.164032,0.7333984,0.6796875
			c2.9658203-3.1982422,7.9658203-3.4560547,11.6035233-2.2900391c8.220871,2.6296997,13.1568451,11.1900482,20.8022461,15.328125
			c9.1095581,4.9313812,21.3813019,2.4822235,29.199707-5.4814453c5.9492188-6.0605469,9.0493164-16.5302734,7.2866211-24.2568359
			c6.1606445,1.7109375,13.6469727,3.6367188,20.6054688,1.8974609c6.7382813-1.6875,13.125-8.28125,12.1191406-15.3085861
			c7.8061523,2.5110474,18.0587158-2.0439835,24.0136719-7.5380859c0.4658203-0.4277344,3.7270508-3.4863281,4.699707-6.0390625
			c7.8329315,14.8247757,27.5277863,17.4526367,38.9267426,5.7841797
			c9.2619629-9.4988861,6.3771973-21.4587479,5.0283203-33.9287109c4.215332,2.9628906,9.7446289,3.9287109,14.7080078,2.5048828
			c3.9448242-1.1279297,10.4624023-3.8710938,13.7138672-7.8164063
			c-0.9424438,9.5924072,7.0692444,17.1153412,16.3708496,15.9707031c-1.8453979,1.5811386-2.3283081,4.0072174-1.5031738,6.0693359
			l2.2905273,5.7226563c1.098114,2.744278,4.2311707,4.1055756,7,2.9980469l0.3718262-0.1489258l25.2141113,62.0776291
			l-3.2558594,26.9672852l-3.0175781,9.6821289l-87.5693359,23.2578125
			c-2.0577393-0.4646759-4.3924561-0.8779602-6.3496094-1.1367188c0.6223145-8.8945313-0.9770508-17.8974609-2.3671875-23.6987305
			c0.7166748-6.6719513-0.4590454-14.3821564-1.9980469-18.8935547c2.1254883-0.652832,4.0837402-1.5014648,5.2260742-3.6108398
			c2.4872437-4.5918274,0.9744263-11.2184601-4.4052734-14.4667969c-4.722168-2.8520508-13.6857758-6.2944336-19.1545258-3.7993164
			c0.699173-0.6416626,3.2559052-6.3267212,10.6159515-9.3422852c-2.9223633-1.4072266-6.069809-2.2431641-9.2819672-2.578125
			c-9.5910645-3.3891602-20.7248535-1.4589844-28.579834,5.0292969
			c-6.7563477,5.5820313-10.668457,14.1845703-10.6640625,22.8828125
			c-3.9202728-5.5102386-11.8185577-4.024765-14.7802734,1.5693359c-1.5737305,2.9736328-1.5256348,6.7885742,0.0380859,9.9912109
			c-0.3492889,5.5657806,4.1011353,13.2371674,8.0578613,16.9404297c-2.8612213,2.1954651-4.833847,6.4060974-4.3256836,11.6201172
			c-7.9179535-0.6761627-9.8551788,0.960144-12.3654785,3.8701172c-2.447525,2.8339844-3.9170074,3.7538757-8.1665039,1.8808594
			c-3.5218964-1.6224823-5.5000916-2.5584869-8.9611816-0.6967773l5.8474121-16.5473633
			c0.0922852-0.2607422-0.0444336-0.546875-0.3046875-0.6386719l-47.2949219-16.7138672
			c-0.2637024-0.0913544-0.5474777,0.0480499-0.6377029,0.3046875l-12.3017578,34.8115234
			c-0.0922852,0.2607422,0.0444336,0.546875,0.3046875,0.6386719l47.2949295,16.7138672
			c0.2698212,0.0932159,0.5493011-0.0532837,0.6376953-0.3046875l5.1875-14.6796875
			c8.6958008,2.1464386,12.4957123,13.4836121,15.4189453,19.5205078l-28.3984375,31.5459137l-38.708992-3.6494141
			c-1.7214661-0.1548157-3.1576462,1.234314-3.0844727,2.9316406l0.0339355,0.7866211
			c-11.8305817-1.2930603-23.779213-3.3330994-35.8347168-3.4165039c-2.605957-0.0068359-5.4887695,0.3076172-7.125,2.859375
			c-2.2102661,3.4466248-0.1675415,7.9920349,3.2480469,8.737793c-4.1071014,2.1278687-2.7071762,8.4896851,3.833252,8.6977539
			c-0.0043945,0.0029297-0.0090332,0.0048828-0.0134277,0.0078125c-3.5059967,2.3634949-2.8080978,6.0767517-0.125,7.4248047
			c1.4527588,0.7325439,2.850769,0.3819885,4.4204102,0.0361328c-2.9163513,2.8903503-0.4814072,6.4931641,3.5830078,6.4931641
			c1.0974197,0,2.1996536-0.2738342,3.4101563-0.5458984c5.2631836-1.1468506,19.4090347-5.5472107,25.6279297-6.53125
			l0.1357422,3.1513672c0.0536346,1.2481079,1.0059967,2.5923767,2.6425781,2.6953125l46.8457108,2.9326172
			c0.0102539,0.0009766,0.0209961,0.0009766,0.03125,0.0009766c0.1191406,0,0.2353516-0.0429688,0.3261719-0.1210938
			l32.5683594-28.0253906c2.1450195,6.1708984,4.9892578,11.9853516,8.4760742,17.2890625
			c-8.7529297,11.7402344-14.574707,25.5849609-16.8427734,40.0605469c-0.4902344,3.1337891-0.125,6.0449219,0.90625,8.7407227
			c-17.8860474,19.1249084-40.012207,39.6534424-44.9130859,65.8647461
			c-0.9150391,4.8808594,0.0087891,10.0791016,2.7456055,15.4492188c5.2826385,10.3388672,8.4963531,7.9210815,7.5839844,12.0527344
			c-0.2524414,1.1435547-0.5668945,2.5673828,0.5883789,3.3720703c0.9785309,0.6732178,2.0881653,0.0909119,2.7963867,0.4179688
			c0.2764587,0.1332397,0.4571533,0.330719,0.9428711,1.25c0.9225464,1.7747192,1.6246185,2.5780945,8.4482422,10.9936523
			c-6.3143921,9.727478-12.6560974,19.364502-17.8081055,29.2856445c-0.1596527,0.3068237,0.0344391,0.6807556,0.3789063,0.7265625
			c10.2256317,1.3476563,15.598587,1.4595032,27.3720703,3.972168c-3.7893066,0.7451172-7.2675781,3.2138672-9.0883789,6.6147461
			c-1.3830109,2.5839539-1.8316498,5.4820862-2.7998047,8.1679688
			c-2.8539429,7.9344788-10.3532257,11.7709656-14.7724609,19.0868835
			c-2.3981934,2.6401367-4.1638184,5.8535156-5.0366211,9.3120117c-1.6298828,6.4697266-0.9799805,14.1796875,5.1000977,17.8295898
			c8.0802307,4.8571777,19.7712708,3.8847656,28.7919922-5.6635742
			c13.592392-11.0101929,15.2767639-34.7200928,12.2268066-51.620575c8.7769928,2.6643066,13.7045288,4.8256226,15.6745605,5.578125
			c0.4044342,0.1617737,0.8048706-0.2341309,0.6552734-0.6376953c0.4281769-2.4059753,14.3516083-27.7223206,15.3730469-29.6621094
			c1.0715637-2.022644-0.1278839-3.255188,0.2368164-4.9189453c0.1933594-0.9072266,1.6865234-0.9697266,2.4487305-0.8691406
			c1.4065399,0.1788635,2.9068756,0.3642883,3.828125-0.7373047c0.9111328-1.1025391,0.4008789-2.4384766-0.0498047-3.6171875
			c-0.8056641-2.1105652-0.8951416-2.8036499,1.0966797-5.0283203c7.7924805-8.71875,13.487793-19.7060547,18.9956055-30.3320313
			c5.0400238-9.7211304,30.6603241-56.2589722,30.7309418-56.4472656c0.0048828-0.012207,0.0168457-0.0195313,0.0205078-0.0322266
			c9.1015625-30.8603516,14.9848633-62.7895508,17.4909668-94.9082031l61.6462402-19.2734528l-4.4633789,36.9697418
			c-1.5559082,12.8469238,11.2851257,22.6076355,23.2573242,17.6826172l139.5991211-57.4795074
			C531.2960205,247.4938812,533.5201416,231.4461365,523.2971191,223.4412384z M447.5495605,161.5535431
			c4.4077148-2.4238281,15.5927734-7.7529297,24.253418-4.9130859c4.8427734,1.5859375,8.7641602,5.1386719,11.6396484,8.0566406
			c7.7944336,7.9013672,14.0571289,17.5390625,18.1108398,27.8701172
			c1.8808594,4.8010406,3.3978577,10.5344238,0.1442871,14.5683594c-0.0036621,0.0043945-0.0090332,0.0063477-0.0124512,0.0107422
			c-0.0029297,0.0039063-0.003418,0.0087891-0.0063477,0.0126953c-2.7955933,3.4404755-8.2323914,4.5779266-12.9291992,6.3896484
			c-2.9503784,1.1320953-7.1719055,1.7574768-10.4672852,1.1640625c1.125-0.5439453,2.2929688-1.1855469,3.2182617-2.1289063
			c3.2245789-3.2866211,1.1928406-7.6305847-3.2202148-7.7558594c-1.7741699-0.0361328-3.4667969,0.5888672-4.9841309,1.2016602
			c0.6808167-2.0475311,2.114563-3.7489929,3.8444824-5.0385742c3.8614197-1.6790009,6.8172302-3.1698151,8.0551758-3.8007813
			c0.5541382-0.2816772,0.1880188-1.1259766-0.3935547-0.9169922c-2.53479,0.8947601-5.9434204,2.0995178-8.1728516,3.8496094
			c-2.1338196,0.9252777-4.7938843,2.0032959-7.7319336,3.0722656c-2.3271484,0.8452148-4.986084,1.6733398-7.4599609,1.2060547
			c1.0856934-0.5556641,2.1818848-1.1538086,3.1103516-2.0214844c4.4686584-4.162262,0.3256836-10.7289886-7.5673828-8.0390625
			c-0.6196594,0.2131348-0.3119507,1.1546936,0.3232422,0.9472656c1.9726563-0.6728516,3.6982422-0.78125,5.1269531-0.3232422
			c1.4487305,0.4628906,2.9335938,1.8261719,2.9682617,3.5332031c0.0214844,1.0742188-0.5371094,2.2226563-1.5332031,3.1513672
			c-0.9389648,0.8769531-2.1289063,1.4814453-3.2792969,2.0664063c-0.1462402,0.0742188-0.2316895,0.2124023-0.2578125,0.3623047
			c-2.675293-1.0405273-4.6616211-3.9443359-4.6000977-6.9140625c0.0682678-3.7749634,3.2704773-6.657608,6.487793-8.6611328
			c5.2646484-2.0009766,10.6254883-4.1621094,16.3876953-6.6074219c0.5725403-0.2413025,0.2692261-1.1199341-0.3457031-0.9365234
			c-5.3472595,1.6694031-11.4328308,3.5452118-16.4345703,6.6230469c-7.1386719,2.7306061-2.3092041,0.7813263-7.2729492,2.8642578
			c-2.8569336,1.2304688-5.5029297,2.25-7.9306641,2.2607422c1.0969238-0.6787109,2.2111816-1.4584961,3.1142578-2.4667969
			c1.402832-1.5673828,2.0463867-3.5205078,1.7216797-5.2255859c-0.5141602-2.7041016-3.2075195-4.3105469-5.6025391-4.4990234
			c-1.9384766-0.1572266-4.0285645,0.4091797-6.3591309,1.6982422c1.1785278-3.1640167,4.383728-4.5662231,7.4445801-5.9052734
			c6.2888184-2.752533-3.1962585,0.8457947,21.0078125-6.6660156c0.6199036-0.1916199,0.3518372-1.1369781-0.2910156-0.9570313
			c-1.6982422,0.5048828-3.6464844,1.0195313-5.7094727,1.5634766c-14.363739,3.7934113-11.6546326,4.0950928-14.8896484,4.0820313
			c1.1601563-0.4951172,2.1704102-1.4160156,2.8286133-2.6083984c2.1964722-3.9771729-0.5813904-8.2315521-4.7485352-8.5473633
			C445.8361816,162.6004181,446.6364746,162.0579376,447.5495605,161.5535431z M456.465332,192.2473907
			c-0.4223633-0.3305664-0.8452148-0.6611328-1.2678223-0.9916992c1.0747986-0.451004,1.3132019-0.6120453,3.5239258-1.4316406
			C457.8085938,190.6145782,457.0549316,191.4236603,456.465332,192.2473907z M444.958252,192.5374298
			c-3.9844055-0.8654633-6.4993286-5.1628876-5.8015137-9.0585938c0.4007263-0.0118866,3.2903442-2.2266541,6.6184082-1.9672852
			c1.9672852,0.1552734,4.2827148,1.5019531,4.6987305,3.6904297c0.2666016,1.4003906-0.2880859,3.0341797-1.484375,4.3701172
			C447.8679199,190.826004,446.3276367,191.7351837,444.958252,192.5374298z M476.8615723,214.3587189
			c-3.4378052-1.1223145-4.5479736-3.6663971-3.829834-7.2553711c0.4746704,0.1204071,2.8212891-1.3834534,5.220459-1.2753906
			c3.5357666,0.0980225,5.1549072,3.3840485,2.534668,6.0546875
			C479.3080444,213.3904266,477.0976257,214.0249481,476.8615723,214.3587189z M472.654541,204.9290314
			c-0.5998535-0.4716797-1.1982422-0.9394531-1.7978516-1.40625c1.1872559-0.4418945,2.3818359-0.9033203,3.5756836-1.3901367
			C473.6723633,203.004715,473.0751953,203.9475861,472.654541,204.9290314z M444.0175781,164.2268829
			c3.6335144-0.5755615,7.1144714,3.1665192,4.9924316,7.012207c-0.6450195,1.1679688-1.6821289,2.0263672-2.8447266,2.3525391
			c-0.265625,0.0751953-0.4208984,0.3505859-0.3461914,0.6162109c0.001709,0.0063477,0.0083008,0.0087891,0.0102539,0.0151367
			C441.3485718,173.4101715,440.5490417,167.9572296,444.0175781,164.2268829z M345.4396973,105.4969101
			c-2.2456055,0.8964844-4.8017578-0.1972656-5.699707-2.4414063l-2.2905273-5.7226563
			c-0.9006653-2.249649,0.1898193-4.7985382,2.440918-5.7001953l55.5874023-22.2509766
			c2.2541199-0.9008255,4.8052368,0.206131,5.699707,2.4414063l2.2910156,5.7226563
			c0.8979492,2.2441406-0.1972656,4.8017578-2.4414063,5.7001953
			C399.5796814,83.8242035,350.6829834,103.3980179,345.4396973,105.4969101z M197.7624664,233.7898712l0.0087891,0.0146484
			c3.3193359-0.9873047,6.7431641-1.8916016,10.1806641-2.6884766c2.704361,1.0118866,6.0951996,0.5901337,8.3754883-1.3339844
			c0.7568359,4.0634766,2.1899414,8.7226563,6.2807617,13.2490234c7.7661591,8.5840759,21.628891,13.527359,32.9160156,9.2822266
			c9.4459076-3.537262,13.953537-11.7579803,15.3408051-21.8305664c8.5800781,11.0693359,7.7687988,28.4028473-2.0043945,38.4536285
			c-10.0795898,10.3710938-28.644516,11.3154297-39.7304535,2.0253906
			c-4.6162567-3.8773193-8.4806824-9.4890137-14.4633789-11.2070313
			c-10.1750336-2.9134216-19.7355652,6.4528503-29.2248535-12.6631012
			C197.6932678,233.6264648,196.8161774,234.1499939,197.7624664,233.7898712z M245.4397125,150.5823517
			c-14.9446564,0.5691528-26.7862701,11.1314545-32.2861328,24.6689453
			c-0.6218262,1.5307617-1.1601563,3.1137695-1.5124512,4.7265625
			C210.7504272,161.6846161,226.9344788,147.0934601,245.4397125,150.5823517z M201.9504547,180.8509064
			c-2.987793,0.9609375-4.3735352,3.3129883-5.3908691,6.0673828c-0.1716309,0.4648438-0.3015137,0.9204102-0.4108887,1.3720703
			c-2.2550354-7.1579437,3.3592529-13.0056915,9.0952148-12.0073242c2.5244141,0.4433594,4.6274414,2.3544922,5.4443359,4.6533203
			c0.0727539,0.9033203,0.1884766,1.8037109,0.3491211,2.6992188c0.0229492,0.1264648,0.0927734,0.2397461,0.1887207,0.3164063
			c0.0014648,0.0727539-0.0031738,0.1450195-0.0004883,0.2177734
			C208.7673492,181.6790314,205.6318512,179.6673126,201.9504547,180.8509064z M204.6977692,207.810379
			c2.6183014,1.9773254,5.8137207,1.3977356,8.6877441,2.7431641c1.4645996,0.6860352,5.8374023,3.078125,6.0070801,4.9545898
			c-0.3911133-4.3266602-1.5979004-8.5737305-3.5178223-12.4707031c0.0849609-0.1313477,0.1682129-0.2641602,0.2541504-0.394043
			c2.1203613,1.0947266,5.0881348,0.25,6.4052734-1.8051758c1.458252-2.2753906,0.934082-5.5014648-0.9150391-7.4726563
			c3.4733887,1.4907227,7.0649414,3.0073242,10.8447266,3.0244141c3.2150879,0.2011719,6.3684082-1.4194336,8.3679199-3.8334961
			c2.2949219-2.7705078,2.1469727-5.4082031,2.3364258-8.9130859c5.6694336,2.6811523,12.1918945,3.4345703,18.3483734,2.2822266
			c10.2506409,20.874176,15.4842834,57.2828064-6.3439789,65.4511719
			c-10.9794006,4.1306152-24.4521179-0.8703156-31.8227539-9.0166016
			c-4.2167969-4.6660156-5.4707031-9.3212891-6.1977539-13.6582031c-0.0007324-0.0048828-0.0053711-0.0073242-0.0063477-0.0117188
			c-0.0682068-0.4217834-0.5973969-0.5563049-0.8789063-0.2392578c-1.7041016,1.9003906-4.6699219,2.6689453-7.3891602,1.9101563
			C200.2555237,228.0783081,197.3352814,213.0622253,204.6977692,207.810379z M162.8625641,241.2810822l-46.3520584-16.3808594
			l11.9682693-33.8691406l46.3520508,16.3808594L162.8625641,241.2810822z M169.1599274,226.4612579l0.3876953-1.0976563
			c1.1918945-0.9609375,3.0507813-1.6000977,4.105957-1.5688477c1.6636047,0.0187378,3.3366241,0.8744812,4.9936523,1.6376953
			c7.1458282,3.142868,8.1637421-1.6714935,11.2216797-4.0761719c2.5600586-2.0249023,6.1218262-1.9038086,9.8508301-1.5751953
			c0.6831055,4.3488922,2.9260712,8.5437317,6.7670898,10.6582031c-4.2364655,1.0144806-8.9294128,2.3595428-9.0314941,2.3955078
			c-1.4100189,0.4991302,0.4829102-0.9628601-12.4863281,13.2871094
			C181.9707336,239.8478241,178.1956329,228.7628937,169.1599274,226.4612579z M140.9604645,308.5935974
			c0.697998-2.8110352,3.894043-17.3291016-0.7648926-30.5917969l5.1362305,0.484375
			c1.0270996,2.3701172,8.3442383,20.2539063,0.3752441,30.4042969L140.9604645,308.5935974z M89.2707596,307.8592224
			c-1.4359894,0.3231812-2.8859787,0.7115479-4.2016602,0.4179688c-3.5997009-0.7997131-3.8039322-3.9178772-0.5869141-5.6191406
			c0.48246-0.2560425,0.6994553-0.2580872,4.4682617-0.7207031c0.6677704-0.0833435,0.5194855-1.0877075-0.1230469-0.9921875
			c-1.4989777,0.1306152-2.8803635,0.1599426-4.0458984,0.5234375c-3.7480392,0.5558167-4.7742844,1.2374878-6.262207,0.4912109
			c-1.2358398-0.6220703-1.8447266-1.7666016-1.6699219-3.1396484c0.1196289-0.9414063,0.7426758-1.7802734,1.9042969-2.5625
			c1.5158463-1.0223999,5.4400864-1.8183289,7.1577148-2.0898438c0.6569901-0.1057739,0.4923859-1.0932922-0.15625-0.9882813
			c-4.0987091,0.6506653-7.9661331,2.5074463-11.4067383-0.1035156c-1.2919922-0.9804688-1.6254883-2.8544922-0.7749023-4.3583984
			c0.8392487-1.4866028,3.5982742-1.8174133,4.0004883-2.0668945c3.0477142-0.2471313,5.5241013-0.5231323,8.1762695-0.730957
			c0.6549149-0.0510864,0.5864944-1.0415344-0.078125-0.9960938c-9.4394608,0.7369385-10.4730453,1.2719116-11.8618164,0.53125
			c-2.611908-1.3900757-3.3314896-4.6062622-1.8413086-6.9316406c1.3740234-2.1425781,3.9291992-2.4082031,6.2763672-2.3984375
			c7.2886963,0.0485229,14.5323792,0.8228455,21.736084,1.7060547c-4.1320801,2.5004883-6.7370605,4.3789063-9.8859863,7.8310547
			c-3.4466476,3.7829285-2.5218658,8.0497131,1.0019531,8.6601563c1.3697281,0.2405701,2.6023483-0.2459717,3.8461914-0.8359375
			c3.0332031-1.4404297,5.1318359-3.1796875,6.7128906-5.5830078c2.0947266,2.5429688,4.809082,4.0244141,8.2753906,4.5195313
			c0.6657791,0.0830688,0.7888489-0.8977661,0.1416016-0.9902344c-3.4882813-0.4980469-6.0498047-1.9902344-8.0610352-4.6962891
			c-0.2345963-0.315094-0.6643677-0.2380371-0.8310547,0.0419922c-1.5151367,2.5449219-3.5708008,4.3349609-6.6665039,5.8046875
			c-1.0283203,0.4882813-2.1245117,0.9521484-3.246582,0.7548828c-3.1665726-0.5541992-2.8939133-4.3031311-0.4335938-7.0019531
			c3.1713867-3.4775391,5.7749023-5.3173828,10.0727539-7.8984375c0.1665039-0.1000977,0.2480469-0.2817383,0.2358398-0.4628906
			c5.8500061,0.7271423,8.9447479,1.1377563,12.9870605,1.5771484l0.9377441,21.7470703
			C108.6986694,302.3009949,94.4733734,306.7235718,89.2707596,307.8592224z M160.7497711,446.8182068
			c-0.8016663-1.5170288-1.362854-1.7972107-2.8447266-1.7246094c-0.4599609,0.0166016-0.859375,0.0390625-1.1303711-0.1484375
			c-0.9810638-0.6847839,0.1983948-2.7674255,0.0200195-4.0966797c-0.4044037-3.0062256-3.255249-1.9269104-7.8706055-10.9599609
			c-2.6337891-5.1689453-3.5268555-10.1523438-2.6533203-14.8115234
			c4.8471375-25.9215088,26.1895294-45.6477966,44.3544922-65.0410156
			c4.902832,10.793457,20.7680664,17.9243164,36.2871094,21.3769531
			c-3.8105164,5.4577637-7.015686,10.0186768-10.9331055,15.6113281
			c-15.8271484,14.7905273-35.2155762,32.6933594-35.409668,32.8730469
			c-0.2691956,0.2483215-0.1877441,0.6948242,0.152832,0.8310547l9.630127,3.8662109
			c-2.2369385,3.4279785-12.2202454,18.8317871-21.3867188,32.9521484
			C165.6871033,453.2830505,163.8634949,451.6925354,160.7497711,446.8182068z M190.9113922,423.7415466l-9.0820313-3.6459961
			c3.0883789-2.8540039,17.911377-16.5551758,31.3962402-29.1328125
			C205.7053375,401.7264099,198.1316071,412.7054138,190.9113922,423.7415466z M182.8313141,544.236145
			c-17.4971924,19.0097656-43.8765411,0.8711548-29.0297852-19.3457031
			c7.5450897-8.8443604,11.3144684-11.0384521,13.5874023-17.3554382c0.9700623-2.6903992,1.4227905-5.5746765,2.7407227-8.0341797
			c1.9311523-3.6074219,5.8823242-6.0869141,9.9697266-6.3095703c-0.5399475,2.5545349-2.1732788,4.9863892-0.3515625,8.1186523
			c-0.5648804,0.5761108-1.7570648,10.4326172-9.9560547,22.433075c-0.9155579,1.342041-2.018631,2.8966675-2.5800781,4.4208984
			c-1.4873352,4.0352783,0.5608215,7.6269531,4.8203125,7.6269531c4.9343414,0,7.3359222-4.4692993,8.871582-9.125
			c2.6884918-8.1459351,3.8561554-15.1621399,4.1000977-22.1874695c0.0009766-0.0288086-0.0097656-0.0541992-0.0134277-0.0820313
			c0.6411133,0.0009766,1.2744141-0.1103516,1.8640137-0.3613281c2.0332031-0.8623047,2.6333008-2.4863281,3.2138672-4.0576172
			c0.1808929-0.4896851,1.300415-2.4815063,1.7587891-3.4316406
			C194.5104523,511.6671143,193.295105,532.963501,182.8313141,544.236145z M177.9206696,510.3753357
			c0.4975586,0.8730469,0.9555664,1.7187195,1.3818359,2.554657c-1.328125,0.8100586-2.5957031,1.7739258-3.7246094,2.8251953
			C176.4350739,513.9959106,177.2194977,512.2034302,177.9206696,510.3753357z M168.6560211,527.3894653
			c1.9199219-0.7753906,4.3081055-1.2856445,6.6560059-1.4716797c1.1192474,3.2427368,2.2743835,4.7721558,2.5319824,5.2275391
			c-0.6252441,0.9887695-1.3710938,1.8686523-2.3105469,2.546875
			C171.5553589,536.5635376,165.3365936,533.7976074,168.6560211,527.3894653z M169.4568024,526.0300903
			c1.2933044-1.9992676,2.3599701-3.2821045,4.4836426-7.1108398c0.0437012,1.8486328,0.4284668,3.9594727,1.0583496,6.027832
			C173.0839996,525.1165161,171.1511383,525.4812622,169.4568024,526.0300903z M178.4089508,530.1624146
			c-0.7993164-1.2509766-1.5073242-2.7299805-2.0700684-4.3017578c2.5136261-0.0963745,3.3661499,0.168335,3.722168,0.1523438
			C179.6065826,527.4091187,179.1302032,528.7786255,178.4089508,530.1624146z M180.3371735,525.133606
			c-0.453537-0.350647-3.6441803-0.2927856-4.3212891-0.2587891c-0.7741699-2.4633789-1.1977539-5.0209961-1.0683594-7.0605469
			c1.3286133-1.5053711,3.0161133-2.8862305,4.8024902-3.9853516c0.8210449,1.6875,1.5419922,3.3925781,2.2553711,5.3222656
			C181.5378571,521.1028442,180.9831696,523.0896606,180.3371735,525.133606z M182.4069977,517.4016724
			c-0.5634766-1.4301758-1.1464844-2.7592773-1.7897949-4.0766602c0.9064941-0.5004883,1.8254395-0.925293,2.7302246-1.2451172
			C183.1027985,513.8518677,182.7900543,515.6194458,182.4069977,517.4016724z M183.4768219,511.0579529
			c-0.4790192-0.1082458-2.8735046,1.1358948-3.3059082,1.3739929c-0.1293182-0.2530518-1.5927887-3.0681152-1.8225098-3.2372742
			c0.8178711-2.2573242,1.5239258-4.5600586,2.1020508-6.9091797c0.947998,1.0688477,2.2478027,1.7851563,3.5852051,2.0244141
			C183.9394989,504.6033936,184.0229034,506.6325073,183.4768219,511.0579529z M189.1296539,499.6316833
			c-0.6411133,1.7353516-1.140625,2.8359375-2.6665039,3.4833984c-2.1196289,0.9042969-4.9433594-0.3427734-6.0419922-2.6630859
			c-1.2902222-2.7424927,0.1879883-4.4656982,0.7084961-7.4018555c3.3562012,0.7739258,6.690918,1.6459961,9.9995117,2.6157227
			C190.6431427,496.7714233,189.3787689,498.9567871,189.1296539,499.6316833z M208.2248688,500.5535583
			c-26.091507-10.6342773-46.8577271-11.7480774-56.4213867-13.0107422
			c3.6774902-7.0058594,7.8818359-13.7661133,12.1069336-20.3427734
			c3.0998535,0.0449219,34.2478027,0.9648438,51.4267578,19.0336914
			C210.2778473,495.7454529,208.6550446,499.1976013,208.2248688,500.5535583z M250.1291656,425.4559021
			c-5.4794922,10.5703125-11.1450195,21.5009766-18.8530273,30.125c-2.2691956,2.5336914-2.2076874,3.6386414-1.2856445,6.0517578
			c0.4682617,1.2265625,0.7163086,2.0146484,0.215332,2.6210938c-0.3980255,0.4753113-0.97612,0.6334229-2.9345703,0.3847656
			c-1.5507813-0.1992188-3.25,0.2412109-3.5507813,1.6494141c-0.4153595,1.8912354,0.7146454,3.0426636-0.144043,4.6640625
			c-0.8471375,1.6087646-3.4886169,6.3717957-7.7470703,14.3574219
			c-6.0107422-6.2255859-13.6408691-10.4257813-21.2080078-13.2548828l39.5473633-73.2421875
			c0.1313477-0.2431641,0.0405273-0.5458984-0.2021484-0.6767578c-0.2436523-0.1308594-0.546875-0.0419922-0.6777344,0.2021484
			l-39.6142578,73.3666992c-13.0830078-4.7011719-25.7231445-5.390625-29.1303711-5.4897461
			c38.5724487-59.8563538,38.45755-58.8053589,63.4296875-94.574707c19.1360626,4.0584717,33.1292877,1.7041931,52.366684-1.6708984
			C277.8291626,374.4516907,253.4780884,418.9960632,250.1291656,425.4559021z M283.8493652,278.297699
			c-0.6256104,0.1972961-0.3375854,1.1547241,0.2988281,0.9550781l2.9521484-0.9228516
			c3.6801147,9.985321,6.1761475,20.4959717,6.8483887,25.8027344c0.0862427,0.6825256,0.4493408,1.4342651,0.6955566,2.2163086
			c-3.1386719,21.1328125-7.730957,42.0561523-13.7475586,62.5073242
			c-19.5049133,3.3669128-33.3748016,5.9508057-52.9914398,1.7475586c-0.0307617-0.0092773-0.0600586-0.015625-0.0915527-0.019043
			c-19.5739746-4.2138672-40.0107422-14.2949219-37.5307617-30.1425781
			c1.8620605-11.8857422,6.1520996-23.3378906,12.5075684-33.5292969
			c6.6689148,9.3318176,18.2966614,12.8829956,28.6188965,9.7294922
			c-0.7719879,0.169281-11.1680145-3.2453613-19.2670898-11.1279297c-1.0732727-1.0450745-3.5613251-5.0885925-4.9626465-5.0576172
			c0.0756836-0.1572266,0.0847168-0.3398438-0.0144043-0.4882813c-3.6459961-5.4892578-6.5981445-11.5356445-8.7773438-17.9726563
			c-0.0136719-0.0893555-0.0429688-0.1772461-0.1064453-0.2509766c-0.1801758-0.2109375-0.4970703-0.2324219-0.7050781-0.0527344
			l-32.9814453,28.3808594l-17.6960449-1.1079102c7.3676758-10.2260742,1.1774902-26.5683594-0.4294434-30.3720703
			l9.5336914,0.8989258c0.1538086,0.0048828,0.3125-0.0458984,0.418457-0.1630859l28.3017578-31.4389801
			c9.6867371,19.2284393,19.9489441,10.0431061,29.6674805,12.8256989
			c5.7184753,1.6420593,9.3754578,7.0494385,14.0966797,11.0117188c11.6382446,9.7547913,30.4568329,8.8465271,41.0898285-2.09375
			c10.340332-10.6333008,10.980957-29.1474762,1.4472656-40.5459137c0.0303345-0.3032227,0.0771484-0.622467,0.1083984-0.9707031
			c2.6244202,0.3536835,6.4166565,1.1242065,6.5249023,1.1513672l87.9892578-23.3701172
			c0.4871826-0.128952,0.2783813-0.3843689,1.8320313-5.0917969l-6.4421387,53.3583984
			C351.9429321,257.0081787,292.5011292,275.5927124,283.8493652,278.297699z M518.9182129,251.5027618l-139.5991211,57.4795074
			c-11.266449,4.6345825-23.3488464-4.5510254-21.8837891-16.6376953
			c1.5183716-12.5768738,13.1775818-109.1513062,14.9702148-124.0000153
			c0.0097656-0.0839844-0.0014648-0.1689453-0.0332031-0.2480469l-25.260498-62.1923752l52.8059082-21.1376953l24.565918,62.4706955
			c0.0327148,0.0830078,0.0869141,0.15625,0.1572266,0.2109375l19.4931641,15.269043
			c-0.8700256,0.7680206-1.0888062,1.0087891-1.3085938,1.3457031c-3.6917114,4.5128021-2.0715637,10.9934845,3.8720703,11.2602539
			c-2.6226196,1.1068115-4.8201599,2.1309052-6.6411133,4.0732422c-0.6621094-0.5234375-1.3278809-1.043457-1.9875488-1.5615234
			c-1.9899902-1.5600586-11.7299805-10.8598633-13.9199219-9.1699219c-1.0500488,0.8198242-1.4099121,2.2197266-1.7800293,3.5
			c-3.5800781,12.1401367-15.4499512,21.3398438-28.1000977,21.7797852
			c-1.7998047,0.0600586-3.6398926-0.0297852-5.3798828,0.3798828c-6.1992798,1.655838-5.0774841,12.0707397-5.7700195,17.7602539
			c-3.9475098,32.6585236-5.3057251,43.9954987-7.8999023,65.3999176
			c-1.130127,9.3398438,8.2199707,16.4501953,16.9299316,12.8701172l104.6999512-43.1098785
			c8.7299805-3.6000977,10.3400879-15.2700195,2.8999023-21.1000977
			c-0.1462708-0.1143341-13.6324768-10.6767578-13.7390137-10.7602539c1.1022949-0.2387695,2.1672363-0.5449219,3.0993652-0.9023438
			c4.4962158-1.7383881,9.9749756-2.9111481,13.0546875-6.3256836l20.5170898,16.0717773
			C532.2885742,231.7523651,530.2202148,246.855011,518.9182129,251.5027618z M401.2731934,231.8386993
			c-6.4448853-2.7563324-6.3877258-12.0079346,0.1708984-14.6386719c4.0603638-1.6183472,8.6812134,0.3669128,10.300293,4.4101563
			C414.3690491,228.1669464,407.6922302,234.5892487,401.2731934,231.8386993z M408.9099121,232.2332306
			c2.9841919-1.7427673,4.6630859-5.1416626,4.3632813-8.4638672c6.3753967-5.4973602,16.5636292-3.1762543,19.7910156,4.8808594
			c2.5620117,6.4277344-0.5742188,13.75-6.9912109,16.3212891
			C417.3461609,248.4635925,408.0724487,241.4267883,408.9099121,232.2332306z"/><path d="M262.402832,210.8347931c3.0263672,0.0498047,5.4987793-1.0913086,5.5227051-2.5488281
			s-2.4099121-2.6791992-5.4360352-2.7285156c-3.026123-0.0498047-5.4987793,1.0917969-5.5227051,2.5488281
			C256.9428711,209.563797,259.376709,210.7854767,262.402832,210.8347931z"/><path d="M241.0874176,212.0496368c3.1289063-1.4799805,5.1855469-3.6943359,4.5935059-4.9458008
			s-3.6083984-1.0664063-6.7373047,0.4135742s-5.1855469,3.6943359-4.5935059,4.9458008
			S237.9585114,213.5296173,241.0874176,212.0496368z"/><path d="M243.5774078,215.2024689c0.3388672-0.7963867-0.0319824-1.7163086-0.828125-2.0551758
			c-0.7963867-0.3388672-1.7163086,0.0317383-2.0551758,0.828125s0.0319824,1.7163086,0.828125,2.0551758
			S243.2385406,215.9988556,243.5774078,215.2024689z"/><path d="M262.8000488,211.7449493c-0.7961426-0.3388672-1.7163086,0.0322266-2.0551758,0.828125
			c-0.3388672,0.7963867,0.0319824,1.7163086,0.828125,2.0551758c0.7963867,0.3388672,1.7163086-0.0317383,2.0551758-0.828125
			C263.967041,213.0042267,263.5964355,212.0838165,262.8000488,211.7449493z"/><path d="M259.6955566,220.8562775c-0.5853577-0.3014374-1.0462036,0.5874176-0.4550781,0.890625
			c1.4268188,0.7281799,1.4049072,2.8109741-0.050293,3.5039063c-0.5937805,0.2817688-0.169281,1.1891937,0.4296875,0.9023438
			C261.8153992,225.1110687,261.8680115,221.9663544,259.6955566,220.8562775z"/><path d="M243.9621735,226.1951447c0.1773071-0.6369324-0.7850952-0.9082031-0.9628906-0.2695313
			c-0.6889648,2.4697266,0.4707031,5.2890625,2.6977539,6.5585938c2.2384949,1.2736816,5.2509003,0.8244324,7.0175781-1.0205078
			c0.456955-0.4756012-0.2619171-1.1699371-0.7216797-0.6914063c-1.4423828,1.5029297-3.9902344,1.875-5.8007813,0.8427734
			S243.4021149,228.2019806,243.9621735,226.1951447z"/><path d="M207.5280914,219.5818634c0.0392914,0.2984467-0.195282,0.7366638-0.4433594,0.6953125
			c-0.6983948-0.0475464-0.7971954,1.0019531,0.0283203,1.0019531c0.8785553,0,1.5208435-0.9432983,1.4072266-1.8251953
			c-0.1781769-1.3812256-1.6985626-2.1535034-1.7587891-3.1474609c-0.0541229-0.9019928,1.0817413-1.3735657,1.6791992-0.6923828
			c0.4358521,0.4954529,1.1884613-0.1618195,0.7509766-0.6601563c-1.2203217-1.3892365-3.5409241-0.4368896-3.4282227,1.4130859
			C205.8510742,217.8196869,207.3986359,218.5674896,207.5280914,219.5818634z"/><path d="M180.1086578,434.3582458c-7.0507813-3.0722656-14.1835938-11.1943359-13.4125977-18.9609375
			c0.9130859-9.1943359,5.4570313-17.9189453,12.4672852-23.9355469c0.2094727-0.1806641,0.2333984-0.4960938,0.0537109-0.7050781
			c-0.1806641-0.2099609-0.4956055-0.2314453-0.7050781-0.0546875
			c-7.2036133,6.1835938-11.8730469,15.1484375-12.8110352,24.5957031
			c-0.8154297,8.2148438,6.6362305,16.765625,14.0083008,19.9765625
			C180.3149719,435.5384216,180.7156982,434.6230774,180.1086578,434.3582458z"/><path d="M400.6845703,148.966629c4.0229492,0.2519531,7.4885254-2.8051758,7.7404785-6.828125
			c0.251709-4.0229492-2.8054199-7.4887695-6.8286133-7.7402344c-4.0229492-0.2519531-7.4882813,2.8051758-7.7402344,6.828125
			S396.661377,148.7146759,400.6845703,148.966629z"/><path d="M388.9995117,123.5911484c0.4118652-6.5771484-4.5861816-12.2426758-11.1633301-12.6542969
			s-12.2426758,4.5864258-12.6542969,11.1635742c-0.4118652,6.5766525,4.5861816,12.2421799,11.1633301,12.6542892
			C382.9223633,135.1663361,388.5878906,130.1682892,388.9995117,123.5911484z"/><path d="M102.4670486,125.7478867c9.3563461,0.886467,19.5879745-4.6424484,23.4443359-12.3916016
			c1.9891281-3.9980698,2.2617569-7.1130753,5.2846756-10.6162109c3.1318359-3.6289063,6.9775391-6.9013672,11.4301758-9.7275391
			c0.1865234-0.1181641,0.2617188-0.3383789,0.2109375-0.5415039c10.0170593-2.6554413,20.5700684-2.7195816,38.7973633-4.3183594
			c2.3742676-0.2084961,3.1704102-0.6816406,3.0473633-1.2714844c1.7703247,0.5603561,1.5769653,0.5463867,1.7338867,0.5463867
			c0.4663086,0,0.6764832-0.5827866,0.3232422-0.8818359c-5.7446289-4.8632813-5.5576172-14.0673828-2.090332-19.8056641
			c10.0475769-16.6250076,44.140564-17.6965599,61.3325195-4.4863281c0.2109375,0.1611328,0.5102539,0.1298828,0.6831055-0.0693359
			c12.9205475-14.964016,35.9583893-15.8343925,49.9579926-1.8544922c0.2763062,0.2794609,0.7515259,0.1390228,0.840332-0.2392578
			c0.9951172-4.2529297,4.2973633-7.9667969,8.4135742-9.4619141c5.9794922-2.1769485,13.0224304,0.610405,17.612793,4.9511719
			c1.612793,1.5048828,2.2841797,2.9091797,3.2138672,4.8535156c0.6001587,0.784874,0.9632874,0.4891396,1.0644531,0.027832
			c3.2425537-4.698864,14.6490784-11.5003242,24.1408691-11.5266113
			c9.0915527-0.0303345,17.1413879,4.6080055,24.3347168,10.0388184c0.2636719,0.3842773,0.5236816,0.7724609,0.7734375,1.1699219
			h0.0004883c2.0559998,3.198204,3.7770691,7.391449,4.5449219,11.7451172
			c0.1170349,0.6639099,1.0986328,0.470108,0.984375-0.1738281c-5.503418-31.2256012-48.1855774-37.5851555-55.4331055-12.7294922
			c-0.7456055-1.5068359-1.503418-2.7939453-2.9394531-4.1337891c-4.9250488-4.6568489-12.3426514-7.4516029-18.6391602-5.1621094
			c-4.1523438,1.5078125-7.534668,5.1171875-8.8198242,9.3349609c-14.4373169-13.686142-37.3315125-12.665287-50.4980316,2.1533203
			c-17.9334869-13.4163666-52.1860199-11.896946-62.4233398,5.0449219c-3.4223633,5.6640625-3.8701172,14.1142578,0.7705078,19.5625
			c-0.0654297-0.0195313-0.1308594-0.0400391-0.1958008-0.0595703c-0.2661133-0.0830078-0.5444336,0.0673828-0.625,0.3310547
			c-0.0009766,0.003418,0,0.0068359-0.0009766,0.0097656c-12.8874969-3.7695389-27.4641418-2.1506424-40.958252,6.2651367
			c-0.001709-0.0024414-0.0014648-0.0058594-0.0031738-0.0083008c-0.1479492-0.2333984-0.4580078-0.3027344-0.6904297-0.1542969
			c-4.5351563,2.8779297-8.4550781,6.2148438-11.6508789,9.9169922c-3.1557617,3.6572189-3.4755936,6.9125061-5.4233475,10.8251953
			c-3.7246094,7.4853516-13.5888672,12.6865234-22.4541016,11.8408203c-0.2758789-0.0126953-0.519043,0.1757813-0.5449219,0.4501953
			C101.9904861,125.4773788,102.1921463,125.7215195,102.4670486,125.7478867z"/><path d="M170.688736,125.4471054c2.2973633-1.0253906,5.1459961-0.6367188,7.0869141,0.9619141
			c0.5085297,0.4202957,1.1474762-0.3499069,0.6357422-0.7714844c-2.2270508-1.8349609-5.4946289-2.2783203-8.1298828-1.1044922
			s-4.4912109,3.8994064-4.6181641,6.7822189c-0.103714,2.3460236,0.7284546,5.0007324-0.7758789,6.4150391
			c-1.7549744,1.6478729-4.710083,0.1547546-7.2719727,0.1435547c-4.9495697,0.0767517-7.9748688,5.5502167-5.387207,9.7832031
			c0.3400116,0.5567169,1.1994019,0.0436707,0.8535156-0.5214844c-0.9833984-1.609375-1.0332031-3.7998047-0.1235352-5.4511719
			c0.909668-1.6523438,2.7875977-2.78125,4.6728516-2.8105469c2.2059326-0.0736542,5.6900024,1.700058,7.940918-0.4150391
			c1.9235077-1.807312,0.9868011-4.7591553,1.090332-7.0996094
			C166.7732086,128.8455353,168.3908844,126.4695663,170.688736,125.4471054z"/><path d="M214.4235992,75.5340195c-1.2197266,1.4066849-1.328125,3.3671875-2.2900391,4.7041016
			c-1.5683594,2.1826172-5.0922852,2.0449219-7.2739258,0.5595703c-2.3930664-1.6298828-3.7680664-4.4179688-4.980957-6.8779297
			c-0.121582-0.2480469-0.4208984-0.3486328-0.6694336-0.2275391c-0.2475586,0.1220703-0.3496094,0.421875-0.2270508,0.6689453
			c1.2045898,2.4443359,2.7036133,5.4853516,5.3144531,7.2626953c2.6717834,1.8201447,6.7470245,1.8445358,8.6484375-0.8017578
			c1.0427246-1.4503174,1.2029724-3.4437256,2.234375-4.6337891c0.9580078-1.1074219,2.7319336-1.5449219,4.5224609-1.1152344
			c1.6992188,0.4082031,3.1938477,1.4296875,4.6396484,2.4189453c0.5497284,0.3711929,1.1086273-0.4532852,0.5644531-0.8261719
			c-1.4492188-0.9912109-3.0922852-2.1142578-4.9707031-2.5654297
			C217.7907867,73.5857773,215.6247711,74.1482773,214.4235992,75.5340195z"/><path d="M277.0583496,80.494957c1.2060547-3.1113281,0.5722656-6.9179688-1.578125-9.4716797
			c-2.1494141-2.5537109-5.7905273-3.8222656-9.0644531-3.1689453c-0.6482544,0.1310577-0.4512024,1.1115723,0.1972656,0.9804688
			c2.9243164-0.5888672,6.1806641,0.5507813,8.1025391,2.8330078s2.4887695,5.6845703,1.4101563,8.4658203
			C275.8856812,80.7549286,276.8208008,81.1092453,277.0583496,80.494957z"/><rect width="10.695" height="14.53" x="152.168" y="206.002" transform="rotate(-70.537 157.515 213.267)"/><rect width="24.772" height="4.033" x="129.976" y="213.361" transform="rotate(-70.54 142.362 215.377)"/><rect width="11.726" height="4.033" x="130.762" y="204.955" transform="rotate(-70.54 136.625 206.972)"/></svg>