<svg xmlns="http://www.w3.org/2000/svg" enable-background="new 0 0 8000 8000" viewBox="1169.964 1281.359 5660.073 5437.283"><path fill="#97b0e8" d="M2373.923 6471.492h3342.486c525.06-463.177 856.351-1140.896 856.351-1896.05 0-1396.031-1131.59-2527.622-2527.622-2527.622-1395.885 0-2527.627 1131.591-2527.627 2527.622 0 755.153 331.337 1432.873 856.412 1896.05z" opacity=".1"/><ellipse cx="3327.98" cy="3980.133" fill="#97b0e8" opacity=".1" rx="1900.74" ry="2294.363"/><ellipse cx="4521.574" cy="3737.712" fill="#97b0e8" opacity=".1" rx="1830.191" ry="2209.204"/><path fill="none" stroke="#97b0e8" stroke-dasharray="18.87" stroke-miterlimit="10" stroke-width="7.548" d="M3123.278 4769.547c-271.535-290.201-260.096-787.969.26-1088.24s723.176-388.843 1091.004-238.343c367.828 150.5 629.281 514.464 692.291 906.863 42.42 264.178-3.325 551.33-169.148 761.311-220.263 278.919-600.601 371.646-954.693 402.152-299.576 25.809-607.713 18.819-891.768-79.794-284.055-98.613-542.921-298.898-659.865-575.911-165.647-392.375-9.498-869.301 298.298-1163.681 370.817-354.655 950.11-472.737 1430.158-291.521s836.801 652.651 880.751 1163.879c24.976 290.513-51.708 598.932-252.351 810.505-201.292 212.258-502.056 304.358-794.05 322.02-482.314 29.172-1003.65-151.726-1264.031-558.764-283.677-443.456-188.964-1051.127 105.092-1487.769 404.053-599.977 1170.899-937.429 1883.957-815.86s1329.191 702.889 1478.149 1410.732c65.775 312.565 41.149 655.858-130.816 925.025-193.043 302.158-540.313 469.629-884.803 569.085-501.308 144.73-1046.567 175.021-1541.642 10.229-495.075-164.792-931.827-541.257-1099.835-1035.25-187.324-550.789-17.072-1184.67 354.438-1632.375s919.554-723.385 1486.29-854.797c437.447-101.433 936.861-110.816 1292.285 163.633 263.52 203.484 402.188 529.008 488.368 850.6 130.176 485.769 163.876 1008.012 17.016 1489-175.384 574.408-612.027 1061.375-1160.037 1307.117-548.01 245.741-1197.704 248.969-1752.011 17.783-374.982-156.395-707.814-418.06-935.067-754.849s-345.818-748.619-316.51-1153.85c49.052-678.22 514.331-1286.55 1115.946-1603.484 507.911-267.571 1112.75-346.009 1672.111-216.846s1068.574 464.847 1407.749 928.019c276.914 378.149 441.872 852.011 387.805 1317.58-45.509 391.886-243.722 757.393-518.71 1040.282s-623.392 487.142-990.961 630.453c-559.322 218.072-1183.395 299.122-1765.839 153.672-582.444-145.45-1115.508-533.981-1366.823-1079.175-306.455-664.812-159.584-1472.085 220.766-2097.563 220.698-362.933 520.353-684.1 891.682-890.361 371.329-206.26 817.366-290.875 1230.321-191.393 412.955 99.482 783.72 394.196 935.323 790.989 123.313 322.75 98.369 687.106-2.212 1017.646s-272.241 634.21-442.566 934.814" opacity=".3"/><path fill="#6ad3c9" d="M6365.796 3633.163v2502.103c0 185.591-150.637 336.226-336.226 336.226H2060.7c-185.786 0-336.225-150.635-336.225-336.226V3633.163c0-185.591 150.439-336.227 336.225-336.227h3968.87c185.589.001 336.226 150.637 336.226 336.227z"/><path fill="#45c8bc" d="M1724.475 6019.343v115.923c0 185.591 150.439 336.226 336.226 336.226h3968.871c185.588 0 336.226-150.635 336.226-336.226v-115.923H1724.475zM6365.796 4193.906v-560.743c0-185.591-150.637-336.227-336.226-336.227H2060.7c-185.786 0-336.225 150.636-336.225 336.227v560.743h4641.321zM2063.43 4393.297h520.218v172.651H2063.43zM2063.43 4834.278h321.144v172.651H2063.43zM2063.43 5275.258h520.218v172.651H2063.43zM2063.43 5716.238h408.736v172.651H2063.43z"/><path fill="#f3f3f1" d="M2719.308 4393.297h1490.289v172.651H2719.308zM2063.43 6157.219h2146.166v88.198H2063.43zM2063.43 3522.272h2428.251v446.299H2063.43zM2719.308 4834.278h1490.289v172.651H2719.308zM2719.308 5275.258h1490.289v172.651H2719.308zM2719.308 5716.238h1490.289v172.651H2719.308zM4648.114 4333.769h1380.932v1839.675H4648.114z"/><path fill="#fb6072" d="M5685.525 3745.291c0 191.322-155.615 347.197-346.938 347.197-191.325 0-346.937-155.875-346.937-347.197 0-191.324 155.612-346.936 346.937-346.936 191.323 0 346.938 155.612 346.938 346.936z"/><path fill="#f3f3f1" d="M5547.941 3680.228c0 20.792-2.468 40.554-6.996 59.493-1.442 7-3.297 13.792-5.559 20.585-44.88 143.893-196.799 228.089-196.799 228.089s-145.541-80.695-193.713-218.825c-2.467-6.793-4.734-13.586-6.377-20.585-5.971-21.615-9.263-44.67-9.263-68.756 0-60.522 49.197-109.72 109.718-109.72 44.262 0 82.342 25.938 99.636 63.609 17.289-37.671 55.374-63.609 99.631-63.609 60.525-.001 109.722 49.198 109.722 109.719z"/><path fill="#2d2c2b" d="M4761.319 5579.153c-19.331-78.243 4.758-160.763 38.288-234.054 33.529-73.291 76.854-142.691 99.271-220.107 30.607-105.693 20.197-219.074 42.276-326.871 23.016-112.367 83.127-218.056 172.845-289.518 89.718-71.462 209.254-106.587 322.396-87.745 113.142 18.842 217.124 93.652 264.59 198.069 47.132 103.684 37.793 225.205 78.684 331.506 32.101 83.452 93.148 152.426 133.231 232.351 66.979 133.554 70.614 297.227 9.631 433.623l-1161.212-37.254z"/><path fill="#fb6072" d="M6029.046 5657.337v516.106H4648.114v-523.466c34.53-31.89 72.086-57.553 112.467-74.348 17.359-7.36 35.474-13.022 53.971-16.606 107.749-21.324 225.5-32.268 334.378-37.741 12.646-.567 25.288-1.133 37.556-1.511 3.396-.189 6.791-.378 9.998-.378 15.664-.564 31.139-.942 46.047-1.32 12.453-.375 24.533-.564 36.23-.564 5.851-.188 11.697-.188 17.359-.188 141.155-1.133 242.675 5.471 242.675 5.471s13.586 1.887 36.796 6.038c67.368 11.513 215.875 40.196 347.779 85.672 37.179 13.02 73.22 27.173 105.676 42.835z"/><path fill="#fffffd" d="M5575.607 5528.773c-3.858 83.964-90.601 142.153-213.304 142.153-125.639 0-213.46-60.967-213.46-148.173v-1.388c212.225-10.188 389.876 1.388 389.876 1.388s13.582 2.007 36.888 6.02z"/><path fill="#ffad97" d="M5538.719 5522.753c0 148.019-352.833 148.019-352.833 0l22.072-123.63 24.231-135.825 20.682-115.45h218.862l66.986 374.905z"/><path fill="#ffbda6" d="M5729.491 4987.64c-3.552 23.461-12.194 47.383-29.944 63.127-17.75 15.589-49.701 17.75-68.839 3.858-34.419 135.514-104.799 290.167-246.18 304.368-148.941 14.973-227.505-156.815-267.172-302.979-18.521 14.046-46.613 10.033-64.824-4.477-18.521-14.971-28.245-38.277-32.875-61.583-5.248-25.774-4.784-54.021 9.26-76.246 11.421-18.366 34.109-30.406 54.793-27.165-2.161-16.825-3.086-26.547-3.086-26.547 186.139-46.149 181.974-240.007 181.974-240.007 57.261 167.002 401.143 227.659 401.143 227.659s-.772 14.817-3.242 39.668c20.527-4.167 43.988 6.79 56.336 24.695 14.97 21.453 16.667 49.698 12.656 75.629z"/><ellipse cx="5220.614" cy="4947.405" fill="#2d2c2b" rx="28.656" ry="28.658"/><path fill="#2d2c2b" d="M5146.97 4861.984h133.184v27.028H5146.97z" transform="rotate(-19.144 5213.632 4875.848)"/><ellipse cx="5518.587" cy="4947.405" fill="#2d2c2b" rx="28.656" ry="28.658"/><path fill="#2d2c2b" d="M5512.129 4808.906h27.028v133.184h-27.028z" transform="rotate(-70.871 5525.296 4875.352)"/><path fill="#2d2c2b" d="M5374.188 4944.308c6.057 13.829 8.051 29.102 7.276 44.201-.479 14.969-4.763 30.648-10.282 43.779-5.287 12.983-7.103 21.021-2.129 31.005 4.616 9.213 16.126 16.497 31.263 15.365-11.062 10.692-33.411 9.876-45.705-4.509-6.253-6.643-10.119-15.911-10.325-25.624-.187-9.571 2.7-17.844 5.366-24.729 5.581-13.196 10.002-24.947 14.055-38.23 3.872-13.105 6.973-26.617 10.481-41.258zM5311.207 5156.135c46.865 17.949 100.475 17.583 147.092-1.002-4.915 18.113-10.179 36.861-19.055 53.397-8.875 16.536-22.123 31.401-39.443 38.627-17.321 7.226-38.998 5.517-52.819-7.179-9.555-8.777-14.395-21.435-18.615-33.703-5.315-15.451-12.805-34.391-17.16-50.14z"/><path fill="none" stroke="#000" stroke-miterlimit="10" stroke-width="3.774" d="M5227.396 5286.767c26.993 38.252 70.093 64.74 116.414 71.542 46.321 6.803 95.216-6.174 132.068-35.05M5668.453 4927.181c4.758-7.451 16.534-7.394 23.427-1.858 6.894 5.536 9.83 14.611 11.344 23.321 3.427 19.706 1.286 40.349-6.111 58.932-3.07 7.713-7.401 15.472-14.638 19.542s-17.941 2.833-21.932-4.447M5067.763 4916.573c-10.117-.378-19.295 7.197-23.392 16.456s-3.975 19.834-2.613 29.867c3.273 24.115 13.42 47.258 28.94 66.004 6.502 7.854 16.62 15.55 26.002 11.557"/><path fill="#fb6072" d="M2852.138 2655.31c0 24.748-2.937 48.271-8.327 70.812-1.717 8.332-3.924 16.416-6.616 24.502-53.419 171.271-234.244 271.486-234.244 271.486s-173.233-96.049-230.571-260.46c-2.937-8.086-5.635-16.171-7.591-24.502-7.107-25.727-11.025-53.17-11.025-81.839 0-72.037 58.558-130.596 130.594-130.596 52.684 0 98.01 30.873 118.594 75.711 20.578-44.838 65.91-75.711 118.588-75.711 72.041 0 130.598 58.56 130.598 130.597z"/><path fill="#fff" d="M2843.812 2726.122c-1.717 8.332-3.924 16.416-6.616 24.502h-78.903l-33.32-69.097-41.162 69.097h-33.081l-67.872 108.3-73.752-191.607-94.33 94.333h-42.395c-2.937-8.086-5.635-16.171-7.591-24.502h39.691l114.185-113.937 69.338 181.073 49.25-78.163h32.59l57.338-96.294 46.552 96.294h70.078z"/></svg>